<svg width="24" height="49" viewBox="0 0 24 49" fill="none" xmlns="http://www.w3.org/2000/svg">
<path d="M8.1 2.90002C8.1 3.00002 8.1 3.00002 8.1 3.10002L7.4 4.30002L7.9 4.20002C8 4.20002 8 4.20002 8.1 4.30002C8.1 4.40002 8.1 4.40002 8.1 4.50002L7.4 5.80002L7.8 5.70002C7.9 5.70002 7.9 5.70002 8 5.80002C8 5.90002 8 5.90002 8 6.00002L7.3 7.20002H7.7C7.8 7.20002 7.8 7.20002 7.8 7.30002C7.8 7.40002 7.8 7.40002 7.8 7.50002L7.2 8.70002H7.4C7.5 8.70002 7.5 8.70002 7.5 8.80002C7.5 8.90002 7.5 8.90002 7.5 9.00002L7 10.3L7.5 10.2C7.6 10.2 7.6 10.2 7.7 10.3C7.7 10.4 7.7 10.4 7.7 10.5L7 12.1L7.6 12C7.7 12 7.7 12 7.8 12.1C7.8 12.2 7.9 12.2 7.8 12.3L7.2 13.8L7.5 13.7C7.5 13.7 7.6 13.7 7.7 13.8C7.7 13.9 7.7 13.9 7.7 14L7.4 15C7.4 14.9 7.5 14.9 7.5 14.8C7.7 14.6 7.9 14.4 8.1 14.2C8.2 14.2 8.2 14.1 8.3 14.1L8.8 13L8.2 13.1C8.1 13.1 8.1 13.1 8 13C8 12.9 8 12.9 8 12.8L8.7 11.2L8.2 11.3C8.1 11.3 8.1 11.3 8 11.2C8 11.1 8 11.1 8 11L8.6 9.70002H8.3C8.2 9.70002 8.2 9.70002 8.1 9.60002C8.1 9.50002 8.1 9.50002 8.1 9.40002L8.7 8.20002H8.3C8.2 8.20002 8.2 8.20002 8.1 8.10002C8.1 8.00002 8.1 8.00002 8.1 7.90002L8.7 6.70002L8.4 7.00002C8.3 7.00002 8.3 7.00002 8.2 6.90002C8.2 6.80002 8.2 6.80002 8.2 6.70002L8.9 5.40002L8.4 5.50002C8.3 5.50002 8.3 5.50002 8.2 5.40002C8.1 5.30002 8.1 5.30002 8.2 5.20002L8.9 4.00002L8.4 4.10002C8.3 4.10002 8.3 4.10002 8.2 4.00002C8.2 3.90002 8.2 3.90002 8.2 3.80002L8.8 2.70002H8.4C8.3 2.70002 8.3 2.70002 8.2 2.60002C8.2 2.60002 8.2 2.50002 8.2 2.40002C8.1 2.40002 8 2.40002 7.9 2.50002C7.8 2.50002 7.7 2.50002 7.7 2.60002H7.6L7.4 3.00002L8 2.80002C8 2.80002 8.1 2.80002 8.1 2.90002Z" fill="black"/>
<path d="M9.3 2.3001C9.3 2.4001 9.3 2.4001 9.3 2.5001L8.7 3.5001H9.2C9.3 3.5001 9.3 3.5001 9.4 3.6001C9.4 3.7001 9.4 3.7001 9.4 3.8001L8.7 5.0001L9.2 4.9001C9.3 4.9001 9.3 4.9001 9.4 5.0001C9.4 5.1001 9.4 5.1001 9.4 5.2001L8.7 6.5001L9.1 6.4001C9.2 6.4001 9.2 6.4001 9.3 6.5001C9.3 6.6001 9.3 6.6001 9.3 6.7001L8.7 8.0001H9.1C9.2 8.0001 9.2 8.0001 9.2 8.1001C9.2 8.2001 9.2 8.2001 9.2 8.3001L8.6 9.5001H8.8C8.9 9.5001 8.9 9.5001 8.9 9.6001C8.9 9.7001 8.9 9.7001 8.9 9.8001L8.5 11.0001L9 10.9001C9.1 10.9001 9.1 10.9001 9.2 11.0001C9.2 11.1001 9.2 11.1001 9.2 11.2001L8.5 12.8001L9.1 12.6001C9.2 12.6001 9.2 12.6001 9.3 12.7001C9.3 12.8001 9.3 12.8001 9.3 12.9001L8.9 13.9001C9.1 13.8001 9.3 13.8001 9.5 13.8001C9.6 13.8001 9.7 13.8001 9.7 13.8001C9.8 13.8001 9.9 13.8001 9.9 13.8001V2.1001C9.6 2.1001 9.3 2.1001 9 2.2001H8.9H9.1C9.2 2.2001 9.3 2.2001 9.3 2.3001Z" fill="black"/>
<path d="M7.19961 2.6001C3.89961 3.8001 1.59961 6.9001 1.59961 10.6001C1.59961 14.0001 3.59961 16.9001 6.39961 18.3001C6.39961 17.5001 6.59961 16.7001 6.99961 15.9001C6.99961 15.9001 6.99961 15.9001 6.89961 15.9001C6.89961 15.8001 6.79961 15.8001 6.89961 15.7001L7.49961 14.1001L7.19961 14.2001C7.09961 14.2001 7.09961 14.2001 6.99961 14.1001C6.99961 14.0001 6.99961 14.0001 6.99961 13.9001L7.59961 12.5001L6.99961 12.6001C6.89961 12.6001 6.89961 12.6001 6.79961 12.5001C6.79961 12.5001 6.69961 12.4001 6.79961 12.3001L7.49961 10.7001H6.99961C6.89961 10.7001 6.89961 10.7001 6.79961 10.6001C6.79961 10.5001 6.69961 10.5001 6.79961 10.4001L7.29961 9.1001H6.99961C6.89961 9.1001 6.89961 9.1001 6.89961 9.0001C6.89961 8.9001 6.89961 8.9001 6.89961 8.8001L7.49961 7.6001H6.99961C6.99961 7.6001 6.89961 7.6001 6.79961 7.5001C6.79961 7.4001 6.79961 7.4001 6.79961 7.3001L7.39961 6.1001L6.99961 6.2001C6.89961 6.2001 6.89961 6.2001 6.79961 6.1001C6.79961 6.0001 6.79961 6.0001 6.79961 5.9001L7.49961 4.6001L6.99961 4.7001C6.89961 4.7001 6.89961 4.7001 6.79961 4.6001C6.79961 4.5001 6.79961 4.5001 6.79961 4.4001L7.49961 3.2001L6.99961 3.3001C6.89961 3.3001 6.89961 3.3001 6.79961 3.2001C6.79961 3.1001 6.79961 3.1001 6.79961 3.0001L7.19961 2.6001Z" fill="black"/>
<path d="M13.0994 2.70007C12.9994 2.70007 12.9994 2.70007 12.9994 2.70007H12.8994L12.6994 3.00007L13.1994 2.90007C13.2994 2.90007 13.2994 2.90007 13.3994 3.00007C13.3994 3.10007 13.3994 3.10007 13.3994 3.20007L12.6994 4.40007L13.1994 4.30007C13.2994 4.30007 13.2994 4.30007 13.3994 4.40007C13.3994 4.50007 13.3994 4.50007 13.3994 4.60007L12.6994 5.90007L13.0994 5.80007C13.1994 5.80007 13.1994 5.80007 13.2994 5.90007C13.2994 6.00007 13.2994 6.00007 13.2994 6.10007L12.6994 7.30007H13.0994C13.1994 7.30007 13.1994 7.30007 13.1994 7.40007C13.1994 7.50007 13.1994 7.50007 13.1994 7.60007L12.5994 8.90007H12.7994C12.8994 8.90007 12.8994 8.90007 12.8994 9.00007C12.8994 9.10007 12.8994 9.10007 12.8994 9.20007L12.3994 10.5001L12.8994 10.4001C12.9994 10.4001 12.9994 10.4001 13.0994 10.5001C13.0994 10.6001 13.0994 10.6001 13.0994 10.7001L12.3994 12.3001L12.9994 12.2001C13.0994 12.2001 13.0994 12.2001 13.1994 12.3001C13.1994 12.4001 13.1994 12.4001 13.1994 12.5001L12.5994 14.0001L12.8994 13.9001C12.9994 13.9001 12.9994 13.9001 13.0994 14.0001C13.0994 14.1001 13.0994 14.1001 13.0994 14.2001L12.5994 15.6001L12.7994 15.5001C12.8994 15.5001 12.8994 15.5001 12.9994 15.5001C13.0994 15.6001 13.0994 15.6001 13.0994 15.7001L12.6994 17.0001C12.6994 17.0001 12.6994 17.1001 12.7994 17.1001H12.9994C13.0994 17.1001 13.0994 17.1001 13.1994 17.2001C13.1994 17.3001 13.1994 17.3001 13.1994 17.4001L12.9994 17.6001C12.9994 17.6001 12.9994 17.6001 12.9994 17.7001C12.9994 17.8001 13.0994 18.0001 13.1994 18.1001C13.2994 18.3001 13.2994 18.4001 13.3994 18.5001C16.3994 17.2001 18.4994 14.2001 18.4994 10.7001C18.5994 7.00007 16.2994 3.90007 13.0994 2.70007Z" fill="black"/>
<path d="M11.0992 14.2001L11.4992 13.2001L10.8992 13.3001C10.7992 13.3001 10.7992 13.3001 10.6992 13.2001C10.6992 13.1001 10.5992 13.1001 10.6992 13.0001L11.3992 11.4001L10.8992 11.5001C10.8992 11.5001 10.7992 11.5001 10.6992 11.4001C10.6992 11.3001 10.6992 11.3001 10.6992 11.2001L11.2992 9.9001H10.9992C10.8992 9.9001 10.8992 9.9001 10.8992 9.8001C10.8992 9.7001 10.8992 9.7001 10.8992 9.6001L11.4992 8.4001H10.9992C10.8992 8.4001 10.8992 8.4001 10.8992 8.3001C10.8992 8.2001 10.8992 8.2001 10.8992 8.1001L11.4992 6.9001H11.3992C11.2992 6.8001 11.2992 6.7001 11.2992 6.5001V7.0001H11.1992C10.9992 7.0001 10.9992 7.0001 10.8992 6.9001C10.8992 6.8001 10.8992 6.8001 10.8992 6.7001L11.5992 5.3001L11.0992 5.4001C10.9992 5.4001 10.9992 5.4001 10.8992 5.3001C10.8992 5.2001 10.8992 5.2001 10.8992 5.1001L11.5992 3.9001H11.0992C10.9992 3.9001 10.9992 3.9001 10.8992 3.8001C10.8992 3.7001 10.8992 3.7001 10.8992 3.6001L11.4992 2.5001H11.0992C10.9992 2.5001 10.9992 2.5001 10.8992 2.4001C10.8992 2.3001 10.8992 2.3001 10.8992 2.2001H10.9992C10.6992 2.2001 10.4992 2.1001 10.1992 2.1001V13.8001C10.4992 13.9001 10.6992 13.9001 10.8992 14.1001C10.9992 14.1001 10.9992 14.1001 11.0992 14.2001Z" fill="black"/>
<path d="M12.4994 16.3L12.5994 15.9L12.3994 16V16.1L12.4994 16.3Z" fill="black"/>
<path d="M11.9992 14.8001L12.0992 15.1001C12.0992 15.2001 12.0992 15.2001 12.1992 15.3001C12.1992 15.3001 12.1992 15.4001 12.1992 15.5001L12.6992 14.1001L12.3992 14.2001C12.2992 14.2001 12.2992 14.2001 12.1992 14.1001C12.1992 14.0001 12.1992 14.0001 12.1992 13.9001L12.7992 12.5001L12.1992 12.6001C12.0992 12.6001 12.0992 12.6001 11.9992 12.5001C11.9992 12.4001 11.9992 12.4001 11.9992 12.3001L12.6992 10.6001L12.1992 10.7001C12.0992 10.7001 12.0992 10.7001 11.9992 10.6001C11.9992 10.5001 11.9992 10.5001 11.9992 10.4001L12.5992 9.10007H12.2992C12.1992 9.10007 12.1992 9.10007 12.1992 9.00007C12.1992 8.90007 12.1992 8.90007 12.1992 8.80007L12.7992 7.50007H12.3992C12.2992 7.50007 12.2992 7.50007 12.1992 7.40007C12.1992 7.30007 12.1992 7.30007 12.1992 7.20007L12.7992 6.00007L12.3992 6.10007C12.2992 6.10007 12.2992 6.10007 12.1992 6.00007C12.1992 5.90007 12.1992 5.90007 12.1992 5.80007L12.8992 4.40007L12.3992 4.50007C12.2992 4.50007 12.2992 4.50007 12.1992 4.40007C12.1992 4.30007 12.0992 4.30007 12.1992 4.20007L12.8992 3.00007L12.3992 3.10007C12.2992 3.10007 12.2992 3.10007 12.1992 3.00007C12.1992 2.90007 12.1992 2.90007 12.1992 2.80007L12.4992 2.30007H12.3992H12.2992C12.1992 2.30007 12.0992 2.20007 11.8992 2.20007C11.8992 2.30007 11.8992 2.30007 11.8992 2.40007L11.3992 3.40007H11.8992C11.9992 3.40007 11.9992 3.40007 12.0992 3.50007C12.0992 3.50007 12.0992 3.60007 12.0992 3.70007L11.3992 5.00007L11.8992 4.90007C11.9992 4.90007 11.9992 5.00007 12.0992 5.00007C12.0992 5.10007 12.0992 5.10007 12.0992 5.20007L11.3992 6.50007L11.7992 6.40007C11.8992 6.40007 11.8992 6.40007 11.9992 6.50007C11.9992 6.60007 11.9992 6.60007 11.9992 6.70007L11.2992 8.00007H11.6992C11.7992 8.00007 11.7992 8.00007 11.7992 8.10007C11.7992 8.20007 11.7992 8.20007 11.7992 8.30007L11.1992 9.50007H11.3992C11.4992 9.50007 11.4992 9.50007 11.4992 9.60007C11.4992 9.60007 11.4992 9.70007 11.4992 9.80007L11.1992 11.0001L11.6992 10.9001C11.7992 10.9001 11.7992 10.9001 11.8992 11.0001C11.8992 11.1001 11.8992 11.1001 11.8992 11.2001L11.1992 12.8001L11.7992 12.7001C11.8992 12.7001 11.8992 12.7001 11.9992 12.8001C12.0992 12.9001 12.0992 12.9001 11.9992 13.0001L11.3992 14.4001C11.3992 14.4001 11.4992 14.4001 11.4992 14.5001H11.6992C11.7992 14.5001 11.7992 14.5001 11.8992 14.6001C11.8992 14.7001 11.9992 14.7001 11.8992 14.8001H11.9992Z" fill="black"/>
<path d="M12.9996 19.7C12.8996 19.4 12.6996 19.2 12.5996 19C12.6996 19.2 12.7996 19.5 12.9996 19.7Z" fill="black"/>
<path d="M10.8992 34.6C9.49922 33.8 8.69922 31.5 7.89922 29.5C7.59922 28.7 7.29922 27.9 7.09922 27.4C6.29922 25.9 5.29922 25.4 3.89922 25.5C3.79922 25.5 3.49922 25.5 3.29922 25.4L2.99922 25.6C2.69922 25.8 2.39922 26 2.19922 26.3C1.99922 26.5 1.89922 26.7 1.69922 26.9C2.39922 28.4 3.69922 31.2 4.79922 33.1C6.39922 35.8 8.09922 38.4 10.2992 38.3C11.0992 38.3 11.5992 38 11.8992 37.6C12.2992 37 12.0992 36.2 11.9992 35.8C11.6992 35.1 11.0992 34.8 11.0992 34.8C11.0992 34.7 10.9992 34.7 10.8992 34.6ZM11.4992 36.2C11.6992 36.5 11.5992 36.9 11.1992 37.1L10.4992 37.6C10.1992 37.8 9.79922 37.7 9.59922 37.5L8.69922 36.7C8.49922 36.5 8.39922 36.3 8.59922 36C8.99922 35.3 9.59922 34.9 10.3992 34.8C10.5992 34.8 10.7992 34.9 10.8992 35.1L11.4992 36.2Z" fill="black"/>
<path d="M13.8994 19.3C13.9994 19.4 13.9994 19.5 14.0994 19.6C15.6994 22.4 18.0994 25.2 21.0994 27.8C21.0994 27.8 21.1994 27.9 21.2994 27.9C20.9994 26.6 20.6994 25.4 20.3994 24.3C19.7994 22 19.4994 18 18.9994 13.9C18.0994 16.3 16.2994 18.3 13.8994 19.3Z" fill="black"/>
<path d="M13.4996 34.4C13.7996 34.4 14.0996 34.4 14.2996 34.2C14.5996 34.1 14.6996 33.9 14.7996 33.6C14.9996 32.6 13.7996 30.6 13.3996 30V29.9V29.8C12.8996 28.8 11.6996 27.6 10.5996 26.6C9.39957 25.4 8.09957 24.1 7.49957 22.8L7.39956 22.6C7.09956 21.9 6.69957 20.7 6.49957 19.3L5.99957 19.1C5.89957 19.1 5.89956 19 5.79956 19C6.09956 19.6 6.19957 19.9 6.19957 19.9C2.99957 20.1 3.39957 23.8 3.59957 24.8C3.69957 24.8 3.79956 24.8 3.79956 24.8C5.59956 24.7 6.69957 25.3 7.69957 27C7.99957 27.5 8.29957 28.3 8.59957 29.2C9.19957 30.9 9.99957 32.9 10.9996 33.8L12.7996 34.2C13.0996 34.4 13.2996 34.4 13.4996 34.4ZM11.6996 33.3C11.4996 33.1 11.3996 32.8 11.5996 32.6C12.0996 31.9 12.6996 31.5 13.4996 31.4C13.6996 31.4 13.8996 31.5 13.9996 31.7L14.4996 32.7C14.6996 33 14.5996 33.4 14.2996 33.6L13.5996 34.1C13.2996 34.3 12.8996 34.3 12.5996 34.1L11.6996 33.3Z" fill="black"/>
<path d="M5.5998 2.20008C5.4998 2.10008 5.3998 2.00008 5.2998 1.90008C3.9998 0.500081 1.4998 0.900081 1.2998 4.90008C1.2998 5.40008 1.2998 5.90008 1.3998 6.60008C2.2998 4.70008 3.6998 3.20008 5.5998 2.20008Z" fill="black"/>
<path d="M14.5 2.20005C15.6 2.80005 16.6 3.60005 17.3 4.50005C16.8 2.90005 16.2 1.60005 15.4 1.00005C13.3 -0.699949 12.1 0.200051 11.5 1.30005C11.6 1.30005 11.7 1.30005 11.8 1.40005C11.9 1.30005 13.4 1.60005 14.5 2.20005Z" fill="black"/>
<path d="M21.6996 29.7V29.6C21.2996 29.3 20.9996 29.1 20.8996 29C20.7996 29 20.7996 28.9 20.7996 28.9L20.6996 28.8C20.5996 28.8 20.5996 28.7 20.4996 28.6C17.3996 25.9 14.9996 23.1 13.2996 20.2C13.1996 20.1 13.1996 20 13.0996 19.8C9.79964 20.4 9.69964 18.5 9.49964 17.4C9.39964 16.2 11.1996 15.4 11.1996 15.4C11.0996 15.3 10.9996 15.2 10.7996 15.1C10.6996 15 10.3996 14.9 10.2996 14.9C9.99964 14.8 9.59964 14.7 9.29964 14.9C8.99964 14.9 8.49964 15.5 8.39964 15.6C8.39964 15.7 7.99964 16 7.69964 17C7.69964 17.1 7.59964 17.3 7.59964 17.4C7.59964 17.4 7.59964 17.4 7.59964 17.5C7.49964 17.7 7.49964 17.9 7.49964 18.2C7.39964 19.6 7.69964 20.9 7.99964 21.8C7.99964 21.9 7.99964 21.9 8.09964 22C8.19964 22.3 8.29964 22.5 8.39964 22.7C8.59964 23.1 8.89964 23.5 9.19964 24C9.39964 24.3 9.69964 24.6 9.99964 24.9C10.3996 25.3 10.8996 25.8 11.2996 26.2C11.3996 26.3 11.5996 26.5 11.6996 26.6C11.7996 26.7 11.9996 26.9 12.0996 27C12.6996 27.6 13.1996 28.2 13.6996 28.8C13.8996 29.1 14.0996 29.4 14.2996 29.7C14.2996 29.7 14.3996 29.9 14.5996 30.1C14.6996 30.3 14.7996 30.5 14.9996 30.7C14.9996 30.7 14.9996 30.7 14.9996 30.8C15.0996 31.1 15.2996 31.3 15.3996 31.6C15.4996 31.8 15.5996 32.1 15.6996 32.3C15.7996 32.5 15.7996 32.7 15.8996 32.9C15.9996 33.3 15.9996 33.6 15.8996 33.9C15.8996 34.1 15.7996 34.2 15.7996 34.3C15.5996 34.7 15.2996 35 14.8996 35.2C14.5996 35.4 14.0996 35.4 13.6996 35.4C13.4996 35.4 13.3996 35.4 13.1996 35.4C13.4996 36.1 13.5996 37.2 13.0996 38.1C12.7996 38.6 12.0996 39.3 10.6996 39.3H10.4996C7.79964 39.3 5.79964 36.4 4.19964 33.6C3.49964 32.3 2.49964 30.5 1.39964 28.1C0.299641 30.7 0.699642 33.8 1.09964 36.8C1.49964 39.8 4.19964 44.9 5.29964 47.1C5.59964 47.7 6.29964 48.1 6.99964 48.1L21.9996 47.5C22.9996 47.5 23.6996 46.7 23.7996 45.7C23.6996 39.6 22.6996 34.2 21.6996 29.7Z" fill="black"/>
</svg>
