<svg width="28" height="48" viewBox="0 0 28 48" fill="none" xmlns="http://www.w3.org/2000/svg">
<path d="M24.0996 12.1L23.5996 12.7L23.3996 12.8C22.5996 13.1 21.7996 13.5 21.5996 13.7C21.4996 13.8 21.2996 14 21.0996 14.2C21.1996 14.5 21.4996 15 21.6996 15.2C21.7996 15.3 21.9996 15.5 22.1996 15.6C22.4996 15.8 22.7996 15.9 22.8996 15.8C23.0996 15.6 23.0996 15.4 23.0996 15.4C23.0996 15.4 23.9996 15.4 23.7996 14.7C23.7996 14.7 24.1996 14.4 23.8996 13.9C23.8996 13.9 24.1996 13.8 24.1996 13.5C24.5996 13.1 25.0996 12.7 25.2996 12.4C25.3996 12.2 25.4996 12.1 25.6996 11.9C25.2996 12.1 24.7996 12.1 24.0996 12.1Z" fill="black"/>
<path d="M3.89936 25.6C2.89936 29.3 4.89936 30.9 2.49936 34.2C2.09936 34.7 3.29936 34.3 4.49936 35C4.99936 35.3 5.09936 35.5 5.29936 36C5.39936 36.2 5.59936 36.2 5.59936 36C5.69936 35.8 5.69936 35.6 5.69936 35.5C5.69936 35.3 5.79936 35 5.89936 34.7C6.19936 34 6.19936 33.2 6.29936 32.9C6.29936 32.8 6.59936 32.2 6.79936 31.4C5.29936 29.8 4.19936 27.7 3.89936 25.6Z" fill="black"/>
<path d="M18.0996 33.3001C17.9996 33.3001 17.8996 33.4001 17.8996 33.4001H17.7996L17.5996 33.5001C17.4996 33.5001 17.2996 33.6001 17.1996 33.6001C17.0996 33.6001 16.3996 33.8001 16.2996 33.8001C16.2996 33.8001 16.2996 33.8001 16.1996 33.8001H16.0996C15.9996 34.0001 15.8996 34.0001 15.7996 34.0001H15.6996C15.3996 34.0001 15.2996 34.1001 15.1996 34.1001C15.0996 34.1001 14.0996 34.2001 13.8996 34.2001H13.7996C13.3996 34.2001 13.0996 34.2001 12.9996 34.2001C12.6996 34.2001 12.7996 34.2001 12.4996 34.1001H12.3996H12.2996H12.1996C12.0996 34.2001 12.3996 33.6001 10.9996 36.9001C10.8996 37.2001 10.8996 37.6001 10.9996 37.9001L11.0996 38.2001C10.3996 39.6001 9.59961 41.2001 9.59961 41.3001L12.2996 42.1001L13.2996 40.5001C13.3996 40.5001 13.5996 40.5001 13.6996 40.4001C18.8996 32.7001 18.1996 33.8001 18.4996 33.3001C18.3996 33.2001 18.1996 33.3001 18.0996 33.3001Z" fill="black"/>
<path d="M25.9996 8.5C24.9996 9.3 24.0996 9.9 23.1996 10C23.0996 10 22.9996 10 22.8996 10C21.6996 10 20.5996 8.8 20.3996 7.8C20.2996 7.5 20.0996 6.7 19.8996 6.2L19.7996 6L19.8996 5.7C19.8996 5.7 19.8996 5.4 19.8996 5.2C19.5996 4.7 19.5996 4 19.6996 3.5C19.3996 3.6 18.9996 3.7 18.6996 3.8C18.6996 3.8 17.0996 3.3 14.8996 4.1C12.6996 4.9 10.8996 7 9.59961 7.4C8.29961 7.8 7.89961 9.2 7.59961 10.3C7.59961 10.3 7.19961 10.5 6.19961 12.2C5.19961 13.9 5.39961 13.6 5.39961 14.7C5.39961 15.3 5.19961 17.4 5.09961 19C5.99961 17.5 7.19961 16.2 8.79961 15.2C11.9996 13.2 15.1996 13.9 15.3996 13.9L15.4996 14C15.4996 14 15.4996 14 15.5996 14V13.9C15.8996 13.9 16.9996 14.2 17.0996 14.3C16.9996 14.3 17.2996 14.4 17.3996 14.4C17.6996 14.5 18.2996 14.8 18.3996 14.8L18.4996 14.9C18.5996 15 18.6996 15 18.7996 15.1V14.6C18.7996 14.6 20.2996 13.5 20.5996 13C20.8996 12.6 22.7996 11.8 22.7996 11.8L23.4996 11C23.4996 11 25.2996 11.1 25.7996 10.6C26.2996 10 26.8996 9.7 26.8996 9.6C26.8996 9.5 27.3996 7.8 27.0996 6.5C27.0996 7.1 26.6996 7.8 25.9996 8.5Z" fill="black"/>
<path d="M26.6996 1.00001C24.9996 -0.499993 22.1996 -0.199993 21.4996 3.00001C21.4996 3.00001 21.4996 2.90001 21.0996 2.80001C20.6996 2.70001 20.5996 3.90001 20.5996 4.40001C20.5996 4.90001 20.8996 4.70001 20.8996 4.70001C20.7996 5.70001 20.7996 5.90001 20.7996 6.00001C20.7996 6.00001 21.2996 7.20001 21.3996 7.80001C21.3996 8.00001 21.5996 8.30001 21.6996 8.50001C21.8996 8.60001 22.2996 9.80001 24.1996 8.60001C26.2996 7.40001 26.2996 6.10001 26.3996 6.00001C26.4996 5.90001 26.4996 5.90001 26.7996 5.60001C27.2996 5.00001 27.5996 3.90001 27.7996 3.10001C27.8996 2.50001 27.2996 1.50001 26.6996 1.00001Z" fill="black"/>
<path d="M4.49962 36.3C4.49962 36.2 4.39962 36 4.29962 35.9C4.19962 35.9 4.19962 35.8 4.09962 35.7C3.59962 35.4 2.99962 35.3 2.69962 35.3C2.39962 35.3 2.19962 35.2 1.99962 35.1C1.19962 36.4 -0.200384 36.9 0.299616 38.8C0.699616 40.5 2.19962 40.9 2.69962 40.4C2.99962 40.1 3.29962 40 3.69962 39.5C4.59962 38.8 4.59962 38.1 5.29962 36.9C4.89962 37 4.59962 36.7 4.49962 36.3Z" fill="black"/>
<path d="M12.8994 45.7C12.6994 44.8 12.5994 45 12.5994 44C12.5994 43.7 12.5994 43.4 12.5994 43.2L8.89941 42.1V42.2C8.89941 42.5 8.89941 42.8 8.99941 43C9.09941 43.5 9.19942 43.9 9.19942 44.3C9.19942 44.4 9.19942 44.5 9.19942 44.6C9.09942 45 8.99941 45.8 8.99941 46.4C8.99941 46.9 8.99941 47.5 9.39941 47.7C10.0994 48.1 11.9994 48.1 12.4994 47.7C12.8994 47.4 13.0994 47.2 12.9994 46.6C12.9994 46.3 12.9994 46 12.8994 45.7Z" fill="black"/>
<path d="M17.2992 16.1C17.2992 16.1 17.3992 16.2 17.2992 16.2C17.2992 16.3 17.2992 16.3 17.1992 16.3H17.0992C17.0992 16.4 17.7992 17 17.3992 17.1C17.3992 17.2 17.9992 18 17.4992 18C17.7992 19 17.9992 19.1 17.8992 19.2C17.8992 19.2 17.7992 19.3 17.6992 19.3H17.5992L17.9992 20.2C17.9992 20.3 17.9992 20.3 17.9992 20.4C17.9992 20.5 17.8992 20.5 17.7992 20.5H17.6992C17.6992 20.7 18.3992 21.8 17.7992 21.6L17.9992 22.5C17.9992 22.6 17.9992 22.6 17.9992 22.7C17.9992 22.7 17.8992 22.8 17.7992 22.7C17.7992 23.2 18.1992 23.8 17.7992 23.8L17.9992 24.7C17.9992 24.8 17.9992 24.8 17.8992 24.9C17.8992 24.9 17.7992 25 17.6992 24.9C17.6992 25.4 17.9992 26.3 17.4992 26.2C17.4992 26.7 17.6992 27.4 17.3992 27.4C17.3992 27.7 17.5992 28.6 17.1992 28.5C17.0992 28.9 17.2992 29.6 16.9992 29.5L16.8992 30.4C16.8992 30.5 16.8992 30.5 16.7992 30.5C16.7992 30.5 16.6992 30.5 16.5992 30.5C16.4992 30.9 16.5992 31.6 16.2992 31.5C16.2992 31.6 16.2992 32.1 15.9992 32.1C15.8992 32.4 15.9992 32.6 15.7992 32.7H15.6992V32.8C15.8992 32.8 15.9992 32.7 16.1992 32.7C16.2992 32.5 16.2992 32.3 16.4992 32.3C16.4992 32.2 16.4992 31.8 16.7992 31.8C16.8992 31.6 16.7992 31.1 17.0992 31.1C17.1992 30.9 17.0992 30.2 17.3992 30.3C17.4992 29.8 17.2992 29.3 17.6992 29.3C17.7992 29 17.5992 28.3 17.8992 28.3C17.8992 27.9 17.6992 27.2 18.0992 27.3C18.0992 26.9 17.8992 26 18.2992 26.1C18.2992 25.6 18.0992 24.8 18.4992 24.9C18.4992 24.5 18.0992 23.8 18.4992 23.8L18.2992 22.8C18.2992 22.7 18.2992 22.7 18.3992 22.6C18.3992 22.6 18.4992 22.5 18.5992 22.6L18.3992 21.7C18.3992 21.6 18.3992 21.6 18.3992 21.5L18.4992 21.4L18.1992 20.5C18.1992 20.4 18.1992 20.4 18.1992 20.3C18.1992 20.3 18.2992 20.2 18.3992 20.2H18.4992C18.3992 19.8 17.7992 19 18.2992 19H18.3992C18.1992 18.2 17.6992 17.8 18.1992 17.7C18.0992 17.5 17.6992 17 17.9992 16.9L17.6992 16.4V16.3C17.6992 16.2 17.6992 16.2 17.7992 16.2C17.4992 15.8 17.1992 15.8 17.4992 15.5C17.3992 15.4 16.8992 15.3 17.0992 15C16.9992 15 16.9992 15 16.8992 14.9C16.9992 15 17.0992 15.1 16.8992 15.3L17.2992 16.1Z" fill="black"/>
<path d="M15.0996 14.9C15.1996 15 15.1996 15.1 15.0996 15.2C15.1996 15.3 15.6996 15.5 15.3996 15.7H15.2996C15.3996 15.9 15.8996 16.2 15.5996 16.4H15.4996C15.5996 16.5 16.1996 17.1 15.7996 17.2L16.0996 17.8C16.0996 17.9 16.0996 17.9 16.0996 18C16.0996 18.1 15.9996 18.1 15.8996 18.1L16.2996 19.1C16.2996 19.2 16.2996 19.2 16.2996 19.3C16.2996 19.4 16.1996 19.4 16.0996 19.4H15.9996L16.3996 20.3C16.4996 20.4 16.3996 20.6 16.1996 20.5H16.0996C16.3996 21.3 16.4996 21.4 16.3996 21.6C16.2996 21.7 16.2996 21.7 16.1996 21.7L16.3996 22.6C16.3996 22.7 16.3996 22.7 16.3996 22.8C16.3996 22.8 16.2996 22.9 16.1996 22.8C16.1996 23.3 16.5996 23.9 16.1996 23.9L16.3996 24.8C16.3996 24.9 16.3996 24.9 16.2996 25C16.1996 25.1 16.1996 25 16.0996 25L16.1996 26.1C16.1996 26.2 16.1996 26.2 16.0996 26.3H15.9996L16.0996 27.3C16.0996 27.4 16.0996 27.4 15.9996 27.5H15.8996V28.4C15.8996 28.5 15.8996 28.5 15.7996 28.6H15.6996V29.5C15.6996 29.6 15.6996 29.6 15.5996 29.7H15.4996L15.3996 30.6C15.3996 30.7 15.3996 30.7 15.2996 30.7C15.2996 30.7 15.1996 30.7 15.0996 30.7C14.9996 31.2 15.0996 31.7 14.7996 31.7C14.7996 31.8 14.7996 32.3 14.4996 32.3C14.4996 32.4 14.4996 33 14.1996 32.9L14.0996 33.3C14.0996 33.3 14.0996 33.3 14.0996 33.4C14.1996 33.4 14.2996 33.4 14.3996 33.4C15.3996 32.4 15.8996 30 16.1996 28.6C16.9996 25.2 16.8996 17.9 14.8996 15.1C15.1996 14.9 15.0996 14.9 15.0996 14.9Z" fill="black"/>
<path d="M12.9994 14.9C12.8994 14.9 12.8994 14.9 12.7994 14.9H12.9994C12.9994 14.9 12.9994 15 13.0994 15.1V15.2C13.1994 15.3 13.3994 15.3 13.3994 15.4C13.3994 15.5 13.3994 15.5 13.2994 15.6C13.4994 15.8 13.6994 15.8 13.6994 15.9C13.6994 16 13.6994 16 13.5994 16H13.4994L13.7994 16.4C13.8994 16.5 13.8994 16.6 13.7994 16.7C13.8994 16.9 14.3994 17.4 13.9994 17.5L14.2994 18.1C14.2994 18.2 14.2994 18.2 14.2994 18.3C14.2994 18.4 14.1994 18.4 14.0994 18.4L14.4994 19.4C14.4994 19.5 14.4994 19.5 14.4994 19.6C14.4994 19.6 14.3994 19.7 14.2994 19.7L14.6994 20.6C14.6994 20.7 14.6994 20.7 14.6994 20.8C14.6994 20.9 14.5994 20.9 14.4994 20.9C14.4994 21.1 15.0994 22 14.5994 22C14.5994 22.2 15.0994 23.2 14.5994 23C14.5994 23.4 14.9994 24 14.5994 24.1C14.5994 24.4 14.9994 25.3 14.5994 25.2C14.5994 25.6 14.8994 26.5 14.4994 26.4C14.4994 26.9 14.6994 27.5 14.3994 27.5C14.3994 27.8 14.5994 28.6 14.2994 28.5C14.1994 28.8 14.3994 29.5 14.0994 29.5C13.9994 29.8 14.1994 30.6 13.7994 30.5C13.6994 30.9 13.7994 31.5 13.4994 31.5C13.4994 31.6 13.4994 32.1 13.1994 32C12.9994 32 12.9994 32.4001 12.7994 32.4001C12.6994 32.7001 12.7994 32.9001 12.4994 32.9001L12.3994 33.1C12.4994 33.1 12.5994 33.1001 12.7994 33.2001C12.9994 32.9001 12.8994 32.6 13.0994 32.6C13.1994 32.4 13.2994 32.2001 13.3994 32.2001C13.4994 32.0001 13.3994 31.8001 13.5994 31.7001C13.5994 31.6001 13.5994 31.2001 13.7994 31.2001C13.8994 30.9001 13.6994 30.6 13.9994 30.5C14.0994 30.1 13.9994 29.6 14.2994 29.7C14.3994 29.3 14.1994 28.7 14.4994 28.7C14.5994 28.3 14.3994 27.7 14.6994 27.7C14.6994 27.3 14.4994 26.7 14.7994 26.7C14.7994 26.2 14.4994 25.5 14.8994 25.5C14.8994 24.9 14.6994 24.3 14.9994 24.3C14.9994 24 14.5994 23.3 14.9994 23.3C14.9994 23 14.5994 22.1 14.9994 22.2C14.9994 21.8 14.5994 21.2 14.8994 21.2L14.5994 20.4C14.5994 20.3 14.5994 20.3 14.5994 20.2C14.5994 20.2 14.6994 20.1 14.7994 20.1L14.3994 19.2C14.3994 19.1 14.3994 19.1 14.3994 19C14.3994 18.9 14.4994 18.9 14.5994 18.9C14.4994 18.5 13.9994 17.7 14.3994 17.7C14.2994 17.4 13.9994 17.1 14.1994 16.9C13.8994 16.5 13.7994 16.4 13.8994 16.3C13.8994 16.3 13.8994 16.2 13.9994 16.2L13.6994 15.8C13.5994 15.7 13.5994 15.6 13.6994 15.5C13.5994 15.4 13.1994 15.3 13.3994 15.1C13.2994 15 13.0994 15 13.0994 14.8L12.9994 14.9Z" fill="black"/>
<path d="M15.1992 33.1C15.2992 33.1 15.3992 33.1 15.5992 33C15.6992 32.9 15.6992 32.8 15.7992 32.8C15.8992 32.7 15.7992 32.3 16.0992 32.3C16.0992 32.2 16.0992 31.7 16.3992 31.8C16.4992 31.6 16.3992 31 16.6992 31.1C16.7992 30.8 16.6992 30.1 16.9992 30.2C17.0992 29.7 16.8992 29.1 17.2992 29.1C17.3992 28.7 17.1992 28 17.4992 28.1C17.4992 27.6 17.2992 27 17.5992 27C17.5992 26.6 17.2992 25.6 17.7992 25.8C17.7992 25.2 17.5992 24.5 17.8992 24.6C17.8992 24.2 17.4992 23.5 17.8992 23.5L17.6992 22.5C17.6992 22.4 17.6992 22.4 17.7992 22.3C17.7992 22.3 17.8992 22.2 17.9992 22.3C17.9992 22 17.5992 21.2 17.8992 21.2L17.5992 20.4C17.5992 20.3 17.5992 20.3 17.5992 20.2C17.5992 20.2 17.6992 20.1 17.7992 20.1C17.3992 19.2 17.2992 19.1 17.3992 19C17.3992 18.9 17.4992 18.9 17.5992 18.9H17.6992L17.2992 17.9C17.2992 17.8 17.2992 17.8 17.2992 17.7C17.2992 17.6 17.3992 17.6 17.3992 17.6C17.2992 17.3 16.8992 16.9 17.1992 16.8C16.8992 16.4 16.7992 16.3 16.8992 16.2C16.8992 16.2 16.8992 16.1 16.9992 16.1C16.6992 15.8 16.5992 15.7 16.5992 15.6C16.5992 15.5 16.5992 15.5 16.6992 15.5C16.5992 15.4 16.1992 15.3 16.2992 15.1C16.0992 15.1 15.9992 15 15.7992 15C18.0992 18.8 17.6992 29.9 15.1992 33.1Z" fill="black"/>
<path d="M18.6 16C19.2 16.4 18.8 16.5 18.8 16.6L19 16.9C19.1 17 19 17.1 19 17.4L19.2 17.7C19.3 17.8 19.2 17.9 19.1 18.2L19.4 18.5C19.4 18.5 19.5 18.6 19.4 18.7L19.3 19.1L19.4 19.3V19.4L19.3 20.1L19.5 20.2C19.6 20.2 19.6 20.3 19.6 20.4L19.4 21.2L19.5 21.3C19.6 21.3 19.6 21.4 19.6 21.5L19.4 22.4L19.5 22.5C19.6 22.5 19.6 22.6 19.6 22.7L19.3 23.6L19.6 23.7C19.7 23.7 19.7 23.8 19.7 23.9L19.4 24.7L19.5 24.8C19.6 24.8 19.6 24.9 19.6 25L19.3 25.8L19.5 25.9C19.6 25.9 19.6 26 19.6 26.1L19.2 26.9L19.4 27.2C19.4 27.3 19.4 27.3 19.4 27.4L19.2 28L19.4 28.3C19.4 28.3 19.4 28.4 19.4 28.5L19.2 28.9L19.3 29C19.4 29.1 19.3 29.2 18.9 29.8L19 30C19 30.1 19 30.1 19 30.2L18.6 30.8L18.7 30.9V31C18.7 31.1 18.7 31.1 18.6 31.1L18.3 31.3L18.4 31.5C18.4 31.6 18.4 31.7 18.4 31.7L18 32.1C18.1 32.2 18.1 32.2 18.1 32.3C22.3 30.2 24.3 25.3 22.7 20.9C21.9 18.7 20.4 17 18.6 16Z" fill="black"/>
<path d="M17.8996 16C17.9996 16.2 18.4996 16.5001 18.1996 16.7001H18.0996C18.1996 16.8001 18.7996 17.5 18.3996 17.5C18.5996 18 18.5996 17.8001 18.6996 18.2001V18.3C18.6996 18.4 18.5996 18.4 18.4996 18.4H18.3996L18.7996 19.5C18.7996 19.6 18.7996 19.6001 18.7996 19.7001C18.6996 19.8001 18.6996 19.8 18.5996 19.8L18.9996 20.7001C18.9996 20.8001 18.9996 20.8 18.9996 20.9C18.8996 21 18.8996 21 18.7996 21L19.1996 21.9C19.1996 22 19.1996 22 19.1996 22.1C19.1996 22.2 19.0996 22.2001 18.9996 22.2001L19.1996 23.1C19.1996 23.2 19.1996 23.2 19.1996 23.3C19.1996 23.3 19.0996 23.4 18.9996 23.3L19.1996 24.2001C19.1996 24.3001 19.1996 24.3 19.1996 24.4L19.0996 24.5L19.2996 25.4C19.2996 25.5 19.2996 25.5 19.1996 25.6C19.1996 25.6 19.0996 25.7 18.9996 25.6C18.9996 26 19.1996 27 18.7996 26.9C18.7996 27.3 18.9996 28.1 18.6996 28.1C18.6996 28.4 18.8996 29.2 18.4996 29.1C18.3996 29.5 18.5996 30.1 18.2996 30.1L17.9996 30.7001C17.9996 30.8001 17.9996 30.8 17.8996 30.8C17.8996 30.8 17.7996 30.8 17.6996 30.8C17.5996 31.2 17.6996 31.8 17.3996 31.8C17.3996 31.9 17.3996 32.4 17.0996 32.3V32.6C17.1996 32.6 17.2996 32.5 17.3996 32.5L17.5996 32.2001L17.4996 32.1C17.2996 31.9 17.6996 31.7 17.9996 31.5V31.3C17.9996 31.2 17.9996 31.1 17.9996 31.1L18.1996 30.9C18.0996 30.8 18.0996 30.7001 18.1996 30.7001L18.5996 30.1L18.4996 29.9C18.4996 29.8 18.4996 29.8001 18.4996 29.7001L18.7996 29.1C18.4996 29 18.8996 28.5 18.9996 28.3L18.8996 28C18.7996 27.9 18.8996 27.8001 19.1996 27.2001L18.9996 27C18.8996 26.9 19.0996 26.8 19.2996 26.1L19.1996 26C19.0996 26 19.0996 25.9 19.0996 25.8L19.3996 25L19.2996 24.9C19.1996 24.9 19.1996 24.8001 19.1996 24.7001L19.4996 23.9L19.1996 23.8C19.0996 23.8 19.0996 23.7 19.0996 23.6L19.3996 22.7001L19.2996 22.6C19.1996 22.6 19.1996 22.5 19.1996 22.4L19.3996 21.5L19.2996 21.4C19.1996 21.4 19.1996 21.3001 19.1996 21.2001L19.3996 20.4L19.1996 20.3C19.0996 20.3 19.0996 20.2 19.0996 20.1L19.1996 19.4L18.9996 19.3V19.2001L19.0996 18.8L18.7996 18.5V18.4C18.7996 18.3 18.8996 18.1 18.8996 18C18.6996 17.7 18.5996 17.7 18.5996 17.6V17.2001L18.3996 16.9C18.2996 16.8 18.3996 16.7 18.4996 16.6L18.2996 16.4C18.1996 16.3 18.1996 16.2 18.1996 16L18.0996 15.9C18.0996 15.9 17.9996 15.9 17.9996 15.8V15.9C17.9996 15.9 17.9996 15.9 17.8996 16Z" fill="black"/>
<path d="M13.8 14.8V14.9C13.9 15 14.1 15 14.1 15.1C14.1 15.2 14.1 15.2 14 15.3C14.3 15.5 14.5 15.5 14.2 15.8L14.5 16.2C14.6 16.3 14.5 16.4 14.5 16.5C14.5 16.6 15.1 17.2 14.7 17.3L15 17.9C15 18 15 18 15 18.1C15 18.2 14.9 18.2 14.8 18.2L15.2 19.2C15.2 19.3 15.2 19.3 15.2 19.4C15.2 19.4 15.1 19.5 15 19.5L15.4 20.4C15.4 20.5 15.4 20.5 15.4 20.6C15.4 20.6 15.3 20.7 15.2 20.7L15.5 21.5C15.5 21.6 15.5 21.6 15.5 21.7C15.5 21.7 15.4 21.8 15.3 21.8L15.5 22.6C15.5 22.7 15.4 22.9 15.3 22.8C15.3 23.2 15.7 23.8 15.3 23.9C15.3 24.1 15.7 25.1 15.3 25C15.3 25.5 15.6 26.3 15.2 26.2C15.2 26.7 15.4 27.3 15.1 27.3C15.1 27.7 15.3 28.4 15 28.3V29.1C15 29.2 14.9 29.3 14.8 29.3C14.7 29.6 14.9 30.4 14.5 30.3C14.4 30.8 14.5 31.1999 14.2 31.2999C14.2 31.3999 14.2 31.8999 14 31.7999C14 32.0999 14 32.2999 13.8 32.2999H13.7C13.6 32.3999 13.7 32.7999 13.4 32.7999C13.3 32.9999 13.3 33.1 13.1 33.2L13 33.4C13.2 33.4 13.4 33.4 13.6 33.4H13.7C13.9 33.1 13.9 33 14 33C14.1 32.9 14 32.5 14.3 32.5C14.3 32.4 14.3 31.9 14.6 32C14.7 31.8 14.6 31.2999 14.9 31.2999C15 30.9999 14.9 30.4 15.2 30.4L15.3 29.5C15.3 29.4 15.3 29.4 15.4 29.4H15.5V28.6C15.5 28.5 15.5 28.5 15.6 28.5H15.7V27.6C15.7 27.5 15.7 27.5 15.8 27.4H15.9C15.9 27 15.7 26.1 16.1 26.2L16 25.1C16 25 16 25 16.1 24.9H16.2L16 23.7C16 23.6 16 23.6 16 23.5L16.1 23.4L15.9 22.4C15.9 22.3 15.9 22.3 16 22.2C16 22.2 16.1 22.1 16.2 22.2L16 21.4C16 21.3 16 21.3 16 21.2L16.1 21.1L15.8 20.3C15.8 20.2 15.8 20.2 15.8 20.1C15.8 20 15.9 20 16 20L15.6 19.1C15.6 19 15.6 19 15.6 18.9C15.6 18.9 15.7 18.8 15.8 18.8H15.9L15.5 17.8C15.5 17.7 15.5 17.7 15.5 17.6C15.5 17.5 15.6 17.5 15.6 17.5C15.5 17.2 15.1 16.8 15.4 16.7C15.1 16.2 14.9 16.2 15.2 16L15 15.8C14.9 15.7 14.9 15.6 15 15.5C14.9 15.4 14.5 15.3 14.6 15C14.4 14.9 14.2 14.9 14.2 14.7C14.1 14.8 14 14.8 13.8 14.8Z" fill="black"/>
<path d="M12.1997 32.7C12.3997 32.4 12.3997 32.3 12.4997 32.3C12.5997 32.2 12.4997 31.8 12.7997 31.8C12.8997 31.6 12.7997 31.3 13.0997 31.3C13.1997 31.1 13.0997 30.6 13.2997 30.6C13.3997 30.3 13.2997 29.7 13.5997 29.8C13.6997 29.2 13.4997 28.8 13.7997 28.8C13.8997 28.4 13.6997 27.8 13.9997 27.8C13.9997 27.4 13.7997 26.8 14.0997 26.8C14.0997 26.4 13.7997 25.6 14.1997 25.6C14.1997 25.1 13.9997 24.4 14.2997 24.4C14.2997 24 13.8997 23.4 14.2997 23.4C14.2997 23 13.8997 22.2 14.2997 22.3C14.2997 22 13.8997 21.3 14.1997 21.3L13.8997 20.5C13.8997 20.4 13.8997 20.4 13.8997 20.3C13.8997 20.3 13.9997 20.2 14.0997 20.2C13.7997 19.4 13.5997 19.3 13.6997 19.2C13.6997 19.2 13.7997 19.1 13.8997 19.1C13.7997 18.7 13.2997 17.9 13.6997 17.9C13.5997 17.7 13.2997 17.3 13.4997 17.1L13.1997 16.7V16.6C13.1997 16.5 13.1997 16.5 13.2997 16.5L12.9997 16.1V16C12.9997 16 12.9997 15.9 13.0997 15.9C12.9997 15.8 12.5997 15.7 12.7997 15.5C12.5997 15.4 12.4997 15.4 12.4997 15.2C12.3997 15.2 12.1997 15.2 12.1997 15.1H11.9997C2.49966 17.3 2.59966 30.8 11.9997 33C11.9997 32.9 11.9997 32.7 12.1997 32.7Z" fill="black"/>
</svg>
