<svg id="Layer_1" enable-background="new 0 0 24 24" viewBox="0 0 24 24" xmlns="http://www.w3.org/2000/svg" xmlns:xlink="http://www.w3.org/1999/xlink"><linearGradient id="SVGID_1_" gradientUnits="userSpaceOnUse" x1="3.707" x2="20.34" y1="2.116" y2="21.939"><stop offset="0" stop-color="#ff934d"/><stop offset="1" stop-color="#fd4084"/></linearGradient><path d="m21.2 2.8c-1.7-1.8-4.7-2.7-9.2-2.8-4.5.1-7.5 1-9.2 2.8-1.8 1.7-2.7 4.7-2.8 9.2.1 4.5 1 7.5 2.8 9.2 1.7 1.8 4.7 2.7 9.2 2.8 4.5-.1 7.5-1 9.2-2.8 1.8-1.8 2.7-4.7 2.8-9.2-.1-4.5-1-7.5-2.8-9.2z" fill="url(#SVGID_1_)"/><path d="m6.8 6.8c.3-.3.8-.3 1.1 0l4.1 4.1 4.1-4.1c.3-.3.8-.3 1.1 0s.3.8 0 1.1l-4.1 4.1 4.1 4.1c.3.3.3.8 0 1.1s-.8.3-1.1 0l-4.1-4.1-4.1 4.1c-.3.3-.8.3-1.1 0s-.3-.8 0-1.1l4.1-4.1-4.1-4.1c-.3-.3-.3-.8 0-1.1z" fill="#fff"/></svg>