<svg width="24" height="24" viewBox="0 0 24 24" fill="none" xmlns="http://www.w3.org/2000/svg">
<g clip-path="url(#clip0_580_2)">
<path d="M21.2 2.8C19.5 1 16.5 0.1 12 0C7.5 0.1 4.5 1 2.8 2.8C1 4.5 0.1 7.5 0 12C0.1 16.5 1 19.5 2.8 21.2C4.5 23 7.5 23.9 12 24C16.5 23.9 19.5 23 21.2 21.2C23 19.4 23.9 16.5 24 12C23.9 7.5 23 4.5 21.2 2.8Z" fill="url(#paint0_linear_580_2)"/>
<path d="M6.8002 6.79995C7.1002 6.49995 7.6002 6.49995 7.9002 6.79995L12.0002 10.9L16.1002 6.79995C16.4002 6.49995 16.9002 6.49995 17.2002 6.79995C17.5002 7.09995 17.5002 7.59995 17.2002 7.89995L13.1002 12L17.2002 16.1C17.5002 16.4 17.5002 16.9 17.2002 17.2C16.9002 17.5 16.4002 17.5 16.1002 17.2L12.0002 13.1L7.9002 17.2C7.6002 17.5 7.1002 17.5 6.8002 17.2C6.5002 16.9 6.5002 16.4 6.8002 16.1L10.9002 12L6.8002 7.89995C6.5002 7.59995 6.5002 7.09995 6.8002 6.79995Z" fill="black"/>
</g>
<defs>
<linearGradient id="paint0_linear_580_2" x1="3.707" y1="2.116" x2="20.34" y2="21.939" gradientUnits="userSpaceOnUse">
<stop stop-color="#FF934D"/>
<stop offset="1" stop-color="#FFAE3F"/>
</linearGradient>
<clipPath id="clip0_580_2">
<rect width="24" height="24" fill="white"/>
</clipPath>
</defs>
</svg>
