<svg clip-rule="evenodd" fill-rule="evenodd" height="512" image-rendering="optimizeQuality" shape-rendering="geometricPrecision" text-rendering="geometricPrecision" viewBox="0 0 512 512" width="512" xmlns="http://www.w3.org/2000/svg" xmlns:xlink="http://www.w3.org/1999/xlink" xmlns:xodm="http://www.corel.com/coreldraw/odm/2003"><linearGradient id="id0" gradientUnits="userSpaceOnUse" x1="256" x2="256" y1="511.74" y2=".1"><stop offset="0" stop-color="#1aa8dc"/><stop offset=".490196" stop-color="#ae3b89"/><stop offset="1" stop-color="#f26270"/></linearGradient><g id="Layer_x0020_1"><path d="m66.22 508.74c-6.63-2.44-12.85-6.32-18.17-11.64l-30-29c-.1-.1-.2-.1-.2-.2-8.6-9.13-13.39-20.36-14.38-31.75 20.38-7.16 42.87-2.19 58.16 13.1 15.5 15.5 20.4 38.3 12.8 59-2.74.47-5.49.63-8.21.49zm39.83-278.54c-18.3 0-36.4-4.8-52.6-14.1-2.27-1.27-4.47-2.61-6.62-4.03l147.33-147.09c6.41 9.65 11.26 20.36 14.29 31.82 7.2 27.3 3.5 55.9-10.4 80.7v.1c-14 24.3-36.8 41.7-64.3 49-9.2 2.4-18.5 3.6-27.7 3.6zm-20.1-32.1c-1.7 0-3.4-.6-4.7-1.8-2.8-2.6-3-7-.4-9.9l11-12c2.6-2.8 7-3 9.9-.4 2.8 2.6 3 7 .4 9.9l-11 12c-1.4 1.4-3.3 2.2-5.2 2.2zm25-25c-1.7 0-3.4-.6-4.7-1.8-2.8-2.6-3-7-.4-9.9l11-12c2.6-2.9 7-3 9.9-.4 2.8 2.6 3 7 .4 9.9l-11 12c-1.4 1.4-3.3 2.2-5.2 2.2zm25-25c-1.7 0-3.4-.6-4.7-1.8-2.8-2.6-3-7-.4-9.9l11-12c2.6-2.9 7-3 9.9-.4 2.8 2.6 3 7 .4 9.9l-11 12c-1.4 1.4-3.3 2.2-5.2 2.2zm25-25c-1.7 0-3.4-.6-4.7-1.8-2.8-2.6-3-7-.4-9.9l11-12c2.6-2.9 7-3 9.9-.4s3 7 .4 9.9l-11 12c-1.4 1.4-3.3 2.2-5.2 2.2zm-121 28c-1.8 0-3.6-.7-4.9-2.1-2.7-2.7-2.7-7.2 0-9.9l11-11c2.7-2.7 7.2-2.7 9.9 0s2.7 7.2 0 9.9l-11 11c-1.4 1.4-3.2 2.1-5 2.1zm25-25c-1.8 0-3.6-.7-4.9-2.1-2.7-2.7-2.7-7.2 0-9.9l11-11c2.7-2.7 7.2-2.7 9.9 0s2.7 7.2 0 9.9l-11 11c-1.4 1.4-3.2 2.1-5 2.1zm25-25c-1.8 0-3.6-.7-4.9-2.1-2.7-2.7-2.7-7.2 0-9.9l11-11c2.7-2.7 7.2-2.7 9.9 0s2.7 7.2 0 9.9l-11 11c-1.4 1.4-3.2 2.1-5 2.1zm25-25c-1.8 0-3.6-.7-4.9-2.1-2.7-2.7-2.7-7.2 0-9.9l11-11c2.7-2.7 7.2-2.7 9.9 0s2.7 7.2 0 9.9l-11 11c-1.4 1.4-3.2 2.1-5 2.1zm-79 17c-.9 0-1.8-.2-2.7-.6-3.6-1.5-5.2-5.6-3.7-9.2.5-1.2 13-29.8 43.7-33.2 3.8-.4 7.3 2.3 7.7 6.2.4 3.8-2.3 7.3-6.2 7.7-22.7 2.5-32.2 24.5-32.3 24.8-1.2 2.7-3.8 4.3-6.5 4.3zm-.35 110.41c-3.24-2.84-6.29-5.86-9.14-9.06l150.08-149.85c3.21 2.88 6.23 5.94 9.04 9.16zm-17.78-20.22c-6.27-9.33-11.06-19.72-14.17-30.89-7.6-27.5-3.9-56.2 10.2-80.8 29.9-51.3 93.8-68.7 145.5-39.6.1 0 .1.1.2.1 2.02 1.2 3.98 2.47 5.91 3.79zm293.03 27.91c-2.7 0-4.8-.7-6.8-2.6-4.1-4-3-9.1-1.1-17.5.6-2.7 1.3-6.2 2.1-10.2 0-.1 0-.2.1-.3l5-21c.3-1.3.9-2.4 1.9-3.3l19.77-19.8c7.04 10.39 26.27 30.88 45.92 42.71l-20.79 20.79c-.9.9-2.1 1.6-3.4 1.9l-22 5c-3.6.8-6.5 1.5-9.1 2.2-4.9 1.2-8.6 2.1-11.6 2.1zm31.2-84.94 22.89-22.92c9.83 14.81 30.52 33.49 46.05 42.62l-22.96 22.96c-20.23-11.09-42.68-35.49-45.73-42.17-.08-.17-.16-.34-.25-.49zm33.05-33.1 22.79-22.82c9.86 14.06 29.63 33.85 44.49 44.23l-21.16 21.15c-18.15-8.97-40.59-33.12-46.12-42.56zm32.86-32.9 51.89-51.96c4.7-5.2 11.2-8.2 18.1-8.2 6.8 0 13.3 2.9 18 8l8.7 7.7c.1.1.2.2.3.3 9.7 9.7 9.7 26.2 0 35.9l-52.55 52.54c-14.03-9.17-36.2-31.32-44.44-44.28zm-403.59 360.93c1.94-9.21 6.47-17.94 13.58-25.09l16.09-16.09 100.11.89.89 100.96-15.09 15.14c-8.96 8.96-20.34 13.83-31.96 14.74 8.73-25.37 2.5-53.33-16.56-72.39-17.74-17.83-43.12-24.38-67.06-18.16zm43.65-55.16 35.02-35.02 100.21.89 1.76 99.82-36.11 36.23.85-94.65c.5-2.2-.3-4.6-1.9-6.2s-3.9-2.3-6.2-1.9zm49-49 88.16-88.16 100.84 101.5-87.17 87.47v-93.54c.4-2.3-.41-4.6-2-6.2-1.6-1.6-3.9-2.3-6.2-1.9zm98.06-98.06 92.67-92.67c4.7-5.2 11.2-8.2 18.1-8.2 6.44 0 12.7 2.69 17.26 7.31l-20.97 21c-2.77 2.78-4.7 6.12-5.61 9.95l-4.61 19.34c-.57 1.48-.78 2.78-.85 3.73-.57 2.87-1.14 5.75-1.78 8.61-2.52 11.24-4.21 21.73 5.05 30.65 4.59 4.42 10.17 6.51 16.51 6.51 5.05 0 10.21-1.29 15.08-2.54 2.9-.75 5.8-1.45 8.72-2.11l22-5c3.85-.87 7.41-2.86 10.2-5.65l20.4-20.41 1.6 1.71c5.2 4.7 8.1 11.2 8.1 18 0 6.9-3 13.4-8.2 18.1l-92.85 93.16z" fill="url(#id0)"/></g></svg>