<svg width="23" height="23" viewBox="0 0 23 23" fill="none" xmlns="http://www.w3.org/2000/svg">
<g clip-path="url(#clip0_1_323)">
<path d="M11.2707 0C6.72378 0 3.03781 3.68825 3.03781 8.23735C3.03781 13.2455 6.4693 14.4256 8.26967 17.4961C9.94575 20.3535 9.94711 22.5414 11.2707 22.5414C12.6433 22.5414 12.5567 20.5032 14.2718 17.4962C15.9864 14.4886 19.5036 13.2455 19.5036 8.23735C19.5036 3.68825 15.8177 0 11.2707 0ZM11.2707 11.3941C9.56972 11.3941 8.19073 10.0144 8.19073 8.31268C8.19073 7.46135 8.53546 6.69124 9.09296 6.13338C9.65042 5.57597 10.4202 5.2308 11.2707 5.2308C12.9717 5.2308 14.3502 6.6105 14.3502 8.31268C14.3502 10.0144 12.9717 11.3941 11.2707 11.3941Z" fill="#4CAF50"/>
<path d="M11.2707 0C11.0415 0 10.8147 0.00981785 10.5903 0.0281768C14.8188 0.374399 18.1428 3.9175 18.1428 8.23735C18.1428 13.2455 14.6255 14.4886 12.9109 17.4961C11.5525 19.8778 11.3242 21.6515 10.6061 22.2863C10.7902 22.4522 11.0035 22.5414 11.2707 22.5414C12.6433 22.5414 12.5567 20.5032 14.2717 17.4962C15.9863 14.4886 19.5036 13.2455 19.5036 8.23735C19.5036 3.68825 15.8176 0 11.2707 0Z" fill="#43A047"/>
<path d="M9.09286 6.13352L3.68001 11.5493C3.28408 10.6471 3.03784 9.5798 3.03784 8.23744C3.03784 5.98167 3.94417 3.93801 5.41191 2.4505L9.09286 6.13352Z" fill="#F44336"/>
<path d="M13.47 10.4696C14.0146 9.91374 14.3504 9.15239 14.3504 8.31259C14.3504 6.61041 12.9715 5.23076 11.2708 5.23076C10.4202 5.23076 9.65027 5.57579 9.0929 6.13347L14.5455 0.677826C16.4946 1.52379 18.0518 3.10231 18.8712 5.06619L13.4702 10.4702L13.47 10.4696Z" fill="#42A5F5"/>
<path d="M14.5456 0.677826L14.0859 1.13772C15.9146 2.21672 17.29 3.98239 17.8575 6.08046L18.8713 5.06619C18.0518 3.10226 16.4946 1.52379 14.5456 0.677826Z" fill="#2196F3"/>
<path d="M13.4702 10.4702L7.52548 16.4182C6.23296 14.7891 4.57462 13.5914 3.68005 11.5493L9.0929 6.13351C8.53553 6.69119 8.19067 7.46152 8.19067 8.31264C8.19067 10.0143 9.56958 11.3939 11.2708 11.3939C12.1322 11.3939 12.911 11.04 13.47 10.4696L13.4702 10.4702Z" fill="#FFC107"/>
<path d="M14.5456 0.677828L9.09287 6.13352L5.41193 2.45054C6.90477 0.937495 8.97845 0 11.2708 0C12.4346 0 13.5422 0.241792 14.5456 0.677828Z" fill="#1E88E5"/>
<path d="M11.2708 0C11.0417 0 10.8149 0.00977383 10.5905 0.0281768C10.5904 0.0281768 10.5904 0.0282208 10.5903 0.0282208C11.8588 0.132079 13.0456 0.523868 14.086 1.13773L14.5456 0.677828C13.5422 0.241792 12.4346 0 11.2708 0Z" fill="#1976D2"/>
</g>
<defs>
<clipPath id="clip0_1_323">
<rect width="22.5414" height="22.5414" fill="white"/>
</clipPath>
</defs>
</svg>
