<svg width="42" height="42" viewBox="0 0 42 42" fill="none" xmlns="http://www.w3.org/2000/svg">
<path d="M34.6035 17.0698C34.7562 16.7935 34.8523 16.4897 34.8863 16.1759C34.9202 15.8621 34.8913 15.5447 34.8011 15.2422C34.711 14.9397 34.5615 14.6582 34.3613 14.4142C34.1612 14.1701 33.9144 13.9684 33.6354 13.8208C32.9228 13.4497 32.0312 13.2664 30.9542 13.2664L30.9378 13.2664C30.5069 13.2706 30.0857 13.3943 29.7209 13.6237C29.3561 13.8531 29.0621 14.1792 28.8716 14.5657L28.2206 15.8689C28.6533 15.0689 29.6783 14.5512 30.9542 14.5512C32.9489 14.5512 33.9557 15.2181 34.3462 16.8077C34.3619 16.8704 34.394 16.9277 34.4393 16.9737C34.4845 17.0198 34.5412 17.0529 34.6035 17.0698Z" fill="#EBECED"/>
<path d="M14.4044 31.7839H11.4464C11.0516 31.7839 10.6648 31.8962 10.3313 32.1076C9.99786 32.3191 9.73137 32.621 9.56295 32.9781L9.53845 33.0301H16.3115C16.149 32.6596 15.8821 32.3444 15.5434 32.1231C15.2048 31.9018 14.8089 31.7839 14.4044 31.7839Z" fill="#EBECED"/>
<path d="M22.1692 29.3044C21.9447 28.7656 21.8105 28.2448 21.6649 27.3929C21.6501 27.3059 21.6534 27.2167 21.6745 27.1309C21.6957 27.0452 21.7343 26.9647 21.788 26.8946C21.8416 26.8244 21.9092 26.7661 21.9864 26.7232C22.0636 26.6803 22.1488 26.6538 22.2367 26.6453L25.276 26.353L30.2325 17.889C30.2678 17.8287 30.2852 17.7596 30.2826 17.6898C30.28 17.62 30.2575 17.5524 30.2178 17.495C30.1781 17.4375 30.1229 17.3925 30.0585 17.3653C29.9942 17.3382 29.9234 17.3299 29.8546 17.3416L24.5653 18.2358L31.5862 3.96383C31.6185 3.89825 31.6304 3.82454 31.6205 3.75213C31.6106 3.67972 31.5794 3.61191 31.5307 3.55738C31.4821 3.50285 31.4182 3.46408 31.3474 3.44605C31.2766 3.42801 31.202 3.43152 31.1332 3.45614L21.4036 6.93629C21.3489 6.95585 21.2996 6.98812 21.2598 7.03044C21.22 7.07276 21.1908 7.12392 21.1746 7.17972L16.041 24.8876C16.0234 24.9483 16.0218 25.0126 16.0363 25.0741C16.0508 25.1356 16.0809 25.1923 16.1238 25.2388C16.1666 25.2852 16.2208 25.3198 16.2809 25.3392C16.3411 25.3586 16.4052 25.3621 16.4671 25.3495L21.5065 24.3184L17.408 38.358C17.3829 38.444 17.3901 38.5362 17.4282 38.6172C17.4664 38.6983 17.5328 38.7626 17.6151 38.798C17.6973 38.8334 17.7897 38.8376 17.8748 38.8097C17.9599 38.7818 18.0318 38.7237 18.0771 38.6464L22.7935 30.5923C22.543 30.1849 22.3338 29.7535 22.1692 29.3044Z" fill="#8941DA"/>
<path d="M40.6871 26.7108L40.4677 26.7943C40.1624 26.9106 39.8914 27.1023 39.6801 27.3515C39.4688 27.6008 39.324 27.8995 39.2593 28.2197C39.0374 29.3181 38.5583 30.2459 37.8429 30.9459C36.4614 32.2796 34.2938 32.9559 31.4005 32.9559C29.2438 32.9559 27.1059 32.4976 25.8209 31.7599C25.8169 31.7577 25.8129 31.7554 25.809 31.7532C25.7987 31.7474 25.7885 31.7416 25.7783 31.7358C25.4667 31.5566 25.1116 31.467 24.7523 31.477C24.393 31.4869 24.0434 31.5961 23.7422 31.7923C24.1704 32.2168 24.6545 32.5808 25.1812 32.8742C26.6872 33.7388 29.0299 34.2407 31.4005 34.2407C34.6634 34.2407 37.1176 33.432 38.7353 31.8702C40.0237 30.6097 40.6933 28.8146 40.6874 26.711L40.6871 26.7108Z" fill="#EBECED"/>
<path d="M18.9398 9.66243H18.4366C18.2766 9.66273 18.1221 9.72162 18.0025 9.828C17.8829 9.93438 17.8064 10.0809 17.7874 10.2398C17.6942 11.0157 17.52 11.7105 17.1899 12.8786L13.146 26.2932C13.1451 26.2965 13.1441 26.2997 13.1432 26.303C13.0741 26.5657 13.0258 26.7381 12.9528 26.999C12.9357 27.06 12.9173 27.1258 12.897 27.1985C12.8178 26.9071 12.7626 26.7204 12.636 26.2932L8.59244 12.8797C8.32838 12.0075 8.12221 11.1188 7.97528 10.2194C7.9526 10.0643 7.8747 9.9225 7.75589 9.82017C7.63707 9.71784 7.48533 9.66181 7.32852 9.66239L1.67978 9.66243C1.57171 9.66246 1.46532 9.68926 1.37013 9.74044C1.27494 9.79161 1.19392 9.86558 1.13429 9.95571C1.07466 10.0458 1.03829 10.1494 1.02843 10.257C1.01856 10.3646 1.03551 10.473 1.07776 10.5725C1.4453 11.4373 1.71871 12.1623 2.16199 13.4477L8.10233 30.2369C8.4349 31.1761 8.67335 31.9295 8.83128 32.5403C8.89836 32.7982 9.04923 33.0266 9.26019 33.1895C9.47115 33.3524 9.73025 33.4406 9.99678 33.4402H15.7897C16.0555 33.4403 16.3138 33.3525 16.5244 33.1905C16.735 33.0284 16.8861 32.8013 16.9541 32.5444C17.1126 31.9422 17.3501 31.1869 17.6798 30.2365L19.0654 26.3019C19.078 26.2663 19.0834 26.2286 19.0813 26.191C19.0793 26.1533 19.0698 26.1165 19.0536 26.0825C19.0373 26.0484 19.0144 26.018 18.9864 25.9928C18.9583 25.9676 18.9256 25.9482 18.89 25.9357C18.8544 25.9232 18.8168 25.9178 18.7791 25.9198C18.7415 25.9219 18.7046 25.9313 18.6706 25.9476C18.6366 25.9639 18.6061 25.9867 18.5809 26.0148C18.5558 26.0428 18.5364 26.0756 18.5238 26.1111L17.1378 30.047C16.8027 31.0127 16.561 31.7818 16.3988 32.3982C16.3631 32.5325 16.2841 32.6512 16.1739 32.7358C16.0637 32.8204 15.9286 32.8662 15.7897 32.866H9.99678C9.85752 32.8663 9.72208 32.8204 9.61174 32.7355C9.50141 32.6505 9.42244 32.5312 9.38723 32.3965C9.22505 31.7694 8.98185 31.0003 8.64367 30.0453L2.70409 13.2583C2.25668 11.9609 1.97967 11.2265 1.60624 10.3479C1.6011 10.3357 1.59904 10.3225 1.60025 10.3093C1.60146 10.2962 1.6059 10.2836 1.61318 10.2725C1.62046 10.2615 1.63035 10.2525 1.64197 10.2462C1.65359 10.24 1.66658 10.2367 1.67978 10.2366L7.32852 10.2366C7.34785 10.2367 7.36648 10.2438 7.38101 10.2565C7.39555 10.2692 7.405 10.2868 7.40763 10.3059C7.55861 11.2317 7.77064 12.1465 8.04233 13.0444L12.0858 26.4576C12.3076 27.2063 12.3076 27.2063 12.6132 28.3732C12.6292 28.4343 12.665 28.4885 12.715 28.5273C12.7649 28.566 12.8263 28.5872 12.8895 28.5875H12.8909C12.9539 28.5875 13.0152 28.5668 13.0652 28.5286C13.1153 28.4904 13.1514 28.4367 13.1679 28.376C13.3351 27.7631 13.4326 27.4149 13.5057 27.1539C13.579 26.8919 13.6277 26.7183 13.6973 26.454L17.7411 13.0396C18.0737 11.8628 18.2603 11.1173 18.3576 10.3083C18.3597 10.2888 18.3689 10.2707 18.3835 10.2575C18.3981 10.2443 18.417 10.2369 18.4366 10.2366H18.9398C19.0159 10.2366 19.089 10.2064 19.1428 10.1526C19.1967 10.0987 19.2269 10.0257 19.2269 9.94954C19.2269 9.87339 19.1967 9.80036 19.1428 9.74652C19.089 9.69268 19.0159 9.66243 18.9398 9.66243Z" fill="#090909" stroke="#9B9B9B" stroke-width="0.4"/>
<path d="M37.8288 20.8065C36.7352 20.1159 35.3558 19.629 33.2146 19.1783C32.3515 19.0027 31.6699 18.8641 31.1803 18.7617C31.1434 18.7538 31.1052 18.7533 31.068 18.7602C31.0308 18.7671 30.9954 18.7812 30.9637 18.8018C30.932 18.8225 30.9047 18.8491 30.8834 18.8804C30.862 18.9116 30.847 18.9467 30.8393 18.9837C30.8315 19.0207 30.8312 19.0589 30.8382 19.096C30.8453 19.1332 30.8596 19.1685 30.8804 19.2001C30.9011 19.2317 30.9279 19.2589 30.9592 19.2801C30.9905 19.3014 31.0257 19.3162 31.0627 19.3238C31.5538 19.4265 32.2363 19.5652 33.0983 19.7406C35.1667 20.176 36.4897 20.64 37.5233 21.2927C39.4593 22.5027 40.4003 24.2841 40.4003 26.7386C40.4003 28.7673 39.7551 30.4708 38.5358 31.6636C36.962 33.1832 34.5613 33.9536 31.4005 33.9536C29.0447 33.9536 26.7731 33.457 25.3214 32.6237C23.9642 31.8636 22.9943 30.7134 22.4386 29.2052C22.4372 29.2014 22.4357 29.1977 22.4342 29.194C22.2239 28.6894 22.0921 28.1881 21.9479 27.3446C21.9397 27.2964 21.9416 27.2471 21.9533 27.1997C21.965 27.1522 21.9864 27.1077 22.016 27.0689C22.0457 27.0302 22.083 26.9979 22.1257 26.9742C22.1684 26.9504 22.2156 26.9358 22.2642 26.931L26.7754 26.4973C26.8629 26.4888 26.9504 26.5131 27.021 26.5654C27.0916 26.6177 27.1403 26.6944 27.1576 26.7806C27.2505 27.3665 27.4893 27.9196 27.852 28.389C27.8538 28.3914 27.8556 28.3937 27.8574 28.3961C28.5892 29.3108 29.8277 29.8146 31.3447 29.8146C33.6377 29.8146 35.0621 28.7429 35.0621 27.0175C35.0621 26.0335 34.5494 25.1856 33.7272 24.806C33.107 24.5108 32.3537 24.3041 29.4849 23.6421C29.4482 23.6336 29.4101 23.6325 29.373 23.6387C29.3358 23.6449 29.3002 23.6584 29.2682 23.6784C29.2362 23.6984 29.2085 23.7244 29.1866 23.7551C29.1647 23.7858 29.1491 23.8205 29.1406 23.8573C29.1321 23.894 29.131 23.932 29.1372 23.9692C29.1434 24.0064 29.1569 24.042 29.1769 24.074C29.1969 24.106 29.223 24.1337 29.2537 24.1556C29.2844 24.1775 29.3191 24.1931 29.3558 24.2016C32.1743 24.8521 32.9068 25.0514 33.4834 25.3259C34.103 25.612 34.4879 26.2601 34.4879 27.0175C34.4879 28.4094 33.3128 29.2404 31.3447 29.2404C30.0271 29.2404 28.9208 28.8032 28.3086 28.0408C28.0006 27.6425 27.7987 27.1724 27.7221 26.6747C27.6798 26.4468 27.5533 26.2432 27.3677 26.1044C27.1821 25.9656 26.951 25.9018 26.7205 25.9257L22.2092 26.3595C22.082 26.3717 21.9587 26.4101 21.847 26.4722C21.7353 26.5342 21.6375 26.6186 21.5599 26.7202C21.4822 26.8217 21.4264 26.9381 21.3957 27.0622C21.3651 27.1862 21.3604 27.3153 21.3819 27.4413C21.5336 28.3286 21.6747 28.8629 21.9018 29.4093C22.5065 31.0467 23.5627 32.2968 25.0383 33.1232C26.5703 34.0027 28.9488 34.5278 31.4005 34.5278C34.7152 34.5278 37.2501 33.7031 38.936 32.0754C40.2696 30.7708 40.9745 28.9253 40.9745 26.7386C40.9745 24.07 39.9452 22.1293 37.8288 20.8065Z" fill="#090909" stroke="#9B9B9B" stroke-width="0.4"/>
<path d="M28.084 16.1215C28.151 16.1577 28.2296 16.1658 28.3025 16.144C28.3755 16.1223 28.4369 16.0725 28.4731 16.0055C28.8626 15.2855 29.8132 14.8383 30.9542 14.8383C32.8098 14.8383 33.7118 15.4287 34.0674 16.8762C34.1058 17.0293 34.1984 17.1632 34.3279 17.2534C34.4574 17.3436 34.6152 17.3838 34.7721 17.3667L39.9422 16.8058C40.035 16.7956 40.1245 16.7658 40.2048 16.7182C40.2851 16.6707 40.3543 16.6065 40.4078 16.53C40.4613 16.4535 40.4978 16.3665 40.5149 16.2747C40.532 16.183 40.5293 16.0886 40.5069 15.998C40.1653 14.6142 39.8127 13.818 39.1635 12.9611C37.6097 10.8031 34.8482 9.66238 31.1773 9.66238C31.1012 9.66238 31.0281 9.69263 30.9743 9.74648C30.9204 9.80032 30.8902 9.87335 30.8902 9.94949C30.8902 10.0256 30.9204 10.0987 30.9743 10.1525C31.0281 10.2064 31.1012 10.2366 31.1773 10.2366C34.6558 10.2366 37.2562 11.2947 38.7016 13.3022C39.3022 14.0951 39.6288 14.8366 39.9494 16.1356C39.9522 16.1467 39.9525 16.1584 39.9504 16.1697C39.9483 16.1811 39.9437 16.1918 39.937 16.2012C39.9306 16.2106 39.9222 16.2185 39.9124 16.2243C39.9026 16.2301 39.8916 16.2337 39.8803 16.2349L34.7101 16.7959C34.6915 16.7982 34.6726 16.7938 34.657 16.7834C34.6414 16.773 34.6301 16.7573 34.625 16.7392C34.2045 15.0274 33.0724 14.2641 30.9542 14.2641C29.6021 14.2641 28.4579 14.8267 27.9681 15.7323C27.9501 15.7655 27.9389 15.8019 27.935 15.8394C27.9311 15.8769 27.9347 15.9148 27.9454 15.9509C27.9562 15.987 27.974 16.0207 27.9978 16.05C28.0215 16.0792 28.0508 16.1035 28.084 16.1215Z" fill="#090909" stroke="#9B9B9B" stroke-width="0.4"/>
<path d="M30.2563 38.8758C30.2086 38.8759 30.1616 38.864 30.1196 38.8413C30.0776 38.8186 30.0419 38.7858 30.0158 38.7459L28.8463 36.9585C28.8047 36.8948 28.79 36.8171 28.8056 36.7426C28.8212 36.6681 28.8658 36.6029 28.9294 36.5612C28.9931 36.5195 29.0708 36.5048 29.1453 36.5204C29.2198 36.5359 29.2851 36.5804 29.3268 36.644L30.4963 38.4314C30.5246 38.4747 30.5407 38.5249 30.5429 38.5766C30.545 38.6282 30.5332 38.6796 30.5086 38.7251C30.484 38.7706 30.4476 38.8086 30.4032 38.8352C30.3588 38.8617 30.308 38.8757 30.2563 38.8758Z" fill="#F46E94"/>
<path d="M21.9119 39.7623C21.866 39.7623 21.8209 39.7513 21.7801 39.7302C21.7394 39.7091 21.7043 39.6786 21.6778 39.6413C21.6513 39.6039 21.6341 39.5607 21.6277 39.5153C21.6212 39.4699 21.6258 39.4237 21.6408 39.3804L22.3456 37.3639C22.358 37.3283 22.3773 37.2955 22.4024 37.2674C22.4276 37.2393 22.458 37.2164 22.4919 37.2C22.5259 37.1837 22.5627 37.1742 22.6004 37.172C22.638 37.1699 22.6757 37.1752 22.7113 37.1877C22.7469 37.2001 22.7797 37.2194 22.8078 37.2445C22.8359 37.2696 22.8588 37.3 22.8752 37.334C22.8916 37.368 22.9011 37.4048 22.9032 37.4425C22.9053 37.4801 22.9 37.5178 22.8876 37.5534L22.1829 39.5698C22.1632 39.6261 22.1266 39.6748 22.078 39.7093C22.0295 39.7437 21.9714 39.7623 21.9119 39.7623Z" fill="#F46E94"/>
<path d="M14.3053 8.02637C14.2477 8.02639 14.1913 8.00895 14.1437 7.97634L12.3795 6.7721C12.3483 6.75086 12.3216 6.72368 12.301 6.69213C12.2803 6.66057 12.2661 6.62525 12.2591 6.58819C12.2521 6.55112 12.2524 6.51304 12.2602 6.47612C12.2679 6.4392 12.2828 6.40416 12.3041 6.37301C12.3253 6.34186 12.3525 6.3152 12.3841 6.29456C12.4157 6.27392 12.451 6.25971 12.4881 6.25273C12.5251 6.24575 12.5632 6.24614 12.6001 6.25389C12.637 6.26163 12.6721 6.27657 12.7032 6.29786L14.4674 7.50209C14.5181 7.5367 14.5564 7.58664 14.5766 7.64458C14.5968 7.70252 14.598 7.76541 14.5798 7.82405C14.5617 7.88268 14.5253 7.93396 14.4759 7.97037C14.4265 8.00678 14.3667 8.0264 14.3053 8.02637Z" fill="#F46E94"/>
<path d="M20.0321 4.9445C19.9588 4.94443 19.8882 4.91633 19.835 4.86595C19.7817 4.81557 19.7498 4.74673 19.7456 4.67353L19.6256 2.54088C19.6214 2.46492 19.6476 2.39042 19.6983 2.33373C19.749 2.27704 19.8202 2.2428 19.8962 2.23852C19.9721 2.23425 20.0466 2.26028 20.1034 2.31092C20.1602 2.36156 20.1945 2.43265 20.1989 2.5086L20.319 4.64124C20.3232 4.71727 20.2971 4.79188 20.2464 4.84867C20.1957 4.90545 20.1245 4.93976 20.0485 4.94405C20.043 4.94434 20.0375 4.9445 20.0321 4.9445Z" fill="#F46E94"/>
</svg>
