<svg id="Capa_1" enable-background="new 0 0 511.998 511.998" height="512" viewBox="0 0 511.998 511.998" width="512" xmlns="http://www.w3.org/2000/svg"><g><path d="m297.362 276.74c0 13.794 9.85 25.62 23.416 28.115l86.037 15.823c30.899 5.683 53.333 32.619 53.333 64.036v117.284h-204.149-204.149v-117.284c0-31.417 22.434-58.354 53.333-64.036l86.037-15.823c13.566-2.495 23.416-14.321 23.416-28.115z" fill="#fff"/><path d="m303.948 275.385-47.949 57.197-47.949-57.197z" fill="#ffb888"/><path d="m208.05 275.385-34.618 32.742 37.911 64.871 44.656-40.416z" fill="#fff"/><path d="m303.948 275.385 34.618 32.742-37.911 64.871-44.656-40.416z" fill="#fff"/><path d="m345.6 116.18v79.921c0 49.485-40.116 89.601-89.601 89.601-49.485 0-89.601-40.116-89.601-89.601v-79.921" fill="#ffb888"/><path d="m381.693 108.928h-251.388c-11.046 0-20 8.954-20 20 0 11.046 8.954 20 20 20h251.388c11.046 0 20-8.954 20-20 0-11.045-8.954-20-20-20z" fill="#fff"/><path d="m297.283 499.321-16.756-128.199h-49.055l-16.757 128.199z" fill="#ff7b79"/><path d="m345.854 108.928-.232-51.063c0-30.83-28.73-53.613-58.749-46.587l-20.076 4.698c-7.172 1.678-14.634 1.678-21.806 0l-20.076-4.698c-30.019-7.025-58.749 15.757-58.749 46.587l.232 51.063z" fill="#fff"/><path d="m235.559 341.051h40.88v40.88h-40.88z" fill="#ff7b79" transform="matrix(.707 -.707 .707 .707 -180.632 286.897)"/><g><path d="m408.623 310.843-65.336-12.015-25.812-24.414c23.2-18.252 38.125-46.572 38.125-78.313v-37.173h26.093c16.542 0 30-13.458 30-30s-13.458-30-30-30h-25.88l-.19-41.063c0-17.766-7.983-34.286-21.904-45.324-13.92-11.038-31.824-15.045-49.123-11l-20.078 4.699c-5.641 1.32-11.605 1.321-17.248-.001l-20.076-4.698c-17.299-4.046-35.204-.039-49.123 11-13.921 11.038-21.904 27.559-21.904 45.371l.19 41.016h-26.051c-16.542 0-30 13.458-30 30s13.458 30 30 30h26.093v37.173c0 31.741 14.925 60.062 38.125 78.313l-25.812 24.414-65.336 12.015c-35.65 6.557-61.525 37.623-61.525 73.871v117.284c0 5.522 4.478 10 10 10h408.299c5.522 0 10-4.478 10-10v-117.284c-.002-36.248-25.877-67.314-61.527-73.871zm-82.696-.906-27.692 47.384-28.387-25.692 34.943-41.683zm-55.163 51.554-14.765 14.764-14.765-14.764 14.765-14.765zm-34.241-67.707c6.301 1.254 12.812 1.917 19.476 1.917s13.175-.663 19.476-1.917l-19.476 23.232zm-106.217-154.856c-5.514 0-10-4.486-10-10s4.486-10 10-10h80.82c5.522 0 10-4.478 10-10s-4.478-10-10-10h-34.769l-.191-41.063c0-11.623 5.224-22.432 14.331-29.653 9.107-7.223 20.82-9.847 32.14-7.196l20.075 4.698c8.624 2.018 17.741 2.018 26.363 0l20.076-4.698c11.32-2.651 23.032-.027 32.14 7.196 9.107 7.222 14.331 18.03 14.331 29.699l.19 41.017h-34.686c-5.522 0-10 4.478-10 10s4.478 10 10 10h80.566c5.514 0 10 4.486 10 10s-4.486 10-10 10zm46.092 57.173v-37.173h159.202v37.173c0 43.892-35.709 79.601-79.601 79.601s-79.601-35.71-79.601-79.601zm30.809 93.844 34.943 41.683-28.387 25.692-27.692-47.384zm-1.62 202.053h-77.691v-72.896c0-5.522-4.478-10-10-10s-10 4.478-10 10v72.896h-46.046v-107.284c0-26.596 18.985-49.391 45.143-54.201l61.346-11.282 34.372 58.813c1.52 2.601 4.131 4.378 7.108 4.837.509.079 1.019.117 1.525.117 2.462 0 4.858-.91 6.71-2.586l2.403-2.174zm20.171 0 13.605-104.094 9.564 9.564c1.953 1.952 4.512 2.929 7.071 2.929s5.118-.977 7.071-2.929l9.564-9.564 13.605 104.094zm224.39 0h-46.047v-72.896c0-5.522-4.478-10-10-10s-10 4.478-10 10v72.896h-77.691l-14.869-113.76 2.403 2.174c1.852 1.676 4.248 2.586 6.71 2.586.507 0 1.017-.038 1.525-.117 2.978-.459 5.589-2.236 7.108-4.837l34.372-58.813 61.346 11.282c26.157 4.811 45.143 27.605 45.143 54.201z"/><circle cx="256.129" cy="108.928" r="10"/></g></g></svg>