<svg xmlns="http://www.w3.org/2000/svg" version="1.1" xmlns:xlink="http://www.w3.org/1999/xlink" width="512" height="512" x="0" y="0" viewBox="0 0 256 256" style="enable-background:new 0 0 512 512" xml:space="preserve"><g><path d="M188.385 248.941H67.615a60.626 60.626 0 0 1-60.558-60.556V67.615A60.626 60.626 0 0 1 67.615 7.06h120.77a60.626 60.626 0 0 1 60.558 60.556v120.77a60.626 60.626 0 0 1-60.558 60.556zM67.615 17.1A50.573 50.573 0 0 0 17.1 67.615v120.77A50.573 50.573 0 0 0 67.615 238.9h120.77a50.573 50.573 0 0 0 50.516-50.516V67.615A50.573 50.573 0 0 0 188.385 17.1z" fill="#ffffff" opacity="1" data-original="#000000"></path><path d="M128 189.846a61.846 61.846 0 1 1 61.846-61.847A61.916 61.916 0 0 1 128 189.846zm0-113.65a51.805 51.805 0 1 0 51.804 51.803A51.862 51.862 0 0 0 128 76.195zM192.088 76.016a18.004 18.004 0 1 1 18.005-18.004 18.025 18.025 0 0 1-18.005 18.004zm0-25.968a7.963 7.963 0 1 0 7.963 7.964 7.973 7.973 0 0 0-7.963-7.964z" fill="#ffffff" opacity="1" data-original="#000000"></path></g></svg>