<svg width="100" height="100" viewBox="0 0 100 100" fill="none" xmlns="http://www.w3.org/2000/svg">
<rect width="100" height="100" rx="50" fill="white"/>
<path d="M49.2194 28.0693L40.4397 45.4317L36.3569 28.4083L36.2749 28.0693H27.6487L35.0543 59.1082L35.0198 59.2062H32.1868L27 75.8643L35.5547 63.6706H39.092L39.6454 62.5691L41.2022 59.4657H41.2101L53.4027 35.3749L57.1016 28.0693H49.2194ZM37.2095 62.1613L28.9672 28.8399L37.8979 61.3272L38.8299 62.1613H37.2095ZM40.0081 50.8256L35.5414 28.6439L40.0558 47.5368L49.7728 28.6439L40.0081 50.8256Z" fill="#5C418D"/>
<path d="M58.5266 50.2515C58.6749 50.2303 58.8285 50.2303 58.9873 50.2568C59.4374 50.3256 59.8743 50.4077 60.3006 50.503C66.2102 51.7926 69.5887 55.0521 69.5913 55.0574L72.9936 48.3423C71.3706 46.8727 68.2807 44.6432 63.7002 43.682C63.7002 43.682 62.2016 43.3272 61.4206 43.1736L62.2652 40.6554H65.0982L70.285 24L61.7303 36.191H58.193L54.4174 43.7138L51.7697 48.9911L47.3878 57.6471C48.1795 58.7937 49.122 59.7125 50.2129 60.4115C50.7742 60.7716 51.4123 61.1423 52.1219 61.5237C52.8103 61.897 53.5728 62.2783 54.4015 62.6728C55.0105 62.9668 55.5533 63.2395 56.0272 63.4937C56.2443 63.6129 56.4482 63.7267 56.6388 63.8353C57.1896 64.1557 57.5576 64.7356 57.5602 65.3711V65.387C57.5602 66.4038 56.8348 67.3914 55.8842 67.5212C55.7386 67.5424 55.5824 67.5424 55.4262 67.5212C54.9761 67.4497 54.5392 67.3676 54.1156 67.2749C48.2059 65.9854 44.8248 62.7232 44.8222 62.7179L43.9167 64.5079L41.4199 69.433C43.043 70.9026 46.1381 73.1348 50.7213 74.096C50.7848 74.1092 50.851 74.1251 50.9145 74.1383C50.9331 74.1383 50.949 74.1436 50.9675 74.1489C53.1068 74.57 55.5639 74.7129 58.3387 74.3819C58.9106 74.2999 59.4639 74.1939 59.9961 74.0615C60.8195 73.8577 61.5927 73.5902 62.3155 73.2645C64.2377 72.3907 65.7072 71.1886 66.7292 69.6475C67.7485 68.1117 68.2595 66.3826 68.2595 64.4602C68.2595 62.7761 67.8624 61.3489 67.0628 60.1812C67.0495 60.1626 67.039 60.1441 67.0284 60.1282C66.2341 58.9843 65.2915 58.0628 64.2006 57.3638C63.634 57.001 62.9906 56.6276 62.2731 56.2437C60.1205 55.1819 58.156 54.3557 58.156 54.3557C57.7906 54.1995 57.4755 53.9427 57.2505 53.6223C56.9989 53.2754 56.8533 52.8517 56.8533 52.391C56.8533 51.3742 57.5788 50.3865 58.5266 50.2541V50.2515ZM42.3228 69.1708L44.9546 63.8671L43.1197 69.2635C43.1197 69.2635 48.0709 73.9027 56.1675 73.8894C56.1675 73.8894 47.3587 74.3978 42.3228 69.1708ZM57.2001 63.258L51.8253 60.4433C48.4575 58.934 48.3648 57.1308 48.3648 57.1308L55.7254 42.7764L49.2862 57.0937C49.2862 57.0937 49.1935 58.0522 52.008 59.8184C54.7351 61.5289 57.0598 63.1574 57.2001 63.258Z" fill="#FBBC09"/>
<path d="M61.6031 24.4231C53.946 41.1685 45.5316 57.8133 36.5771 73.9021C44.229 57.1567 52.6539 40.5145 61.6031 24.4231Z" fill="#00CA75"/>
</svg>
