<?xml version="1.0" encoding="utf-8"?>
<!-- Generator: Adobe Illustrator 22.0.1, SVG Export Plug-In . SVG Version: 6.00 Build 0)  -->
<svg version="1.1" id="Layer_1" xmlns="http://www.w3.org/2000/svg" xmlns:xlink="http://www.w3.org/1999/xlink" x="0px" y="0px"
	 viewBox="0 0 841.9 284.8" style="enable-background:new 0 0 841.9 284.8;" xml:space="preserve">
<style type="text/css">
	.st0{fill:#2C96B6;}
	.st1{fill:#152B48;}
	.st2{fill:#595B5D;}
</style>
<polygon class="st0" points="181.3,49.8 194.5,49.8 194.5,134.3 226.3,134.3 226.3,147.5 181.3,147.5 "/>
<path class="st0" d="M227.1,115.6c0-8.6,3.4-16.3,10.2-23c6.9-6.7,14.7-10.1,23.5-10.1c9.1,0,17.1,3.3,23.9,10
	c6.8,6.6,10.2,14.3,10.2,23.2c0,8.9-3.4,16.7-10,23.6c-6.7,6.7-14.3,10.1-23.1,10.1c-9.4,0-17.5-3.4-24.4-10
	C230.5,132.6,227.1,124.7,227.1,115.6 M282,115.6c0-5.4-2-10-6.1-14c-4.1-4-8.9-6-14.6-6c-5.8,0-10.8,2-15,6.1
	c-4.1,4-6.2,8.8-6.2,14.3c0,5.3,2.1,10,6.3,14c4.2,4,9.2,6,14.9,6c5.5,0,10.4-2,14.5-6.1C280,125.8,282,121,282,115.6"/>
<path class="st0" d="M354,84.3h13V145c0,9-3.1,16.5-9.3,22.8c-6.1,6.3-13.6,9.4-22.3,9.4c-6.6,0-12.8-1.8-18.3-5.4
	c-5.6-3.6-9.7-9.1-12.3-16.4h13.8c4.1,6.9,9.9,10.3,17.3,10.3c5,0,9.3-1.8,12.8-5.4c3.5-3.6,5.3-7.9,5.3-13v-12
	c-6.4,9.4-14.6,14-24.4,14c-8.1,0-15.1-3.3-21.2-10c-6-6.7-9-14.6-9-23.7c0-9.1,2.9-16.9,8.7-23.4c5.9-6.5,12.9-9.7,20.9-9.7
	c10.4,0,18.7,5,24.9,15.1V84.3z M355.9,115.8c0-5.9-2.1-10.9-6.2-14.9c-4.1-4-9.2-6-15.3-6c-5.6,0-10.5,2.1-14.7,6.2
	c-4.2,4.1-6.4,8.9-6.4,14.3c0,5.9,2.1,10.9,6.3,15.2c4.2,4.2,9.2,6.4,15,6.4c5.9,0,10.9-2.1,15-6.2
	C353.8,126.7,355.9,121.7,355.9,115.8"/>
<path class="st0" d="M377.7,63.5c0-2.8,1-5.1,3.1-7.1c2-2,4.5-3.1,7.3-3.1c2.8,0,5.1,1,7.1,3.1c2,2,3.1,4.4,3.1,7.1
	c0,2.8-1,5.2-3.1,7.2c-2,2-4.4,3-7.1,3c-2.8,0-5.2-1-7.3-3C378.7,68.7,377.7,66.3,377.7,63.5 M381.5,84.3h13.2v63.3h-13.2V84.3z"/>
<path class="st0" d="M454.3,128.2v15.3c-6.8,3.9-13.4,5.8-19.8,5.8c-8.7,0-16.4-3.3-23-9.8c-6.5-6.6-9.8-14.2-9.8-22.9
	c0-9.8,3.3-17.9,9.8-24.4c6.5-6.5,14.8-9.7,24.6-9.7c5.9,0,11.9,1.5,18.2,4.6V102c-6.7-4.3-13-6.4-19-6.4c-5.5,0-10.4,1.9-14.5,5.8
	c-4.1,3.9-6.2,8.4-6.2,13.7c0,5.9,1.9,10.8,5.8,14.9c3.9,4,8.6,6,14.3,6C440.4,135.9,446.9,133.3,454.3,128.2"/>
<polygon class="st1" points="448.6,50 462.7,50 493.3,119.1 524.2,50 538.4,50 493.2,150.8 "/>
<path class="st1" d="M584.8,84.3h13.3v63.3h-13.3V135c-6.5,9.6-14.5,14.3-24.2,14.3c-8.3,0-15.5-3.3-21.4-9.8
	c-5.9-6.5-8.8-14.5-8.8-23.9c0-8.8,3-16.6,8.9-23.2c6-6.6,13-10,21-10c5,0,9.7,1.4,14.1,4.1c4.4,2.7,7.9,6.2,10.4,10.6V84.3z
	 M586.6,116.1c0-5.8-2.1-10.7-6.2-14.8c-4.1-4.1-9.1-6.2-14.9-6.2c-5.6,0-10.5,2-14.7,6.1c-4.2,4.1-6.3,8.9-6.3,14.4
	c0,6,2,11.1,6.1,15.3c4.1,4.2,9,6.3,14.9,6.3c5.8,0,10.7-2.1,14.9-6.2C584.5,126.8,586.6,121.8,586.6,116.1"/>
<rect x="612.2" y="48" class="st1" width="13.3" height="99.6"/>
<rect x="638.9" y="48" class="st1" width="13.3" height="99.6"/>
<path class="st1" d="M726.9,118.5h-54c1.2,6.5,3.8,11.2,8,14.3c4.2,3,8.7,4.4,13.6,4.4c7.6,0,13.9-3.1,19-9.4l9.7,7.4
	c-7.3,9.5-17.1,14.2-29.4,14.2c-9.4,0-17.3-3.2-23.6-9.7c-6.3-6.4-9.5-14.4-9.5-24c0-9,3.2-16.7,9.6-23.2c6.4-6.6,14.3-9.9,23.6-9.9
	c9.1,0,16.9,3.3,23.4,10C723.8,99.2,727,107.8,726.9,118.5 M674.2,107.8h38.7c-4.3-8.7-10.6-13-19-13
	C684.7,94.8,678.2,99.1,674.2,107.8"/>
<polygon class="st1" points="724,84.3 739.1,84.3 762,118.6 777.9,84.3 791.7,84.3 749,177.2 735,177.2 755.9,132 "/>
<path class="st1" d="M82.8,46.5c0,5.1,4.1,9.2,9.2,9.2c5.1,0,9.2-4.1,9.2-9.2c0-5.1-4.1-9.2-9.2-9.2C86.9,37.3,82.8,41.4,82.8,46.5"
	/>
<path class="st1" d="M103,143.8C103,143.8,103,143.7,103,143.8l-30.8-0.1h-5.8v-5.9V35.6h-6.1c-5.6,0-10,4.5-10,10v99.4
	c0,5.6,4.5,10,10,10h51.7C107.3,153,103.9,148.8,103,143.8"/>
<path class="st1" d="M118.5,131.6c-5.1,0-9.2,4.1-9.2,9.2c0,5.1,4.1,9.2,9.2,9.2c5.1,0,9.2-4.1,9.2-9.2
	C127.7,135.8,123.6,131.6,118.5,131.6"/>
<path class="st1" d="M159.6,35.6h-56c2.7,2.9,4.4,6.7,4.4,10.9c0,7.8-5.6,14.2-12.9,15.5v40.6h20.9L130.6,78
	c-2.9-2.6-4.8-6.3-4.8-10.4c0-7.6,6.2-13.8,13.8-13.8c7.6,0,13.8,6.2,13.8,13.8c0,7.6-6.2,13.8-13.8,13.8c-1.4,0-2.6-0.2-3.9-0.5
	l-16.5,27.8H95h-5.8v-5.9V62.1c-7.3-1.4-12.9-7.8-12.9-15.5c0-4.2,1.7-8.1,4.4-10.9h-8.5v102.2H103c1.4-7.3,7.9-12.8,15.5-12.8
	c8.7,0,15.8,7.1,15.8,15.7c0,6.4-3.7,11.9-9.1,14.3h34.3c5.6,0,10-4.6,10-10h0.1V45.7C169.6,40.1,165.1,35.6,159.6,35.6"/>
<path class="st2" d="M61.8,239.6h-0.1v19.9h-5.3v-48h5.3v5.8h0.1c2.6-4.4,6.4-6.6,11.4-6.6c4.2,0,7.5,1.5,9.9,4.4
	c2.4,2.9,3.6,6.9,3.6,11.8c0,5.5-1.3,9.9-4,13.2c-2.7,3.3-6.3,4.9-11,4.9C67.4,245.1,64.1,243.3,61.8,239.6 M61.6,226.3v4.6
	c0,2.7,0.9,5,2.6,6.9c1.8,1.9,4,2.8,6.7,2.8c3.2,0,5.7-1.2,7.5-3.7c1.8-2.4,2.7-5.8,2.7-10.2c0-3.7-0.8-6.5-2.5-8.6
	c-1.7-2.1-4-3.1-6.9-3.1c-3.1,0-5.5,1.1-7.4,3.2C62.6,220.5,61.6,223.1,61.6,226.3"/>
<path class="st2" d="M118.6,244.4h-5.3v-5.1h-0.1c-2.3,3.9-5.7,5.9-10.1,5.9c-3.3,0-5.8-0.9-7.7-2.6c-1.8-1.7-2.8-4-2.8-6.9
	c0-6.1,3.6-9.7,10.9-10.7l9.9-1.4c0-5.6-2.3-8.4-6.8-8.4c-4,0-7.5,1.3-10.7,4v-5.4c3.2-2.1,7-3.1,11.2-3.1c7.7,0,11.6,4.1,11.6,12.3
	V244.4z M113.3,227.7l-7.9,1.1c-2.4,0.3-4.3,1-5.5,1.8c-1.2,0.9-1.9,2.4-1.9,4.6c0,1.6,0.6,2.9,1.7,4c1.2,1,2.7,1.5,4.6,1.5
	c2.6,0,4.8-0.9,6.5-2.7c1.7-1.8,2.6-4.2,2.6-7V227.7z"/>
<path class="st2" d="M145.6,216.8c-0.9-0.7-2.2-1.1-4-1.1c-2.2,0-4.1,1.1-5.7,3.2c-1.5,2.1-2.2,5-2.2,8.7v16.8h-5.3v-32.9h5.3v6.8
	h0.1c0.7-2.3,1.9-4.1,3.4-5.4c1.5-1.3,3.3-2,5.2-2c1.4,0,2.4,0.2,3.1,0.5V216.8z"/>
<path class="st2" d="M166.6,244c-1.2,0.7-2.9,1-4.9,1c-5.8,0-8.6-3.2-8.6-9.6V216h-5.7v-4.5h5.7v-8l5.3-1.7v9.7h8.3v4.5h-8.3v18.5
	c0,2.2,0.4,3.8,1.1,4.7c0.7,0.9,2,1.4,3.7,1.4c1.3,0,2.5-0.4,3.4-1.1V244z"/>
<path class="st2" d="M205.4,245.1c-4.9,0-8.7-1.5-11.7-4.6c-2.9-3.1-4.3-7.2-4.3-12.2c0-5.5,1.5-9.8,4.5-12.9
	c3-3.1,7.1-4.7,12.2-4.7c4.9,0,8.7,1.5,11.5,4.5c2.8,3,4.1,7.2,4.1,12.6c0,5.2-1.5,9.4-4.5,12.6
	C214.4,243.6,210.4,245.1,205.4,245.1 M205.8,215.1c-3.4,0-6.1,1.2-8,3.5c-2,2.3-3,5.5-3,9.5c0,3.9,1,7,3,9.2c2,2.2,4.7,3.4,8,3.4
	c3.4,0,6-1.1,7.8-3.3c1.8-2.2,2.8-5.3,2.8-9.4c0-4.1-0.9-7.3-2.8-9.5C211.8,216.2,209.2,215.1,205.8,215.1"/>
<path class="st2" d="M246.5,200.3c-1-0.6-2.2-0.9-3.5-0.9c-3.7,0-5.5,2.3-5.5,7v5.1h7.7v4.5h-7.7v28.4h-5.2V216h-5.6v-4.5h5.6v-5.3
	c0-3.4,1-6.2,3-8.2c2-2,4.5-3,7.5-3c1.6,0,2.9,0.2,3.8,0.6V200.3z"/>
<path class="st2" d="M316.5,244.4h-5.4v-30.9c0-2.4,0.1-5.4,0.5-9h-0.1c-0.5,2.1-1,3.6-1.4,4.5l-15.7,35.4h-2.6L276,209.2
	c-0.5-1-0.9-2.6-1.4-4.7h-0.1c0.2,1.8,0.3,4.8,0.3,9v30.8h-5.2v-46h7.1l14.1,32.1c1.1,2.5,1.8,4.3,2.1,5.5h0.2
	c0.9-2.5,1.7-4.4,2.2-5.7l14.4-32h6.7V244.4z"/>
<path class="st2" d="M351.5,244.4h-5.3v-5.1h-0.1c-2.3,3.9-5.7,5.9-10.1,5.9c-3.3,0-5.8-0.9-7.7-2.6c-1.8-1.7-2.8-4-2.8-6.9
	c0-6.1,3.6-9.7,10.9-10.7l9.9-1.4c0-5.6-2.3-8.4-6.8-8.4c-4,0-7.5,1.3-10.7,4v-5.4c3.2-2.1,7-3.1,11.2-3.1c7.7,0,11.6,4.1,11.6,12.3
	V244.4z M346.2,227.7l-7.9,1.1c-2.4,0.3-4.3,1-5.5,1.8c-1.2,0.9-1.9,2.4-1.9,4.6c0,1.6,0.6,2.9,1.7,4c1.2,1,2.7,1.5,4.6,1.5
	c2.6,0,4.8-0.9,6.5-2.7c1.7-1.8,2.6-4.2,2.6-7V227.7z"/>
<path class="st2" d="M378.6,216.8c-0.9-0.7-2.2-1.1-4-1.1c-2.2,0-4.1,1.1-5.7,3.2c-1.5,2.1-2.2,5-2.2,8.7v16.8h-5.3v-32.9h5.3v6.8
	h0.1c0.7-2.3,1.9-4.1,3.4-5.4c1.5-1.3,3.3-2,5.2-2c1.4,0,2.4,0.2,3.1,0.5V216.8z"/>
<path class="st2" d="M382.3,243.2v-5.7c2.9,2.1,6,3.2,9.5,3.2c4.6,0,6.9-1.5,6.9-4.6c0-0.9-0.2-1.6-0.6-2.2
	c-0.4-0.6-0.9-1.2-1.6-1.6c-0.7-0.5-1.5-0.9-2.4-1.2c-0.9-0.4-1.9-0.8-2.9-1.2c-1.5-0.6-2.7-1.1-3.9-1.7c-1.1-0.6-2-1.3-2.8-2
	c-0.7-0.7-1.3-1.6-1.7-2.5c-0.4-0.9-0.5-2-0.5-3.3c0-1.5,0.3-2.9,1.1-4.1c0.7-1.2,1.6-2.2,2.8-3c1.2-0.8,2.5-1.4,4-1.8
	c1.5-0.4,3.1-0.6,4.7-0.6c2.8,0,5.4,0.5,7.6,1.5v5.3c-2.4-1.6-5.2-2.4-8.4-2.4c-1,0-1.9,0.1-2.7,0.4c-0.8,0.2-1.5,0.5-2.1,0.9
	c-0.6,0.4-1,0.9-1.3,1.5c-0.3,0.6-0.5,1.2-0.5,1.9c0,0.9,0.1,1.6,0.5,2.2c0.3,0.6,0.8,1.1,1.4,1.5c0.6,0.5,1.3,0.9,2.2,1.2
	c0.9,0.4,1.8,0.8,2.9,1.2c1.5,0.6,2.8,1.1,3.9,1.7c1.2,0.6,2.1,1.2,3,2c0.8,0.7,1.4,1.6,1.9,2.5c0.4,1,0.7,2.1,0.7,3.4
	c0,1.6-0.4,3-1.1,4.2c-0.7,1.2-1.7,2.2-2.9,3c-1.2,0.8-2.6,1.4-4.1,1.8c-1.6,0.4-3.2,0.6-4.9,0.6
	C387.7,245.1,384.8,244.5,382.3,243.2"/>
<path class="st2" d="M427.5,244c-1.2,0.7-2.9,1-4.9,1c-5.8,0-8.6-3.2-8.6-9.6V216h-5.7v-4.5h5.7v-8l5.3-1.7v9.7h8.3v4.5h-8.3v18.5
	c0,2.2,0.4,3.8,1.1,4.7c0.7,0.9,2,1.4,3.7,1.4c1.3,0,2.5-0.4,3.4-1.1V244z"/>
<path class="st2" d="M448.2,245.1c-4.9,0-8.7-1.5-11.7-4.6c-2.9-3.1-4.3-7.2-4.3-12.2c0-5.5,1.5-9.8,4.5-12.9
	c3-3.1,7.1-4.7,12.2-4.7c4.9,0,8.7,1.5,11.5,4.5c2.8,3,4.1,7.2,4.1,12.6c0,5.2-1.5,9.4-4.5,12.6
	C457.2,243.6,453.2,245.1,448.2,245.1 M448.6,215.1c-3.4,0-6.1,1.2-8,3.5c-2,2.3-3,5.5-3,9.5c0,3.9,1,7,3,9.2c2,2.2,4.7,3.4,8,3.4
	c3.4,0,6-1.1,7.8-3.3c1.8-2.2,2.8-5.3,2.8-9.4c0-4.1-0.9-7.3-2.8-9.5C454.6,216.2,452,215.1,448.6,215.1"/>
<path class="st2" d="M500.3,244.4h-5.3v-18.8c0-7-2.5-10.5-7.6-10.5c-2.6,0-4.8,1-6.5,3c-1.7,2-2.6,4.5-2.6,7.5v18.8H473v-32.9h5.3
	v5.5h0.1c2.5-4.2,6.1-6.2,10.8-6.2c3.6,0,6.3,1.2,8.3,3.5c1.9,2.3,2.9,5.7,2.9,10V244.4z"/>
<polygon class="st2" points="563.7,244.4 558.3,244.4 558.3,223.4 534.4,223.4 534.4,244.4 529,244.4 529,198.3 534.4,198.3 
	534.4,218.5 558.3,218.5 558.3,198.3 563.7,198.3 "/>
<path class="st2" d="M588.8,245.1c-4.9,0-8.7-1.5-11.7-4.6c-2.9-3.1-4.3-7.2-4.3-12.2c0-5.5,1.5-9.8,4.5-12.9
	c3-3.1,7.1-4.7,12.2-4.7c4.9,0,8.7,1.5,11.5,4.5c2.8,3,4.1,7.2,4.1,12.6c0,5.2-1.5,9.4-4.5,12.6
	C597.7,243.6,593.8,245.1,588.8,245.1 M589.2,215.1c-3.4,0-6.1,1.2-8,3.5c-2,2.3-3,5.5-3,9.5c0,3.9,1,7,3,9.2c2,2.2,4.7,3.4,8,3.4
	c3.4,0,6-1.1,7.8-3.3c1.8-2.2,2.8-5.3,2.8-9.4c0-4.1-0.9-7.3-2.8-9.5C595.2,216.2,592.6,215.1,589.2,215.1"/>
<rect x="613.6" y="195.7" class="st2" width="5.3" height="48.7"/>
<path class="st2" d="M657.5,244.4h-5.3v-5.6h-0.1c-2.4,4.2-6.2,6.4-11.3,6.4c-4.1,0-7.4-1.5-9.9-4.4c-2.5-3-3.7-7-3.7-12
	c0-5.4,1.4-9.8,4.1-13.1c2.7-3.3,6.4-4.9,10.9-4.9c4.5,0,7.8,1.8,9.9,5.3h0.1v-20.4h5.3V244.4z M652.3,229.5v-4.8
	c0-2.7-0.9-4.9-2.6-6.7c-1.8-1.8-4-2.8-6.7-2.8c-3.2,0-5.7,1.2-7.6,3.5c-1.8,2.4-2.8,5.6-2.8,9.8c0,3.8,0.9,6.8,2.6,9
	c1.8,2.2,4.2,3.3,7.1,3.3c2.9,0,5.3-1.1,7.1-3.2C651.4,235.4,652.3,232.7,652.3,229.5"/>
<path class="st2" d="M670.9,203.1c-0.9,0-1.8-0.3-2.4-1c-0.7-0.6-1-1.5-1-2.4s0.3-1.8,1-2.4c0.7-0.7,1.5-1,2.4-1c1,0,1.8,0.3,2.4,1
	c0.7,0.6,1,1.5,1,2.4c0,0.9-0.3,1.7-1,2.4C672.7,202.8,671.9,203.1,670.9,203.1 M673.5,244.4h-5.3v-32.9h5.3V244.4z"/>
<path class="st2" d="M711.4,244.4h-5.3v-18.8c0-7-2.6-10.5-7.6-10.5c-2.6,0-4.8,1-6.5,3c-1.7,2-2.6,4.5-2.6,7.5v18.8h-5.3v-32.9h5.3
	v5.5h0.1c2.5-4.2,6.1-6.2,10.8-6.2c3.6,0,6.3,1.2,8.3,3.5c1.9,2.3,2.9,5.7,2.9,10V244.4z"/>
<path class="st2" d="M749.4,241.7c0,12.1-5.8,18.1-17.3,18.1c-4.1,0-7.6-0.8-10.7-2.3v-5.3c3.7,2.1,7.2,3.1,10.6,3.1
	c8.1,0,12.1-4.3,12.1-12.9v-3.6H744c-2.5,4.2-6.3,6.3-11.3,6.3c-4.1,0-7.4-1.5-9.9-4.4c-2.5-2.9-3.7-6.9-3.7-11.8
	c0-5.6,1.3-10,4-13.3c2.7-3.3,6.4-4.9,11-4.9c4.4,0,7.7,1.8,9.8,5.3h0.1v-4.6h5.3V241.7z M744.2,229.5v-4.8c0-2.6-0.9-4.9-2.7-6.7
	c-1.8-1.9-4-2.8-6.6-2.8c-3.3,0-5.8,1.2-7.6,3.6c-1.8,2.4-2.8,5.7-2.8,9.9c0,3.7,0.9,6.6,2.6,8.8c1.8,2.2,4.1,3.3,7,3.3
	c3,0,5.3-1,7.2-3.1C743.3,235.4,744.2,232.8,744.2,229.5"/>
<path class="st2" d="M758.1,243.2v-5.7c2.9,2.1,6,3.2,9.5,3.2c4.6,0,6.9-1.5,6.9-4.6c0-0.9-0.2-1.6-0.6-2.2
	c-0.4-0.6-0.9-1.2-1.6-1.6c-0.7-0.5-1.5-0.9-2.4-1.2c-0.9-0.4-1.9-0.8-2.9-1.2c-1.5-0.6-2.7-1.1-3.8-1.7c-1.1-0.6-2-1.3-2.8-2
	c-0.7-0.7-1.3-1.6-1.7-2.5c-0.4-0.9-0.5-2-0.5-3.3c0-1.5,0.3-2.9,1.1-4.1c0.7-1.2,1.7-2.2,2.8-3c1.2-0.8,2.5-1.4,4-1.8
	c1.5-0.4,3.1-0.6,4.7-0.6c2.8,0,5.4,0.5,7.6,1.5v5.3c-2.4-1.6-5.2-2.4-8.3-2.4c-1,0-1.9,0.1-2.7,0.4c-0.8,0.2-1.5,0.5-2.1,0.9
	c-0.6,0.4-1,0.9-1.3,1.5c-0.3,0.6-0.5,1.2-0.5,1.9c0,0.9,0.1,1.6,0.5,2.2c0.3,0.6,0.8,1.1,1.4,1.5c0.6,0.5,1.3,0.9,2.2,1.2
	c0.9,0.4,1.8,0.8,2.9,1.2c1.5,0.6,2.8,1.1,3.9,1.7c1.2,0.6,2.1,1.2,3,2c0.8,0.7,1.4,1.6,1.9,2.5c0.5,1,0.7,2.1,0.7,3.4
	c0,1.6-0.4,3-1.1,4.2c-0.7,1.2-1.7,2.2-2.9,3c-1.2,0.8-2.6,1.4-4.1,1.8c-1.6,0.4-3.2,0.6-4.9,0.6
	C763.5,245.1,760.6,244.5,758.1,243.2"/>
</svg>
