<svg width="165" height="51" viewBox="0 0 165 51" fill="none" xmlns="http://www.w3.org/2000/svg">
<path d="M29.2698 3.19104H32.2017V22.1798H39.265V25.1461H29.2698V3.19104Z" fill="#2C96B6"/>
<path d="M39.4426 17.9775C39.4426 16.0449 40.1978 14.3146 41.7082 12.809C43.2408 11.3034 44.9733 10.5393 46.928 10.5393C48.9492 10.5393 50.7262 11.2809 52.2365 12.7865C53.7469 14.2696 54.5021 16 54.5021 18C54.5021 20 53.7469 21.7528 52.281 23.3034C50.7928 24.809 49.1047 25.573 47.1501 25.573C45.0622 25.573 43.263 24.809 41.7304 23.3258C40.1978 21.7977 39.4426 20.0225 39.4426 17.9775ZM51.6368 17.9775C51.6368 16.764 51.1926 15.7303 50.2819 14.8314C49.3712 13.9326 48.3051 13.4831 47.039 13.4831C45.7507 13.4831 44.6402 13.9326 43.7073 14.8539C42.7966 15.7528 42.3301 16.8314 42.3301 18.0674C42.3301 19.2584 42.7966 20.3146 43.7295 21.2135C44.6624 22.1123 45.7729 22.5618 47.039 22.5618C48.2607 22.5618 49.349 22.1123 50.2597 21.191C51.1926 20.2696 51.6368 19.191 51.6368 17.9775Z" fill="#2C96B6"/>
<path d="M70.5168 10.9438V24.5843C70.5168 26.6067 69.8282 28.2921 68.4511 29.7078C67.0962 31.1236 65.4303 31.8202 63.4979 31.8202C62.0319 31.8202 60.6548 31.4157 59.4332 30.6067C58.1893 29.7977 57.2786 28.5618 56.7011 26.9213H59.7663C60.677 28.4719 61.9653 29.2359 63.609 29.2359C64.7196 29.2359 65.6747 28.8314 66.4521 28.0225C67.2295 27.2135 67.6293 26.2472 67.6293 25.1011V22.4045C66.2077 24.5168 64.3864 25.5505 62.2096 25.5505C60.4105 25.5505 58.8557 24.809 57.5008 23.3034C56.1681 21.7977 55.5017 20.0225 55.5017 17.9775C55.5017 15.9326 56.1459 14.1798 57.4341 12.7191C58.7446 11.2584 60.2994 10.5393 62.0764 10.5393C64.3864 10.5393 66.2299 11.6629 67.6071 13.9326V10.9438H70.5168ZM68.0513 18.0225C68.0513 16.6966 67.5849 15.573 66.6742 14.6741C65.7635 13.7753 64.6307 13.3258 63.2758 13.3258C62.0319 13.3258 60.9436 13.7977 60.0107 14.7191C59.0778 15.6404 58.5891 16.7191 58.5891 17.9326C58.5891 19.2584 59.0556 20.382 59.9885 21.3483C60.9214 22.2921 62.0319 22.7865 63.3202 22.7865C64.6307 22.7865 65.7413 22.3146 66.652 21.3932C67.5849 20.4719 68.0513 19.3483 68.0513 18.0225Z" fill="#2C96B6"/>
<path d="M72.8934 6.26967C72.8934 5.64046 73.1155 5.12361 73.582 4.67417C74.0262 4.22473 74.5815 3.97754 75.2034 3.97754C75.8254 3.97754 76.3362 4.20226 76.7805 4.67417C77.2247 5.12361 77.469 5.66293 77.469 6.26967C77.469 6.89889 77.2469 7.43821 76.7805 7.88765C76.3362 8.33709 75.8032 8.56181 75.2034 8.56181C74.5815 8.56181 74.0484 8.33709 73.582 7.88765C73.1155 7.43821 72.8934 6.89889 72.8934 6.26967ZM73.7375 10.9438H76.6694V25.1686H73.7375V10.9438Z" fill="#2C96B6"/>
<path d="M89.9076 20.809V24.2472C88.3972 25.1236 86.9312 25.5505 85.5097 25.5505C83.5773 25.5505 81.867 24.809 80.401 23.3483C78.9572 21.8651 78.2242 20.1573 78.2242 18.2022C78.2242 16 78.9572 14.1798 80.401 12.7191C81.8447 11.2584 83.6883 10.5393 85.8651 10.5393C87.1755 10.5393 88.5082 10.8764 89.9076 11.573V14.9213C88.4194 13.955 87.0201 13.4831 85.6874 13.4831C84.4657 13.4831 83.3773 13.9101 82.4667 14.7865C81.556 15.6629 81.0895 16.6741 81.0895 17.8651C81.0895 19.191 81.5116 20.2921 82.3778 21.2135C83.2441 22.1123 84.288 22.5618 85.5541 22.5618C86.8202 22.5393 88.2639 21.955 89.9076 20.809Z" fill="#2C96B6"/>
<path d="M88.6415 3.23596H91.7733L98.5701 18.7641L105.434 3.23596H108.588L98.5479 25.8876L88.6415 3.23596Z" fill="#152B48"/>
<path d="M118.894 10.9438H121.848V25.1685H118.894V22.3371C117.45 24.4944 115.673 25.5506 113.519 25.5506C111.675 25.5506 110.076 24.809 108.765 23.3483C107.455 21.8876 106.811 20.0899 106.811 17.9775C106.811 16 107.477 14.2472 108.787 12.764C110.12 11.2809 111.675 10.5168 113.452 10.5168C114.563 10.5168 115.606 10.8315 116.584 11.4382C117.561 12.0449 118.339 12.8315 118.894 13.8202V10.9438ZM119.294 18.0899C119.294 16.7865 118.827 15.6854 117.917 14.764C117.006 13.8427 115.895 13.3708 114.607 13.3708C113.363 13.3708 112.275 13.8202 111.342 14.7416C110.409 15.6629 109.943 16.7416 109.943 17.9775C109.943 19.3258 110.387 20.4719 111.297 21.4157C112.208 22.3595 113.296 22.8315 114.607 22.8315C115.895 22.8315 116.984 22.3595 117.917 21.4382C118.827 20.4944 119.294 19.3708 119.294 18.0899Z" fill="#152B48"/>
<path d="M127.934 2.7865H124.98V25.1685H127.934V2.7865Z" fill="#152B48"/>
<path d="M133.864 2.7865H130.91V25.1685H133.864V2.7865Z" fill="#152B48"/>
<path d="M150.457 18.6292H138.462C138.729 20.0899 139.306 21.146 140.239 21.8427C141.172 22.5168 142.172 22.8314 143.26 22.8314C144.948 22.8314 146.347 22.1348 147.48 20.7191L149.635 22.382C148.013 24.5168 145.837 25.573 143.104 25.573C141.017 25.573 139.262 24.8539 137.863 23.3932C136.463 21.955 135.752 20.1573 135.752 18C135.752 15.9775 136.463 14.2472 137.885 12.7865C139.306 11.3033 141.061 10.5618 143.127 10.5618C145.148 10.5618 146.88 11.3033 148.324 12.809C149.768 14.2921 150.479 16.2247 150.457 18.6292ZM138.751 16.2247H147.347C146.392 14.2696 144.992 13.3033 143.127 13.3033C141.083 13.3033 139.639 14.2696 138.751 16.2247Z" fill="#152B48"/>
<path d="M149.812 10.9438H153.166L158.253 18.6517L161.785 10.9438H164.85L155.365 31.8203H152.256L156.898 21.6629L149.812 10.9438Z" fill="#152B48"/>
<path d="M7.39124 2.44943C7.39124 3.5955 8.30191 4.51685 9.43471 4.51685C10.5675 4.51685 11.4782 3.5955 11.4782 2.44943C11.4782 1.30337 10.5675 0.382019 9.43471 0.382019C8.30191 0.382019 7.39124 1.30337 7.39124 2.44943Z" fill="#152B48"/>
<path d="M11.878 24.3146L5.03684 24.2921H3.74856V0H2.39365C1.1498 0 0.172485 1.01124 0.172485 2.24719V24.5843C0.172485 25.8427 1.17201 26.8315 2.39365 26.8315H13.8771C12.8331 26.382 12.0779 25.4382 11.878 24.3146Z" fill="#152B48"/>
<path d="M15.3208 21.5731C14.188 21.5731 13.2773 22.4944 13.2773 23.6405C13.2773 24.7865 14.188 25.7079 15.3208 25.7079C16.4536 25.7079 17.3643 24.7865 17.3643 23.6405C17.3643 22.5169 16.4536 21.5731 15.3208 21.5731Z" fill="#152B48"/>
<path d="M24.4499 0H12.0113C12.611 0.651685 12.9886 1.50562 12.9886 2.44944C12.9886 4.20225 11.7448 5.64045 10.1233 5.93258V15.0562H14.7656L18.0085 9.52809C17.3643 8.94382 16.9423 8.11236 16.9423 7.19101C16.9423 5.48315 18.3194 4.08989 20.0075 4.08989C21.6956 4.08989 23.0727 5.48315 23.0727 7.19101C23.0727 8.89888 21.6956 10.2921 20.0075 10.2921C19.6966 10.2921 19.43 10.2472 19.1413 10.1798L15.4763 16.427H8.81285V5.95506C7.1914 5.64045 5.94754 4.20225 5.94754 2.47191C5.94754 1.52809 6.32514 0.651686 6.92486 0.0224724H5.03687V22.9888H11.8781C12.189 21.3483 13.6328 20.1124 15.3209 20.1124C17.2533 20.1124 18.8303 21.7079 18.8303 23.6405C18.8303 25.0787 18.0085 26.3146 16.809 26.8539H24.4276C25.6715 26.8539 26.6488 25.8202 26.6488 24.6067H26.671V2.26966C26.671 1.01124 25.6715 0 24.4499 0Z" fill="#152B48"/>
<path d="M2.72677 45.8427H2.70456V50.3146H1.52734V39.5281H2.70456V40.8315H2.72677C3.30428 39.8427 4.14832 39.3483 5.2589 39.3483C6.19179 39.3483 6.92478 39.6854 7.45786 40.3371C7.99094 40.9888 8.25748 41.8877 8.25748 42.9888C8.25748 44.2247 7.96873 45.2135 7.36901 45.9551C6.7693 46.6966 5.96968 47.0562 4.92573 47.0562C3.97063 47.0787 3.23764 46.6742 2.72677 45.8427ZM2.68235 42.8539V43.8877C2.68235 44.4944 2.88225 45.0112 3.25985 45.4382C3.65966 45.8652 4.14832 46.0674 4.74803 46.0674C5.45881 46.0674 6.0141 45.7978 6.41391 45.236C6.81372 44.6966 7.01362 43.9326 7.01362 42.9438C7.01362 42.1124 6.83593 41.4832 6.45833 41.0112C6.08073 40.5393 5.56987 40.3146 4.92573 40.3146C4.23717 40.3146 3.70409 40.5618 3.28207 41.0337C2.90447 41.5506 2.68235 42.1348 2.68235 42.8539Z" fill="#595B5D"/>
<path d="M14.1658 46.9214V45.7753H14.1436C13.6327 46.6517 12.8775 47.1011 11.9002 47.1011C11.1672 47.1011 10.6119 46.8989 10.1899 46.5169C9.79011 46.1348 9.56799 45.618 9.56799 44.9663C9.56799 43.5955 10.3676 42.7865 11.9891 42.5618L14.188 42.2472C14.188 40.9888 13.6772 40.3596 12.6776 40.3596C11.7892 40.3596 11.0118 40.6517 10.301 41.2584V40.045C11.0118 39.5731 11.8558 39.3483 12.7887 39.3483C14.499 39.3483 15.3652 40.2697 15.3652 42.1124V46.9214H14.1658ZM14.1658 43.1686L12.4111 43.4157C11.878 43.4832 11.456 43.6405 11.1894 43.8202C10.9229 44.0225 10.7674 44.3596 10.7674 44.8539C10.7674 45.2135 10.9007 45.5056 11.145 45.7528C11.4116 45.9775 11.7447 46.0899 12.1668 46.0899C12.7443 46.0899 13.2329 45.8877 13.6105 45.4832C13.9881 45.0787 14.188 44.5393 14.188 43.9101V43.1686H14.1658Z" fill="#595B5D"/>
<path d="M21.3402 40.7191C21.1403 40.5618 20.8515 40.4719 20.4517 40.4719C19.9631 40.4719 19.541 40.7191 19.1856 41.191C18.8525 41.6629 18.697 42.3146 18.697 43.1461V46.9213H17.5198V39.5281H18.697V41.0562H18.7192C18.8747 40.5393 19.1412 40.1348 19.4744 39.8427C19.8076 39.5506 20.2074 39.3932 20.6294 39.3932C20.9404 39.3932 21.1625 39.4382 21.318 39.5056V40.7191H21.3402Z" fill="#595B5D"/>
<path d="M26.0046 46.8315C25.7381 46.9888 25.3605 47.0562 24.9163 47.0562C23.628 47.0562 23.0061 46.3371 23.0061 44.8989V40.5393H21.74V39.5281H23.0061V37.7304L24.1833 37.3483V39.5281H26.0268V40.5393H24.1833V44.6966C24.1833 45.191 24.2721 45.5506 24.4276 45.7528C24.5831 45.9551 24.8718 46.0674 25.2494 46.0674C25.5382 46.0674 25.8047 45.9775 26.0046 45.8202V46.8315Z" fill="#595B5D"/>
<path d="M34.6227 47.0787C33.5343 47.0787 32.6903 46.7416 32.024 46.045C31.3798 45.3483 31.0688 44.427 31.0688 43.3034C31.0688 42.0674 31.402 41.1011 32.0684 40.4045C32.7347 39.7079 33.6454 39.3483 34.7782 39.3483C35.8666 39.3483 36.7106 39.6854 37.3325 40.3596C37.9545 41.0337 38.2432 41.9775 38.2432 43.191C38.2432 44.3596 37.91 45.3034 37.2437 46.0225C36.6218 46.7416 35.7333 47.0787 34.6227 47.0787ZM34.7116 40.3371C33.9564 40.3371 33.3567 40.6068 32.9346 41.1236C32.4904 41.6405 32.2683 42.3596 32.2683 43.2584C32.2683 44.1348 32.4904 44.8315 32.9346 45.3259C33.3789 45.8202 33.9786 46.0899 34.7116 46.0899C35.4668 46.0899 36.0443 45.8427 36.4441 45.3483C36.8439 44.8539 37.066 44.1573 37.066 43.236C37.066 42.3146 36.8661 41.5955 36.4441 41.1011C36.0443 40.5843 35.4668 40.3371 34.7116 40.3371Z" fill="#595B5D"/>
<path d="M43.7518 37.0113C43.5297 36.8764 43.2631 36.809 42.9744 36.809C42.1526 36.809 41.7527 37.3259 41.7527 38.382V39.5281H43.463V40.5394H41.7527V46.9214H40.5977V40.5394H39.3539V39.5281H40.5977V38.3371C40.5977 37.5731 40.8199 36.9438 41.2641 36.4944C41.7083 36.045 42.2636 35.8203 42.93 35.8203C43.2853 35.8203 43.5741 35.8652 43.774 35.9551V37.0113H43.7518Z" fill="#595B5D"/>
<path d="M59.3 46.9213H58.1005V39.9775C58.1005 39.4382 58.1227 38.764 58.2116 37.955H58.1894C58.0783 38.4269 57.9673 38.764 57.8784 38.9663L54.3912 46.9213H53.8137L50.3042 39.0112C50.1932 38.7865 50.1043 38.4269 49.9933 37.955H49.9711C50.0155 38.3595 50.0377 39.0337 50.0377 39.9775V46.8989H48.8827V36.5618H50.4597L53.5916 43.7753C53.8359 44.3371 53.9914 44.7416 54.058 45.0112H54.1024C54.3023 44.4494 54.48 44.0224 54.5911 43.7303L57.7896 36.5393H59.2777V46.9213H59.3Z" fill="#595B5D"/>
<path d="M65.8968 46.9214V45.7753H65.8746C65.3637 46.6517 64.6085 47.1011 63.6312 47.1011C62.8982 47.1011 62.3429 46.8989 61.9209 46.5169C61.5211 46.1348 61.299 45.618 61.299 44.9663C61.299 43.5955 62.0986 42.7865 63.72 42.5618L65.919 42.2472C65.919 40.9888 65.4081 40.3596 64.4086 40.3596C63.5201 40.3596 62.7427 40.6517 62.0319 41.2584V40.045C62.7427 39.5731 63.5868 39.3483 64.5196 39.3483C66.2299 39.3483 67.0962 40.2697 67.0962 42.1124V46.9214H65.8968ZM65.8968 43.1686L64.142 43.4157C63.609 43.4832 63.1869 43.6405 62.9204 43.8202C62.6539 44.0225 62.4984 44.3596 62.4984 44.8539C62.4984 45.2135 62.6317 45.5056 62.876 45.7528C63.1425 45.9775 63.4757 46.0899 63.8977 46.0899C64.4752 46.0899 64.9639 45.8877 65.3415 45.4832C65.7191 45.0787 65.919 44.5393 65.919 43.9101V43.1686H65.8968Z" fill="#595B5D"/>
<path d="M73.0934 40.7191C72.8935 40.5618 72.6047 40.4719 72.2049 40.4719C71.7162 40.4719 71.2942 40.7191 70.9388 41.191C70.6057 41.6629 70.4502 42.3146 70.4502 43.1461V46.9213H69.2729V39.5281H70.4502V41.0562H70.4724C70.6279 40.5393 70.8944 40.1348 71.2276 39.8427C71.5608 39.5506 71.9606 39.3932 72.3826 39.3932C72.6936 39.3932 72.9157 39.4382 73.0711 39.5056V40.7191H73.0934Z" fill="#595B5D"/>
<path d="M73.9152 46.6517V45.3708C74.5593 45.8427 75.2479 46.0899 76.0253 46.0899C77.047 46.0899 77.5579 45.7528 77.5579 45.0562C77.5579 44.8539 77.5135 44.6966 77.4246 44.5618C77.3358 44.427 77.2247 44.2921 77.0692 44.2022C76.9137 44.0899 76.736 44 76.5361 43.9326C76.3362 43.8427 76.1141 43.7528 75.892 43.6629C75.5588 43.5281 75.2923 43.4157 75.0257 43.2809C74.7814 43.1461 74.5815 42.9888 74.4038 42.8315C74.2483 42.6741 74.1151 42.4719 74.0262 42.2697C73.9374 42.0674 73.9152 41.8202 73.9152 41.5281C73.9152 41.191 73.9818 40.8764 74.1595 40.6067C74.315 40.3371 74.5149 40.1124 74.7814 39.9326C75.048 39.7528 75.3367 39.618 75.6699 39.5281C76.0031 39.4382 76.3584 39.3932 76.7138 39.3932C77.3358 39.3932 77.9133 39.5056 78.4019 39.7303V40.9213C77.8688 40.5618 77.2469 40.382 76.5361 40.382C76.314 40.382 76.1141 40.4045 75.9364 40.4719C75.7587 40.5168 75.6032 40.5843 75.47 40.6742C75.3367 40.764 75.2479 40.8764 75.1812 41.0112C75.1146 41.1461 75.0702 41.2809 75.0702 41.4382C75.0702 41.6404 75.0924 41.7977 75.1812 41.9326C75.2479 42.0674 75.3589 42.1798 75.4922 42.2697C75.6255 42.382 75.7809 42.4719 75.9809 42.5393C76.1808 42.6292 76.3807 42.7191 76.625 42.809C76.9582 42.9438 77.2469 43.0562 77.4912 43.191C77.7578 43.3258 77.9577 43.4607 78.1576 43.6404C78.3353 43.7977 78.4686 44 78.5796 44.2022C78.6685 44.427 78.7351 44.6742 78.7351 44.9663C78.7351 45.3258 78.6462 45.6404 78.4908 45.9101C78.3353 46.1798 78.1132 46.4045 77.8466 46.5843C77.5801 46.764 77.2691 46.8989 76.936 46.9888C76.5806 47.0786 76.2252 47.1236 75.8476 47.1236C75.1146 47.0786 74.4705 46.9438 73.9152 46.6517Z" fill="#595B5D"/>
<path d="M83.9548 46.8315C83.6883 46.9888 83.3107 47.0562 82.8665 47.0562C81.5782 47.0562 80.9563 46.3371 80.9563 44.8989V40.5393H79.6902V39.5281H80.9563V37.7304L82.1335 37.3483V39.5281H83.977V40.5393H82.1335V44.6966C82.1335 45.191 82.2223 45.5506 82.3778 45.7528C82.5333 45.9551 82.822 46.0674 83.1996 46.0674C83.4884 46.0674 83.7549 45.9775 83.9548 45.8202V46.8315Z" fill="#595B5D"/>
<path d="M88.5526 47.0787C87.4643 47.0787 86.6202 46.7416 85.9539 46.045C85.3097 45.3483 84.9988 44.427 84.9988 43.3034C84.9988 42.0674 85.332 41.1011 85.9983 40.4045C86.6647 39.7079 87.5753 39.3483 88.7081 39.3483C89.7965 39.3483 90.6405 39.6854 91.2625 40.3596C91.8844 41.0337 92.1731 41.9775 92.1731 43.191C92.1731 44.3596 91.84 45.3034 91.1736 46.0225C90.5517 46.7416 89.6632 47.0787 88.5526 47.0787ZM88.6415 40.3371C87.8863 40.3371 87.2866 40.6068 86.8646 41.1236C86.4203 41.6405 86.1982 42.3596 86.1982 43.2584C86.1982 44.1348 86.4203 44.8315 86.8646 45.3259C87.3088 45.8202 87.9085 46.0899 88.6415 46.0899C89.3967 46.0899 89.9742 45.8427 90.374 45.3483C90.7738 44.8539 90.9959 44.1573 90.9959 43.236C90.9959 42.3146 90.796 41.5955 90.374 41.1011C89.9742 40.5843 89.3967 40.3371 88.6415 40.3371Z" fill="#595B5D"/>
<path d="M98.9477 46.9213V42.6966C98.9477 41.1236 98.3924 40.3371 97.2596 40.3371C96.6821 40.3371 96.1935 40.5618 95.8159 41.0112C95.4383 41.4607 95.2384 42.0225 95.2384 42.6966V46.9213H94.0612V39.5281H95.2384V40.764H95.2606C95.8159 39.8202 96.6155 39.3708 97.6594 39.3708C98.4591 39.3708 99.0588 39.6405 99.503 40.1573C99.925 40.6742 100.147 41.4382 100.147 42.4045V46.9213H98.9477Z" fill="#595B5D"/>
<path d="M114.207 46.9213H113.008V42.2022H107.699V46.9213H106.5V36.5618H107.699V41.1011H113.008V36.5618H114.207V46.9213Z" fill="#595B5D"/>
<path d="M119.782 47.0787C118.694 47.0787 117.85 46.7416 117.183 46.045C116.539 45.3483 116.228 44.427 116.228 43.3034C116.228 42.0674 116.562 41.1011 117.228 40.4045C117.894 39.7079 118.805 39.3483 119.938 39.3483C121.026 39.3483 121.87 39.6854 122.492 40.3596C123.114 41.0337 123.403 41.9775 123.403 43.191C123.403 44.3596 123.07 45.3034 122.403 46.0225C121.759 46.7416 120.893 47.0787 119.782 47.0787ZM119.871 40.3371C119.116 40.3371 118.516 40.6068 118.094 41.1236C117.65 41.6405 117.428 42.3596 117.428 43.2584C117.428 44.1348 117.65 44.8315 118.094 45.3259C118.538 45.8202 119.138 46.0899 119.871 46.0899C120.626 46.0899 121.204 45.8427 121.604 45.3483C122.003 44.8539 122.226 44.1573 122.226 43.236C122.226 42.3146 122.026 41.5955 121.604 41.1011C121.204 40.5843 120.626 40.3371 119.871 40.3371Z" fill="#595B5D"/>
<path d="M126.468 35.9775H125.291V46.9214H126.468V35.9775Z" fill="#595B5D"/>
<path d="M135.042 46.9214H133.864V45.6629H133.842C133.309 46.6068 132.465 47.1011 131.332 47.1011C130.422 47.1011 129.689 46.7641 129.133 46.1124C128.578 45.4382 128.312 44.5393 128.312 43.4157C128.312 42.2023 128.622 41.2135 129.222 40.4719C129.822 39.7303 130.644 39.3708 131.643 39.3708C132.643 39.3708 133.376 39.7753 133.842 40.5618H133.864V35.9775H135.042V46.9214ZM133.887 43.573V42.4944C133.887 41.8876 133.687 41.3933 133.309 40.9888C132.909 40.5843 132.421 40.3596 131.821 40.3596C131.11 40.3596 130.555 40.6292 130.133 41.1461C129.733 41.6854 129.511 42.4045 129.511 43.3483C129.511 44.2023 129.711 44.8764 130.088 45.3708C130.488 45.8652 131.021 46.1124 131.665 46.1124C132.31 46.1124 132.843 45.8652 133.243 45.3933C133.687 44.8989 133.887 44.2921 133.887 43.573Z" fill="#595B5D"/>
<path d="M138.018 37.6405C137.818 37.6405 137.618 37.573 137.485 37.4157C137.329 37.2809 137.263 37.0787 137.263 36.8764C137.263 36.6742 137.329 36.4719 137.485 36.3371C137.64 36.1798 137.818 36.1124 138.018 36.1124C138.24 36.1124 138.418 36.1798 138.551 36.3371C138.707 36.4719 138.773 36.6742 138.773 36.8764C138.773 37.0787 138.707 37.2584 138.551 37.4157C138.418 37.573 138.24 37.6405 138.018 37.6405ZM138.596 46.9214H137.418V39.5281H138.596V46.9214Z" fill="#595B5D"/>
<path d="M145.837 46.9213V42.6966C145.837 41.1236 145.259 40.3371 144.148 40.3371C143.571 40.3371 143.082 40.5618 142.705 41.0112C142.327 41.4607 142.127 42.0225 142.127 42.6966V46.9213H140.95V39.5281H142.127V40.764H142.149C142.705 39.8202 143.504 39.3708 144.548 39.3708C145.348 39.3708 145.948 39.6405 146.392 40.1573C146.814 40.6742 147.036 41.4382 147.036 42.4045V46.9213H145.837Z" fill="#595B5D"/>
<path d="M155.454 46.3146C155.454 49.0337 154.166 50.382 151.612 50.382C150.701 50.382 149.924 50.2023 149.235 49.8652V48.6742C150.057 49.1461 150.834 49.3708 151.589 49.3708C153.389 49.3708 154.277 48.4045 154.277 46.4719V45.6629H154.255C153.7 46.6068 152.855 47.0787 151.745 47.0787C150.834 47.0787 150.101 46.7416 149.546 46.0899C148.991 45.4382 148.724 44.5393 148.724 43.4382C148.724 42.1798 149.013 41.191 149.613 40.4495C150.212 39.7079 151.034 39.3483 152.056 39.3483C153.033 39.3483 153.766 39.7528 154.233 40.5393H154.255V39.5056H155.432V46.3146H155.454ZM154.299 43.573V42.4944C154.299 41.9101 154.099 41.3933 153.7 40.9888C153.3 40.5618 152.811 40.3596 152.234 40.3596C151.501 40.3596 150.945 40.6292 150.545 41.1686C150.146 41.7079 149.924 42.4495 149.924 43.3933C149.924 44.2247 150.123 44.8764 150.501 45.3708C150.901 45.8652 151.412 46.1124 152.056 46.1124C152.722 46.1124 153.233 45.8877 153.655 45.4157C154.099 44.8989 154.299 44.3146 154.299 43.573Z" fill="#595B5D"/>
<path d="M157.387 46.6517V45.3708C158.031 45.8427 158.719 46.0899 159.497 46.0899C160.518 46.0899 161.029 45.7528 161.029 45.0562C161.029 44.8539 160.985 44.6966 160.896 44.5618C160.807 44.427 160.696 44.2921 160.541 44.2022C160.385 44.0899 160.207 44 160.008 43.9326C159.808 43.8427 159.586 43.7528 159.363 43.6629C159.03 43.5281 158.764 43.4157 158.519 43.2809C158.275 43.1461 158.075 42.9888 157.897 42.8315C157.742 42.6741 157.609 42.4719 157.52 42.2697C157.431 42.0674 157.409 41.8202 157.409 41.5281C157.409 41.191 157.475 40.8764 157.653 40.6067C157.809 40.3371 158.031 40.1124 158.275 39.9326C158.542 39.7528 158.83 39.618 159.164 39.5281C159.497 39.4382 159.852 39.3932 160.207 39.3932C160.829 39.3932 161.407 39.5056 161.896 39.7303V40.9213C161.362 40.5618 160.741 40.382 160.052 40.382C159.83 40.382 159.63 40.4045 159.452 40.4719C159.275 40.5168 159.119 40.5843 158.986 40.6742C158.853 40.764 158.764 40.8764 158.697 41.0112C158.63 41.1461 158.586 41.2809 158.586 41.4382C158.586 41.6404 158.608 41.7977 158.697 41.9326C158.764 42.0674 158.875 42.1798 159.008 42.2697C159.141 42.382 159.297 42.4719 159.497 42.5393C159.697 42.6292 159.897 42.7191 160.141 42.809C160.474 42.9438 160.763 43.0562 161.007 43.191C161.274 43.3258 161.474 43.4607 161.673 43.6404C161.851 43.7977 161.984 44 162.095 44.2022C162.207 44.427 162.251 44.6742 162.251 44.9663C162.251 45.3258 162.162 45.6404 162.007 45.9101C161.851 46.1798 161.629 46.4045 161.362 46.5843C161.096 46.764 160.785 46.8989 160.452 46.9888C160.096 47.0786 159.741 47.1236 159.363 47.1236C158.586 47.0786 157.942 46.9438 157.387 46.6517Z" fill="#595B5D"/>
</svg>
