<svg id="Layer_1" enable-background="new 0 0 512 512" viewBox="0 0 512 512" xmlns="http://www.w3.org/2000/svg"><g><path d="m85.091 138.319c16.411 0 31.844-6.4 43.464-18.003 23.95-23.982 23.95-62.961-.008-86.911-23.215-23.207-63.697-23.207-86.903 0-23.966 23.95-23.966 62.945 0 86.911 11.603 11.603 27.036 18.003 43.447 18.003zm-20.047-81.514c5.349-5.349 12.476-8.307 20.047-8.307s14.698 2.957 20.055 8.307c11.046 11.054 11.046 29.057 0 40.11-10.714 10.698-29.396 10.698-40.102 0-11.054-11.069-11.054-29.056 0-40.11z"/><path d="m251.488 117.876c-9.009 1.551-15.054 10.116-13.494 19.118l59.099 342.781c1.382 8.048 8.371 13.736 16.282 13.736.929 0 19.767 0 16.33-19.36l-59.099-342.781c-1.552-9.001-10.133-15.029-19.118-13.494z"/><path d="m455.474 131.37-59.099 342.781c-5.842 19.36 15.393 19.36 16.33 19.36 7.902 0 14.9-5.689 16.282-13.736l59.099-342.781c1.56-9.001-4.485-17.566-13.494-19.118-9.042-1.535-17.575 4.493-19.118 13.494z"/><path d="m367.31 496h.323c9.131-.178 16.403-7.725 16.225-16.872l-6.642-347.758c-.17-9.018-7.547-16.225-16.532-16.225-.113 0-.226 0-.323 0-9.147.178-16.403 7.725-16.233 16.872l6.642 347.758c.17 9.017 7.547 16.225 16.54 16.225z"/><path d="m250.276 62.106s60.545 14.965 61.879 14.965c7.41 0 14.157-5.01 16.039-12.541 2.214-8.856-3.176-17.841-12.04-20.055l-57.847-14.464c-8.888-2.23-17.841 3.167-20.071 12.04-2.214 8.856 3.184 17.841 12.04 20.055z"/><path d="m409.215 88.884c3.725 0 7.466-1.244 10.553-3.814l45.896-38.074c7.03-5.834 7.999-16.274 2.166-23.303-5.834-7.03-16.274-7.999-23.303-2.166l-45.88 38.074c-7.038 5.834-8.016 16.274-2.174 23.303 3.272 3.944 7.99 5.98 12.742 5.98z"/></g></svg>