<svg xmlns="http://www.w3.org/2000/svg" xmlns:xlink="http://www.w3.org/1999/xlink" version="1.1" x="0px" y="0px" viewBox="0 0 55 68.75" style="enable-background:new 0 0 55 55;" xml:space="preserve"><g><path d="M43.93517,3.36514c-0.0752-0.11523-0.23047-0.14746-0.34473-0.07129c-2.41675,1.58783-4.67969,3.39362-6.73755,5.36353   c-0.64868-0.523-1.36568-0.66791-2.07495-0.49683c-2.83057,0.6969-3.77441,4.55463-4.07568,6.54559   c-0.81892-0.37712-1.16058,1.14267-0.729,1.90558c0.01685,0.02979,0.04102,0.05054,0.05884,0.07928   c-0.606,0.17863-0.66906,1.38195-0.3606,1.94513c0.17212,0.30017,0.40234,0.53162,0.646,0.73071   c-0.19287,1.95709-0.50488,4.26599-0.96313,7.13812c-0.23293-1.11856-0.60963-1.95357-1.09497-2.75372   c-0.0022-0.00616,0.00098-0.01324-0.00195-0.01917c-0.38037-0.79919-1.05249-1.55579-2.02197-2.29407   c-4.82147-3.83143-12.03501-1.64628-13.83936,4.29822c-1.65768,5.46368,2.31636,11.30957,8.39355,11.30957   c1.41797,0,2.82324-0.34863,4.1084-1.03467c1.427-0.76178,2.58105-1.8822,3.38843-3.23749   c-1.60094,9.12232-1.55663,8.67331-1.44897,8.92395c-0.23779,0.28961-0.50464,0.55884-0.79346,0.81244   c0.11704-0.73697,0.40586-2.46145,0.1167-3.19421c-0.35949-0.90211-1.39277-0.93914-1.85938-0.15137   c-0.48099,0.80915-0.1572,2.22765,0.00391,3.00586c0.104,0.37866,0.27271,0.90985,0.72852,1.10205   c-3.30085,2.0566-6.08726,1.30865-8.13477,2.97211c-0.69965,0.56356-1.22818,1.19242-1.3479,3.28247   c-0.63379,0.07336-1.13354,0.5932-1.13354,1.24591v0.72559c0,0.1377,0.11133,0.24902,0.24902,0.24902h22.11523   c0.1377,0,0.24902-0.11133,0.24902-0.24902v-0.72559c0-0.6214-0.45532-1.11621-1.04492-1.22797   c-0.02602-1.7769-0.44081-3.62994-1.30615-5.32489c3.99132-6.71508,4.94999-8.32279,5.63721-9.60046   c0-0.00024,0-0.00049,0.00024-0.00073c1.92017-3.52008,2.41566-5.18237,3.07202-8.03052   c0.4366-1.88045,0.30655-4.1226-0.08887-5.69141c2.58984-1.25928,5.23828-2.74365,8.08984-4.53369   c0.27533-0.17353,0.01949-0.59482-0.26563-0.42188c-2.90332,1.82275-5.59375,3.32617-8.22559,4.59668   c-0.10742,0.05225-0.16309,0.17383-0.13184,0.28955c0.18604,0.68182,0.29785,1.39984,0.3479,2.14673   c-1.65649,0.43048-3.09058,0.59027-4.85962,0.14337c0.01959-0.10018,0.42754-1.8111,0.64038-3.71454   c0.31236-0.41587,0.44298-1.00307,0.13452-1.42419c0.01245-0.14136,0.02148-0.2854,0.02954-0.43506   c0.67057-0.70298,0.49147-1.57878,0.03906-1.80554c-0.05078-3.09454-0.72925-5.49249-1.88745-6.73438   c2.0332-1.9436,4.26709-3.72607,6.65234-5.29407C43.97912,3.63419,44.01037,3.47989,43.93517,3.36514z M24.75842,41.94229   c-0.18226-0.64176-0.36328-1.95918-0.0293-2.52393c0.26493-0.44747,0.76754-0.42474,0.96875,0.08105   c0.23479,0.59674-0.05386,2.31406-0.12402,2.79492c-0.02637,0.18994-0.06738,0.47705-0.16797,0.54932   c-0.00879,0.00684-0.03906,0.02881-0.12305,0.01172C24.98564,42.79911,24.89362,42.39305,24.75842,41.94229z M30.47228,15.14395   c0.00488,0,0.02734,0.00586,0.06348,0.03174c2.52271,1.82705,5.70913,0.8393,8.31396,1.00232   c0.00293,0.00012,0.00439,0.00305,0.00732,0.00305c0.00146-0.00024,0.00269-0.00171,0.00415-0.00195   c0.04224,0.00378,0.11133,0.0871,0.13452,0.23779c0.04492,0.29443-0.10645,0.87939-0.95801,1.20557   c-1.27734,0.48877-4.35547,0.5376-6.12793-0.10352c-0.48828-0.17578-1.14648-0.51855-1.50293-1.15186   C30.16323,15.93563,30.33485,15.19205,30.47228,15.14395z M30.06603,17.32266c0.11897-0.29741,0.77909,0.3417,1.6748,0.66504   c1.71945,0.61952,4.56997,0.65066,6.15723,0.19336c0.20752,0,0.40674,0.0083,0.66504,0.01953   c0.19568,0.01112,0.38281,0.98406-0.8252,1.43896c-1.50631,0.58405-6.50177,0.72977-7.63184-1.24707   C29.94494,18.10001,29.95568,17.60294,30.06603,17.32266z M25.55334,23.39005l-0.4502,0.34326   c-0.25926,0.19726-0.56422-0.19656-0.30078-0.39648l0.4502-0.34326c0.1084-0.08301,0.26563-0.06201,0.34863,0.04785   C25.6842,23.15079,25.66271,23.30704,25.55334,23.39005z M12.87267,25.88126c1.51187-4.98504,7.21379-7.37506,11.87451-4.82477   c-4.62011,3.64415-7.56369,8.58531-8.77271,13.94318C13.14708,32.98371,11.81811,29.35311,12.87267,25.88126z M24.25842,24.50772   l-0.41211,0.52783c-0.20549,0.25989-0.59366-0.04827-0.39258-0.30664l0.41211-0.52686   c0.08398-0.10889,0.24023-0.12939,0.34863-0.04346C24.32384,24.24258,24.34338,24.39932,24.25842,24.50772z M22.87853,26.07462   c-0.32949,0.41703-0.36307,0.63037-0.57617,0.63037c-0.19904,0-0.32042-0.22678-0.20313-0.39258l0.37305-0.52686   c0.08008-0.11182,0.23535-0.13818,0.34766-0.05811C22.93224,25.80704,22.95763,25.9628,22.87853,26.07462z M21.6715,27.77872   l-0.29492,0.44287c-0.07512,0.11268-0.22815,0.14632-0.3457,0.06885c-0.11426-0.07666-0.14453-0.23096-0.06836-0.34521   l0.29492-0.44287c0.07617-0.11426,0.23047-0.14404,0.3457-0.06885C21.7174,27.51016,21.74767,27.66446,21.6715,27.77872z    M20.70763,29.35049l-0.24609,0.41797c-0.16937,0.28404-0.59522,0.03034-0.42969-0.25293l0.24609-0.41797   c0.07031-0.11865,0.22461-0.15869,0.34082-0.08789C20.73791,29.0795,20.77697,29.23184,20.70763,29.35049z M18.26037,34.16837   l-0.17676,0.5376c-0.04285,0.1316-0.18433,0.20189-0.31348,0.15967c-0.13086-0.04297-0.20215-0.18359-0.15918-0.31396   l0.17676-0.5376c0.04297-0.13037,0.18359-0.20068,0.31348-0.15967C18.23205,33.89737,18.30334,34.03799,18.26037,34.16837z    M18.19787,32.9379l0.21875-0.53857c0.05176-0.12744,0.19922-0.18945,0.32422-0.13672   c0.12793,0.05176,0.18848,0.19727,0.13672,0.32422l-0.21875,0.53857c-0.05223,0.12926-0.20084,0.18846-0.32422,0.13672   C18.20666,33.21036,18.14611,33.06485,18.19787,32.9379z M19.20666,31.71426c-0.125-0.05713-0.17969-0.20508-0.12305-0.33008   l0.27539-0.59717c0.05859-0.12451,0.20508-0.17725,0.33008-0.12158c0.125,0.05762,0.17871,0.20557,0.12109,0.33057   l-0.27344,0.59521C19.47851,31.71782,19.33025,31.77061,19.20666,31.71426z M24.66369,35.57169   c-1.52954,0.81787-3.24072,1.11877-4.93164,0.89911c1.40283-4.87753,4.26192-9.13383,8.22461-12.25006   C30.34187,28.42466,28.58059,33.48051,24.66369,35.57169z M22.34728,44.96933c0.2423,0.2677,0.52406,0.53784,0.95898,1.14191   c0.08147,0.11243,0.23731,0.13633,0.34766,0.05664c0.11133-0.08057,0.13672-0.23584,0.05664-0.34766   c-0.25757-0.35779-0.52856-0.67761-0.83789-1.00879c0.43188-0.1441,0.82495-0.30548,1.20166-0.47699   c0.92843,0.97177,0.84592,1.16937,1.09229,1.16937c0.20035,0,0.32113-0.22791,0.20215-0.39404   c-0.25562-0.35663-0.52319-0.67358-0.82349-0.99786c0.40479-0.20325,0.77686-0.43439,1.12939-0.68152   c0.87678,0.93102,0.7928,1.09003,1.02515,1.09003c0.20192,0,0.32043-0.23009,0.20215-0.39453   c-0.25024-0.34674-0.51611-0.66046-0.81836-0.98541c0.40454-0.32159,0.75977-0.68085,1.08154-1.0636   c0.35181,0.27087,0.95752,0.55237,1.88721,0.87909c0.85481,0.31208,0.49014,0.55681,0.47559,1.03955   c-0.0459,1.9116,1.97303,1.7869,2.27051,0.63965c0.06885-0.26477,0.15088-0.55713,0.23853-0.86121   c0.61792,0.14984,1.28198,0.25922,2.03882,0.31677c0.07983,0.14417,0.13696,0.29919,0.21045,0.44659   c-1.55615,1.42126-2.06299,3.28125-1.37354,4.96112H16.05187c0.00635-0.1037,0.01343-0.20306,0.02124-0.29828   c2.28462,0.40174,4.16562-1.54369,3.9502-3.68219C20.88244,45.33801,21.27923,45.2844,22.34728,44.96933z M33.47253,49.49844   c-0.70557-1.49023-0.31909-3.17377,1.0376-4.48578c0.61816,1.40118,0.95581,2.92175,0.9856,4.48578H33.47253z M17.25671,46.59274   c0.70615-0.55027,1.40664-0.76844,2.2793-0.96747c0.14013,1.9121-1.59042,3.4374-3.40796,3.10687   C16.30346,47.54991,16.62637,47.08814,17.25671,46.59274z M34.41174,43.69547c-0.04321-0.05054-0.1001-0.08728-0.16797-0.09204   c-0.77441-0.05261-1.44629-0.15985-2.06738-0.30859c0.59036-1.98112,1.46311-4.55936,2.41431-7.48346   c1.24194,0.7088,2.44482,1.1275,3.72339,1.29993C38.05216,37.55106,36.13181,40.8021,34.41174,43.69547z M39.9508,34.24484   c-1.87793-0.07422-3.16675-0.41083-4.47534-1.17029c0.76001-2.38269,1.3877-4.50049,1.91602-6.45844   c2.26465,0.64325,3.80769,0.6125,5.42749,0.23718C42.27307,29.56328,41.2683,31.8127,39.9508,34.24484z M34.9403,33.11734   c0,0.00012-0.00024,0.00012-0.00024,0.00024c-0.98206,3.14285-2.95007,8.80955-3.62402,11.39209   c-0.07422,0.29297-0.40625,0.50586-0.74023,0.45752c-0.49052-0.06857-0.62278-0.69555-0.51367-1.16406   c0.10449-0.4502,0.13379-0.95996-0.8418-1.31592c-1.47314-0.51794-1.82056-0.82269-1.90527-0.93561   c-0.00732-0.00739-0.00635-0.01923-0.01465-0.02582c-0.00171-0.0014-0.00415-0.00031-0.00586-0.00165   c-0.00732-0.01263-0.00977-0.02057-0.01074-0.02374c1.20131-7.79255,2.65676-13.58015,3.50098-21.80847   c0.73928,0.42222,1.54312,0.59972,2.43604,0.71375c-0.52368,4.90527-1.54736,9.77429-3.04443,14.47314   c-0.04199,0.13135,0.03125,0.271,0.16211,0.31299c0.129,0.04128,0.26982-0.02932,0.3125-0.16162   c1.50708-4.73151,2.5376-9.63531,3.06445-14.57458c0.88224,0.07704,1.51995,0.07919,2.38818,0.00201   c-0.81714,5.31982-2.17383,10.57361-4.05029,15.61798c-0.04785,0.12891,0.01758,0.27246,0.14648,0.32031   c0.12483,0.04735,0.27171-0.01539,0.32031-0.14648c1.90283-5.11591,3.27759-10.44543,4.09741-15.84235   c0.58807-0.08008,1.21813-0.20855,1.71558-0.50726C37.81792,23.77453,36.13647,29.37767,34.9403,33.11734z M38.59875,15.67807   c-2.54982-0.08699-5.21767,0.64062-7.43188-0.69745c0.21021-1.50708,1.03149-5.67261,3.72925-6.33618   C37.59042,7.99479,38.54075,12.75621,38.59875,15.67807z"/><path d="M26.70422,48.77866c1.62305,0,2.94751-0.44806,2.94751-1.01563c0-0.5675-1.32446-1.01563-2.94751-1.01563   c-1.63281,0-2.95703,0.44812-2.95703,1.01563C23.74718,48.3306,25.0714,48.77866,26.70422,48.77866z"/><path d="M6.76427,51.57266c1.67188-5.33789,5.13281-10.02148,9.74414-13.18896c0.11328-0.07764,0.14258-0.23291,0.06445-0.34619   c-0.07715-0.11328-0.2334-0.1416-0.3457-0.06396c-4.70313,3.22998-8.23242,8.00684-9.9375,13.45068   C6.19115,51.73854,6.66615,51.88723,6.76427,51.57266z"/><path d="M10.95666,32.47061c-0.10352-0.08887-0.26172-0.07715-0.35059,0.02832c-4.44336,5.21777-7.03613,12.14209-7.11426,18.99658   c-0.00098,0.1377,0.1084,0.25049,0.24609,0.25195c0.00098,0,0.00195,0,0.00293,0c0.13574,0,0.24707-0.10986,0.24902-0.24609   c0.07715-6.74072,2.62695-13.54883,6.99512-18.68018C11.07384,32.71671,11.06115,32.55948,10.95666,32.47061z"/></g><text x="0" y="70" fill="#000000" font-size="5px" font-weight="bold" font-family="'Helvetica Neue', Helvetica, Arial-Unicode, Arial, Sans-serif">Created by ProSymbols</text><text x="0" y="75" fill="#000000" font-size="5px" font-weight="bold" font-family="'Helvetica Neue', Helvetica, Arial-Unicode, Arial, Sans-serif">from the Noun Project</text></svg>