<svg xmlns="http://www.w3.org/2000/svg" xmlns:xlink="http://www.w3.org/1999/xlink" version="1.1" x="0px" y="0px" viewBox="0 0 496.007 513.9300000000001" style="enable-background:new 0 0 496.007 411.144;" xml:space="preserve"><g><path d="M191.722,202.312c-1.463-0.822-3.158-1.023-4.771-0.569c-1.615,0.454-2.956,1.509-3.776,2.972   c-1.694,3.019-0.617,6.853,2.402,8.547l30.159,16.927c-2.213-5.925-4.593-12.179-7.009-18.332L191.722,202.312z"/><path d="M413.186,312.051l-110.918-62.253c-2.027-1.139-4.373-1.418-6.609-0.789c-2.236,0.628-4.094,2.09-5.23,4.115   l-10.061,17.926v-0.001c-2.347,4.182-0.854,9.494,3.327,11.841l110.918,62.253L413.186,312.051z"/><path d="M218.096,124.99c-10.654-18.755-36.319-47.176-36.578-47.46c-1.483-1.638-1.357-4.167,0.28-5.65   c1.637-1.482,4.167-1.356,5.65,0.279c0.368,0.406,3.581,3.964,8.091,9.247c9.097-2.047,17.411-7.103,23.602-14.411   c7.299-8.616,10.971-19.406,10.338-30.384c-0.628-10.902-5.436-20.685-13.535-27.547c-8.1-6.862-18.541-9.995-29.397-8.823   c-10.932,1.181-20.973,6.576-28.272,15.193c-7.734,9.129-11.374,20.742-10.187,32.216c9.217,2.672,15.264,6.253,15.799,6.578   c1.889,1.146,2.493,3.604,1.348,5.494c-1.145,1.889-3.604,2.491-5.493,1.348c-0.48-0.284-26.179-15.317-52.271-4.171   c-27.374,11.693-62.244,78.48-66.445,103.849c-2.044,12.348-0.208,29.47,1.736,47.598c2.205,20.557,4.704,43.856,1.753,64.142   c-3.525,24.234-19.731,51.4-32.707,69.922c-4.891,6.981-3.662,16.361,2.858,21.818c3.405,2.85,7.708,4.168,12.129,3.701   c4.408-0.462,8.341-2.635,11.075-6.119c16.472-20.998,45.037-59.231,51.269-79.366c4.008-12.948,5.981-25.35,7.889-37.343   c2.467-15.505,4.796-30.149,11.204-44.193c9.577-20.992,44.761-47.319,56.979-56.024c-7.427-6.653-13.276-11.2-13.406-11.301   c-1.748-1.352-2.069-3.863-0.718-5.611s3.863-2.068,5.611-0.719c1.246,0.963,30.65,23.812,42.545,43.758   c8.262,13.854,22.534,52.062,30.306,73.604c2.846,7.889,11.35,12.109,19.356,9.606c4.063-1.269,7.36-4.057,9.284-7.851   c1.922-3.79,2.224-8.093,0.849-12.115C238.732,174.871,223.809,135.045,218.096,124.99z"/><path d="M267.26,244.708c-0.429,1.807-1.07,3.578-1.933,5.279c-1.086,2.141-2.461,4.068-4.078,5.745l14.1,7.914l6.145-10.948   L267.26,244.708z"/><path d="M403.301,141.871L390.367,290.07l30.223,16.963c0.925,0.52,1.606,1.385,1.893,2.406c0.287,1.021,0.157,2.114-0.362,3.04   l-22.489,40.068c-0.734,1.307-2.092,2.043-3.492,2.043c-0.663,0-1.334-0.165-1.954-0.513l-8.966-5.032l-5.42,62.099h64.303   l-23.501-269.273H403.301z"/><path d="M21.765,305.973c0.972-0.15,1.976-0.309,2.995-0.472c5.56-11.11,10.228-23.084,11.84-34.165   c0.379-2.607,0.657-5.262,0.862-7.953l-23.031,5.595c-9.982,2.425-16.136,12.195-14.011,22.245   C2.492,301.027,11.864,307.512,21.765,305.973z"/><path d="M115.512,204.227c-5.956,13.055-8.203,27.178-10.582,42.13c-1.952,12.271-3.971,24.958-8.147,38.451   c-0.305,0.985-0.669,2.016-1.063,3.07c19.458-7.496,31.912-16.099,36.234-25.102c11.286-23.514-7.053-51.162-14.967-61.421   C116.439,202.326,115.942,203.285,115.512,204.227z"/><path d="M461.538,261.603l24.989-27.911c1.474-1.646,1.334-4.175-0.312-5.648c-1.646-1.475-4.175-1.334-5.648,0.313l-24.989,27.911   c-1.474,1.646-1.334,4.175,0.312,5.648c0.763,0.684,1.717,1.02,2.667,1.02C459.654,262.935,460.748,262.486,461.538,261.603z"/><path d="M492.39,288.414l-31.17-3c-2.192-0.217-4.153,1.398-4.365,3.599c-0.212,2.198,1.399,4.152,3.598,4.364l31.17,3   c0.13,0.013,0.26,0.019,0.388,0.019c2.036,0,3.778-1.548,3.977-3.617C496.2,290.58,494.588,288.625,492.39,288.414z"/><path d="M489.063,336.43l-25.968-17.77c-1.822-1.246-4.312-0.782-5.56,1.042c-1.248,1.823-0.781,4.313,1.042,5.56l25.968,17.77   c0.691,0.473,1.477,0.699,2.255,0.699c1.275,0,2.53-0.608,3.305-1.741C491.353,340.167,490.886,337.677,489.063,336.43z"/></g><text x="0" y="426.144" fill="#000000" font-size="5px" font-weight="bold" font-family="'Helvetica Neue', Helvetica, Arial-Unicode, Arial, Sans-serif">Created by Amethyst Studio</text><text x="0" y="431.144" fill="#000000" font-size="5px" font-weight="bold" font-family="'Helvetica Neue', Helvetica, Arial-Unicode, Arial, Sans-serif">from the Noun Project</text></svg>