<svg width="80" height="80" viewBox="0 0 80 80" fill="none" xmlns="http://www.w3.org/2000/svg">
<g clip-path="url(#clip0_13_1826)">
<path d="M52.9469 46.2175C52.5542 48.3918 53.8906 48.7511 54.2739 48.435L75.9708 64.0588V56.7254C70.1628 52.0969 59.9708 44.0207 59.9708 44.0207C59.3644 44.0778 58.7755 44.1588 58.2073 44.2651C55.5136 43.47 53.7633 44.1256 52.9469 46.2175Z" fill="#D6EAE8"/>
<path d="M56.0358 48.1921C55.4294 48.2492 54.8421 48.3302 54.2739 48.4349C45.2183 46.2022 42.049 50.7245 42.4929 59.3937C42.2771 60.0794 42.085 60.7968 41.9167 61.5429L61.2787 79.3651H75.9707V64.0587C75.9707 63.9889 56.0358 48.1921 56.0358 48.1921Z" fill="#E7F2F1"/>
<path d="M26.4232 9.43494H4.31526C4.12795 10.2508 4.02954 11.1016 4.02954 11.9746C4.02954 12.9984 4.16446 13.9905 4.42002 14.9349C4.42002 14.9349 8.92319 19.4008 15.3692 19.4008C21.8137 19.4008 26.3184 14.9349 26.3184 14.9349C26.574 13.9905 26.7089 12.9984 26.7089 11.9746C26.7089 11.1016 26.6105 10.2508 26.4232 9.43494Z" fill="#42BF79"/>
<path d="M26.3183 14.9349C25.0167 19.7635 20.6088 23.3159 15.3691 23.3159C10.1294 23.3159 5.72151 19.7635 4.41992 14.9349C4.41992 14.9349 8.9231 17.7714 15.3691 17.7714C21.8136 17.7714 26.3183 14.9349 26.3183 14.9349Z" fill="#42BF79"/>
<path d="M26.4231 9.43495C26.4231 9.43495 22.2565 12.8683 15.3692 12.8683C8.48026 12.8683 4.31519 9.43495 4.31519 9.43495C5.46915 4.39527 9.97868 0.634949 15.3692 0.634949C20.7596 0.634949 25.2692 4.39527 26.4231 9.43495Z" fill="#42BF79"/>
<path d="M55.3945 38.1476C55.0263 36.108 55.7501 27.2651 56.1612 22.6937C56.1691 22.608 56.1723 22.5238 56.1723 22.4397C56.1723 21.0191 55.0914 19.808 53.6501 19.6714C52.1612 19.5302 50.8263 20.5889 50.6263 22.0715C50.5469 22.6572 50.4533 23.3032 50.3438 23.9746L51.4612 42.3191C50.0836 43.9743 50.7217 45.4092 52.9469 46.2175C54.4723 45.2842 56.2231 44.6302 58.2072 44.2651V44.2635C58.2072 44.2635 55.8977 40.9302 55.3945 38.1476Z" fill="#FEC4B9"/>
<path d="M52.9471 46.2175C52.3375 45.0683 51.6994 43.6334 51.4613 42.3191C51.0931 40.2794 51.8169 31.4349 52.228 26.8635C52.2359 26.7778 52.2391 26.6937 52.2391 26.6095C52.2391 25.4048 51.4598 24.3508 50.3439 23.9746C50.1455 23.908 49.9344 23.8619 49.7169 23.8413C48.2264 23.7 46.8931 24.7603 46.6931 26.2429C46.3693 28.6365 45.7963 32.0524 44.974 33.8953C44.801 34.2842 44.6185 34.6016 44.4232 34.8254C36.8972 36.9975 30.4574 35.9853 25.0994 31.8016C24.7375 31.5207 24.401 31.2572 24.0978 31.0175C23.7312 30.727 23.2931 30.5857 22.8598 30.5857C22.2486 30.5857 21.6455 30.8651 21.2518 31.3969C20.5947 32.2842 20.782 33.5334 21.6677 34.1889L19.5677 32.6349C18.6613 31.9651 17.382 32.1556 16.7121 33.0619C16.4423 33.427 16.3105 33.8524 16.3105 34.2746C16.3105 34.9 16.5978 35.5175 17.1391 35.9175L19.8455 37.9207C18.9391 37.2492 17.6598 37.4397 16.9899 38.3461C16.7201 38.7111 16.5883 39.1365 16.5883 39.5588C16.5883 40.1842 16.8756 40.8016 17.4153 41.2016L20.328 43.3572C19.3978 42.673 18.0899 42.8699 17.4042 43.7984C17.1264 44.173 16.9915 44.6096 16.9915 45.0445C16.9915 45.6492 17.255 46.2492 17.7566 46.6619C20.4407 48.8651 25.9074 53.3127 28.1391 54.8461C31.1534 56.9175 42.4931 59.3937 42.4931 59.3937C43.3439 56.6937 44.5709 54.4588 46.1899 52.708C48.2423 50.4889 50.9264 49.0508 54.274 48.4349C54.274 48.4349 53.6296 47.5048 52.9471 46.2175Z" fill="#FFD7D2"/>
<path d="M44.974 33.8953C44.801 34.2841 44.6184 34.6016 44.4232 34.8254C42.6708 36.846 37.1676 38.1413 34.0295 37.4238C32.0168 36.9635 27.8359 33.9222 25.0994 31.8016C25.0978 31.2603 25.2629 30.7175 25.6057 30.2492C26.1168 29.5524 26.9105 29.181 27.7168 29.181C28.2057 29.181 28.6994 29.3175 29.1375 29.6C31.8343 31.3397 36.3962 34.1826 37.9645 34.5413C39.8819 34.981 42.6851 34.6667 44.974 33.8953Z" fill="#FEC4B9"/>
<path d="M26.4232 9.43652C26.6105 10.2524 26.7089 11.1016 26.7089 11.9746C26.7089 12.9984 26.574 13.9905 26.3184 14.9349C26.3184 14.9349 22.7724 17.1667 17.4724 17.6714C19.793 16.3127 21.5867 14.1524 22.474 11.5699C25.0121 10.5984 26.4232 9.43652 26.4232 9.43652Z" fill="#0C8D45"/>
<path d="M26.4231 9.43495V9.43654C26.4231 9.43654 25.012 10.5984 22.4739 11.5699C22.5565 11.3302 22.6311 11.0873 22.6977 10.8397C22.9533 9.89527 23.0882 8.9032 23.0882 7.87939C23.0882 7.00638 22.9898 6.15558 22.8025 5.33971C22.5834 4.38733 22.2469 3.48098 21.8057 2.63654C24.0993 4.22225 25.7803 6.63019 26.4231 9.43495Z" fill="#42BF79"/>
<path d="M17.4723 17.6714C22.7723 17.1667 26.3184 14.9349 26.3184 14.9349C25.0168 19.7635 20.6088 23.3159 15.3692 23.3159C10.9961 23.3159 7.20408 20.8429 5.31201 17.2175C7.14058 18.481 9.35804 19.2207 11.7485 19.2207C13.8358 19.2207 15.793 18.6572 17.4723 17.6714Z" fill="#42BF79"/>
<path d="M75.5124 62.8625C74.9851 62.4019 74.1875 61.8002 73.2521 61.0538C71.3831 59.5627 68.8908 57.5813 66.3986 55.6018C61.4148 51.6433 56.431 47.694 56.431 47.694C56.3027 47.5922 56.1402 47.5438 55.9772 47.5594C55.4991 47.6045 55.0331 47.6665 54.5758 47.7411C54.3926 47.4567 54.1121 47.0062 53.8029 46.4565C55.5135 45.5168 57.5191 44.9187 59.7778 44.6778C61.2404 45.8372 70.2831 53.0052 75.5753 57.2224C75.6921 57.3156 75.8318 57.3608 75.9705 57.3608C76.1572 57.3608 76.3421 57.2789 76.4675 57.1216C76.6859 56.8472 76.6408 56.4478 76.3665 56.2294C70.6237 51.653 60.4667 43.6035 60.3646 43.5227C60.2364 43.421 60.0734 43.3722 59.9108 43.3881C59.4332 43.433 58.9661 43.494 58.5085 43.5684C57.9326 42.6746 56.4029 40.1529 56.02 38.0349C55.7643 36.6192 56.0465 31.0478 56.7942 22.7497C56.9626 20.8806 55.5791 19.2157 53.7102 19.0384C51.8764 18.8645 50.2442 20.1592 49.9972 21.9862C49.9407 22.4038 49.8815 22.8143 49.8204 23.2148C49.8056 23.2132 49.7911 23.2108 49.7764 23.2095C47.9424 23.0352 46.3104 24.3303 46.0634 26.1573C45.6191 29.4446 45.0721 31.9603 44.5064 33.3772C42.2891 34.0775 39.7497 34.2984 38.105 33.9224C37.0224 33.6748 33.8796 31.9049 29.4823 29.0662C28.0378 28.1337 26.1105 28.4881 25.0943 29.8733C24.9148 30.1181 24.7745 30.3829 24.6705 30.6603C24.6107 30.6132 24.5515 30.5667 24.4913 30.5189C23.9277 30.0724 23.225 29.8786 22.5121 29.9733C21.7986 30.0679 21.1696 30.4391 20.7411 31.0179C20.4442 31.4194 20.2815 31.8784 20.2396 32.3429L19.9448 32.1248C19.3702 31.6994 18.6642 31.5237 17.9572 31.6291C17.2502 31.7348 16.6265 32.1094 16.2013 32.6841C15.7761 33.2587 15.6 33.9646 15.7057 34.6716C15.8115 35.3786 16.1861 36.0022 16.7607 36.4275L17.6381 37.0767C17.18 37.2587 16.7792 37.5624 16.4788 37.9686C16.0535 38.5432 15.8775 39.2491 15.9832 39.956C16.0889 40.663 16.4635 41.2867 17.0381 41.7119L18.1024 42.4994C17.6237 42.6835 17.2053 42.9978 16.8929 43.4199C16.027 44.59 16.2297 46.2295 17.3542 47.1525C20.298 49.5684 25.567 53.8484 27.7799 55.3694C30.4819 57.2262 39.2583 59.311 41.6907 59.8643C41.5478 60.3633 41.4158 60.8752 41.297 61.4027C41.2472 61.6243 41.3194 61.8556 41.4864 62.0092L60.8488 79.8316C60.9708 79.9438 61.125 79.9994 61.2786 79.9994C61.4499 79.9994 61.6207 79.9303 61.7459 79.7945C61.9834 79.5365 61.9669 79.1348 61.7088 78.8973L42.6188 61.326C43.4361 57.9049 44.7932 55.1521 46.6553 53.1399C48.911 50.7021 52.0013 49.2592 55.844 48.8492C61.3142 53.1846 74.8626 63.9332 75.5191 64.5054C75.6515 64.6079 75.7913 64.6803 75.971 64.6941C76.3205 64.721 76.6059 64.4099 76.6059 64.0592C76.6058 63.7425 76.3965 63.6351 75.5124 62.8625ZM51.2557 22.1567C51.411 21.0079 52.4365 20.1922 53.5904 20.303C54.7654 20.4145 55.6354 21.4611 55.5296 22.6359C55.0843 27.5764 54.3938 36.1757 54.7705 38.261C55.1458 40.3375 56.441 42.6505 57.1734 43.8352C55.7331 44.1773 54.4077 44.6779 53.2097 45.3337C52.7254 44.3498 52.2715 43.2313 52.0864 42.2065C51.8305 40.7906 52.1127 35.2192 52.8605 26.9213C52.9877 25.5105 52.2304 24.2165 51.048 23.5903C51.1202 23.1252 51.1897 22.6452 51.2557 22.1567ZM26.1184 30.6251C26.738 29.7808 27.9131 29.5646 28.7938 30.1333C32.0361 32.2265 36.2343 34.7976 37.8223 35.1606C38.4543 35.3051 39.1848 35.3756 39.9694 35.3756C41.0045 35.3754 42.1337 35.2524 43.2548 35.017C41.1916 36.4857 36.8219 37.4116 34.1715 36.8051C32.7596 36.4821 29.7297 34.5703 25.7551 31.507C25.8019 31.1895 25.9248 30.8891 26.1184 30.6251ZM45.7232 52.2773C44.1712 53.9548 42.9485 56.0906 42.0716 58.6484C39.858 58.1441 31.0221 56.0572 28.4994 54.3235C26.2442 52.7735 20.5175 48.1064 18.16 46.1719C17.5589 45.6786 17.4508 44.8019 17.9138 44.1762C18.3926 43.5295 19.3083 43.3924 19.9554 43.8713L25.1567 47.72C25.8719 48.2494 26.6718 48.6294 27.534 48.8492L33.4905 50.3687C33.5432 50.3822 33.5961 50.3886 33.648 50.3886C33.9313 50.3886 34.1896 50.1976 34.2627 49.9105C34.3494 49.5706 34.1442 49.2249 33.8045 49.1383L27.848 47.6187C27.1459 47.4397 26.4945 47.1303 25.9121 46.6992L17.7937 40.6919C17.4918 40.4686 17.2948 40.1408 17.2392 39.7692C17.1837 39.3976 17.2762 39.0267 17.4997 38.7246C17.7232 38.4227 18.051 38.2257 18.4224 38.1702C18.7934 38.1145 19.1634 38.2068 19.4651 38.4294L27.4646 44.3487C28.2567 44.9348 29.1856 45.3498 30.1508 45.5492L35.3 46.6113C35.3434 46.6202 35.3864 46.6245 35.4289 46.6245C35.7238 46.6245 35.9881 46.4178 36.0502 46.1176C36.121 45.7743 35.9 45.4384 35.5567 45.3675L30.4077 44.3056C29.6216 44.1433 28.8653 43.8052 28.2202 43.3279L17.5162 35.4072C17.2143 35.1838 17.0173 34.856 16.9618 34.4845C16.9062 34.1129 16.9988 33.7419 17.2223 33.4399C17.4457 33.1379 17.7735 32.941 18.145 32.8854C18.5167 32.8297 18.8875 32.9222 19.1896 33.146L21.2911 34.7011C21.2915 34.7013 21.2916 34.7014 21.2918 34.7018L29.8064 41.0022C30.6615 41.6348 31.6672 42.0643 32.715 42.2446L37.0429 42.9889C37.3877 43.0478 37.7169 42.8164 37.7762 42.4706C37.8358 42.1251 37.6037 41.7968 37.2581 41.7373L32.93 40.993C32.0769 40.8464 31.2578 40.4965 30.5616 39.9813L22.047 33.681C21.4426 33.234 21.3148 32.3783 21.7619 31.774C21.9838 31.474 22.3097 31.2818 22.6792 31.2327C23.0477 31.1841 23.4115 31.284 23.7031 31.5149C27.1034 34.2081 31.6305 37.5268 33.8883 38.0432C37.3694 38.8392 43.0307 37.3994 44.9024 35.2422C45.8572 34.1419 46.6711 31.1427 47.3218 26.3281C47.4772 25.1791 48.5031 24.3656 49.6564 24.4743C50.8315 24.5857 51.7015 25.6324 51.5956 26.8073C51.1504 31.7476 50.4597 40.347 50.8365 42.4324C51.2119 44.5102 52.5088 46.8248 53.2408 48.0089C50.2067 48.7306 47.684 50.1581 45.7232 52.2773Z" fill="#3A322B"/>
<path d="M27.3442 11.9751C27.3442 5.37206 21.9721 0 15.3691 0C8.76611 0 3.39404 5.37206 3.39404 11.9751C3.39404 18.5781 8.76611 23.9502 15.3691 23.9502C21.9721 23.9503 27.3442 18.5783 27.3442 11.9751ZM15.3691 1.26984C20.3048 1.26984 24.4688 4.62825 25.7017 9.17937C24.6258 9.93159 20.8829 12.233 15.3691 12.233C9.85468 12.233 6.1115 9.93095 5.03658 9.17937C6.26944 4.62841 10.4334 1.26984 15.3691 1.26984ZM4.66388 11.9751C4.66388 11.4851 4.69992 11.0035 4.76404 10.5308C6.3496 11.5537 10.0666 13.5029 15.3691 13.5029C20.6718 13.5029 24.3888 11.5535 25.9742 10.5308C26.0383 11.0035 26.0744 11.4851 26.0744 11.9751C26.0744 12.853 25.9658 13.7057 25.7656 14.5229C24.8113 15.0597 20.7693 17.1365 15.3691 17.1365C9.96817 17.1365 5.92595 15.059 4.97277 14.5229C4.77246 13.7057 4.66388 12.853 4.66388 11.9751ZM15.3691 22.6805C10.9852 22.6805 7.21007 20.0305 5.55674 16.249C7.42515 17.1194 10.9363 18.4063 15.3691 18.4063C19.802 18.4063 23.3132 17.1194 25.1817 16.2489C23.5282 20.0303 19.7533 22.6805 15.3691 22.6805Z" fill="#17914D"/>
</g>
<defs>
<clipPath id="clip0_13_1826">
<rect width="80" height="80" fill="white"/>
</clipPath>
</defs>
</svg>
