<svg width="107" height="80" viewBox="0 0 107 80" fill="none" xmlns="http://www.w3.org/2000/svg">
<g clip-path="url(#clip0_13_1578)">
<path d="M88.4125 69.9933C88.4125 69.9933 88.7153 70.9762 89.5285 70.9576C90.3417 70.939 91.6148 70.3097 91.6148 70.3097L92.9178 71.7247C92.9178 71.7247 93.903 73.0446 95.0751 72.6146C96.2472 72.1845 96.1818 71.263 96.1238 70.455C96.0659 69.6488 95.3817 68.731 95.5107 68.3754C95.6397 68.0198 96.1164 68.1781 96.3613 68.3549C96.6062 68.5299 96.8211 68.8241 97.0698 68.4983C97.0698 68.4983 99.1598 69.5483 99.6421 69.7847C100.124 70.0212 102.295 71.1047 103.564 71.5161C104.833 71.9294 106.241 72.1007 106.585 73.1191C106.585 73.1191 105.813 74.2547 104.501 74.346C103.188 74.439 101.532 74.5936 99.915 74.2045C98.298 73.8154 96.9034 73.8377 95.8621 73.9103C94.8208 73.9829 92.5009 74.0704 91.2652 74.1561C90.0314 74.2436 88.5022 74.0034 88.1022 73.8377C87.7021 73.672 87.3226 73.2364 87.5208 72.7598C87.7189 72.2832 88.1956 70.2409 88.4106 69.9951L88.4125 69.9933Z" fill="#A988D8"/>
<path d="M87.5075 73.0688C87.5075 73.0688 87.4552 73.9606 89.205 74.0314C90.9547 74.1021 93.9215 73.8545 95.8657 73.9103C97.808 73.9662 100.395 74.3646 101.68 74.4279C102.964 74.4912 104.278 74.4372 105.218 74.0239C106.159 73.6106 106.589 73.1172 106.589 73.1172C106.589 73.1172 106.387 74.0965 105.633 74.4205C104.88 74.7444 103.768 75.4407 101.646 75.5896C99.5242 75.7386 96.9612 75.6883 96.6116 75.6734C96.262 75.6585 92.8316 75.9396 91.5174 75.9936C90.2032 76.0476 88.1207 76.1947 87.4701 75.7758C86.8196 75.3588 86.7934 73.8936 87.5113 73.0707L87.5075 73.0688Z" fill="#603E91"/>
<path d="M87.4646 68.0906C87.4646 68.0906 88.304 69.5371 88.532 70.023C88.7601 70.5089 89.0667 70.9893 89.6836 70.9464C90.3005 70.9036 91.4801 70.589 91.682 70.1496L89.1863 66.657L87.4665 68.0906H87.4646Z" fill="#A988D8"/>
<path d="M80.9721 61.8296L85.2101 65.8174L86.0513 65.1025L87.3244 63.9315L83.8884 59.2307C83.8884 59.2307 82.4657 60.4892 82.3218 60.653C82.1779 60.8168 80.9702 61.8296 80.9702 61.8296H80.9721Z" fill="#A988D8"/>
<path d="M78.312 52.2101L79.7047 53.2713L81.5872 55.7641L78.4242 59.8096C78.4242 59.8096 77.5623 59.1375 76.3678 57.5998C75.1732 56.062 74.5601 53.9824 74.5601 53.9824C74.5601 53.9824 75.448 53.9191 76.1154 53.4872C76.7828 53.0534 78.312 52.2138 78.312 52.2138V52.2101Z" fill="#A988D8"/>
<path d="M87.3243 63.9315L86.0513 65.1025C86.0513 65.1025 84.9184 66.0706 85.1801 66.4765C85.4418 66.8823 86.6962 68.1837 87.0084 68.2004C87.3206 68.2172 88.0235 67.7425 88.1338 67.6587C88.2441 67.573 89.1863 66.6571 89.1863 66.6571L87.3262 63.9315H87.3243Z" fill="#603E91"/>
<path d="M81.5275 55.9987L78.7084 59.441C78.7084 59.441 78.0242 60.1839 78.3663 60.6232C78.7084 61.0626 79.9628 61.824 80.318 61.9153C80.6732 62.0065 81.5555 61.327 81.5555 61.327L83.8886 59.2325L81.5275 56.0006V55.9987Z" fill="#603E91"/>
<path d="M77.0107 50.2553C77.0107 50.2553 76.5004 50.7152 76.1788 51.0856C75.8554 51.4561 74.7151 52.3088 74.7151 52.3088C74.7151 52.3088 74.1916 52.5769 74.2328 53.154C74.2739 53.7311 74.4104 54.029 74.7562 53.9657C75.1002 53.9024 78.3156 52.2101 78.3156 52.2101C78.3156 52.2101 77.0743 51.1005 77.0145 50.2553H77.0107Z" fill="#603E91"/>
<path d="M76.1134 47.4608C76.1134 47.4608 74.044 45.0574 73.6701 43.6164C73.2962 42.1754 72.6943 39.7086 73.0289 38.9509C73.3635 38.1932 73.9973 37.2996 74.8198 37.9754C75.6424 38.6512 80.8693 43.4563 80.8693 43.4563C80.8693 43.4563 81.6825 43.4377 82.1741 43.8286C82.6658 44.2196 82.8434 45.0555 82.8434 45.0555C82.8434 45.0555 83.793 45.3366 83.8285 46.3755C83.8285 46.3755 84.4941 47.0233 84.6773 47.3975C84.8586 47.7718 85.1315 48.3303 84.7838 48.8962L93.2411 62.0847L96.8659 67.815C96.8659 67.815 97.165 68.7589 96.8902 68.7012C96.6154 68.6435 96.3144 68.2395 96.0003 68.1855C95.6863 68.1297 95.3797 68.1911 95.4993 68.7608C95.6171 69.3323 96.3742 70.7063 96.0901 71.6148C95.8059 72.5233 94.3852 73.2792 93.5907 72.447C92.7943 71.6148 84.8399 60.5916 84.8399 60.5916L79.7065 53.2694C79.7065 53.2694 76.9902 52.1487 76.1153 47.4608H76.1134Z" fill="#603E91"/>
<path d="M9.8052 62.591C9.8052 62.591 9.13594 62.4458 8.8144 62.2745C8.49286 62.1033 7.6348 61.5075 7.11136 62.3174C6.58793 63.1272 6.23087 64.6575 6.40098 65.4171C6.5711 66.1767 6.90947 68.2004 7.25718 69.835C7.60676 71.4714 7.62545 74.4818 7.75257 75.167C7.87969 75.8539 8.43678 77.7063 9.33784 78.3766C10.2389 79.0468 11.6578 79.3726 11.6578 79.3726L12.9832 79.4731C12.9832 79.4731 11.1437 78.6763 10.5679 78.2146C9.99214 77.7529 9.05369 75.463 9.09856 74.4576C9.14342 73.4505 9.12847 71.0581 9.12847 71.0581C9.12847 71.0581 8.45174 70.2557 8.56764 69.7084C8.68355 69.1592 8.96209 68.7161 8.96209 68.7161C8.96209 68.7161 8.6742 65.7634 8.70598 65.1044C8.73776 64.4453 9.02191 62.9969 9.80707 62.5948L9.8052 62.591Z" fill="#603E91"/>
<path d="M13.5853 72.7114C13.5853 72.7114 13.5367 74.2212 13.6133 74.7555C13.69 75.2899 13.847 75.8595 14.2078 76.567C14.5686 77.2745 15.0359 78.4008 14.7574 78.8457C14.4789 79.2907 13.8732 79.488 13.2506 79.4545C12.6281 79.421 11.2279 78.8253 10.7307 78.358C10.2334 77.8907 9.19775 75.8782 9.15662 74.763C9.11549 73.646 9.18279 72.4061 9.18279 72.4061L9.12671 71.0582C9.12671 71.0582 9.824 71.5888 10.7811 71.9834C11.7402 72.38 13.5853 72.7132 13.5853 72.7132V72.7114Z" fill="#A988D8"/>
<path d="M8.96032 68.7124C8.96032 68.7124 8.82385 66.7911 8.71916 65.8714C8.61448 64.9517 8.92106 63.8105 9.04818 63.4158C9.1753 63.0211 9.80343 62.5911 9.80343 62.5911C9.80343 62.5911 11.4429 62.7456 11.6747 62.7288C11.9065 62.7121 13.6339 62.4756 13.8264 63.0025C14.019 63.5294 13.6096 64.3299 13.3273 64.6985C13.045 65.0671 12.3365 66.0427 12.3701 66.5025C12.4038 66.9624 13.1273 68.4182 13.1273 68.4182C13.1273 68.4182 11.3588 68.0794 10.6671 68.1669C9.97541 68.2544 9.22017 68.5393 8.96032 68.7124Z" fill="#A988D8"/>
<path d="M17.2568 68.7068L17.6568 65.5903C17.6568 65.5903 17.8699 64.2238 18.3279 64.1139C18.7859 64.0041 20.8872 64.127 21.0068 64.1568C21.1246 64.1865 21.648 64.4584 21.4106 64.9387C21.1732 65.419 20.8984 67.0219 20.8984 67.0219L20.5899 69.2448L26.1309 70.2837L26.1832 67.7313C26.1832 67.7313 25.9458 64.9294 26.5553 64.2294C27.1647 63.5294 28.4041 63.52 28.52 63.5126C28.6359 63.5051 30.2474 63.2743 30.1202 64.2107C29.9931 65.1472 29.6977 65.9012 29.6641 66.5211C29.6304 67.1411 29.7538 71.0712 29.7538 71.0712C29.7538 71.0712 30.9446 71.451 31.7934 71.3914C32.6421 71.3318 34.4442 71.0507 34.4442 71.0507C34.4442 71.0507 34.3713 68.9321 34.9452 67.7331C35.5191 66.5342 35.9136 66.0818 36.4482 65.9663C36.9829 65.8509 37.5456 66.1209 37.553 66.2363C37.5605 66.3517 37.2109 66.8786 37.2109 66.8786C37.2109 66.8786 36.4351 67.9751 36.4407 68.5932C36.4464 69.2113 36.4501 71.4491 36.4501 71.4491C36.4501 71.4491 37.8335 72.3558 38.3588 72.6667L38.5233 72.81C38.5233 72.81 38.5962 72.1864 39.9945 72.2441C41.3947 72.2999 43.4791 72.7318 43.4791 72.7318L44.4194 72.3185L45.8533 71.2145C45.8533 71.2145 47.5582 71.7507 48.1414 72.3278C48.7247 72.905 49.5846 74.0797 49.5192 74.817C49.4557 75.5542 48.8163 75.8316 48.3919 75.8614C47.9676 75.8912 44.1128 76.742 44.1128 76.742C44.1128 76.742 40.3366 77.6263 40.0319 77.6859C39.7272 77.7455 38.9682 77.9931 38.2223 77.8516C37.4764 77.7119 36.1211 77.1888 36.1211 77.1888L32.371 76.2561L20.1001 73.7986L13.4282 72.6462C13.4282 72.6462 10.6297 71.9946 10.0614 71.6483C9.49492 71.302 8.4144 70.2967 8.55086 69.4757C8.68733 68.6547 9.97162 68.1781 10.5156 68.2172C11.0596 68.2563 17.2586 68.7087 17.2586 68.7087L17.2568 68.7068Z" fill="#603E91"/>
<path d="M29.7519 71.0712C29.7519 71.0712 29.5239 67.303 29.6622 66.5211C29.8006 65.7392 30.1184 64.2107 30.1184 64.2107L30.1987 63.7025C30.1987 63.7025 29.7276 63.6206 31.7242 63.9035C33.7207 64.1865 34.9583 64.6799 35.3359 65.0783C35.7135 65.4767 36.0594 65.9924 36.0594 65.9924C36.0594 65.9924 35.1546 66.9046 34.9415 67.7312C34.7283 68.5578 34.3713 70.0882 34.4405 71.0488C34.4405 71.0488 34.433 70.9334 33.517 71.1531C32.6028 71.3728 31.5242 71.4863 31.0923 71.4007C30.6605 71.3151 29.7501 71.0712 29.7501 71.0712H29.7519Z" fill="#A988D8"/>
<path d="M26.1307 70.2837C26.1307 70.2837 26.026 67.1634 26.2242 66.1451C26.4242 65.1267 26.5532 64.2294 26.5532 64.2294C26.5532 64.2294 25.2054 64.3634 25.0128 64.3764C24.8203 64.3895 21.5731 64.5403 21.5731 64.5403C21.5731 64.5403 21.4759 64.8177 21.2777 65.2943C21.0795 65.7709 20.872 66.6738 20.8963 67.0201C20.9206 67.3664 20.5879 69.243 20.5879 69.243L26.1289 70.2818L26.1307 70.2837Z" fill="#A988D8"/>
<path d="M17.2568 68.7068C17.2568 68.7068 17.4849 66.4523 17.6008 65.903C17.7167 65.3538 18.0008 64.4472 18.0008 64.4472L13.7778 63.9333C13.7778 63.9333 13.7535 64.1288 13.3273 64.6985C12.9029 65.2682 12.3683 65.9235 12.3701 66.5025C12.372 67.0815 13.1272 68.4182 13.1272 68.4182L17.2568 68.7068Z" fill="#A988D8"/>
<path d="M43.7389 39.7775C43.7389 39.7775 44.9223 38.4203 47.0553 37.8842C49.1883 37.348 48.9452 37.2102 51.2222 37.5919C53.4973 37.9717 55.5649 38.1355 57.1483 38.6028C58.7317 39.0701 61.7003 39.3642 63.3473 39.6342C64.9942 39.9041 67.7853 40.4422 69.9444 41.3712C72.1036 42.3002 73.4814 43.1305 73.4814 43.1305C73.4814 43.1305 73.9899 44.2922 74.5301 45.3348C75.0685 46.3773 76.1154 47.4627 76.1154 47.4627C76.1154 47.4627 76.5547 49.2853 76.6893 49.546C76.8239 49.8066 77.0109 50.2572 77.0109 50.2572C77.0109 50.2572 76.3266 51 76.0724 51.2494C75.8182 51.4989 74.418 52.5247 74.418 52.5247C74.418 52.5247 73.2159 52.5322 72.7897 52.5247C72.3635 52.5154 65.2503 52.8245 63.9754 52.8747C62.7004 52.925 58.8382 53.1596 57.5464 53.5207C57.5464 53.5207 57.2174 53.8149 56.8323 54.3827C56.4454 54.9505 52.9495 60.8727 52.4298 61.7198C51.9083 62.5668 51.383 63.9166 50.5455 65.2124C49.708 66.5081 48.2031 68.8129 46.973 70.0584C45.7429 71.3039 44.9353 71.9387 44.6026 72.1566C44.2698 72.3725 43.4809 72.7374 43.4809 72.7374C43.4809 72.7374 41.4638 72.1845 40.9217 72.1845C40.3796 72.1845 39.2953 72.2217 39.1084 72.313C38.9214 72.4042 38.5232 72.8175 38.5232 72.8175L36.45 71.4584C36.45 71.4584 36.2911 69.7698 36.493 68.7906C36.6949 67.8113 37.3455 66.6068 37.4483 66.4076C37.5511 66.2065 37.4932 65.4004 37.9007 64.5998C38.3082 63.7993 40.7086 59.9232 41.1124 58.5046C41.5162 57.0859 42.778 53.5617 42.778 53.5617C42.778 53.5617 41.1012 51.7875 40.9909 49.1308C40.8806 46.4741 41.1797 44.6776 41.9331 43.2738C42.6864 41.8701 43.6305 39.8725 43.7408 39.7868L43.7389 39.7775Z" fill="#A988D8"/>
<path d="M43.739 39.7775C43.739 39.7775 45.4159 38.2695 47.3975 37.7817C49.3791 37.294 51.0241 37.5267 51.0241 37.5267L55.7388 38.3924L56.7165 38.5171C56.7165 38.5171 54.4022 37.5993 53.6395 37.2269C52.8767 36.8565 51.7887 36.2756 49.8184 36.3761C47.848 36.4767 46.3655 36.89 45.8066 37.199C45.2476 37.5081 44.0306 38.4054 44.0063 38.599C43.982 38.7945 43.7409 39.7756 43.7409 39.7756L43.739 39.7775Z" fill="#603E91"/>
<path d="M34.2834 22.9141C34.2834 22.9141 33.3599 23.0183 33.0346 23.3497C32.7093 23.6811 32.0494 24.7702 32.0494 24.7702L10.9287 18.3417L4.43248 16.4055L2.13496 15.7185C2.13496 15.7185 1.50684 15.6087 1.15539 15.0148C0.803934 14.4209 0.362751 13.14 0.405748 12.6355C0.446875 12.131 0.456222 11.7046 1.619 11.7009C2.78178 11.6972 6.7113 11.8834 8.60689 12.3674C10.5025 12.8515 15.778 14.527 17.1744 15.0855C18.5709 15.644 25.3644 18.4869 25.3644 18.4869L34.2086 22.3816C34.2086 22.3816 34.1151 22.6962 34.2852 22.9159L34.2834 22.9141Z" fill="#E3F0FF"/>
<path d="M45.3804 26.8442L47.5302 27.6298C47.5302 27.6298 48.2499 28.0711 48.2069 28.4229C48.1639 28.7748 48.134 29.5865 47.5582 29.6554C46.9825 29.7243 46.5338 29.553 46.5338 29.553L44.6289 28.7897L44.4531 27.412L45.3822 26.8442H45.3804Z" fill="#603E91"/>
<path d="M32.6197 27.8569C32.6197 27.8569 31.9261 27.9053 31.6121 27.3096C31.298 26.7138 31.1989 26.4122 31.6438 25.5707C32.0888 24.7292 32.7412 23.5638 33.0366 23.3497C33.3319 23.1356 34.2853 22.9141 34.2853 22.9141C34.2853 22.9141 34.0498 21.7728 34.4031 21.2851C34.7564 20.7973 35.3191 20.5255 36.0015 20.3225C36.6857 20.1196 37.1325 19.8571 38.0073 20.1811C38.8822 20.505 40.045 21.0412 40.26 21.3353C40.475 21.6295 40.8115 21.9906 40.8115 21.9906C40.8115 21.9906 41.7873 21.5364 42.5556 21.4433C43.324 21.3502 43.5446 21.1808 44.6475 21.4117C45.7486 21.6425 47.1563 22.3555 47.8405 22.6925C48.5228 23.0314 49.0837 23.2622 49.1173 23.7611C49.1528 24.2601 49.207 25.029 49.207 25.029C49.207 25.029 49.308 25.3697 49.3529 25.984C49.3977 26.5984 49.336 26.8348 48.9846 27.3617C48.635 27.8886 48.3976 28.3689 48.3976 28.3689L48.2069 28.421C48.2069 28.421 47.9284 27.7843 47.4105 27.5888L45.3803 26.8442L44.7073 27.1997L44.4512 27.4101C44.4512 27.4101 44.612 28.596 44.627 28.7878C44.64 28.9795 44.8083 29.7019 44.096 30.0612C43.3857 30.4205 42.636 30.2418 42.3799 29.9123C42.3799 29.9123 41.3387 30.5266 40.746 29.8341C40.746 29.8341 40.0656 30.0742 39.8674 30.0109C39.8674 30.0109 39.7104 30.5248 39.4169 30.7761C39.1253 31.0274 38.2242 31.4389 37.239 31.2378C36.2557 31.0367 35.5173 31.0107 35.3079 29.7131C35.3079 29.7131 34.0928 30.0687 33.8479 28.812C33.8479 28.812 32.6085 28.8213 32.6178 27.8569H32.6197Z" fill="#A988D8"/>
<path d="M40.8095 21.9906C40.8095 21.9906 42.077 21.2832 43.1239 21.2869C44.1707 21.2906 45.1933 21.488 45.8756 21.8268C46.558 22.1656 47.1543 22.3555 47.1543 22.3555C47.1543 22.3555 47.7525 22.0427 47.9432 21.9906C48.1339 21.9385 51.5493 21.177 51.5493 21.177C51.5493 21.177 49.822 19.5034 49.5696 18.1313C49.3172 16.7592 49.0667 15.2717 49.0667 15.2717C49.0667 15.2717 48.0423 16.2696 47.1712 16.5637C46.3 16.856 44.6549 17.7068 43.4473 18.1778C42.2396 18.6488 41.518 19.3954 41.1292 19.9241C40.7403 20.4528 40.3066 21.4489 40.3066 21.4489L40.8114 21.9925L40.8095 21.9906Z" fill="#E3F0FF"/>
<path d="M48.7788 27.762C48.7788 27.762 48.1226 28.3484 48.6573 28.7748C49.1919 29.2011 50.0818 29.7168 50.422 29.6163C50.7641 29.5157 51.1885 29.486 51.5829 28.4918C51.9774 27.4995 51.9512 26.5742 51.7773 26.3155C51.6035 26.0567 51.4034 25.9561 50.8445 25.7253C50.2855 25.4944 49.6518 25.3064 49.6518 25.3064C49.6518 25.3064 49.276 25.487 49.3377 25.7923C49.3994 26.0976 49.6013 26.7772 48.7788 27.762Z" fill="#603E91"/>
<path d="M50.7361 29.6702C50.7361 29.6702 51.3941 29.121 51.6484 28.3316C51.9026 27.5423 51.9419 26.4569 51.9419 26.4569C51.9419 26.4569 52.327 26.429 52.8841 26.6226C53.4411 26.8143 57.8231 27.3952 59.5897 27.6949C61.3563 27.9947 63.6388 28.4918 63.8818 28.6277C64.1249 28.7654 64.9287 28.0915 65.0446 28.0822C65.1605 28.0729 67.5478 26.7473 68.1049 26.3992C68.662 26.051 69.4714 25.4534 69.4714 25.4534C69.4714 25.4534 71.1072 27.1923 71.7951 28.6872C72.483 30.1841 72.8868 31.5059 72.5672 32.4554C72.2475 33.4048 71.6082 33.1405 71.6082 33.1405C71.6082 33.1405 67.273 33.7921 66.6617 33.9131C66.0504 34.0341 64.7549 34.8961 64.3679 34.924C63.9828 34.9519 62.4368 35.0208 61.5189 34.6615C60.601 34.3022 54.2861 31.6176 53.5589 31.2061C52.8317 30.7947 50.7361 29.6665 50.7361 29.6665V29.6702Z" fill="#E3F0FF"/>
<path d="M48.6574 28.7748C48.6574 28.7748 49.9977 29.6461 50.2333 29.6684C50.467 29.6907 50.738 29.6721 50.738 29.6721L55.7294 32.2562C55.7294 32.2562 60.9675 34.5126 62.3453 34.803C63.723 35.0916 64.3343 34.9724 64.9737 34.6951C65.613 34.4177 66.6748 34.0732 66.6748 34.0732L69.2023 33.6246C69.2023 33.6246 69.0696 33.9429 68.2508 34.4251C67.432 34.9073 66.4038 35.7134 66.2187 35.8419C66.0336 35.9703 62.3658 39.4722 62.3658 39.4722C62.3658 39.4722 60.145 39.3196 58.5672 38.9286C56.9894 38.5376 56.2005 38.3608 55.3966 37.9549C54.5928 37.5491 52.9813 36.6964 51.8821 36.5028C50.7829 36.3092 49.465 36.3259 48.4648 36.4339C47.4647 36.5419 46.487 36.9589 45.9243 37.2307C45.3616 37.5025 44.2212 38.3552 44.1539 38.5134C44.0885 38.6717 44.5521 37.5584 44.9148 37.2251C45.2793 36.89 45.6345 35.8996 46.0458 35.1381C46.4571 34.3748 46.6814 33.1629 47.1357 32.474C47.5899 31.7852 48.0573 30.711 48.0573 30.711C48.0573 30.711 48.3713 29.6852 48.3994 29.5288C48.4274 29.3724 48.6555 28.7766 48.6555 28.7766L48.6574 28.7748Z" fill="#A988D8"/>
<path d="M52.5308 21.0896C52.5308 21.0896 51.0521 19.9186 50.6389 18.4813C50.2277 17.0422 49.6631 14.5736 49.6631 14.5736C49.6631 14.5736 50.9399 12.8999 52.1083 12.4326C53.2767 11.9653 54.8545 10.6956 56.8379 10.7868C58.8214 10.8781 60.7562 11.3602 61.962 11.431C63.1696 11.4999 64.5044 11.7531 65.2597 12.01C66.0149 12.265 66.987 12.8533 66.987 12.8533C66.987 12.8533 66.2598 15.1824 66.0897 16.0443C65.9177 16.9063 66.2897 18.3082 66.6935 19.6319C67.0973 20.9556 67.3945 21.8604 67.3945 21.8604C67.3945 21.8604 67.9815 21.9348 69.2079 21.7319C70.4342 21.529 71.9447 20.9593 72.9037 20.2742C73.8627 19.5891 74.3506 18.8202 74.3506 18.8202C74.3506 18.8202 74.7862 19.4848 75.1601 19.8441C75.534 20.2034 77.7623 22.0931 78.3905 23.2846C79.0186 24.4761 79.3495 25.8817 78.497 27.5237C77.6446 29.1676 76.0855 30.7054 75.9322 30.7166C75.7789 30.7277 73.4178 32.4387 73.4178 32.4387L72.2569 33.0214C72.2569 33.0214 72.9467 32.3549 72.642 30.7929C72.3373 29.2309 71.0623 27.1197 70.7744 26.8702C70.4847 26.6208 69.4715 25.4553 69.4715 25.4553C69.4715 25.4553 67.7703 26.617 67.2487 26.9242C66.7272 27.2314 64.5605 28.3875 64.5605 28.3875L63.88 28.6277C63.88 28.6277 62.7172 28.0915 61.547 27.9817C60.3767 27.8718 56.7015 27.4343 56.2304 27.3524C55.7593 27.2705 51.94 26.4569 51.94 26.4569C51.94 26.4569 51.7998 26.12 51.4409 25.9896C51.082 25.8612 50.08 25.3902 50.08 25.3902C50.08 25.3902 50.8969 23.2473 51.3437 22.4449C51.7905 21.6425 52.1363 21.0375 52.1363 21.0375L52.527 21.0877L52.5308 21.0896Z" fill="#A988D8"/>
<path d="M69.4734 25.4571C69.4734 25.4571 70.982 27.0508 71.5167 28.017C72.0513 28.9832 72.6794 30.7537 72.7318 31.4835C72.7841 32.2133 72.2588 33.0232 72.2588 33.0232C72.2588 33.0232 73.4609 32.4758 73.6646 32.0756C73.8684 31.6753 73.4609 29.1936 72.9954 28.1064C72.5299 27.0191 70.6661 24.7944 70.6661 24.7944C70.6661 24.7944 69.7613 25.1667 69.4734 25.4571Z" fill="#603E91"/>
<path d="M49.0649 15.2717L49.665 14.5735C49.665 14.5735 49.7043 15.6608 49.8856 16.1709C50.0669 16.6792 51.1979 19.4959 51.6784 20.1271C52.1588 20.7582 52.5327 21.0896 52.5327 21.0896L51.5513 21.1789C51.5513 21.1789 50.1642 19.6542 49.7641 18.5241C49.364 17.3941 48.9696 15.9456 49.0687 15.2717H49.0649Z" fill="#603E91"/>
<path d="M71.0381 4.8833C71.0381 4.8833 70.1202 6.14555 69.9987 6.61656C69.8772 7.08758 69.694 8.33679 69.694 8.33679C69.694 8.33679 69.2322 10.0291 69.15 10.4983C69.15 10.4983 68.8939 11.2504 68.9182 11.5948C68.9425 11.9411 69.0117 12.36 68.8658 12.4866C68.72 12.6132 68.0882 13.0041 67.6993 12.993C67.3105 12.9818 66.9609 12.9669 66.9609 12.9669C66.9609 12.9669 66.2487 15.4877 66.1814 15.6478C66.1159 15.806 65.8804 16.8653 66.3122 18.5725C66.744 20.2797 67.3983 21.8547 67.3983 21.8547C67.3983 21.8547 68.7948 21.8715 70.438 21.5252C72.0812 21.1771 73.1412 20.2928 73.4291 19.9632C73.7151 19.6337 74.3563 18.8164 74.3563 18.8164C74.3563 18.8164 74.132 17.8278 74.4068 17.3457C74.6816 16.8635 75.9958 15.1488 75.9958 15.1488L76.4258 14.6555L76.4033 14.3483C76.4033 14.3483 77.2782 13.5533 77.7661 12.7844C78.2541 12.0156 78.4429 11.3863 78.4429 11.3863L79.2019 8.97723C79.2019 8.97723 79.0374 8.29397 77.9194 7.83227C76.8015 7.37056 75.1733 6.2889 74.0217 5.90539C72.8701 5.52373 71.6943 4.7958 71.0418 4.87958L71.0381 4.8833Z" fill="#E3F0FF"/>
<path d="M69.9164 4.92425C69.9164 4.92425 70.5539 4.60962 71.941 5.05271C73.33 5.4958 77.1006 7.27747 77.5904 7.62747C78.0802 7.97934 79.1457 8.79291 79.4206 9.39052C79.6954 9.98813 79.9103 10.824 79.9103 10.824C79.9103 10.824 80.5385 10.394 80.6712 10.0756C80.8039 9.75728 81.2619 8.56764 81.3199 8.2921C81.3778 8.01843 81.8919 6.51416 81.6396 5.14207C81.3872 3.76998 80.9479 1.94736 78.5531 0.99602C76.1603 0.0446811 74.7919 0.450536 74.0703 0.655326C73.3487 0.860115 72.4532 1.34789 72.0906 1.72209C71.7279 2.0963 69.9146 4.92611 69.9146 4.92611L69.9164 4.92425Z" fill="#603E91"/>
<path d="M78.5383 7.31843C77.8821 6.67055 75.8276 5.5982 75.1658 5.26868C74.5022 4.93915 72.8328 4.36202 71.8663 4.2559C71.2737 4.19074 70.5914 4.39367 70.1521 4.55936C70.0081 4.78277 69.9165 4.9224 69.9165 4.9224C69.9165 4.9224 70.554 4.60777 71.9411 5.05086C73.3301 5.49394 77.1007 7.27561 77.5905 7.62561C78.0803 7.97748 79.1458 8.79105 79.4206 9.38866C79.6954 9.98628 79.9104 10.8222 79.9104 10.8222C79.9104 10.8222 79.9684 10.7831 80.0525 10.7179C80.0432 10.3828 79.9964 9.83175 79.8132 9.3142C79.5216 8.49504 79.1944 7.96817 78.5383 7.31843Z" fill="#3E1F6A"/>
<path d="M51.1285 29.2849C51.9473 28.125 51.966 27.1197 51.88 26.5649C51.8389 26.2931 51.6538 26.0641 51.394 25.9654L49.7227 25.3324C49.547 25.2654 49.3638 25.405 49.3806 25.5912C49.4255 26.1311 49.3638 27.1271 48.5468 28.1343C48.3599 28.3652 48.4328 28.7077 48.6945 28.8492L49.9975 29.5492C50.3863 29.7577 50.8743 29.646 51.1285 29.2849Z" stroke="#3E1F6A" stroke-width="0.5" stroke-miterlimit="10" stroke-linecap="round"/>
<path d="M51.8408 26.388C51.8408 26.388 53.3906 26.9167 56.2713 27.3505C59.1521 27.7843 63.4013 27.8327 64.4818 29.1471" stroke="#3E1F6A" stroke-width="0.5" stroke-miterlimit="10" stroke-linecap="round"/>
<path d="M63.8667 28.6705C63.8667 28.6705 65.723 27.7862 67.0092 27.0601C68.2954 26.3322 71.4005 23.3925 73.5783 24.571" stroke="#3E1F6A" stroke-width="0.5" stroke-miterlimit="10" stroke-linecap="round"/>
<path d="M69.4583 25.4963C69.4583 25.4963 71.4979 27.2053 72.3933 29.9812C73.2888 32.757 72.0363 33.1331 72.0363 33.1331C72.0363 33.1331 68.3535 33.6823 66.5794 34.0956C64.8053 34.5107 64.6876 35.2889 62.4461 34.8496C58.9672 34.1682 50.7417 29.7075 50.7417 29.7075" stroke="#3E1F6A" stroke-width="0.5" stroke-miterlimit="10" stroke-linecap="round"/>
<path d="M70.6267 24.7776C70.6267 24.7776 72.7036 27.0061 73.2514 28.9944C73.7991 30.9828 73.8608 31.8466 73.5953 32.2134C73.3299 32.5801 72.0325 33.1349 72.0325 33.1349" stroke="#3E1F6A" stroke-width="0.5" stroke-miterlimit="10" stroke-linecap="round"/>
<path d="M74.3562 18.7233C74.3562 18.7233 73.2626 21.7542 67.4281 21.9031C67.4281 21.9031 66.2522 18.8592 66.0559 17.3084C65.8597 15.7595 66.9589 12.8142 66.9589 12.8142C66.9589 12.8142 65.1362 11.727 63.1228 11.6078C61.1076 11.4887 58.969 10.8575 57.1351 10.8129C55.2993 10.7682 52.4279 12.0993 51.1941 13.1419C49.9602 14.1844 49.0723 15.2028 49.0723 15.2028C49.0723 15.2028 49.0872 19.1106 51.5848 21.1063" stroke="#3E1F6A" stroke-width="0.5" stroke-miterlimit="10" stroke-linecap="round"/>
<path d="M66.1437 12.4083C66.1437 12.4083 65.3679 14.5865 65.1791 15.7576C64.9903 16.9286 65.166 19.3879 65.7904 20.5403C66.4148 21.6927 66.927 22.8935 66.927 22.8935C66.927 22.8935 68.6768 22.9643 69.9443 22.7967C71.2117 22.631 72.8101 21.6685 73.6158 20.9946C74.4215 20.3206 74.8291 19.5201 74.8291 19.5201" stroke="#3E1F6A" stroke-width="0.5" stroke-miterlimit="10" stroke-linecap="round"/>
<path d="M76.4218 14.6387C76.4218 14.6387 74.7824 16.6661 74.4739 17.2283C74.1654 17.7906 74.029 18.6116 75.1245 19.8459C76.2199 21.0821 79.5662 22.8917 78.8147 26.4978C78.0632 30.1021 73.9991 31.8559 73.3784 32.4013" stroke="#3E1F6A" stroke-width="0.5" stroke-miterlimit="10" stroke-linecap="round"/>
<path d="M73.8645 27.7731C73.8645 27.7731 76.9154 29.7987 75.8629 30.7984" stroke="#3E1F6A" stroke-width="0.5" stroke-miterlimit="10" stroke-linecap="round"/>
<path d="M72.3726 24.2489C72.3726 24.2489 74.685 22.9662 76.8722 23.7388" stroke="#3E1F6A" stroke-width="0.5" stroke-miterlimit="10" stroke-linecap="round"/>
<path d="M72.1016 24.2303C72.1016 24.2303 72.8848 22.1675 75.5301 22.2904" stroke="#3E1F6A" stroke-width="0.5" stroke-miterlimit="10" stroke-linecap="round"/>
<path d="M49.6648 14.5717C49.6648 14.5717 50.149 19.2092 52.525 21.0113" stroke="#3E1F6A" stroke-width="0.5" stroke-miterlimit="10" stroke-linecap="round"/>
<path d="M47.113 22.3202C47.113 22.3202 48.2403 21.8157 49.4255 21.5792C50.6107 21.3409 53.7925 20.8476 54.6225 20.518C55.4525 20.1885 55.7217 19.63 55.8638 17.8055C56.0059 15.981 56.7518 14.4619 56.7518 14.4619" stroke="#3E1F6A" stroke-width="0.5" stroke-miterlimit="10" stroke-linecap="round"/>
<path d="M55.604 14.1155C55.604 14.1155 54.817 15.5993 54.7497 16.8392C54.6824 18.0791 54.5964 19.5909 54.9946 20.2965" stroke="#3E1F6A" stroke-width="0.5" stroke-miterlimit="10" stroke-linecap="round"/>
<path d="M53.3327 17.6342C53.3327 17.6342 53.2542 19.8013 54.7722 20.4287" stroke="#3E1F6A" stroke-width="0.5" stroke-miterlimit="10" stroke-linecap="round"/>
<path d="M52.1099 21.1566C52.1099 21.1566 50.7752 23.1039 50.0835 25.392" stroke="#3E1F6A" stroke-width="0.5" stroke-miterlimit="10" stroke-linecap="round"/>
<path d="M54.6226 20.518C54.6226 20.518 57.4192 20.0507 58.5876 20.6632" stroke="#3E1F6A" stroke-width="0.5" stroke-miterlimit="10" stroke-linecap="round"/>
<path d="M49.0705 15.2028C49.0705 15.2028 47.8497 16.4464 46.2308 16.9957C44.6119 17.543 42.7275 18.4292 41.6302 19.3749C41.0207 19.9018 40.3141 21.3204 40.3552 21.4917" stroke="#3E1F6A" stroke-width="0.5" stroke-miterlimit="10" stroke-linecap="round"/>
<path d="M46.1653 20.4175C46.1653 20.4175 46.2382 21.9962 47.9057 21.9944" stroke="#3E1F6A" stroke-width="0.5" stroke-miterlimit="10" stroke-linecap="round"/>
<path d="M48.6966 28.8492C48.6966 28.8492 47.2122 31.8894 48.648 34.1049" stroke="#3E1F6A" stroke-width="0.5" stroke-miterlimit="10" stroke-linecap="round"/>
<path d="M48.0926 30.6681C48.0926 30.6681 46.8233 32.9971 46.4307 34.0285C46.0381 35.0599 45.9858 35.9517 45.1221 36.9011C44.2584 37.8506 43.8528 39.2301 43.8528 39.2301" stroke="#3E1F6A" stroke-width="0.5" stroke-miterlimit="10" stroke-linecap="round"/>
<path d="M49.9975 29.5474C49.9975 29.5474 49.7489 33.254 53.3793 35.7785" stroke="#3E1F6A" stroke-width="0.5" stroke-miterlimit="10" stroke-linecap="round"/>
<path d="M69.3162 33.6152C69.3162 33.6152 68.6264 34.2817 67.4001 35.0246C66.1737 35.7674 64.8053 37.253 63.9678 38.007C63.1303 38.761 62.4424 39.4666 62.4424 39.4666" stroke="#3E1F6A" stroke-width="0.5" stroke-miterlimit="10" stroke-linecap="round"/>
<path d="M73.5692 43.2775C72.3747 42.2796 67.1272 39.9078 63.1902 39.6062C59.2532 39.3046 56.2472 38.4724 53.6767 37.2251C51.1063 35.9777 48.104 36.2663 46.0364 37.1841C43.9688 38.1019 43.5631 40.0232 43.5631 40.0232C43.5631 40.0232 42.8416 42.14 42.2975 44.3201C41.7535 46.502 41.6881 52.1244 46.9431 54.0699C52.198 56.0173 54.7385 53.2899 62.162 52.9994C69.5855 52.709 74.4591 52.5396 74.4591 52.5396" stroke="#3E1F6A" stroke-width="0.5" stroke-miterlimit="10" stroke-linecap="round"/>
<path d="M43.6995 39.7794C43.6995 39.7794 46.7522 36.9011 50.9098 37.5732C54.8356 38.2081 58.1314 38.802 58.1314 38.802" stroke="#3E1F6A" stroke-width="0.5" stroke-miterlimit="10" stroke-linecap="round"/>
<path d="M74.7617 37.9958C74.4327 37.7017 73.9261 37.7203 73.6251 38.0424C73.2868 38.4035 72.9465 38.9844 72.9764 39.8445C73.0363 41.5201 73.7037 45.1802 76.1358 47.498C76.1358 47.498 76.6835 50.2981 77.7603 51.5529C78.8371 52.8077 79.8634 53.3159 79.8634 53.3159C79.8634 53.3159 84.8005 60.6139 85.9521 62.0958C87.1037 63.5777 92.7138 72.1603 93.8504 72.6015C94.987 73.0427 95.9254 72.339 96.0956 71.4584C96.2657 70.5778 95.8563 69.7382 95.5609 68.8315C95.2637 67.9248 95.8432 67.8857 96.7723 68.6881C96.7723 68.6881 97.4247 68.8743 96.6994 67.6512C95.9722 66.428 84.7108 48.939 84.7108 48.939C84.7108 48.939 85.6006 48.105 83.8509 46.3736C83.8509 46.3736 83.9499 45.3235 82.8264 45.0555C82.8264 45.0555 82.5871 43.3352 80.914 43.5102L74.7636 37.9921L74.7617 37.9958Z" stroke="#3E1F6A" stroke-width="0.5" stroke-miterlimit="10" stroke-linecap="round"/>
<path d="M76.1357 47.4981C76.1357 47.4981 79.4315 46.1465 80.9121 43.514" stroke="#3E1F6A" stroke-width="0.5" stroke-miterlimit="10" stroke-linecap="round"/>
<path d="M76.7676 49.5776C76.7676 49.5776 80.9102 47.8574 82.8245 45.0592" stroke="#3E1F6A" stroke-width="0.5" stroke-miterlimit="10" stroke-linecap="round"/>
<path d="M77.7622 51.5529C77.7622 51.5529 82.4713 49.06 83.8509 46.3754" stroke="#3E1F6A" stroke-width="0.5" stroke-miterlimit="10" stroke-linecap="round"/>
<path d="M79.813 53.1465C79.813 53.1465 83.1536 51.5994 84.7277 48.9204" stroke="#3E1F6A" stroke-width="0.5" stroke-miterlimit="10" stroke-linecap="round"/>
<path d="M73.8477 37.9288L80.5252 44.0613" stroke="#3E1F6A" stroke-width="0.5" stroke-miterlimit="10" stroke-linecap="round"/>
<path d="M73.0811 39.1408L79.6296 45.0909" stroke="#3E1F6A" stroke-width="0.5" stroke-miterlimit="10" stroke-linecap="round"/>
<path d="M73.1653 41.4139L78.3828 46.1036" stroke="#3E1F6A" stroke-width="0.5" stroke-miterlimit="10" stroke-linecap="round"/>
<path d="M84.2603 49.7061L96.1629 68.2898" stroke="#3E1F6A" stroke-width="0.5" stroke-miterlimit="10" stroke-linecap="round"/>
<path d="M83.363 50.7356L95.4414 68.4946" stroke="#3E1F6A" stroke-width="0.5" stroke-miterlimit="10" stroke-linecap="round"/>
<path d="M82.1479 51.6311L96.0976 71.4603" stroke="#3E1F6A" stroke-width="0.5" stroke-miterlimit="10" stroke-linecap="round"/>
<path d="M80.8225 52.6122L95.2283 72.6033" stroke="#3E1F6A" stroke-width="0.5" stroke-miterlimit="10" stroke-linecap="round"/>
<path d="M76.9714 50.2571C76.9714 50.2571 76.3676 51.0335 75.6722 51.6218C74.9768 52.2119 74.2271 52.5731 74.2496 52.8803C74.272 53.1875 74.1187 53.7777 74.5187 53.9433C74.9188 54.109 77.8669 52.5117 78.3529 52.2455" stroke="#3E1F6A" stroke-width="0.5" stroke-miterlimit="10" stroke-linecap="round"/>
<path d="M74.5188 53.9434C74.5188 53.9434 75.4722 56.4623 76.3695 57.6351C77.2668 58.808 78.3436 59.7743 78.3436 59.7743" stroke="#3E1F6A" stroke-width="0.5" stroke-miterlimit="10" stroke-linecap="round"/>
<path d="M81.5964 55.8777C81.5964 55.8777 78.3511 59.8506 78.2894 60.087C78.2277 60.3235 78.4932 60.7684 78.9007 61.0477C79.3082 61.3288 80.0653 62.1629 80.7795 61.8426C81.4936 61.5224 83.8864 59.1915 83.8864 59.1915" stroke="#3E1F6A" stroke-width="0.5" stroke-miterlimit="10" stroke-linecap="round"/>
<path d="M80.9329 61.8333C80.9329 61.8333 83.6304 64.3466 84.1688 64.8102C84.7054 65.2738 85.2512 65.8546 85.2512 65.8546" stroke="#3E1F6A" stroke-width="0.5" stroke-miterlimit="10" stroke-linecap="round"/>
<path d="M87.2513 64.0134C87.2513 64.0134 86.5952 64.5998 86.1241 65.0578C85.653 65.5158 85.1763 65.8974 85.1594 66.2065C85.1426 66.5174 85.9296 67.2341 86.3951 67.7796C86.8606 68.327 87.0924 68.3102 87.3149 68.178C87.5373 68.0459 89.1077 66.6626 89.1077 66.6626" stroke="#3E1F6A" stroke-width="0.5" stroke-miterlimit="10" stroke-linecap="round"/>
<path d="M87.502 68.0887C87.502 68.0887 88.1619 69.2001 88.4367 69.7996C88.7115 70.3972 88.8984 70.8478 89.4461 70.9259C89.9939 71.0023 91.409 70.71 91.6876 70.2669" stroke="#3E1F6A" stroke-width="0.5" stroke-miterlimit="10" stroke-linecap="round"/>
<path d="M88.4384 69.7996C88.4384 69.7996 87.9299 71.3802 87.8552 71.9648C87.7804 72.5494 87.3224 73.1991 87.1485 74.022C86.9747 74.8449 86.6064 76.2226 89.3507 76.1071C92.095 75.9917 95.2057 75.5784 97.4621 75.6901C99.7185 75.8018 106.183 75.6547 106.581 73.08C106.581 73.08 106.381 72.4377 105.626 72.1826C104.871 71.9276 103.648 71.626 101.646 70.7249C99.6437 69.8238 96.9929 68.543 96.9929 68.543" stroke="#3E1F6A" stroke-width="0.5" stroke-miterlimit="10" stroke-linecap="round"/>
<path d="M87.5728 72.9106C87.5728 72.9106 86.969 74.2268 90.6443 74.1226C94.3196 74.0183 96.5797 73.6273 99.8007 74.2119C103.022 74.7965 105.678 74.5321 106.583 73.0781" stroke="#3E1F6A" stroke-width="0.5" stroke-miterlimit="10" stroke-linecap="round"/>
<path d="M98.0436 69.1219C98.0436 69.1219 96.9295 69.2783 96.8154 70.9464" stroke="#3E1F6A" stroke-width="0.5" stroke-miterlimit="10" stroke-linecap="round"/>
<path d="M98.967 69.5594C98.967 69.5594 98.0285 69.6898 97.7874 71.0023" stroke="#3E1F6A" stroke-width="0.5" stroke-miterlimit="10" stroke-linecap="round"/>
<path d="M100.005 69.9895C100.005 69.9895 99.1521 70.1086 98.8623 71.2555" stroke="#3E1F6A" stroke-width="0.5" stroke-miterlimit="10" stroke-linecap="round"/>
<path d="M49.4592 42.801C49.4592 42.801 51.7324 37.9493 56.9276 38.627" stroke="#3E1F6A" stroke-width="0.5" stroke-miterlimit="10" stroke-linecap="round"/>
<path d="M43.5613 40.0214C43.5613 40.0214 41.905 42.9797 41.4358 44.4951C40.6319 47.0997 40.4225 51.5157 43.5856 54.3045" stroke="#3E1F6A" stroke-width="0.5" stroke-miterlimit="10" stroke-linecap="round"/>
<path d="M42.8359 53.5486C42.8359 53.5486 41.8694 57.1492 40.4879 59.7947C39.1046 62.4402 36.8874 65.6089 37.6595 66.6533C38.4316 67.6996 40.6132 68.1259 40.7441 70.7807" stroke="#3E1F6A" stroke-width="0.5" stroke-miterlimit="10" stroke-linecap="round"/>
<path d="M47.945 55.9112C47.945 55.9112 53.7084 57.6482 57.3239 53.6883C57.3239 53.6883 54.4281 57.946 53.1476 60.411C51.91 62.794 47.8721 70.8962 43.5481 72.7635" stroke="#3E1F6A" stroke-width="0.5" stroke-miterlimit="10" stroke-linecap="round"/>
<path d="M45.5073 71.5459C48.4984 72.7262 47.5263 73.7781 46.943 73.7614C46.3598 73.7446 43.1369 72.581 41.9012 72.3781C40.6655 72.1752 39.2186 72.2776 39.2186 72.2776C39.2186 72.2776 38.5905 72.4377 38.5063 72.9068" stroke="#3E1F6A" stroke-width="0.5" stroke-miterlimit="10" stroke-linecap="round"/>
<path d="M45.8345 71.2331C45.8345 71.2331 48.5545 71.8531 49.3527 74.1132C50.1529 76.3734 47.5581 75.8614 45.5859 75.1316C43.6155 74.4018 39.7888 72.9329 38.7513 73.0651C38.7513 73.0651 36.6482 71.302 35.0666 71.1233C33.4832 70.9446 32.3709 71.6613 30.5408 71.2685C28.7106 70.8757 20.3337 69.2076 20.3337 69.2076C20.3337 69.2076 12.6429 68.1855 11.2502 68.2246C9.85751 68.2656 8.99009 68.3251 8.6536 69.3342C8.31897 70.3432 9.15273 71.4417 11.1773 72.11C13.2019 72.7784 22.1321 74.0611 27.1496 75.0981C32.1672 76.1351 35.2368 76.7885 37.2688 77.5704C39.3009 78.3542 41.146 77.2968 43.7295 76.8258C46.3131 76.3547 48.2236 75.9489 48.7358 75.7981" stroke="#3E1F6A" stroke-width="0.5" stroke-miterlimit="10" stroke-linecap="round"/>
<path d="M38.5101 72.9069C38.5101 72.9069 37.7324 74.7946 38.3399 77.8795" stroke="#3E1F6A" stroke-width="0.5" stroke-miterlimit="10" stroke-linecap="round"/>
<path d="M37.0293 71.9871C37.0293 71.9871 36.5601 72.4842 36.504 73.8768C36.4479 75.2712 36.4928 77.0045 36.79 77.3694" stroke="#3E1F6A" stroke-width="0.5" stroke-miterlimit="10" stroke-linecap="round"/>
<path d="M35.5001 71.2071C35.5001 71.2071 34.7673 71.7991 34.8926 73.026C35.0178 74.2529 35.2478 76.9393 35.2478 76.9393" stroke="#3E1F6A" stroke-width="0.5" stroke-miterlimit="10" stroke-linecap="round"/>
<path d="M34.1748 71.1066C34.1748 71.1066 33.3672 71.7433 33.1896 73.067C33.012 74.3925 33.8645 76.5707 33.8645 76.5707" stroke="#3E1F6A" stroke-width="0.5" stroke-miterlimit="10" stroke-linecap="round"/>
<path d="M8.6272 70.0472C8.6272 70.0472 13.2746 71.0712 17.9556 71.4752C22.6366 71.8792 30.7424 73.5491 30.7424 73.5491L33.1372 73.9606" stroke="#3E1F6A" stroke-width="0.5" stroke-miterlimit="10" stroke-linecap="round"/>
<path d="M9.7395 71.5143C9.7395 71.5143 14.8206 72.084 19.926 72.9981C25.0314 73.9122 33.4699 75.3662 33.4699 75.3662" stroke="#3E1F6A" stroke-width="0.5" stroke-miterlimit="10" stroke-linecap="round"/>
<path d="M37.4687 66.4355C37.4687 66.4355 36.6742 67.5339 36.5078 68.4722C36.3414 69.4105 36.3695 71.4361 36.3695 71.4361" stroke="#3E1F6A" stroke-width="0.5" stroke-miterlimit="10" stroke-linecap="round"/>
<path d="M34.4271 71.1084C34.4271 71.1084 34.3542 69.2597 34.8963 67.8895C35.4385 66.5193 36.5302 65.5158 37.3827 66.0352" stroke="#3E1F6A" stroke-width="0.5" stroke-miterlimit="10" stroke-linecap="round"/>
<path d="M26.1736 70.3582C26.1736 70.3582 26.1755 67.9249 26.2185 66.0688C26.2371 65.2775 26.3587 64.7544 26.4914 64.4118C26.6297 64.0562 26.9457 63.7993 27.3233 63.7304C27.8822 63.6299 28.8637 63.494 29.7105 63.5927C30.0713 63.6336 30.2863 64.0153 30.133 64.3429C29.9704 64.6892 29.8003 65.2421 29.7105 66.1116C29.503 68.0962 29.7068 70.9762 29.7068 70.9762" stroke="#3E1F6A" stroke-width="0.5" stroke-miterlimit="10" stroke-linecap="round"/>
<path d="M30.0676 63.7714C30.0676 63.7714 34.6589 63.7379 36.104 66.0688" stroke="#3E1F6A" stroke-width="0.5" stroke-miterlimit="10" stroke-linecap="round"/>
<path d="M26.4934 64.1959C26.4934 64.1959 22.6816 64.5794 21.575 64.5421" stroke="#3E1F6A" stroke-width="0.5" stroke-miterlimit="10" stroke-linecap="round"/>
<path d="M20.6233 69.1834C20.6233 69.1834 20.8271 67.9528 20.9187 66.7873C20.9691 66.1506 21.2234 65.4469 21.444 64.9405C21.5935 64.5979 21.3542 64.2107 20.9785 64.1921C20.4176 64.1623 19.7166 64.1251 19.3932 64.1158C19.139 64.1083 18.8754 64.1027 18.6567 64.0971C18.3575 64.0897 18.0865 64.2759 17.9874 64.5588C17.8491 64.9535 17.6752 65.5474 17.6173 66.1525C17.5182 67.2025 17.2808 68.7831 17.2808 68.7831" stroke="#3E1F6A" stroke-width="0.5" stroke-miterlimit="10" stroke-linecap="round"/>
<path d="M17.8454 64.4565C17.8454 64.4565 14.5104 64.1698 13.7383 63.9352" stroke="#3E1F6A" stroke-width="0.5" stroke-miterlimit="10" stroke-linecap="round"/>
<path d="M12.9999 68.273C12.31 67.5693 12.2203 66.3015 12.8073 65.5642C13.3943 64.827 14.0523 63.4493 13.843 62.9429C13.6317 62.4365 11.9081 62.7307 11.9081 62.7307C11.9081 62.7307 9.69285 62.6543 9.27597 62.511C8.85909 62.3658 7.16914 60.6902 6.6214 63.6243C6.07366 66.5584 7.38225 69.4198 7.60284 72.5326C7.82343 75.6454 7.64023 78.7843 12.0483 79.4601C12.0483 79.4601 14.0037 79.959 14.6936 79.0431C15.3852 78.1252 13.7944 76.2114 13.671 75.2917C13.5476 74.3739 13.5457 72.6946 13.5457 72.6946" stroke="#3E1F6A" stroke-width="0.5" stroke-miterlimit="10" stroke-linecap="round"/>
<path d="M9.69293 62.6562C9.69293 62.6562 8.58437 63.4288 8.73205 65.5046C8.87974 67.5786 8.89843 68.9488 8.89843 68.9488C8.89843 68.9488 18.9896 70.2073 23.8426 70.831C28.6937 71.4547 33.3374 72.4023 33.3374 72.4023" stroke="#3E1F6A" stroke-width="0.5" stroke-miterlimit="10" stroke-linecap="round"/>
<path d="M9.06299 70.9818C9.06299 70.9818 9.23124 72.5345 9.13963 73.6981C9.04803 74.8635 9.59951 77.7194 11.0577 78.6018C12.5158 79.4843 13.8132 79.7393 14.6937 79.0412" stroke="#3E1F6A" stroke-width="0.5" stroke-miterlimit="10" stroke-linecap="round"/>
<path d="M11.4744 73.8246C11.4744 73.8246 12.1904 73.2531 13.5046 73.739" stroke="#3E1F6A" stroke-width="0.5" stroke-miterlimit="10" stroke-linecap="round"/>
<path d="M11.8333 74.7835C11.8333 74.7835 12.7175 74.1412 13.5737 74.7183" stroke="#3E1F6A" stroke-width="0.5" stroke-miterlimit="10" stroke-linecap="round"/>
<path d="M12.2539 75.7962C12.2539 75.7962 13.0148 75.0478 13.7494 75.5747" stroke="#3E1F6A" stroke-width="0.5" stroke-miterlimit="10" stroke-linecap="round"/>
<path d="M45.3801 26.8441L47.4533 27.5963C47.9487 27.7768 48.2553 28.2832 48.1599 28.8008C48.1356 28.9348 48.0945 29.0819 48.0328 29.2457C48.0328 29.2457 47.586 30.05 46.6214 29.5771L44.6267 28.7915" stroke="#3E1F6A" stroke-width="0.5" stroke-miterlimit="10" stroke-linecap="round"/>
<path d="M47.6103 27.6894C47.6103 27.6894 46.8176 27.4362 46.5279 28.2684C46.2381 29.0987 46.5821 29.5772 47.0962 29.7335" stroke="#3E1F6A" stroke-width="0.5" stroke-miterlimit="10" stroke-linecap="round"/>
<path d="M42.3814 29.9495C42.3814 29.9495 41.9197 27.8197 42.073 26.6896C42.2263 25.5595 43.1255 23.4874 44.3051 23.1728C45.4847 22.8582 46.339 23.7332 46.5876 24.2098C47.0363 25.0662 46.0511 25.9468 46.0511 25.9468C46.0511 25.9468 45.4697 27.0303 44.4789 27.2928C44.4789 27.2928 44.7612 29.0875 44.6005 29.5622C44.4397 30.037 43.4414 30.7239 42.3796 29.9495C42.3796 29.9495 41.3738 30.5229 40.7438 29.8322C40.7438 29.8322 39.9194 30.238 39.5474 29.916C39.1754 29.5939 39.0838 28.2888 39.0258 27.4808C39.0258 27.4808 38.0612 28.0896 37.5004 27.2798C36.9396 26.4699 37.549 24.1483 39.1399 23.0723C40.7307 21.9943 42.1833 21.1584 44.0976 21.3725C46.0119 21.5848 48.5991 23.063 48.8908 23.3515C49.1506 23.6084 49.2983 24.0236 49.216 24.4481C49.1861 24.6026 49.1749 24.7627 49.2048 24.9172C49.2329 25.0624 49.2852 25.23 49.3824 25.364" stroke="#3E1F6A" stroke-width="0.5" stroke-miterlimit="10" stroke-linecap="round"/>
<path d="M46.6851 25.014L48.2516 25.2505" stroke="#3E1F6A" stroke-width="0.5" stroke-miterlimit="10" stroke-linecap="round"/>
<path d="M44.4866 23.0071C44.4866 23.0071 44.1819 22.5268 43.5145 22.4188C42.8471 22.3108 41.1086 24.0162 40.7683 25.2375C40.4281 26.4588 40.2804 28.2069 40.7459 29.8341" stroke="#3E1F6A" stroke-width="0.5" stroke-miterlimit="10" stroke-linecap="round"/>
<path d="M39.0278 27.4827C39.0278 27.4827 39.2297 25.4218 39.669 24.5039C40.1084 23.5861 42.2189 22.201 42.4451 22.1079C42.6713 22.0148 43.2808 21.8566 43.5144 22.4188" stroke="#3E1F6A" stroke-width="0.5" stroke-miterlimit="10" stroke-linecap="round"/>
<path d="M41.6768 21.6593C41.6768 21.6593 42.5348 21.1733 42.9405 21.9944" stroke="#3E1F6A" stroke-width="0.5" stroke-miterlimit="10" stroke-linecap="round"/>
<path d="M38.0521 23.0146C38.0521 23.0146 36.5846 23.6382 35.4685 23.4856C34.3525 23.3329 34.2291 22.4151 34.2291 22.4151C34.2291 22.4151 34.0739 21.0356 35.2068 20.6092C36.3397 20.1829 37.2538 19.9446 38.0296 20.2369C38.8073 20.5292 40.4337 21.3427 40.7721 22.013" stroke="#3E1F6A" stroke-width="0.5" stroke-miterlimit="10" stroke-linecap="round"/>
<path d="M35.8854 22.821C35.8854 22.821 35.4386 22.2736 37.0725 22.3314C38.7045 22.3909 39.5439 22.7372 39.5439 22.7372" stroke="#3E1F6A" stroke-width="0.5" stroke-miterlimit="10" stroke-linecap="round"/>
<path d="M34.3243 22.9308C34.3243 22.9308 33.3372 22.942 32.8568 23.5545C32.3764 24.167 31.4585 25.9691 31.3837 26.5537C31.3089 27.1383 31.8866 27.909 32.6923 27.7936C32.6923 27.7936 32.539 28.905 33.9224 28.7487C33.9224 28.7487 33.8962 30.0239 35.3263 29.6926C35.3263 29.6926 35.2889 30.7966 36.5938 31.167C37.8986 31.5394 39.3998 31.3756 39.8896 30.0668" stroke="#3E1F6A" stroke-width="0.5" stroke-miterlimit="10" stroke-linecap="round"/>
<path d="M37.3155 24.1092C37.3155 24.1092 36.9191 23.4427 36.2293 23.5489C35.5395 23.655 34.1954 23.5768 33.7561 24.7646C33.3168 25.9542 32.6924 27.7936 32.6924 27.7936" stroke="#3E1F6A" stroke-width="0.5" stroke-miterlimit="10" stroke-linecap="round"/>
<path d="M33.9224 28.7506C33.9224 28.7506 35.3132 25.4088 35.7488 24.9731C36.1825 24.5375 37.6089 24.1465 38.179 23.992" stroke="#3E1F6A" stroke-width="0.5" stroke-miterlimit="10" stroke-linecap="round"/>
<path d="M35.3264 29.6945C35.3264 29.6945 36.2742 27.4846 36.4312 27.2426C36.5883 27.0005 36.9023 26.5146 37.2575 26.6059" stroke="#3E1F6A" stroke-width="0.5" stroke-miterlimit="10" stroke-linecap="round"/>
<path d="M38.2184 27.8104C38.2184 27.8104 37.0313 29.1098 37.5436 29.7689C38.0558 30.4279 39.5513 29.9178 39.5513 29.9178" stroke="#3E1F6A" stroke-width="0.5" stroke-miterlimit="10" stroke-linecap="round"/>
<path d="M34.229 22.4151C34.229 22.4151 22.3993 17.1669 19.8831 16.1262C17.3669 15.0874 10.5042 12.6168 7.33367 12.2017C4.16314 11.7884 1.17954 11.5352 0.73836 11.8554C0.295307 12.1756 0.353259 12.9836 0.579459 13.719C0.579459 13.719 1.11037 15.4765 2.29372 15.7408C3.47519 16.0052 14.5365 19.4549 19.9429 21.043C25.3493 22.631 32.0661 24.7069 32.0661 24.7069" stroke="#3E1F6A" stroke-width="0.5" stroke-miterlimit="10" stroke-linecap="round"/>
<path d="M0.519531 12.8571C0.519531 12.8571 1.21869 12.8664 2.34595 13.1922C3.47322 13.518 33.1876 23.2994 33.1876 23.2994" stroke="#3E1F6A" stroke-width="0.5" stroke-miterlimit="10" stroke-linecap="round"/>
<path d="M68.2188 7.22346C68.2188 7.22346 70.6527 7.10989 71.4211 7.28676C72.1894 7.46362 76.2834 9.43518 76.5937 9.70327C76.9041 9.97136 78.9511 12.6076 78.9511 12.6076" stroke="#3E1F6A" stroke-width="0.5" stroke-miterlimit="10" stroke-linecap="round"/>
<path d="M67.0093 10.6695C67.0093 10.6695 68.8525 10.4238 69.1423 10.4033C69.432 10.3828 71.2828 11.0642 71.2828 11.0642L74.2327 12.4791L76.0049 13.6874L77.1565 15.981" stroke="#3E1F6A" stroke-width="0.5" stroke-miterlimit="10" stroke-linecap="round"/>
<path d="M76.3545 9.60645L73.8701 12.2706L72.6736 14.2663L72.5764 16.1839" stroke="#3E1F6A" stroke-width="0.5" stroke-miterlimit="10" stroke-linecap="round"/>
<path d="M71.423 7.28864L70.8622 10.8613L70.0004 12.6597L68.5908 14.0895" stroke="#3E1F6A" stroke-width="0.5" stroke-miterlimit="10" stroke-linecap="round"/>
<path d="M67.7478 12.8756L68.5591 10.3865L69.3293 7.32027L69.8603 4.96706C69.8603 4.96706 71.3483 2.31783 72.4587 1.4242C73.9169 0.249456 76.4574 -0.0149082 79.0428 1.19335C81.6301 2.40161 81.6769 5.52557 81.6918 6.56627C81.6993 7.05405 81.389 7.72054 81.2749 8.33863C81.1272 9.1522 80.7758 9.91551 80.258 10.5615L79.7775 11.161L77.1117 16.2137L75.0703 16.1262" stroke="#3E1F6A" stroke-width="0.5" stroke-miterlimit="10" stroke-linecap="round"/>
<path d="M77.8782 11.4105L75.9265 13.4006L75.0722 16.1243C75.0722 16.1243 72.7541 16.2305 72.5765 16.1839C72.3989 16.1374 70.2584 15.4783 69.5892 15.0613C68.9199 14.6443 68.2806 13.8214 68.2806 13.8214L67.2673 11.8275" stroke="#3E1F6A" stroke-width="0.5" stroke-miterlimit="10" stroke-linecap="round"/>
<path d="M68.5909 14.0895C68.5909 14.0895 68.3329 15.3815 68.8583 16.2137C69.3836 17.0459 71.2006 18.0754 71.2006 18.0754" stroke="#3E1F6A" stroke-width="0.5" stroke-miterlimit="10" stroke-linecap="round"/>
<path d="M66.9587 12.8142C66.9587 12.8142 67.4205 13.1866 67.7476 12.8738" stroke="#3E1F6A" stroke-width="0.5" stroke-miterlimit="10" stroke-linecap="round"/>
<path d="M67.9048 12.0919L66.4878 11.5166L68.4955 6.22002C68.4955 6.22002 68.9797 4.85352 69.6995 5.15139C69.6995 5.15139 70.2715 4.18516 73.5131 5.63544C76.7565 7.08758 78.7512 8.16179 79.2148 8.93999C79.6766 9.71819 79.9364 10.9171 79.9364 10.9171" stroke="#3E1F6A" stroke-width="0.5" stroke-miterlimit="10" stroke-linecap="round"/>
<path d="M77.1155 16.2118L77.8838 16.3887C77.8838 16.3887 80.83 12.8216 80.8936 9.63251" stroke="#3E1F6A" stroke-width="0.5" stroke-miterlimit="10" stroke-linecap="round"/>
<path d="M78.9531 12.6075L79.4429 14.0597" stroke="#3E1F6A" stroke-width="0.5" stroke-miterlimit="10" stroke-linecap="round"/>
<path d="M70.0266 4.83858C70.0266 4.83858 70.651 3.81091 73.085 4.50719C74.4852 4.90932 76.4312 5.9612 77.8333 6.78408C78.9494 7.4394 79.7102 8.55643 79.9084 9.82985L80.0317 10.6211" stroke="#3E1F6A" stroke-width="0.5" stroke-miterlimit="10" stroke-linecap="round"/>
<path d="M70.9649 4.94659C70.9649 4.94659 70.0638 6.16788 69.9049 7.22162C69.7479 8.27535 69.3497 10.0403 69.1011 10.6379C68.8524 11.2336 68.6655 13.5068 69.8339 14.4079C71.0023 15.3108 72.5988 15.6608 72.5988 15.6608C72.5988 15.6608 74.0195 16.0238 75.4048 15.0576C76.79 14.0914 77.9229 12.8533 78.2631 11.902C78.6033 10.9506 79.2165 8.93999 79.2165 8.93999" stroke="#3E1F6A" stroke-width="0.5" stroke-miterlimit="10" stroke-linecap="round"/>
<path d="M68.9273 12.2911C68.7778 12.9185 67.5439 13.006 67.5439 13.006" stroke="#3E1F6A" stroke-width="0.5" stroke-miterlimit="10" stroke-linecap="round"/>
</g>
<defs>
<clipPath id="clip0_13_1578">
<rect width="107" height="80" fill="white"/>
</clipPath>
</defs>
</svg>
