<svg width="55" height="106" viewBox="0 0 55 106" fill="none" xmlns="http://www.w3.org/2000/svg">
<g clip-path="url(#clip0_13_1433)">
<path d="M51.1011 94.8143C51.1011 94.8143 51.0092 95.4326 50.1557 95.7373C49.3022 96.042 48.8334 96.4019 48.8059 96.5404C48.7785 96.679 48.6956 96.7617 48.8608 97.2883C49.026 97.8143 49.4119 97.6482 49.5217 97.6482C49.6314 97.6482 50.238 97.2601 50.4581 96.8451C50.6782 96.4295 51.422 95.2941 51.422 95.2941L51.1005 94.8143H51.1011Z" fill="#E3F0FF"/>
<path d="M45.739 42.3745C45.739 42.3745 46.7303 43.8517 46.914 44.2211C47.0977 44.5906 47.7222 45.1442 47.8689 46.0307C48.0157 46.9171 48.0157 48.1359 48.0157 48.1359C48.0157 48.1359 48.1624 50.1667 48.2727 51.0903C48.3831 52.014 48.3097 54.488 48.3097 54.488L48.3831 56.1866C48.3831 56.1866 49.5217 56.1494 50.2929 56.3713C51.0641 56.5926 51.3212 56.7036 51.3212 56.7036L52.3125 48.801C52.3125 48.801 52.4962 46.5117 52.3125 46.0684C52.1288 45.6252 52.0185 45.1454 52.0185 45.1454L51.1739 42.2281L50.2559 39.9388C50.2559 39.9388 49.301 39.6803 48.3097 40.6771C47.3184 41.6739 46.2532 42.1909 45.739 42.3757V42.3745Z" fill="#E3F0FF"/>
<path d="M39.79 19.2203C39.79 19.2203 39.8818 19.8848 39.7166 20.2543C39.5514 20.6238 38.5046 22.4237 38.5046 22.4237C38.5046 22.4237 38.8351 22.645 39.0558 22.5622C39.2758 22.4789 39.5514 22.6174 39.6892 22.0914C39.827 21.5654 40.1848 20.0144 40.1848 20.0144L40.0745 19.0728L39.79 19.2203Z" fill="#603E91"/>
<path d="M29.7271 18.6295C29.7271 18.6295 29.5804 19.0727 29.7641 19.405C29.9478 19.7373 29.8745 20.2915 29.8745 20.4018C29.8745 20.5122 30.1315 21.9156 30.1315 21.9156L30.2782 22.8759C30.2782 22.8759 30.4983 23.2819 30.5723 23.5038C30.6463 23.7257 30.5353 24.3165 30.719 24.6116C30.9027 24.9073 31.2701 25.1658 31.931 25.2762C32.5919 25.3871 33.6935 25.239 33.6935 25.239L33.5468 25.4603L32.1147 26.162C32.1147 26.162 31.931 26.7528 32.2984 27.2698C32.6658 27.7868 33.7126 28.6547 33.7126 28.6547L37.073 27.5283C37.073 27.5283 38.6888 26.7528 39.0192 26.3096C39.3497 25.8663 39.7905 24.9799 39.7905 24.9799C39.7905 24.9799 38.9823 24.5366 38.8355 24.2415C38.6888 23.9459 38.1747 22.9119 38.1747 22.9119C38.1747 22.9119 39.1296 21.398 39.2399 21.1395C39.3503 20.881 39.7171 20.2531 39.7171 20.2531L39.7905 19.2191L38.5421 18.8496L37.5872 18.6649L36.9078 18.5449L36.5589 19.1819C36.5589 19.1819 36.2648 19.1819 35.898 18.9971C35.5306 18.8124 35.1638 18.5911 34.686 18.5911C34.2083 18.5911 33.1066 18.6649 32.5561 18.6649C32.0056 18.6649 29.7283 18.6277 29.7283 18.6277L29.7271 18.6295Z" fill="#E3F0FF"/>
<path d="M8.13316 29.2832C8.13316 29.2832 9.0511 29.0433 9.52886 28.8214C10.006 28.6001 10.6675 28.3416 10.6675 28.3416L11.2365 28.1203C11.2365 28.1203 11.3647 28.0093 11.5121 28.2312C11.6588 28.4525 13.0545 29.7822 13.8257 30.4468C14.5969 31.1113 17.0209 33.3641 17.0209 33.3641C17.0209 33.3641 18.3432 32.6257 18.5263 32.5514C18.71 32.4776 20.3628 31.6283 20.3628 31.6283C20.3628 31.6283 20.9503 31.8868 21.2074 32.2929C21.4645 32.6989 21.6845 33.8067 22.2726 34.2499C22.8602 34.6932 23.9618 35.5796 24.0721 35.8381C24.0721 35.8381 23.4846 36.4661 22.7498 36.8349C22.0156 37.2044 17.9018 38.6445 17.3143 38.7554C16.7268 38.8664 15.1844 39.2352 15.0007 39.1986C14.817 39.1615 14.2665 38.7554 14.1192 38.4969C13.9724 38.2384 13.3849 37.6476 13.0539 37.4257C12.7229 37.2038 11.8055 35.9119 11.4381 35.2102C11.0707 34.5084 10.1527 32.4776 9.8587 32.1081C9.56465 31.7387 8.13257 29.2832 8.13257 29.2832H8.13316Z" fill="#E3F0FF"/>
<path d="M10.7403 18.1029C10.7403 18.1029 11.3738 18.0195 11.6493 18.4076C11.9249 18.7956 12.2005 19.5154 12.2005 19.5154C12.2005 19.5154 15.781 15.804 16.3595 15.167C16.9381 14.5301 21.3172 10.1817 21.3172 10.1817L26.1097 5.47352L29.1946 2.56522C29.1946 2.56522 30.3791 1.45745 30.434 1.15276C30.4889 0.848078 30.3236 0.377257 30.1859 0.322078C30.0481 0.266899 29.7725 0.211121 29.7725 0.211121L26.6602 1.95586C26.6602 1.95586 25.2282 2.56522 25.0629 2.64799C24.8977 2.73136 22.8042 3.58963 21.6751 4.75319C20.546 5.91675 16.8271 10.1265 16.8271 10.1265L10.7397 18.1035L10.7403 18.1029Z" fill="#E3F0FF"/>
<path d="M9.62026 22.5436L3.22093 29.6803C3.22093 29.6803 3.33127 29.9849 3.11058 30.262C2.89049 30.5391 2.33937 30.9824 2.33937 30.9824L1.81628 31.2595L1.48585 31.6751C1.48585 31.6751 1.07251 31.7303 0.769511 31.4538C0.466514 31.1773 0.108643 30.6783 0.108643 30.5673C0.108643 30.4564 0.27386 30.1793 0.27386 30.1793C0.27386 30.1793 0.659764 29.6809 0.659764 29.5975C0.659764 29.5141 0.935325 29.1543 0.935325 29.1543L2.00953 28.4064L6.26045 23.5038C6.26045 23.5038 6.73761 23.5962 7.08653 23.4666C7.43545 23.3377 7.79333 23.033 7.79333 23.033C7.79333 23.033 8.48163 22.7007 8.59197 22.5898C8.70232 22.4788 8.94985 22.1741 8.94985 22.1741L9.30772 22.0356L9.67513 21.7309L9.62026 22.5436Z" fill="#3E1F6A"/>
<path d="M8.13331 29.2833C8.13331 29.2833 9.32681 28.8958 9.89582 28.6739C10.4648 28.4526 11.0529 28.3044 11.2361 28.1197C11.4192 27.935 11.548 27.5289 11.4746 27.0305C11.4013 26.5321 11.3828 26.0337 11.2176 26.0337C11.0523 26.0337 9.85884 26.4769 9.17948 26.6982C8.50013 26.9196 7.1599 27.2152 7.19628 27.6771C7.23326 28.1389 7.58219 28.8586 7.60008 28.9324C7.61797 29.0062 7.85715 29.3018 8.13271 29.2833H8.13331Z" fill="#3E1F6A"/>
<path d="M10.5566 25.0176C10.5566 25.0176 10.5017 25.4057 11.2729 25.0728C12.0441 24.7405 12.1729 24.1678 12.4115 22.7463C12.6501 21.3242 12.6501 20.5487 12.3197 19.6257C11.9892 18.7026 11.4751 18.1299 11.0343 18.0933C10.5935 18.0567 9.84081 18.3704 9.84081 18.3704L9.63861 17.9086C9.63861 17.9086 9.14296 17.2992 8.49999 17.373C7.85701 17.4467 7.36136 17.8348 7.23312 17.9637C7.10429 18.0927 7.01303 18.3884 7.01303 18.3884C7.01303 18.3884 6.40704 18.5173 6.20484 18.8316C6.00264 19.1453 5.91079 19.4596 5.91079 19.4596C5.91079 19.4596 5.54338 19.441 5.34178 19.7367C5.13958 20.0323 4.95587 20.346 4.95587 20.346C4.95587 20.346 4.00095 20.4756 3.72539 21.2691C3.44983 22.0632 3.5232 23.4109 3.63354 23.8913C3.74388 24.3711 4.03734 25.5346 4.20255 25.6822L4.34928 25.7008L5.15747 24.8143L6.25912 23.5032C6.25912 23.5032 6.55317 23.7431 7.0852 23.466C7.61784 23.1889 7.70969 23.0414 8.02163 22.9304C8.33358 22.8195 8.66461 22.6905 8.79285 22.432C8.92168 22.1735 8.93957 22.2287 9.19664 22.0626C9.45371 21.8964 9.6738 21.7303 9.6738 21.7303L9.61893 22.543L8.18685 24.1678L5.78136 26.8637C5.78136 26.8637 5.76287 27.0485 6.31399 27.1594C6.86511 27.2704 7.37926 27.2332 7.37926 27.2332C7.37926 27.2332 8.71948 26.79 9.34397 26.6052C9.96845 26.4205 10.3174 26.4205 10.4271 26.2172C10.5375 26.0139 10.5375 25.2384 10.5554 25.017L10.5566 25.0176Z" fill="#A988D8"/>
<path d="M16.4877 102.477C16.4877 102.477 16.1203 103.585 16.7818 104.083C17.4427 104.582 18.8753 105.228 20.6563 105.413C22.4374 105.598 24.9162 105.893 24.9162 105.893C24.9162 105.893 27.2483 105.966 28.0929 105.597C28.9375 105.227 28.5337 104.563 28.5152 104.083C28.5152 104.083 28.3685 103.603 28.3685 103.548C28.3685 103.492 28.0011 101.59 28.0011 101.59C28.0011 101.59 27.7255 102.551 27.6336 102.828C27.5418 103.105 27.2662 103.973 26.4586 103.862C25.6504 103.751 25.1184 103.603 24.8792 102.846C24.6406 102.089 24.5673 100.483 23.9243 99.9657C23.2813 99.4487 22.6205 99.2454 22.3819 99.3377C22.1433 99.4301 21.2802 99.8919 21.2802 99.8919C21.2802 99.8919 20.3068 100.298 19.7193 100.741C19.1318 101.184 19.0763 101.24 18.5258 101.517C17.9747 101.794 17.0568 101.923 16.91 102.015C16.7633 102.107 16.5247 102.181 16.4877 102.477Z" fill="#A988D8"/>
<path d="M16.4144 102.744C16.4144 102.744 16.4973 102.08 17.2404 102.218C17.9842 102.357 18.3695 103.271 18.6177 103.382C18.8658 103.493 21.0691 104.13 21.3721 104.241C21.6751 104.352 23.9613 104.989 24.98 104.767C25.9993 104.546 27.0455 104.324 27.1559 104.324C27.2662 104.324 28.3953 103.825 28.3953 103.825C28.3953 103.825 28.5331 104.351 28.6154 104.822C28.6983 105.293 28.1197 105.681 27.6515 105.819C27.1833 105.957 23.465 105.764 23.465 105.764C23.465 105.764 20.7935 105.459 20.1046 105.348C19.4163 105.237 15.8626 104.545 16.4138 102.744H16.4144Z" fill="#603E91"/>
<path d="M44.6743 98.4795C44.6743 98.4795 44.1512 99.781 42.6087 100.501C41.0663 101.222 41.0938 101.443 39.9921 101.665C38.8905 101.886 38.4497 102.468 38.4497 102.69C38.4497 102.912 38.3948 103.632 38.8356 103.909C39.2764 104.186 40.9011 104.657 42.5264 104.49C44.1518 104.324 47.2915 103.161 47.2915 103.161C47.2915 103.161 51.175 101.914 51.2579 101.887C51.3408 101.859 53.7093 101.056 54.2324 100.668C54.7555 100.28 55.031 99.228 54.728 98.6738C54.4251 98.1196 54.0946 97.8707 54.0946 97.8707C54.0946 97.8707 53.2405 96.7905 52.8552 96.1536C52.4699 95.5166 52.1943 95.1843 51.8639 95.2119C51.5335 95.2395 51.3128 95.4056 51.2579 95.489C51.203 95.5724 50.597 96.7629 50.3489 97.0676C50.1008 97.3723 49.7155 97.8983 48.9991 97.566C48.9991 97.566 49.2473 98.1478 49.4673 98.591C49.6874 99.0343 50.1008 100.031 49.7703 100.724C49.4399 101.416 48.2828 101.693 47.8975 101.388C47.8975 101.388 46.97 101.102 46.5113 100.207C46.0521 99.3114 45.4741 98.5634 44.6749 98.4807L44.6743 98.4795Z" fill="#A988D8"/>
<path d="M51.2572 101.886C51.3401 101.859 53.7086 101.056 54.2317 100.667C54.7548 100.279 55.0303 99.2274 54.7273 98.6732C54.577 98.3985 54.4202 98.1988 54.3003 98.0674C53.7617 99.5819 51.8244 100.407 50.5504 100.76C50.2522 100.843 49.8603 100.976 49.4189 101.141C49.1475 101.35 48.7938 101.475 48.4831 101.504C46.8983 102.139 45.1113 102.941 44.6741 103.16C44.0133 103.492 42.0665 104.157 40.3403 103.714C39.3842 103.469 38.789 103.076 38.4478 102.774C38.443 103.056 38.4394 103.66 38.8343 103.908C39.2751 104.185 40.8998 104.656 42.5251 104.49C44.1505 104.324 47.2902 103.16 47.2902 103.16C47.2902 103.16 51.1737 101.914 51.2566 101.886H51.2572Z" fill="#603E91"/>
<path d="M34.6114 79.1561L35.3642 77.319L36.0805 76.1278C36.0805 76.1278 37.1821 77.2728 37.3289 77.4575C37.4756 77.6422 39.018 79.3042 39.6425 79.6365C40.267 79.9687 41.1116 80.7077 41.442 81.4832C41.7724 82.2587 42.0295 82.5172 42.5806 83.0714C43.1317 83.6256 44.8573 85.1766 45.5187 86.6904C46.1796 88.2042 47.9057 94.1503 47.9057 94.1503C47.9057 94.1503 48.897 97.2895 48.971 97.6584C49.0444 98.0279 49.7792 98.7296 49.8526 99.4307C49.9259 100.132 49.9629 100.612 49.6325 100.908C49.302 101.204 48.7509 101.721 48.09 101.425C47.4292 101.129 46.7313 100.834 46.5106 100.206C46.2906 99.5783 45.7394 98.8399 45.7394 98.8399L44.6742 98.3967L40.0469 91.491L35.8234 85.2131C35.8234 85.2131 34.1343 84.0316 33.8772 83.1823C33.8772 83.1823 34.5017 81.41 34.6114 79.1573V79.1561Z" fill="#603E91"/>
<path d="M25.0266 76.6082C25.0266 76.6082 24.7325 75.7955 25.1733 75.3895C25.6141 74.9834 25.6874 74.503 25.6874 74.503C25.6874 74.503 26.6787 71.0315 27.1929 70.367C27.707 69.7024 28.35 69.2958 29.1671 69.4254C29.9843 69.5549 31.2696 70.2195 31.6001 70.4408C31.9305 70.6621 33.2892 71.4748 33.6936 72.7301C34.0974 73.9854 34.3545 75.5364 34.3181 75.8321C34.2817 76.1278 34.3455 78.0387 34.3455 78.0387C34.3455 78.0387 34.6855 78.8975 34.5752 79.6359C34.4648 80.3742 34.2078 81.7411 34.1714 81.9624C34.1344 82.1837 33.9513 83.2921 33.804 83.4762C33.6566 83.6603 33.4002 83.6609 33.4002 83.6609C33.4002 83.6609 33.2534 86.4307 33.1431 86.9105C33.0327 87.3903 32.7023 90.4557 31.674 92.2281C30.6457 94.0004 29.1403 97.4353 28.993 97.6938C28.8463 97.9523 28.2218 100.353 28.075 100.796C27.9283 101.239 27.7076 102.716 27.5239 103.196C27.3402 103.676 27.0831 103.898 26.2386 103.861C25.394 103.823 24.9162 103.381 24.6961 102.236C24.476 101.091 24.3287 100.389 23.8516 99.9465C23.3744 99.5033 22.7499 99.282 22.5292 99.3186C22.3091 99.3557 21.6477 99.6508 21.6477 99.6508L20.7297 100.057L22.3455 93.4096L23.9613 85.3961L24.6222 82.2203C24.6222 82.2203 23.8879 81.9246 24.0347 81.1491C24.1814 80.3736 24.4021 80.226 24.4021 80.226C24.4021 80.226 23.4842 79.3396 24.6222 78.786C24.6222 78.786 23.7406 77.4935 25.026 76.607L25.0266 76.6082Z" fill="#603E91"/>
<path d="M47.7316 58.5683C47.7316 58.5683 49.6045 58.5683 50.1001 58.5407C50.5958 58.5131 51.6151 58.5683 52.0285 58.873C52.4418 59.1777 53.1027 60.1469 53.3782 61.0885C53.6538 62.0302 53.8465 63.1104 53.4331 64.2457C53.0198 65.3811 52.9375 65.7967 52.607 66.2124C52.2766 66.628 51.698 67.0431 50.9543 67.4035C50.2105 67.7634 49.2466 68.29 48.6681 68.4837C48.0895 68.6774 47.1256 68.6223 46.9056 68.4285C46.6855 68.2348 46.9056 67.653 47.2086 67.2374C47.5115 66.8217 48.3657 64.9385 48.4205 64.5786C48.4754 64.2187 48.5309 62.8615 48.4205 62.7505C48.3102 62.6395 47.9523 62.7505 47.7597 62.9166C47.567 63.0828 47.3463 63.526 47.1537 63.9135C46.961 64.3015 46.4373 64.9936 46.0795 65.1322C45.7216 65.2707 45.5009 65.2156 45.2534 65.077C45.0053 64.9385 44.84 64.7723 44.8955 64.5786C44.9504 64.3849 45.3363 63.9416 45.4466 63.4432C45.557 62.9448 45.9148 60.7287 46.2727 60.1199C46.6306 59.5105 47.3744 58.6798 47.7322 58.5689L47.7316 58.5683Z" fill="#A988D8"/>
<path d="M47.7317 58.5683C47.7317 58.5683 48.5858 58.5407 49.2467 58.5407C49.9075 58.5407 51.45 58.624 51.45 58.624C51.45 58.624 51.5329 57.9595 51.5329 57.821C51.5329 57.6824 51.781 56.8517 51.2024 56.6298C50.6239 56.4085 49.0266 56.2142 48.7236 56.2142C48.4206 56.2142 48.0072 56.1308 47.8975 56.7959C47.7872 57.4605 47.7323 58.5683 47.7323 58.5683H47.7317Z" fill="#603E91"/>
<path d="M36.0806 76.1278L37.5126 77.6416L38.5039 78.8603C38.5039 78.8603 39.1648 79.2298 39.6426 79.6358C40.1197 80.0419 40.6709 80.4485 40.8546 80.8174C41.0383 81.1868 41.4791 82.0361 41.9932 82.6269C42.5073 83.2177 44.1231 84.5102 44.6373 85.2857C45.1514 86.0612 45.8856 87.3165 46.1063 88.2767C46.3264 89.237 48.0162 94.5917 48.0162 94.5917L48.5673 96.7707C48.5673 96.7707 48.9711 96.069 49.6689 95.9214C50.3668 95.7739 51.0646 95.1087 51.101 94.8137L50.5499 93.9644L49.7417 92.4871C49.7417 92.4871 49.9988 92.0811 49.7417 91.4531C49.4846 90.8252 48.8971 89.9759 48.8971 89.9759L48.42 89.6436L47.0612 86.5416C47.0612 86.5416 47.465 86.1356 47.4287 85.8033C47.3923 85.471 47.2449 84.548 47.0249 84.1413C46.8048 83.7353 46.2536 83.1445 45.8862 82.9964C45.5188 82.8488 45.078 81.7776 44.8949 81.5191C44.7112 81.2606 43.0221 78.8603 43.0221 78.8603C43.0221 78.8603 42.2139 77.7526 42.1041 77.4203C41.9938 77.088 41.884 76.165 41.8101 75.7955C41.7367 75.426 41.259 74.614 41.259 74.614C41.259 74.614 41.0753 72.3246 40.8182 71.1797C40.5611 70.0347 40.304 69.0007 40.304 69.0007L40.047 67.8743C40.047 67.8743 39.5328 68.7422 39.3127 69.4067C39.0926 70.0713 38.5785 71.6595 38.2475 72.324C37.917 72.9886 36.485 75.6846 36.0806 76.1278Z" fill="#A988D8"/>
<path d="M40.5974 80.412C40.5974 80.412 40.9648 79.378 41.2219 78.9719C41.479 78.5659 41.9013 78.2516 41.9382 78.1778C41.9752 78.1041 42.1035 77.4947 42.1035 77.4947L42.7279 78.4915L42.4524 79.5441C42.4524 79.5441 41.7915 81.0399 41.736 81.1503C41.6812 81.2613 41.4605 81.6487 41.4605 81.6487L40.5974 80.4114V80.412Z" fill="#603E91"/>
<path d="M47.2079 91.804C47.2079 91.804 47.6117 91.8412 47.9421 91.2318C48.2725 90.6224 48.4014 90.5115 48.4562 90.1978C48.5111 89.8841 48.5111 89.6994 48.5111 89.6994C48.5111 89.6994 48.9704 89.8841 49.2454 90.4197C49.5209 90.9553 49.9981 91.9893 49.9062 92.2844C49.8144 92.5801 49.3002 92.8386 49.172 92.949C49.0438 93.0599 47.9051 94.1491 47.9051 94.1491L47.2073 91.804H47.2079Z" fill="#603E91"/>
<path d="M44.3985 85.0092C44.3985 85.0092 45.5002 84.437 45.7388 83.8276C45.9774 83.2183 45.8855 82.9969 45.8855 82.9969C45.8855 82.9969 46.3811 83.2926 46.473 83.403C46.5649 83.5139 47.1709 84.3818 47.3731 85.2677C47.5752 86.1541 47.079 86.4678 47.079 86.4678L45.867 87.4646C45.867 87.4646 45.0588 85.5442 44.3979 85.0086L44.3985 85.0092Z" fill="#603E91"/>
<path d="M29.0841 52.336C29.0841 52.336 29.2493 52.8621 30.3784 53.1116C31.5075 53.3611 32.0038 53.5824 33.9589 53.084C35.9147 52.5856 37.4016 51.9486 39.1373 51.7825C40.8724 51.6163 41.671 51.7273 42.0295 51.6715C42.3874 51.6163 42.8556 51.422 42.8556 51.422C42.8556 51.422 43.1037 51.6715 43.3238 52.0038C43.5439 52.336 44.5632 54.4412 44.701 55.7428C44.8388 57.0443 43.9024 60.1463 43.9024 60.1463C43.9024 60.1463 42.1399 64.079 41.6436 64.9378C41.148 65.7967 40.0463 67.8737 40.0463 67.8737C40.0463 67.8737 38.9721 70.3112 38.724 71.1695C38.4759 72.0277 37.5949 73.4684 37.209 74.2439C36.8237 75.0194 35.6666 76.7365 35.3636 77.3183C35.0606 77.9001 34.482 79.2292 34.482 79.2292C34.482 79.2292 34.4271 78.4261 34.3442 78.0381C34.2613 77.65 34.5095 74.0496 33.5456 72.36C32.5817 70.6705 30.4333 69.6179 29.1664 69.4241L28.5879 69.5351C28.5879 69.5351 28.4227 67.3195 28.0922 65.4638C27.7618 63.6082 27.927 61.5311 27.8721 60.7832C27.8173 60.0353 27.8721 58.5677 27.7344 56.9333C27.5966 55.2989 28.3129 53.499 28.3678 53.3053C28.4227 53.1116 29.0012 52.3912 29.0841 52.336Z" fill="#A988D8"/>
<path d="M20.3622 31.6283C20.3622 31.6283 21.06 31.9978 21.2801 32.441C21.5002 32.8842 21.9046 33.9183 22.6758 34.5828C23.447 35.2473 24.0715 35.6906 24.0715 36.0228C24.0715 36.3551 23.9248 37.1306 23.8514 37.3154C23.778 37.5001 24.3286 37.0197 24.696 36.6874C25.0634 36.3551 26.0183 35.6906 26.2014 35.5796C26.3851 35.4687 27.0096 35.2473 27.0096 35.2473L27.6705 39.6419C27.6705 39.6419 27.9276 40.8606 27.4868 41.3776C27.046 41.8946 27.046 43.0396 28.1846 43.1499L27.6705 46.2519C27.6705 46.2519 26.8623 50.3142 27.4504 50.905C28.0385 51.4958 28.4787 51.5695 29.3966 51.6433C30.3146 51.7171 30.976 51.6433 32.0777 51.422C33.1793 51.2007 34.281 50.905 34.7951 50.9787C35.3092 51.0525 35.3092 51.3482 36.3375 51.2001C37.3658 51.0525 37.6962 50.8678 39.4224 50.9416C41.1485 51.0153 41.9197 51.1629 42.4702 51.1629C43.0208 51.1629 43.7186 51.2738 43.3518 50.2398C42.9844 49.2058 42.2502 48.6888 43.0947 46.5836C43.9393 44.4784 44.5638 42.1891 44.5638 41.1551C44.5638 41.1551 44.8942 41.5611 45.6291 41.0441C46.3633 40.5271 47.1345 39.7516 48.0161 39.3456C48.8976 38.9395 49.7786 38.3853 49.7786 38.3853C49.7786 38.3853 50.0726 38.2006 49.5585 37.3142C49.0443 36.4277 48.6036 34.3969 48.3465 33.3994C48.0894 32.4026 46.9878 30.1865 45.6291 28.8574C44.2703 27.5277 42.0301 26.1248 42.0301 26.1248L40.3409 25.2755L39.7898 24.9799C39.7898 24.9799 39.349 25.4969 39.2387 25.8663C39.1283 26.2358 38.6875 26.9375 37.0718 27.5283C35.456 28.1191 33.6195 28.6733 33.6195 28.6733C33.6195 28.6733 32.7016 27.7868 32.5542 27.6392C32.4069 27.4917 31.9667 26.7528 32.1135 26.162L31.2319 26.4205C31.2319 26.4205 30.4977 26.5315 30.0933 26.4577C29.6895 26.3839 29.1753 26.0145 29.1753 26.0145C29.1753 26.0145 28.2938 26.1992 27.6699 26.3839C27.046 26.5687 25.7601 26.6796 25.3563 27.824C25.3563 27.824 24.9525 27.9715 24.6954 28.2672C24.4383 28.5629 24.2546 28.7104 23.8872 29.0427C23.5198 29.375 23.1893 29.5225 23.0426 29.781C22.8959 30.0395 22.7486 30.1871 22.4181 30.298C22.0877 30.409 20.3616 31.6277 20.3616 31.6277L20.3622 31.6283Z" fill="#A988D8"/>
<path d="M29.1397 51.5887C29.1397 51.5887 29.5071 51.9024 31.2696 51.5887C33.0321 51.2751 34.2811 50.8504 34.9975 50.9422C35.7138 51.0345 35.9888 51.293 36.5214 51.1821C37.054 51.0711 38.1008 50.8684 38.7068 50.8684C39.3128 50.8684 40.2122 50.9608 40.2122 50.9608L42.1036 51.2193L43.077 51.2007C43.077 51.2007 43.0955 51.4592 42.4525 51.5887C41.8095 51.7183 41.4976 51.6259 39.7351 51.7363C37.9726 51.8466 37.3111 52.032 36.4116 52.2719C35.5116 52.5118 34.0246 53.0846 32.7023 53.2873C31.38 53.4906 29.9849 53.084 29.7093 52.955C29.4338 52.8255 28.8278 52.1795 29.1403 51.5887H29.1397Z" fill="#603E91"/>
<path d="M26.2748 18.3338C26.2748 18.3338 26.0178 17.854 26.6422 17.6321C27.2667 17.4108 28.2032 17.355 28.2032 17.355C28.2032 17.355 32.3712 17.3364 34.4647 17.7796C36.5583 18.2229 36.9072 18.5461 36.9072 18.5461C36.9072 18.5461 36.0626 17.1151 36.9346 17.1889C37.8066 17.2626 39.1659 17.743 39.1659 17.743C39.1659 17.743 40.3046 18.1863 40.2312 18.7399C40.1578 19.2941 39.7904 19.1459 39.5703 19.1459C39.3502 19.1459 37.4404 18.5917 37.4404 18.5917C37.4404 18.5917 36.9263 18.4808 36.7426 18.813C36.5588 19.1453 36.5588 19.33 36.155 19.1087C35.7513 18.8874 35.0898 18.5545 34.686 18.5917C34.2822 18.6289 33.3273 18.813 32.262 18.7393C31.1967 18.6655 28.7734 18.5179 28.7734 18.5179C28.7734 18.5179 26.6434 18.5917 26.276 18.3332L26.2748 18.3338Z" fill="#603E91"/>
<path d="M36.9067 18.5461C36.9067 18.5461 36.2183 18.1305 35.7221 17.992C35.2264 17.8534 31.2875 17.4378 31.2875 17.4378L28.2026 17.3544C28.2026 17.3544 28.7257 15.2774 28.8086 15.1113C28.8915 14.9451 29.6347 12.5352 31.2052 11.8983C32.775 11.2613 33.7389 10.929 35.3094 11.3723C36.8792 11.8155 38.0638 12.3973 38.6698 13.117C39.2758 13.8373 40.0195 16.6347 40.0195 16.6347L40.1299 18.1857C40.1299 18.1857 39.0282 17.77 38.8075 17.7149C38.5875 17.6597 37.2102 17.1889 36.9347 17.1889C36.6591 17.1889 36.4665 17.4102 36.6043 17.7149C36.742 18.0195 36.9073 18.5455 36.9073 18.5455L36.9067 18.5461Z" fill="#3E1F6A"/>
<path d="M45.0046 41.3777C45.0046 41.3777 45.7389 41.0454 46.1796 40.6393C46.6204 40.2333 47.8324 39.4944 47.8324 39.4944L49.7786 38.3866L50.1091 39.1621L50.2558 39.9376C50.2558 39.9376 49.3009 39.9004 48.8601 40.2333C48.4193 40.5656 47.134 41.6733 46.7302 41.8215C46.3264 41.969 45.7389 42.3757 45.7389 42.3757C45.7389 42.3757 45.2247 41.9696 45.0046 41.3789V41.3777Z" fill="#3E1F6A"/>
<path d="M31.2327 26.4211C31.2327 26.4211 31.2601 27.7688 31.949 28.2678C32.6373 28.7662 33.5189 29.459 33.5189 29.459C33.5189 29.459 35.5295 28.8772 36.1629 28.6835C36.7964 28.4898 39.0277 27.5481 39.2752 27.2434C39.5233 26.9387 40.5421 25.3877 40.5421 25.3877L39.7894 24.9817C39.7894 24.9817 39.3301 25.5539 39.2203 25.9695C39.11 26.3852 38.5869 26.7726 38.0084 27.1049C37.4298 27.4372 33.7115 28.6559 33.7115 28.6559C33.7115 28.6559 32.527 27.8252 32.4172 27.6033C32.3069 27.382 32.0593 26.7444 32.0593 26.5507C32.0593 26.357 32.1142 26.1626 32.1142 26.1626L31.2327 26.4211Z" fill="#3E1F6A"/>
<path d="M20.3623 31.6284L21.2439 30.9638C21.2439 30.9638 22.1988 31.924 22.4922 32.3673C22.7863 32.8105 23.1901 33.4385 23.5205 33.7707C23.8509 34.103 24.7689 34.8419 24.9162 35.5065C25.0629 36.171 24.9532 36.5405 24.9532 36.5405L23.8515 37.316C23.8515 37.316 23.0803 37.4269 22.7499 36.8362L24.0722 36.0235C24.0722 36.0235 23.9989 35.6912 23.5581 35.3589C23.1173 35.0267 22.4928 34.5097 22.2727 34.2512C22.0526 33.9927 21.6483 32.9958 21.3912 32.6264C21.1341 32.2569 20.3629 31.6296 20.3629 31.6296L20.3623 31.6284Z" fill="#3E1F6A"/>
<path d="M36.4842 19.1831C36.4842 19.1831 36.007 18.9983 35.2358 18.7033C34.4646 18.4076 33.7668 18.7404 32.9592 18.7033C32.151 18.6661 28.1482 18.4819 27.414 18.4819C26.6797 18.4819 26.1286 18.4082 26.2389 17.9649C26.3493 17.5217 28.1852 17.337 28.1852 17.337C28.1852 17.337 29.1765 17.3742 30.3151 17.3742C31.4537 17.3742 34.2445 17.7436 34.9794 17.8912C35.7142 18.0387 36.99 18.5191 36.99 18.5191C36.99 18.5191 36.3566 19.7654 35.8609 20.1535C35.3653 20.5416 34.594 20.929 34.594 20.929C34.594 20.929 35.2549 21.8431 35.4756 22.3691C35.6957 22.8951 36.109 23.8091 36.109 23.8091" stroke="#603E91" stroke-width="0.5" stroke-miterlimit="10" stroke-linecap="round"/>
<path d="M40.1899 18.6103C40.2191 18.3932 40.0962 18.1845 39.8928 18.1053C39.1926 17.8342 37.6222 17.2458 36.9893 17.1607C36.1632 17.0497 36.7967 18.0747 36.8515 18.2408L36.8885 18.353C36.95 18.5377 37.1104 18.6709 37.3025 18.6949C37.8011 18.7585 38.7477 18.888 39.0274 18.9888C39.2111 19.0547 39.464 19.1207 39.6787 19.1717C39.9054 19.2257 40.1278 19.0715 40.1589 18.8394L40.1899 18.6097V18.6103Z" stroke="#603E91" stroke-width="0.5" stroke-miterlimit="10" stroke-linecap="round"/>
<path d="M39.7439 19.2664C39.7439 19.2664 39.7164 20.0971 39.6609 20.3466C39.6061 20.5961 38.449 22.6455 38.1734 22.8944C37.8978 23.1433 37.1266 24.0856 35.6671 23.8913C34.2076 23.6975 30.9569 23.5866 29.8278 23.5314C28.6988 23.4762 26.9911 23.5866 26.9911 23.5866C26.9911 23.5866 26.6607 22.6173 26.5778 22.0632C26.4949 21.509 26.5229 20.6507 26.6607 20.6231C26.7985 20.5955 34.5935 20.9278 34.5935 20.9278L37.2101 21.1215L39.2482 21.1491" stroke="#603E91" stroke-width="0.5" stroke-miterlimit="10" stroke-linecap="round"/>
<path d="M28.9469 18.5737C28.9469 18.5737 29.1396 19.5154 27.7898 20.5956L29.2773 23.4205L30.985 26.0325C31.1365 26.264 31.4222 26.3654 31.684 26.2802C32.0347 26.1656 32.5656 25.9701 33.1883 25.6642C34.3174 25.11 35.9976 23.8919 35.9976 23.8919" stroke="#603E91" stroke-width="0.5" stroke-miterlimit="10" stroke-linecap="round"/>
<path d="M38.4489 18.906C38.4489 18.906 37.7606 20.7341 37.2095 21.1216" stroke="#603E91" stroke-width="0.5" stroke-miterlimit="10" stroke-linecap="round"/>
<path d="M39.7712 19.4326C39.7712 19.4326 39.0274 19.9867 37.7606 20.3742L35.4744 20.4576" stroke="#603E91" stroke-width="0.5" stroke-miterlimit="10" stroke-linecap="round"/>
<path d="M26.6606 20.6231L27.5696 23.5314L29.2266 26.0187C29.3888 26.2628 29.6518 26.4187 29.9429 26.4463C30.3634 26.4859 30.9861 26.5057 31.4806 26.3563" stroke="#603E91" stroke-width="0.5" stroke-miterlimit="10" stroke-linecap="round"/>
<path d="M32.3066 20.845L31.8665 23.6424" stroke="#603E91" stroke-width="0.5" stroke-miterlimit="10" stroke-linecap="round"/>
<path d="M29.7729 18.5737L29.696 18.96C29.6632 19.1243 29.6924 19.2959 29.7818 19.4374C29.8451 19.537 29.8958 19.6719 29.8558 19.8201C29.7729 20.1247 30.1314 21.8971 30.1314 21.8971L29.3876 23.5033C29.3876 23.5033 28.4786 24.5559 28.8919 25.5251" stroke="#603E91" stroke-width="0.5" stroke-miterlimit="10" stroke-linecap="round"/>
<path d="M30.1309 21.9528L30.2961 22.5898C30.2961 22.5898 30.2412 22.9496 30.4339 23.2267C30.6265 23.5038 30.7094 23.8085 30.7369 24.196C30.7643 24.5834 30.682 24.8329 31.1228 25.0266C31.5635 25.2204 32.6926 25.6084 34.2076 25.0818" stroke="#603E91" stroke-width="0.5" stroke-miterlimit="10" stroke-linecap="round"/>
<path d="M35.6396 22.7007C35.6396 22.7007 35.6945 23.5596 35.144 23.8919C35.144 23.8919 34.841 24.6674 33.9045 25.1658" stroke="#603E91" stroke-width="0.5" stroke-miterlimit="10" stroke-linecap="round"/>
<path d="M32.151 26.1998C32.151 26.1998 31.8206 27.0863 32.7021 27.8246L33.6201 28.6373C33.6201 28.6373 35.6033 28.1575 36.7049 27.7142C37.8065 27.271 38.6881 26.8278 39.0185 26.3108C39.349 25.7938 39.4957 24.9811 39.9001 25.0183" stroke="#603E91" stroke-width="0.5" stroke-miterlimit="10" stroke-linecap="round"/>
<path d="M28.1846 17.3364C28.1846 17.3364 28.7357 15.1946 29.1025 14.1606C29.4699 13.1266 31.4895 10.911 34.1336 11.2799C34.1336 11.2799 38.2097 11.2061 39.3484 14.4557C39.3484 14.4557 40.1929 16.745 40.1196 18.2222" stroke="#603E91" stroke-width="0.5" stroke-miterlimit="10" stroke-linecap="round"/>
<path d="M40.1566 18.9617C40.1566 18.9617 40.2985 20.5865 39.6854 22.1075C39.5398 22.4692 39.1509 22.6671 38.7758 22.5682L38.5408 22.5064" stroke="#603E91" stroke-width="0.5" stroke-miterlimit="10" stroke-linecap="round"/>
<path d="M29.2265 26.0193C29.2265 26.0193 26.9361 26.3845 26.0546 26.9753C25.173 27.5661 25.0263 28.7848 25.4301 30.7419C25.8339 32.6989 26.348 33.4379 26.348 33.4379" stroke="#603E91" stroke-width="0.5" stroke-miterlimit="10" stroke-linecap="round"/>
<path d="M25.3198 27.7874C25.3198 27.7874 24.6953 28.1197 24.2545 28.7105C23.8137 29.3012 22.2349 29.6707 23.0061 31.2583C23.7773 32.8465 24.4018 33.1788 24.4752 33.8433" stroke="#603E91" stroke-width="0.5" stroke-miterlimit="10" stroke-linecap="round"/>
<path d="M22.7491 36.7612C22.7491 36.7612 23.3002 37.5367 23.7404 37.3519C23.7404 37.3519 24.0708 37.2044 24.1078 36.2442C24.1448 35.2839 22.492 34.9888 21.8675 33.4744C21.243 31.9606 20.3621 31.6277 20.3621 31.6277C20.3621 31.6277 20.9132 31.1845 21.4273 30.8894C21.9415 30.5937 22.7497 30.0767 22.7497 30.0767" stroke="#603E91" stroke-width="0.5" stroke-miterlimit="10" stroke-linecap="round"/>
<path d="M27.0095 35.2474C27.0095 35.2474 26.0546 35.5796 25.6138 35.9119C25.173 36.2442 24.0714 37.352 23.741 37.352" stroke="#603E91" stroke-width="0.5" stroke-miterlimit="10" stroke-linecap="round"/>
<path d="M27.9275 27.1229C27.9275 27.1229 27.3763 28.3044 26.9362 30.6681C26.4954 33.0318 27.0465 35.1736 27.3036 36.8722C27.5607 38.5707 27.8547 40.454 27.671 41.0082C27.4873 41.5624 26.6057 42.7067 28.1851 43.2609" stroke="#603E91" stroke-width="0.5" stroke-miterlimit="10" stroke-linecap="round"/>
<path d="M11.3647 27.9721C11.3647 27.9721 11.8789 28.9323 13.0539 29.8188C14.2289 30.7053 15.9187 32.3666 16.2855 32.6995C16.6523 33.0324 17.7176 33.7335 17.8649 35.3955" stroke="#603E91" stroke-width="0.5" stroke-miterlimit="10" stroke-linecap="round"/>
<path d="M17.0571 33.3641C17.0571 33.3641 17.4245 33.2165 17.9751 32.8471C18.5262 32.4776 20.3621 31.6284 20.3621 31.6284" stroke="#603E91" stroke-width="0.5" stroke-miterlimit="10" stroke-linecap="round"/>
<path d="M8.20654 29.2646C8.20654 29.2646 9.27181 30.7047 10.2261 32.7727C11.181 34.8407 12.4294 36.9087 13.2376 37.4995C14.0458 38.0903 14.3029 39.1981 15.5143 39.1243C16.7263 39.0505 22.7492 37.1672 24.0346 35.9851" stroke="#603E91" stroke-width="0.5" stroke-miterlimit="10" stroke-linecap="round"/>
<path d="M31.3064 26.4211C31.3064 26.4211 31.3064 27.7136 32.1146 28.3416C32.9228 28.9695 33.5103 29.4493 33.5103 29.4493C33.5103 29.4493 36.6685 28.4891 37.4033 28.194C38.1382 27.8989 39.3132 27.3813 39.6436 26.7168C39.974 26.0522 40.5615 25.3871 40.5615 25.3871" stroke="#603E91" stroke-width="0.5" stroke-miterlimit="10" stroke-linecap="round"/>
<path d="M39.6794 33.7701C39.6794 33.7701 39.8632 35.7272 41.3686 37.5001C42.874 39.2724 43.6453 39.6419 43.6453 39.6419" stroke="#603E91" stroke-width="0.5" stroke-miterlimit="10" stroke-linecap="round"/>
<path d="M42.6176 32.6623C42.6176 32.6623 42.3606 35.0626 42.9481 37.2044C43.5356 39.3462 44.1231 40.8606 44.7476 41.2667C45.372 41.6727 46.1796 40.454 47.3183 39.7894C48.4569 39.1249 49.8156 38.386 49.8156 38.386C50.183 37.9427 49.4118 37.2044 49.0814 36.4655C48.751 35.7272 48.4939 32.0338 46.327 29.5597C44.1601 27.0857 41.4056 25.756 39.9002 25.0177C38.3948 24.2793 38.1741 22.8945 38.1741 22.8945" stroke="#603E91" stroke-width="0.5" stroke-miterlimit="10" stroke-linecap="round"/>
<path d="M45.0046 41.4142C45.0046 41.4142 45.3721 42.1159 45.7759 42.3007C45.7759 42.3007 46.9509 41.7836 47.502 41.3038C48.0531 40.824 48.8243 40.2326 49.2645 40.0485C49.7053 39.8638 50.2558 39.8272 50.2558 39.8272C50.2558 39.8272 49.9987 38.5347 49.815 38.3871" stroke="#603E91" stroke-width="0.5" stroke-miterlimit="10" stroke-linecap="round"/>
<path d="M44.7844 31.4064C44.7844 31.4064 45.9231 32.6252 46.4002 35.7272C46.8774 38.8292 47.1714 39.937 47.1714 39.937" stroke="#603E91" stroke-width="0.5" stroke-miterlimit="10" stroke-linecap="round"/>
<path d="M46.6204 32.0344C46.6204 32.0344 47.3546 33.2531 47.9427 34.2499C48.5302 35.2467 48.8606 35.9857 49.265 36.7978" stroke="#603E91" stroke-width="0.5" stroke-miterlimit="10" stroke-linecap="round"/>
<path d="M36.1907 42.2641C36.1907 42.2641 36.7418 42.1165 37.8798 40.7503C39.0185 39.384 41.6255 37.9805 42.1767 38.3866" stroke="#603E91" stroke-width="0.5" stroke-miterlimit="10" stroke-linecap="round"/>
<path d="M44.5638 41.23C44.5638 41.23 44.4171 43.2243 43.7557 44.8491C43.0948 46.4738 42.4703 48.2096 42.7643 49.0223C43.0584 49.835 44.16 51.1275 42.7274 51.2012C41.2953 51.275 39.0914 50.7952 38.2838 50.869C37.4756 50.9427 37.1088 51.2012 36.3376 51.2012C35.5664 51.2012 35.3827 50.7952 34.1707 51.0165C32.9587 51.2378 31.1962 51.6445 30.2776 51.6811C29.3597 51.7182 27.4868 51.3854 27.2662 50.5361C27.0461 49.6868 27.5966 46.8799 27.8537 45.5136C28.1107 44.1473 28.1477 42.9658 28.4781 42.5963" stroke="#603E91" stroke-width="0.5" stroke-miterlimit="10" stroke-linecap="round"/>
<path d="M36.0435 51.1635C36.0435 51.1635 36.5576 49.8338 37.843 49.3168C39.1283 48.7998 41.3686 48.6888 42.2865 46.9903" stroke="#603E91" stroke-width="0.5" stroke-miterlimit="10" stroke-linecap="round"/>
<path d="M39.4224 50.9422C39.4224 50.9422 39.5691 50.4252 40.4137 50.0191C41.2582 49.6131 42.1028 48.7638 42.3969 48.1359" stroke="#603E91" stroke-width="0.5" stroke-miterlimit="10" stroke-linecap="round"/>
<path d="M31.1227 51.4963C31.1227 51.4963 29.8374 51.6073 29.1031 50.4995C28.3689 49.3917 29.1031 48.7638 29.3232 47.8773" stroke="#603E91" stroke-width="0.5" stroke-miterlimit="10" stroke-linecap="round"/>
<path d="M27.5601 41.1191C27.5601 41.1191 28.4046 40.1589 29.3596 38.9773C30.3145 37.7958 31.0487 35.6168 32.077 34.6566" stroke="#603E91" stroke-width="0.5" stroke-miterlimit="10" stroke-linecap="round"/>
<path d="M7.25087 27.8216C7.18049 27.5637 7.329 27.2974 7.58428 27.223C8.15449 27.0581 9.12492 26.7744 9.6659 26.6059C10.4645 26.3564 11.0705 25.9413 11.2358 26.0517C11.401 26.1626 11.4284 26.6334 11.4284 27.1319C11.4284 27.6303 11.704 28.0183 10.8773 28.2396C10.0512 28.461 8.31553 29.4032 7.93023 29.2922C7.67137 29.2179 7.40058 28.371 7.25027 27.821L7.25087 27.8216Z" stroke="#603E91" stroke-width="0.5" stroke-miterlimit="10" stroke-linecap="round"/>
<path d="M7.54492 28.711C7.54492 28.711 10.5749 27.9355 11.4559 27.3538" stroke="#603E91" stroke-width="0.5" stroke-miterlimit="10" stroke-linecap="round"/>
<path d="M10.5474 24.9996C10.5474 24.9996 10.6578 25.6366 10.4097 26.2735" stroke="#603E91" stroke-width="0.5" stroke-miterlimit="10" stroke-linecap="round"/>
<path d="M5.72754 26.8553C5.72754 26.8553 5.94763 27.16 6.38841 27.2434C6.82919 27.3268 7.43518 27.271 7.43518 27.271" stroke="#603E91" stroke-width="0.5" stroke-miterlimit="10" stroke-linecap="round"/>
<path d="M9.61111 22.5622L3.28932 29.5927C3.19568 29.6971 3.13842 29.8308 3.13842 29.9712C3.13842 30.0749 3.11098 30.2069 3.00064 30.3172C2.86107 30.4576 2.63263 30.6981 2.48411 30.8558C2.38987 30.956 2.26522 31.0208 2.12922 31.04C2.01649 31.0562 1.9151 31.1155 1.84531 31.2061L1.48565 31.6745C1.48565 31.6745 1.18266 31.8131 0.797348 31.425C0.411443 31.037 -0.276862 30.4282 0.411443 30.0677L0.631534 29.7906C0.631534 29.7906 0.741878 29.3474 1.15462 29.0427C1.56796 28.738 1.73318 28.6547 1.81549 28.5995C1.8978 28.5443 6.19464 23.5584 6.19464 23.5584" stroke="#603E91" stroke-width="0.5" stroke-miterlimit="10" stroke-linecap="round"/>
<path d="M0.191406 30.2621C0.191406 30.2621 0.604747 30.2069 1.12784 30.6777C1.65092 31.1485 1.54118 31.4532 1.48571 31.6745" stroke="#603E91" stroke-width="0.5" stroke-miterlimit="10" stroke-linecap="round"/>
<path d="M1.81616 28.6001C1.81616 28.6001 2.72515 28.8496 3.1385 29.7912" stroke="#603E91" stroke-width="0.5" stroke-miterlimit="10" stroke-linecap="round"/>
<path d="M0.659668 29.6251C0.659668 29.6251 1.78219 29.7685 2.12992 31.04" stroke="#603E91" stroke-width="0.5" stroke-miterlimit="10" stroke-linecap="round"/>
<path d="M4.40529 22.1741C4.40529 22.1741 4.7912 21.9528 5.1765 22.3678C5.56241 22.7835 6.05806 23.559 6.63602 23.5866C7.21458 23.6142 7.82057 23.0048 7.82057 23.0048C7.82057 23.0048 7.51758 22.5891 7.21458 21.9522C6.91158 21.3152 6.58115 20.0413 4.92838 20.3178C3.27561 20.5943 3.52374 22.7277 3.60605 23.2813C3.68895 23.8355 3.88161 25.4693 4.29435 25.7188" stroke="#603E91" stroke-width="0.5" stroke-miterlimit="10" stroke-linecap="round"/>
<path d="M4.92847 20.3184C4.92847 20.3184 5.12112 19.5429 6.11302 19.432C7.10432 19.321 8.06879 19.7918 8.234 20.2351C8.39922 20.6783 8.50956 21.8694 8.72965 22.0074C8.94974 22.1459 8.84 22.3673 8.67478 22.5616C8.50956 22.7553 7.82066 23.0048 7.82066 23.0048" stroke="#603E91" stroke-width="0.5" stroke-miterlimit="10" stroke-linecap="round"/>
<path d="M5.94775 19.405C5.94775 19.405 6.14041 18.8508 6.47084 18.6295C6.80128 18.4082 7.3524 18.38 7.95839 18.5461C8.56439 18.7123 9.47338 19.0721 9.6386 19.9586C9.80381 20.8451 9.77638 21.593 9.66603 21.7033C9.55569 21.8137 9.17038 22.2575 8.83995 22.119" stroke="#603E91" stroke-width="0.5" stroke-miterlimit="10" stroke-linecap="round"/>
<path d="M9.58371 19.6539C9.58371 19.6539 9.41849 18.5737 10.0245 18.269C10.6305 17.9644 11.6773 17.9092 12.09 19.1279C12.5033 20.3467 12.6131 20.8451 12.5582 21.9253C12.5033 23.0054 12.3101 23.9471 11.9522 24.5564C11.5943 25.1658 11.0981 25.4153 10.272 24.8611C10.272 24.8611 9.58371 24.8335 9.39046 24.2242C9.1978 23.6148 9.63858 23.1716 9.69346 21.5378" stroke="#603E91" stroke-width="0.5" stroke-miterlimit="10" stroke-linecap="round"/>
<path d="M7.02197 18.4628C7.02197 18.4628 7.02197 17.9086 7.87609 17.5487C8.73021 17.1889 9.41852 17.6597 9.5563 17.8258C9.69408 17.992 9.80442 18.4076 9.80442 18.4076" stroke="#603E91" stroke-width="0.5" stroke-miterlimit="10" stroke-linecap="round"/>
<path d="M11.5115 18.2966C11.5115 18.2966 20.3252 7.827 21.4824 6.60827C22.6395 5.38953 25.8341 2.50943 27.5417 1.51201C29.2494 0.515188 29.8553 0.127136 29.8553 0.127136C29.8553 0.127136 30.0754 0.182315 30.351 0.514589C30.6266 0.846862 30.4613 1.40105 29.6901 2.0656C28.9189 2.73014 13.7148 17.4096 12.2827 19.5147" stroke="#603E91" stroke-width="0.5" stroke-miterlimit="10" stroke-linecap="round"/>
<path d="M10.7402 18.0753C10.7402 18.0753 16.5246 10.4312 18.0116 8.71348C19.4991 6.99634 22.0329 4.06046 23.2997 3.50627C24.5666 2.95208 27.2661 1.62299 27.2661 1.62299" stroke="#603E91" stroke-width="0.5" stroke-miterlimit="10" stroke-linecap="round"/>
<path d="M45.7759 42.3007C45.7759 42.3007 46.7672 43.9992 47.208 44.5534C47.6487 45.1076 48.034 45.7721 48.034 47.7106C48.034 49.6491 48.42 52.0313 48.3645 52.973C48.3096 53.9146 48.383 56.1122 48.383 56.1122" stroke="#603E91" stroke-width="0.5" stroke-miterlimit="10" stroke-linecap="round"/>
<path d="M48.0894 43.9992C48.0894 43.9992 48.5302 45.0518 48.4198 45.8273C48.3095 46.6028 48.0894 47.4335 48.0339 48.2648" stroke="#603E91" stroke-width="0.5" stroke-miterlimit="10" stroke-linecap="round"/>
<path d="M50.2563 39.8266C50.2563 39.8266 51.5602 43.2243 51.8358 44.443C52.1113 45.6618 51.8358 47.656 51.8358 47.656" stroke="#603E91" stroke-width="0.5" stroke-miterlimit="10" stroke-linecap="round"/>
<path d="M51.8907 44.9415C51.8907 44.9415 52.5515 46.3263 52.3863 47.8773C52.2211 49.4284 51.2847 56.7036 51.2847 56.7036" stroke="#603E91" stroke-width="0.5" stroke-miterlimit="10" stroke-linecap="round"/>
<path d="M47.8694 57.2572C47.8694 57.2572 49.7059 56.8511 51.5054 57.8114" stroke="#603E91" stroke-width="0.5" stroke-miterlimit="10" stroke-linecap="round"/>
<path d="M51.4684 58.5497C51.4684 58.5497 51.6473 57.3195 51.5053 56.9615C51.2853 56.4073 49.3021 56.186 48.6042 56.186C47.9064 56.186 47.9064 56.8877 47.9064 56.8877L47.7226 58.5497C47.7226 58.5497 48.971 58.4759 49.7792 58.5497C49.7792 58.5497 51.5417 58.2174 52.4233 59.288C53.3048 60.3592 53.6353 61.984 53.6353 62.6857C53.7086 63.4984 53.3782 64.7165 52.8641 65.7877C52.3499 66.8589 50.6608 67.5235 50.4037 67.671C50.1466 67.8185 49.5591 68.1142 48.6776 68.4837C47.796 68.8531 47.0248 68.6312 46.8781 68.3727C46.8357 68.2978 46.8148 68.2078 46.8065 68.1172C46.7862 67.8983 46.8614 67.6836 46.9986 67.5121C47.4041 67.0053 48.0632 65.6078 48.3841 64.6062C48.7515 63.4612 48.4945 62.5382 48.0167 61.2828C47.5395 60.0275 47.7226 58.5503 47.7226 58.5503" stroke="#603E91" stroke-width="0.5" stroke-miterlimit="10" stroke-linecap="round"/>
<path d="M47.6487 58.7344C47.6487 58.7344 46.5471 59.4361 46.2166 60.3226C45.8862 61.209 45.4824 63.6459 45.2617 64.0154C45.041 64.3848 44.8943 64.5695 44.8943 64.5695C44.8943 64.5695 44.8943 65.1975 45.7389 65.1975C46.5834 65.1975 46.9509 64.2745 47.2079 63.7575C47.465 63.2405 47.8324 62.4278 48.4933 62.7606" stroke="#603E91" stroke-width="0.5" stroke-miterlimit="10" stroke-linecap="round"/>
<path d="M47.1345 60.4702C47.1345 60.4702 46.6204 62.0212 47.6117 62.9814" stroke="#603E91" stroke-width="0.5" stroke-miterlimit="10" stroke-linecap="round"/>
<path d="M51.1008 63.3137C51.1008 63.3137 51.0275 64.7909 50.8068 65.3817C50.5867 65.9724 50.2193 67.0065 50.0356 67.2284C49.8519 67.4497 48.7132 68.4471 48.2361 68.5581" stroke="#603E91" stroke-width="0.5" stroke-miterlimit="10" stroke-linecap="round"/>
<path d="M52.1292 63.3137C52.1292 63.3137 51.9455 64.6062 51.8352 65.1604C51.7248 65.7145 51.5047 66.9327 50.9536 67.3759" stroke="#603E91" stroke-width="0.5" stroke-miterlimit="10" stroke-linecap="round"/>
<path d="M52.9005 63.2765C52.9005 63.2765 52.9375 65.492 52.313 66.4157" stroke="#603E91" stroke-width="0.5" stroke-miterlimit="10" stroke-linecap="round"/>
<path d="M34.3174 78.122C33.3994 78.3433 31.7467 78.1592 29.7635 77.6788C27.7803 77.1984 26.5319 76.8661 25.5036 76.6448C24.4753 76.4235 24.3286 77.494 24.3286 78.011C24.3286 78.5281 24.659 78.7865 24.659 78.7865C24.659 78.7865 26.789 79.2298 28.4781 79.4511C30.1673 79.6724 33.2891 80.3376 34.5011 80.0053" stroke="#603E91" stroke-width="0.5" stroke-miterlimit="10" stroke-linecap="round"/>
<path d="M24.6591 78.7866C24.6591 78.7866 24.1819 78.9713 24.0716 79.4145C23.9613 79.8578 24.2553 80.2638 24.8798 80.3748C25.5043 80.4857 28.9929 80.9289 30.756 81.335C32.5191 81.741 34.0246 81.9258 34.2817 81.8892" stroke="#603E91" stroke-width="0.5" stroke-miterlimit="10" stroke-linecap="round"/>
<path d="M24.3286 80.2272C24.3286 80.2272 23.9612 80.6704 24.0346 81.335C24.108 81.9995 24.2917 82.1477 25.3199 82.3318C26.3482 82.5165 28.9559 82.9964 30.1309 83.1445C31.3059 83.292 32.9217 83.6987 33.5098 83.5877C34.1755 83.4624 34.5011 80.0797 34.5381 79.3407C34.5751 78.6018 34.318 78.122 34.318 78.122C34.318 78.122 34.5017 75.4632 33.9876 73.4318C33.4734 71.401 31.8207 70.4407 30.1685 69.739C28.5157 69.0373 27.5244 69.8865 27.157 70.4773C26.7896 71.0681 25.5042 75.0566 25.5042 75.0566C24.6597 75.6474 25.0271 76.6814 25.0271 76.6814" stroke="#603E91" stroke-width="0.5" stroke-miterlimit="10" stroke-linecap="round"/>
<path d="M27.9645 69.8127C27.9645 69.8127 26.5688 73.9116 26.3487 74.5395C26.1286 75.1675 25.4671 75.5736 25.7242 76.6076" stroke="#603E91" stroke-width="0.5" stroke-miterlimit="10" stroke-linecap="round"/>
<path d="M30.1677 69.8865C30.1677 69.8865 28.8454 75.3151 28.6623 75.6845C28.4792 76.054 28.0378 76.5338 28.1851 77.3093" stroke="#603E91" stroke-width="0.5" stroke-miterlimit="10" stroke-linecap="round"/>
<path d="M29.764 77.6788C29.764 77.6788 29.5803 76.7923 30.0211 76.054C30.4619 75.3157 31.7103 70.5145 31.7103 70.5145" stroke="#603E91" stroke-width="0.5" stroke-miterlimit="10" stroke-linecap="round"/>
<path d="M31.4896 78.0482C31.4896 78.0482 31.2695 77.0514 31.6733 76.2759C32.0771 75.5004 33.069 71.7338 33.069 71.7338" stroke="#603E91" stroke-width="0.5" stroke-miterlimit="10" stroke-linecap="round"/>
<path d="M24.659 82.1843C24.659 82.1843 22.7492 91.6013 22.5291 92.7462C22.309 93.8912 20.803 99.9843 20.803 99.9843" stroke="#603E91" stroke-width="0.5" stroke-miterlimit="10" stroke-linecap="round"/>
<path d="M28.0378 101.166C28.0378 101.166 28.0008 102.496 28.1846 103.013C28.3683 103.53 28.7357 104.822 28.5883 105.302C28.441 105.782 27.2296 105.819 27.2296 105.819C26.2013 105.966 24.1078 105.856 21.2436 105.449C18.3789 105.043 16.506 104.378 16.3963 103.197C16.2859 102.015 17.2045 101.867 17.9387 101.757C18.6729 101.646 19.2974 101.018 20.2523 100.427C21.2073 99.8361 21.4273 99.8361 21.9415 99.5404C22.4556 99.2447 22.7497 99.2082 23.5209 99.688C24.2921 100.168 24.6959 101.645 24.8062 102.494C24.9166 103.344 25.6144 103.824 26.3487 103.898C27.0829 103.972 27.5607 103.455 27.671 102.827C27.7813 102.199 28.1851 100.168 28.8096 98.2101C29.4341 96.2531 30.7559 94.2217 32.0412 91.4891C33.3266 88.7565 33.3635 83.6603 33.3635 83.6603" stroke="#603E91" stroke-width="0.5" stroke-miterlimit="10" stroke-linecap="round"/>
<path d="M30.7183 83.2921C30.7183 83.2921 29.5797 90.1978 29.2862 91.9336C28.9922 93.6693 28.7721 97.8791 28.2949 99.7996" stroke="#603E91" stroke-width="0.5" stroke-miterlimit="10" stroke-linecap="round"/>
<path d="M28.9928 82.9969C28.9928 82.9969 28.2491 88.8135 28.0653 90.9181C27.8816 93.0233 27.046 98.7655 26.8259 100.39C26.6058 102.015 26.0088 103.326 25.7517 103.548" stroke="#603E91" stroke-width="0.5" stroke-miterlimit="10" stroke-linecap="round"/>
<path d="M27.34 82.7385C27.34 82.7385 26.6422 88.3889 26.2747 90.4197C25.9073 92.4506 25.2834 96.2177 25.2834 96.2177" stroke="#603E91" stroke-width="0.5" stroke-miterlimit="10" stroke-linecap="round"/>
<path d="M26.0911 82.5537C26.0911 82.5537 25.0258 89.3485 24.8427 90.7892C24.6596 92.2298 23.9612 95.8854 23.9612 95.8854" stroke="#603E91" stroke-width="0.5" stroke-miterlimit="10" stroke-linecap="round"/>
<path d="M24.9893 82.3318C24.9893 82.3318 23.3002 94.4448 22.8594 95.4788" stroke="#603E91" stroke-width="0.5" stroke-miterlimit="10" stroke-linecap="round"/>
<path d="M21.1704 99.8362L22.1593 95.9251C22.222 95.6767 22.4701 95.5238 22.7188 95.5796L25.0026 96.096C25.305 96.1644 25.5018 96.457 25.4529 96.7647L24.696 101.683" stroke="#603E91" stroke-width="0.5" stroke-miterlimit="10" stroke-linecap="round"/>
<path d="M16.469 102.569C16.469 102.569 17.3505 101.72 18.0848 102.754C18.819 103.788 19.5169 104.785 23.4833 105.708" stroke="#603E91" stroke-width="0.5" stroke-miterlimit="10" stroke-linecap="round"/>
<path d="M18.7095 103.455C18.7095 103.455 21.3172 104.304 23.0797 104.637C24.8422 104.969 25.7607 104.6 26.3482 104.452C26.9357 104.304 28.3314 104.304 28.3678 103.714" stroke="#603E91" stroke-width="0.5" stroke-miterlimit="10" stroke-linecap="round"/>
<path d="M19.5176 101.018C19.5176 101.018 20.8399 100.575 21.6475 102.015" stroke="#603E91" stroke-width="0.5" stroke-miterlimit="10" stroke-linecap="round"/>
<path d="M20.1785 100.501C20.1785 100.501 21.5008 100.058 22.3084 101.498" stroke="#603E91" stroke-width="0.5" stroke-miterlimit="10" stroke-linecap="round"/>
<path d="M21.1333 99.9843C21.1333 99.9843 22.4556 99.541 23.2632 100.981" stroke="#603E91" stroke-width="0.5" stroke-miterlimit="10" stroke-linecap="round"/>
<path d="M37.9534 52.4194C37.9534 52.4194 34.7582 52.6965 33.6566 54.8011C32.5549 56.9063 30.2413 60.1745 29.1396 60.7838" stroke="#603E91" stroke-width="0.5" stroke-miterlimit="10" stroke-linecap="round"/>
<path d="M36.7968 57.9589C36.7968 57.9589 32.2244 57.0172 31.4531 59.7312C30.6819 62.4458 30.3515 65.8801 30.0211 67.043C29.6906 68.2066 29.1395 69.5543 29.1395 69.5543C29.1395 69.5543 27.7438 75.0937 27.2297 75.537C26.7155 75.9802 26.8259 76.977 26.8259 76.977" stroke="#603E91" stroke-width="0.5" stroke-miterlimit="10" stroke-linecap="round"/>
<path d="M40.4875 51.2007C40.4875 51.2007 40.7631 51.7549 40.3223 52.6965C39.8815 53.6382 38.6695 55.7985 38.8902 59.0667C38.8902 59.0667 38.0641 63.6645 37.1826 66.3785C36.301 69.0931 34.1526 73.6903 34.2081 74.7429" stroke="#603E91" stroke-width="0.5" stroke-miterlimit="10" stroke-linecap="round"/>
<path d="M29.1395 51.6439C29.1395 51.6439 28.9194 52.1981 29.3596 52.6965C29.8004 53.1949 31.7836 53.5272 33.326 53.1949C34.8684 52.8627 36.7413 52.1423 37.8984 51.921C39.0555 51.6997 40.5979 51.6997 40.5979 51.6997C40.5979 51.6997 42.3604 51.9768 43.0219 51.2565" stroke="#603E91" stroke-width="0.5" stroke-miterlimit="10" stroke-linecap="round"/>
<path d="M29.084 52.3085C29.084 52.3085 28.3128 53.0288 28.0927 54.1366C27.8726 55.2444 27.6519 56.4631 27.8171 58.2912C27.9824 60.1193 27.5971 62.7229 28.0372 64.9936C28.478 67.265 28.6432 69.4805 28.6432 69.4805" stroke="#603E91" stroke-width="0.5" stroke-miterlimit="10" stroke-linecap="round"/>
<path d="M32.6651 53.3058C32.6651 53.3058 31.9488 54.8017 30.0759 55.6875" stroke="#603E91" stroke-width="0.5" stroke-miterlimit="10" stroke-linecap="round"/>
<path d="M43.1318 55.5766C43.1318 55.5766 43.3519 56.1308 41.9747 57.2386C40.5975 58.3463 39.1099 58.125 38.6143 60.2296" stroke="#603E91" stroke-width="0.5" stroke-miterlimit="10" stroke-linecap="round"/>
<path d="M42.9111 51.422C42.9111 51.422 44.784 53.5824 44.6736 56.6844C44.5633 59.7864 42.36 63.2207 41.3687 65.4369C40.3774 67.6524 39.1099 68.8712 38.0083 71.3086" stroke="#603E91" stroke-width="0.5" stroke-miterlimit="10" stroke-linecap="round"/>
<path d="M39.7165 68.3727C39.7165 68.3727 38.7252 71.1425 38.0088 72.8045C37.2925 74.4664 35.2544 76.7929 34.5381 79.3408" stroke="#603E91" stroke-width="0.5" stroke-miterlimit="10" stroke-linecap="round"/>
<path d="M36.1354 76.1278C36.1354 76.1278 38.0637 78.233 38.3941 78.6756C38.7246 79.1189 40.7078 79.9495 41.4241 81.6667C42.1404 83.3838 44.7845 84.3813 45.941 87.7598C47.0981 91.1389 48.5302 97.1768 49.3014 98.2846C50.0727 99.3923 50.1275 100.722 49.3014 101.22C48.4754 101.719 47.5389 101.442 46.8775 100.666C46.2166 99.8908 46.1062 98.7272 44.729 98.4507C44.729 98.4507 40.1018 91.5821 39.7713 90.9728C39.4409 90.3634 35.7501 85.1562 35.7501 85.1562C35.7501 85.1562 34.2625 84.3255 33.8772 83.1619" stroke="#603E91" stroke-width="0.5" stroke-miterlimit="10" stroke-linecap="round"/>
<path d="M34.3728 81.0027C34.3728 81.0027 36.6316 80.6704 38.5044 78.8975" stroke="#603E91" stroke-width="0.5" stroke-miterlimit="10" stroke-linecap="round"/>
<path d="M35.75 85.1573C35.75 85.1573 39.386 84.7693 41.6996 82.1663" stroke="#603E91" stroke-width="0.5" stroke-miterlimit="10" stroke-linecap="round"/>
<path d="M33.9321 82.6641C33.9321 82.6641 36.8518 82.8302 39.8817 79.7834" stroke="#603E91" stroke-width="0.5" stroke-miterlimit="10" stroke-linecap="round"/>
<path d="M34.7031 84.437C34.7031 84.437 39.7163 83.6063 40.9832 80.947" stroke="#603E91" stroke-width="0.5" stroke-miterlimit="10" stroke-linecap="round"/>
<path d="M38.7246 84.2709C38.7246 84.2709 40.873 87.8713 42.5258 89.5333C44.1786 91.1952 48.0895 97.1222 48.5851 97.9529C49.0808 98.7835 49.9075 100.058 49.9075 100.058" stroke="#603E91" stroke-width="0.5" stroke-miterlimit="10" stroke-linecap="round"/>
<path d="M37.5125 84.8802C37.5125 84.8802 42.4702 91.4723 43.5718 93.0785C44.6735 94.6847 48.1991 99.4487 48.5295 99.9471C48.8599 100.446 49.3007 101.221 49.3007 101.221" stroke="#603E91" stroke-width="0.5" stroke-miterlimit="10" stroke-linecap="round"/>
<path d="M36.4109 85.1016C36.4109 85.1016 41.4241 92.2472 42.8561 94.1863C44.2882 96.1254 45.8861 99.0055 46.2166 99.6148" stroke="#603E91" stroke-width="0.5" stroke-miterlimit="10" stroke-linecap="round"/>
<path d="M40.0469 67.9295C40.0469 67.9295 40.3224 69.3696 40.6529 70.3112C40.9833 71.2528 41.3137 74.6871 41.3137 74.6871" stroke="#603E91" stroke-width="0.5" stroke-miterlimit="10" stroke-linecap="round"/>
<path d="M42.0849 77.5678C42.0849 77.5678 42.1398 78.122 41.5893 78.6204C41.0381 79.1188 40.6528 80.3927 40.6528 80.3927" stroke="#603E91" stroke-width="0.5" stroke-miterlimit="10" stroke-linecap="round"/>
<path d="M42.7457 78.5652C42.7457 78.5652 42.4701 79.0637 42.4701 79.4517C42.4701 79.8398 41.4233 81.6673 41.4233 81.6673" stroke="#603E91" stroke-width="0.5" stroke-miterlimit="10" stroke-linecap="round"/>
<path d="M45.8306 82.9969C45.8306 82.9969 46.6566 83.3292 46.9877 84.1605C47.3187 84.9918 47.8138 86.0438 47.0426 86.487C46.2713 86.9302 45.8854 87.4838 45.8854 87.4838" stroke="#603E91" stroke-width="0.5" stroke-miterlimit="10" stroke-linecap="round"/>
<path d="M44.3436 84.9906C44.3436 84.9906 45.7757 84.3812 45.9409 83.3844C45.9409 83.3844 45.2246 81.7224 43.2968 79.2856C41.3685 76.8481 42.0848 76.682 41.7544 75.519C41.424 74.3555 39 72.8044 39 72.8044" stroke="#603E91" stroke-width="0.5" stroke-miterlimit="10" stroke-linecap="round"/>
<path d="M47.0427 86.4865L48.4199 89.6994C48.4199 89.6994 48.6955 89.5885 49.3015 90.6411C49.9075 91.6937 50.1276 92.4692 49.4667 92.8014C48.8058 93.1337 47.9243 94.0754 47.9243 94.0754" stroke="#603E91" stroke-width="0.5" stroke-miterlimit="10" stroke-linecap="round"/>
<path d="M47.2078 91.7488C47.2078 91.7488 48.7502 91.1946 48.4198 89.6994" stroke="#603E91" stroke-width="0.5" stroke-miterlimit="10" stroke-linecap="round"/>
<path d="M49.7971 92.4691C49.7971 92.4691 50.0726 93.2998 50.6231 94.0201C51.1743 94.7404 51.3944 95.3498 51.3944 95.3498C51.3944 95.3498 51.9455 94.7956 52.496 95.6821C53.0471 96.5686 53.708 97.5102 54.3689 98.1747C55.0297 98.8393 55.4705 100.501 52.9368 101.277C50.4031 102.052 48.3095 102.773 47.0975 103.216C45.8855 103.659 43.6822 104.49 42.1947 104.49C40.7071 104.49 38.6691 104.157 38.5587 103.493C38.4484 102.828 38.2283 102.163 39.7707 101.776C41.3131 101.388 44.1779 99.8925 44.7284 98.4524" stroke="#603E91" stroke-width="0.5" stroke-miterlimit="10" stroke-linecap="round"/>
<path d="M48.9341 97.584C48.9341 97.584 49.889 97.8797 50.3662 97.067C50.8433 96.2543 51.2107 95.3684 51.6145 95.1837" stroke="#603E91" stroke-width="0.5" stroke-miterlimit="10" stroke-linecap="round"/>
<path d="M51.1009 94.777C51.1009 94.777 51.0275 95.405 50.2563 95.7001C49.4851 95.9958 48.8606 96.1799 48.7139 96.7713" stroke="#603E91" stroke-width="0.5" stroke-miterlimit="10" stroke-linecap="round"/>
<path d="M38.5408 102.791C38.5408 102.791 39.349 103.862 41.4419 103.936C43.5355 104.009 47.7583 101.83 48.7502 101.462C49.7415 101.092 51.6884 100.317 52.5693 99.8733C53.4509 99.4301 54.0384 98.8393 54.2221 97.9901" stroke="#603E91" stroke-width="0.5" stroke-miterlimit="10" stroke-linecap="round"/>
<path d="M42.5806 100.538C42.5806 100.538 43.4621 100.353 44.16 101.535" stroke="#603E91" stroke-width="0.5" stroke-miterlimit="10" stroke-linecap="round"/>
<path d="M43.2783 100.058C43.2783 100.058 44.1599 99.8733 44.8577 101.055" stroke="#603E91" stroke-width="0.5" stroke-miterlimit="10" stroke-linecap="round"/>
<path d="M44.1599 99.3191C44.1599 99.3191 45.0415 99.1344 45.7393 100.316" stroke="#603E91" stroke-width="0.5" stroke-miterlimit="10" stroke-linecap="round"/>
<path d="M21.2803 31.0376C21.2803 31.0376 22.1618 31.8131 22.7857 32.8099C23.4102 33.8067 25.3194 34.9889 24.8793 36.5399" stroke="#603E91" stroke-width="3.96" stroke-miterlimit="10" stroke-linecap="round"/>
</g>
<defs>
<clipPath id="clip0_13_1433">
<rect width="55" height="106" fill="white"/>
</clipPath>
</defs>
</svg>
