<svg width="86" height="80" viewBox="0 0 86 80" fill="none" xmlns="http://www.w3.org/2000/svg">
<g clip-path="url(#clip0_13_1412)">
<path d="M17.4252 29.9687C17.4252 31.7359 16.903 33.3814 16.0054 34.7574C15.8952 34.9287 15.777 35.096 15.6538 35.2583C15.4686 35.5055 15.2699 35.7411 15.0586 35.9665C12.6718 33.9743 10.5819 31.8492 8.9473 29.5198C7.30867 27.1823 6.12687 24.6421 5.5498 21.8097C5.83054 21.6995 6.11731 21.6045 6.41163 21.5241C6.60633 21.47 6.80355 21.423 7.00429 21.3836C7.5562 21.2729 8.12774 21.2142 8.71235 21.2142C13.5246 21.2142 17.4252 25.1335 17.4252 29.9687Z" fill="#1EB05E"/>
<path d="M8.30839 29.9727C6.64963 27.609 5.43161 25.0177 4.81932 22.1358C4.35546 22.3693 3.91473 22.6423 3.50269 22.9517C4.08277 25.8518 5.29577 28.4506 6.98571 30.8392C8.66861 33.2176 10.8254 35.3852 13.2912 37.4169C13.7183 37.1515 14.1203 36.8497 14.4941 36.5166C12.0968 34.5082 9.98022 32.3547 8.30839 29.9727Z" fill="#0C7038"/>
<path d="M12.543 37.8324C12.2799 37.9623 12.0087 38.0786 11.7315 38.1807C11.5081 38.2646 11.2807 38.3389 11.0483 38.4026C10.3052 38.6114 9.52235 38.7221 8.71285 38.7221C3.90061 38.7221 0 34.8029 0 29.9687C0 27.977 0.662092 26.141 1.77598 24.6709C1.93244 24.4657 2.09646 24.2675 2.26852 24.078C2.44159 23.8869 2.62321 23.7034 2.81137 23.529C3.4458 26.3821 4.67439 28.9531 6.33666 31.3027C8.01705 33.6766 10.1392 35.827 12.5425 37.8324H12.543Z" fill="#1EB05E"/>
<path d="M7.00427 21.3841C7.05106 21.5908 7.10137 21.7961 7.1557 21.9998C7.19897 22.1631 7.10288 22.3299 6.94037 22.3734C6.77787 22.4169 6.61184 22.3203 6.56858 22.157C6.51273 21.9472 6.46091 21.7369 6.41211 21.5251L7.00477 21.3846L7.00427 21.3841Z" fill="white"/>
<path d="M12.6597 32.4471C13.0527 32.8576 13.4582 33.2615 13.8758 33.6594C13.9975 33.7756 14.1902 33.7701 14.3059 33.6477C14.4216 33.5254 14.4161 33.3318 14.2944 33.2155C13.8833 32.8238 13.4838 32.4264 13.0985 32.023C12.9822 31.9012 12.7896 31.8977 12.6683 32.0144C12.5471 32.1312 12.5435 32.3248 12.6597 32.4466V32.4471ZM10.4199 29.8362C10.7655 30.2901 11.1273 30.736 11.5036 31.1743C11.6133 31.3022 11.8055 31.3158 11.9328 31.2056C12.06 31.0954 12.0736 30.9023 11.9639 30.7744C11.5947 30.3452 11.2405 29.9085 10.9029 29.4646C10.8008 29.3307 10.6101 29.3049 10.4768 29.4075C10.3434 29.5101 10.3178 29.7017 10.4199 29.8357V29.8362ZM8.52318 26.9553C8.80342 27.4568 9.10327 27.9481 9.42174 28.4304C9.51481 28.5709 9.70348 28.6093 9.84334 28.5163C9.98321 28.4228 10.0214 28.2332 9.92887 28.0927C9.61845 27.6226 9.32665 27.1438 9.05396 26.656C8.97145 26.5089 8.78631 26.4564 8.6399 26.5393C8.4935 26.6222 8.44118 26.8082 8.52369 26.9553H8.52318ZM7.08379 23.811C7.28 24.356 7.49885 24.8903 7.73884 25.4135C7.80927 25.5667 7.98989 25.6339 8.14233 25.5631C8.29477 25.4923 8.36168 25.3109 8.29125 25.1577C8.05831 24.6492 7.846 24.1315 7.65532 23.6027C7.59796 23.444 7.42389 23.3621 7.26591 23.4192C7.10794 23.4769 7.02643 23.6518 7.08328 23.8105L7.08379 23.811Z" fill="white"/>
<path d="M16.0054 34.7573C15.8952 34.9287 15.7769 35.096 15.6537 35.2583C15.4826 35.1127 15.3121 34.9656 15.1445 34.8185V34.8195C15.0188 34.7078 15.0057 34.5147 15.1159 34.3883C15.226 34.2609 15.4182 34.2478 15.545 34.3585C15.6969 34.4919 15.8509 34.6254 16.0054 34.7573Z" fill="white"/>
<path d="M2.22767 25.2361C2.06416 25.278 1.89914 25.1784 1.85839 25.0141C1.82971 24.9009 1.80204 24.7862 1.77588 24.6709C1.93235 24.4657 2.09636 24.2675 2.26842 24.0779C2.32326 24.3423 2.38313 24.6052 2.44854 24.8655C2.48929 25.0288 2.39018 25.1946 2.22767 25.2356V25.2361Z" fill="white"/>
<path d="M3.59382 28.1508C3.35585 27.6226 3.13951 27.0837 2.94733 26.5337C2.89148 26.374 2.71891 26.29 2.55993 26.3462C2.40195 26.4018 2.31844 26.5767 2.37378 26.7364C2.57201 27.3041 2.79438 27.8591 3.0404 28.4031C3.10882 28.5568 3.28994 28.6255 3.44289 28.5557C3.59583 28.486 3.66375 28.305 3.59432 28.1508H3.59382ZM5.28125 31.1996C4.95976 30.7117 4.65739 30.2148 4.37666 29.7083C4.29515 29.5607 4.109 29.5081 3.9631 29.5905C3.81619 29.6724 3.76337 29.8584 3.84487 30.006C4.13416 30.5262 4.44458 31.0373 4.77462 31.5372C4.86769 31.6778 5.05636 31.7162 5.19622 31.6227C5.33609 31.5291 5.37432 31.3396 5.28125 31.1991V31.1996ZM7.39884 33.9763C7.01396 33.533 6.64568 33.0816 6.29451 32.6221C6.19188 32.4886 6.0007 32.4633 5.86787 32.5659C5.73505 32.6681 5.7099 32.8602 5.81153 32.9936C6.17125 33.4632 6.54758 33.9243 6.94 34.3772C7.05018 34.5046 7.24237 34.5177 7.36915 34.407C7.49493 34.2963 7.50902 34.1032 7.39884 33.9758V33.9763ZM9.82835 36.4958C9.3992 36.0924 8.98313 35.6819 8.58064 35.2664C8.46442 35.1451 8.27123 35.1425 8.15149 35.2603C8.03074 35.3771 8.02823 35.5712 8.14444 35.6925C8.55347 36.1161 8.97709 36.5317 9.41329 36.9416C9.53605 37.0569 9.72773 37.0508 9.84344 36.9275C9.95815 36.8041 9.95111 36.6105 9.82885 36.4953L9.82835 36.4958Z" fill="white"/>
<path d="M11.731 38.1806C11.5076 38.2646 11.2802 38.3389 11.0478 38.4026C10.9427 38.3146 10.8395 38.2246 10.7359 38.1357C10.6081 38.0255 10.594 37.8329 10.7037 37.7045C10.8139 37.5771 11.006 37.5629 11.1328 37.6731C11.33 37.8435 11.5293 38.0128 11.7305 38.1812L11.731 38.1806Z" fill="white"/>
<g filter="url(#filter0_d_13_1412)">
<path d="M78.8013 14.0759C78.8012 14.0759 78.801 14.0758 78.8009 14.0757C71.1194 3.91963 58.2435 -1.73795 44.8442 0.477176C32.5422 2.51084 22.7728 10.6885 18.1301 21.3734C22.6294 12.7494 30.9624 6.27689 41.2611 4.57434C53.3573 2.57454 64.9817 7.68221 71.9165 16.8512C74.9674 20.8846 77.1116 25.7026 77.9871 31.0494C78.8625 36.3962 78.3674 41.6505 76.7635 46.4533C73.1175 57.3708 63.7345 65.9513 51.6382 67.9506C41.3391 69.6532 31.382 66.2036 24.3702 59.4828C32.1754 68.1099 44.0372 72.712 56.3393 70.6789C69.7386 68.4637 80.1323 58.9596 84.1708 46.8663C85.9473 41.5463 86.4961 35.7259 85.5261 29.8033C84.5567 23.8809 82.181 18.5438 78.8017 14.0761C78.8016 14.076 78.8015 14.0759 78.8013 14.0759Z" fill="url(#paint0_linear_13_1412)"/>
</g>
<g filter="url(#filter1_d_13_1412)">
<path d="M51.1412 7.11036C51.1413 7.11021 51.1412 7.10994 51.141 7.10993C46.1323 6.79257 41.1834 7.60493 36.7577 9.55562C36.4775 9.66785 36.2088 9.80686 35.9351 9.93374L35.5266 10.1274L35.1261 10.3376L34.7256 10.5469L34.5249 10.6506L34.3287 10.7628L33.5453 11.2112C32.518 11.838 31.5248 12.5169 30.5815 13.259C30.3486 13.4486 30.1111 13.6315 29.8817 13.8252L29.199 14.411C28.7577 14.8175 28.3145 15.2214 27.8999 15.6551C27.0592 16.5089 26.2598 17.4052 25.5383 18.3631C22.6188 22.1686 20.6899 26.7222 19.9614 31.519C19.5971 33.9182 19.5312 36.377 19.7556 38.8272C19.7788 39.1345 19.82 39.4394 19.8517 39.7467C19.895 40.0515 19.9317 40.3589 19.981 40.6637C20.0278 40.969 20.0761 41.2754 20.1355 41.5792C20.1893 41.8845 20.2542 42.1878 20.3161 42.4931C20.4494 43.1003 20.5928 43.7079 20.7618 44.3099C20.8251 44.5574 20.5325 44.6801 20.4223 44.4497C19.6005 42.731 18.9834 40.8982 18.5743 39.0117C18.032 36.4998 17.8604 33.8924 18.0606 31.3011C18.1633 30.006 18.3509 28.7124 18.6508 27.4431L18.7615 26.9664C18.7982 26.8072 18.8339 26.6479 18.8802 26.4917L19.1468 25.5495C19.3491 24.9287 19.5478 24.3054 19.7888 23.6978L19.9629 23.2393C20.0253 23.0886 20.0927 22.9395 20.1571 22.7894L20.3533 22.34L20.4514 22.115L20.5586 21.8946L20.9887 21.0125L21.4541 20.1486C22.1011 19.0112 22.8221 17.9168 23.6109 16.8734C26.7951 12.7242 31.1697 9.49344 36.0584 7.77319C36.3643 7.66805 36.6691 7.55936 36.977 7.4618L37.9073 7.19135C38.2167 7.10036 38.5332 7.03313 38.8451 6.95376C39.0021 6.91635 39.1575 6.8749 39.3155 6.84356L39.7899 6.75206C40.4198 6.62063 41.0578 6.53267 41.6927 6.44623L42.6501 6.35322C42.8091 6.33552 42.9691 6.32592 43.1291 6.31834L43.608 6.29407C46.1608 6.18084 48.717 6.4356 51.1409 7.11043C51.141 7.11046 51.1411 7.11043 51.1412 7.11036Z" fill="url(#paint1_linear_13_1412)"/>
</g>
<g filter="url(#filter2_d_13_1412)">
<path d="M74.2197 67.6731C74.0275 67.845 73.8339 68.0144 73.6392 68.1827C73.6029 68.214 73.5667 68.2454 73.5305 68.2767C73.3312 68.4471 73.1315 68.6164 72.9293 68.7832C67.8967 72.9365 61.9036 75.9251 55.5976 77.4264C54.1593 77.7692 52.6851 78.0396 51.2156 78.2307L51.1597 78.2378C49.3425 78.4713 47.4865 78.5896 45.6421 78.5896C41.0774 78.5896 36.5841 77.8753 32.2881 76.466C29.6352 75.597 27.0522 74.4591 24.6122 73.0831C24.434 72.9825 24.2565 72.8809 24.0794 72.7778C20.214 70.5328 16.6691 67.7646 13.5754 64.5915C16.8884 68.622 20.9274 72.0271 25.4931 74.6027C27.8688 75.9423 30.3853 77.0569 33.0166 77.9183C37.1381 79.27 41.5362 79.9995 46.1065 79.9995C47.9579 79.9995 49.7812 79.8797 51.5693 79.6476H51.5703C53.0263 79.4581 54.4591 79.1942 55.8653 78.8596C68.5356 75.8432 78.9942 67.0822 84.3685 55.4676C81.866 60.2189 78.3945 64.3757 74.2197 67.6731Z" fill="url(#paint2_linear_13_1412)"/>
</g>
<g filter="url(#filter3_d_13_1412)">
<path d="M83.9036 53.2019C83.9037 53.2019 83.9039 53.202 83.9038 53.2022C78.5295 64.8166 68.071 73.5775 55.4008 76.5938C53.9946 76.9285 52.5617 77.1929 51.1057 77.3819H51.1047C49.3167 77.6139 47.4934 77.7337 45.642 77.7337C41.0717 77.7337 36.6735 77.0043 32.5521 75.6526C29.9208 74.7907 27.4043 73.676 25.0286 72.3369C14.6792 66.499 5.96233 56.4012 3.00233 44.4089C2.35433 41.7835 6.00809 39.7598 8.71223 39.7598C10.9315 39.7598 13.2388 41.2136 13.4178 43.4256C13.5188 44.6732 13.77 46.0732 14.3561 47.8718C15.0982 50.146 16.121 52.3 17.2913 54.3468C21.6874 62.0442 28.6766 68.0563 37.0604 71.1818C39.6464 72.1463 42.3652 72.8354 45.1826 73.2155H45.1836C46.8524 73.4405 48.5545 73.5567 50.2842 73.5567C64.8652 73.5567 77.5269 65.3079 83.9034 53.202C83.9034 53.2019 83.9035 53.2019 83.9036 53.2019Z" fill="url(#paint3_linear_13_1412)"/>
</g>
<path opacity="0.6" d="M44.7938 56.9821L35.7706 27.4391H35.5396C35.8641 33.4491 36.0272 37.4583 36.0272 39.4672V56.9821H28.9263V19.3251H39.7441L48.6139 48.1215H48.7679L58.176 19.3251H68.9939V56.9816H61.5856V39.1578C61.5856 38.3166 61.5982 37.3466 61.6238 36.2471C61.6495 35.1486 61.7647 32.2293 61.97 27.4901H61.7391L52.0748 56.9816H44.7943L44.7938 56.9821Z" fill="black"/>
</g>
<defs>
<filter id="filter0_d_13_1412" x="14.1301" y="-4.00012" width="75.8706" height="79.1561" filterUnits="userSpaceOnUse" color-interpolation-filters="sRGB">
<feFlood flood-opacity="0" result="BackgroundImageFix"/>
<feColorMatrix in="SourceAlpha" type="matrix" values="0 0 0 0 0 0 0 0 0 0 0 0 0 0 0 0 0 0 127 0" result="hardAlpha"/>
<feOffset/>
<feGaussianBlur stdDeviation="2"/>
<feComposite in2="hardAlpha" operator="out"/>
<feColorMatrix type="matrix" values="0 0 0 0 0 0 0 0 0 0 0 0 0 0 0 0 0 0 0.25 0"/>
<feBlend mode="normal" in2="BackgroundImageFix" result="effect1_dropShadow_13_1412"/>
<feBlend mode="normal" in="SourceGraphic" in2="effect1_dropShadow_13_1412" result="shape"/>
</filter>
<filter id="filter1_d_13_1412" x="13.9797" y="2.26813" width="41.1616" height="46.3038" filterUnits="userSpaceOnUse" color-interpolation-filters="sRGB">
<feFlood flood-opacity="0" result="BackgroundImageFix"/>
<feColorMatrix in="SourceAlpha" type="matrix" values="0 0 0 0 0 0 0 0 0 0 0 0 0 0 0 0 0 0 127 0" result="hardAlpha"/>
<feOffset/>
<feGaussianBlur stdDeviation="2"/>
<feComposite in2="hardAlpha" operator="out"/>
<feColorMatrix type="matrix" values="0 0 0 0 0 0 0 0 0 0 0 0 0 0 0 0 0 0 0.25 0"/>
<feBlend mode="normal" in2="BackgroundImageFix" result="effect1_dropShadow_13_1412"/>
<feBlend mode="normal" in="SourceGraphic" in2="effect1_dropShadow_13_1412" result="shape"/>
</filter>
<filter id="filter2_d_13_1412" x="9.57544" y="51.4676" width="78.793" height="32.5319" filterUnits="userSpaceOnUse" color-interpolation-filters="sRGB">
<feFlood flood-opacity="0" result="BackgroundImageFix"/>
<feColorMatrix in="SourceAlpha" type="matrix" values="0 0 0 0 0 0 0 0 0 0 0 0 0 0 0 0 0 0 127 0" result="hardAlpha"/>
<feOffset/>
<feGaussianBlur stdDeviation="2"/>
<feComposite in2="hardAlpha" operator="out"/>
<feColorMatrix type="matrix" values="0 0 0 0 0 0 0 0 0 0 0 0 0 0 0 0 0 0 0.25 0"/>
<feBlend mode="normal" in2="BackgroundImageFix" result="effect1_dropShadow_13_1412"/>
<feBlend mode="normal" in="SourceGraphic" in2="effect1_dropShadow_13_1412" result="shape"/>
</filter>
<filter id="filter3_d_13_1412" x="-1.07324" y="35.7598" width="88.9771" height="45.9739" filterUnits="userSpaceOnUse" color-interpolation-filters="sRGB">
<feFlood flood-opacity="0" result="BackgroundImageFix"/>
<feColorMatrix in="SourceAlpha" type="matrix" values="0 0 0 0 0 0 0 0 0 0 0 0 0 0 0 0 0 0 127 0" result="hardAlpha"/>
<feOffset/>
<feGaussianBlur stdDeviation="2"/>
<feComposite in2="hardAlpha" operator="out"/>
<feColorMatrix type="matrix" values="0 0 0 0 0 0 0 0 0 0 0 0 0 0 0 0 0 0 0.25 0"/>
<feBlend mode="normal" in2="BackgroundImageFix" result="effect1_dropShadow_13_1412"/>
<feBlend mode="normal" in="SourceGraphic" in2="effect1_dropShadow_13_1412" result="shape"/>
</filter>
<linearGradient id="paint0_linear_13_1412" x1="20.6187" y1="5.08246" x2="96.9668" y2="20.9573" gradientUnits="userSpaceOnUse">
<stop stop-color="#502384"/>
<stop offset="1" stop-color="#614092"/>
</linearGradient>
<linearGradient id="paint1_linear_13_1412" x1="19.1957" y1="9.11434" x2="56.8724" y2="15.9497" gradientUnits="userSpaceOnUse">
<stop stop-color="#502384"/>
<stop offset="1" stop-color="#614092"/>
</linearGradient>
<linearGradient id="paint2_linear_13_1412" x1="16.1712" y1="57.2199" x2="75.6943" y2="94.6643" gradientUnits="userSpaceOnUse">
<stop stop-color="#502384"/>
<stop offset="1" stop-color="#614092"/>
</linearGradient>
<linearGradient id="paint3_linear_13_1412" x1="4.9554" y1="39.9211" x2="85.6076" y2="75.3048" gradientUnits="userSpaceOnUse">
<stop stop-color="#502384"/>
<stop offset="1" stop-color="#614092"/>
</linearGradient>
<clipPath id="clip0_13_1412">
<rect width="86" height="80" fill="white"/>
</clipPath>
</defs>
</svg>
