<svg width="46" height="80" viewBox="0 0 46 80" fill="none" xmlns="http://www.w3.org/2000/svg">
<g clip-path="url(#clip0_13_1365)">
<path d="M16.9221 80C16.8813 79.9657 16.8437 79.9085 16.798 79.9003C14.7783 79.5295 14.7636 79.0312 14.7848 77.1442C14.793 76.4417 14.9612 75.7392 14.9497 75.0399C14.9301 73.8881 14.8322 72.7363 14.7489 71.5862C14.7162 71.1353 14.6362 70.6876 14.5579 70.0815C15.3285 70.3086 15.9604 70.4932 16.5923 70.6811C17.136 70.8412 17.6797 71.0029 18.2234 71.1663C19.0251 71.4065 20.0766 71.4244 20.5534 71.9587C20.9746 72.4292 20.7101 73.483 20.8326 74.2655C20.9991 75.3307 21.3453 76.3763 21.4367 77.4448C21.5624 78.9185 21.1265 79.4184 19.7092 79.8268C19.5868 79.8628 19.4774 79.9412 19.3631 79.9984H16.9221V80Z" fill="url(#paint0_linear_13_1365)"/>
<path d="M0 63.0433C0.44248 62.2248 0.81965 61.3605 1.3454 60.5992C1.86299 59.8493 2.53079 59.204 3.14961 58.4916C4.07866 58.7008 5.02566 58.887 5.95797 59.1321C6.65517 59.3151 7.0503 59.8068 7.34256 60.4848C7.53686 60.9357 8.00547 61.2658 8.40549 61.7118C7.7034 63.8765 6.33188 65.7994 4.32357 67.2649C3.64761 67.7583 2.75448 67.7207 1.85156 67.0901C0.880063 66.4104 0.460441 65.3991 0.181237 64.3013C0.128989 64.097 0.0604125 63.8977 0 63.6968C0 63.4795 0 63.2622 0 63.0449L0 63.0433Z" fill="url(#paint1_linear_13_1365)"/>
<path d="M45.2032 11.1847C45.0301 12.6289 44.8603 14.0731 44.6775 15.5157C44.6579 15.6709 44.6024 15.867 44.493 15.9569C43.2357 16.9796 42.181 18.414 40.2772 18.1869C39.2959 18.0693 38.5481 18.3732 38.0272 19.2309C37.9488 19.36 37.8019 19.4907 37.6598 19.5348C35.2352 20.2798 33.5975 22.1455 31.7443 23.6992C31.4047 23.9835 31.1728 24.3985 30.8414 24.8183C27.0044 22.7206 22.7722 22.237 18.416 23.4672C14.0614 24.6974 10.8579 27.5271 8.27979 31.2292C8.35163 30.1591 8.43163 29.0906 8.49041 28.0205C8.58185 26.3965 8.64716 24.7693 8.74839 23.1454C8.76798 22.8284 8.82023 22.4723 8.98188 22.2125C10.0252 20.5379 11.1045 18.8845 12.1658 17.2214C12.3078 16.9992 12.4319 16.7639 12.5364 16.5221C12.9201 15.6301 13.2058 14.6809 13.6973 13.8542C14.0255 13.2987 14.5594 12.7302 15.1358 12.4851C16.9367 11.7205 18.447 10.5459 19.972 9.37446C21.9673 7.842 24.0932 6.54317 26.6109 6.12003C27.664 5.94195 28.7596 5.99259 29.8356 5.96482C30.7206 5.94358 31.6088 5.95992 32.4105 5.95992C32.5672 6.74902 32.9787 7.73744 32.9036 8.68665C32.7795 10.2567 33.4473 11.5833 33.8424 12.9883C34.7274 16.1431 37.717 17.3472 40.5564 15.7494C42.4781 14.6678 44.1876 13.3739 44.9012 11.1324C45.0008 11.1504 45.102 11.1683 45.2016 11.1863L45.2032 11.1847Z" fill="url(#paint2_linear_13_1365)"/>
<path d="M19.8218 25.0242C20.3916 25.0307 21.2439 25.7986 21.4774 26.4913C21.8007 27.4569 22.3934 28.4289 22.3689 29.3847C22.3461 30.2963 23.1886 31.092 22.6253 32.0167C22.5828 32.0869 22.7069 32.2601 22.7559 32.3843C22.9469 32.8679 23.4531 33.3073 22.9551 33.8922C22.911 33.9445 22.9812 34.0981 23.0041 34.2026C23.1853 35.026 23.4629 35.8413 23.5249 36.6729C23.5853 37.4783 23.4025 38.3001 23.3649 39.117C23.3371 39.7149 23.3943 40.3161 23.378 40.9141C23.3486 41.963 23.3225 43.0151 23.2343 44.0607C23.1673 44.8694 23.0269 45.6732 22.8881 46.4737C22.7804 47.0995 22.6302 47.717 22.4865 48.3346C22.2138 49.4946 22.0669 50.7084 21.6146 51.7949C21.177 52.847 20.4341 53.7766 19.7842 54.7307C19.7124 54.8369 19.3499 54.8043 19.1442 54.7503C13.1274 53.1689 8.9296 48.3787 8.12464 42.0626C7.42418 36.5634 9.05369 31.8745 13.2581 28.1855C15.0639 26.6008 17.2208 25.6679 19.5279 25.0667C19.6324 25.0389 19.7418 25.0324 19.8251 25.0209L19.8218 25.0242Z" fill="#1EB05E"/>
<path d="M35.5551 4.55491C35.8408 3.91121 36.102 3.13518 36.507 2.44246C37.9373 -0.00653217 40.9301 -0.720482 43.3336 0.789106C44.4079 1.46385 45.3256 2.3428 45.7697 3.54198C45.9983 4.16117 46.0701 4.93721 45.9264 5.576C45.5868 7.07579 45.1639 8.57884 43.9377 9.67019C43.8054 9.78782 43.7238 9.98387 43.6683 10.1603C42.8584 12.7041 40.8534 13.9931 38.5659 14.9064C37.245 15.4341 36.0939 14.7479 35.5436 13.2481C35.1518 12.1845 34.822 11.0981 34.4987 10.01C34.417 9.73717 34.4676 9.42349 34.4644 9.12942C34.4595 8.56414 34.368 8.0299 34.2407 7.46952C34.048 6.61997 34.3713 5.63645 34.5738 4.73135C34.6015 4.60719 35.2024 4.61209 35.5534 4.55491H35.5551Z" fill="url(#paint3_linear_13_1365)"/>
<path d="M29.8469 53.5757C30.0641 53.1068 30.2812 52.6363 30.4984 52.1674L30.5523 52.1527C30.8184 51.3603 31.0878 50.5696 31.3458 49.7756C31.3915 49.6334 31.3458 49.4488 31.4193 49.3279C31.9287 48.4669 32.234 47.6043 31.8226 46.5881C31.7344 46.3708 32.0675 46.0049 32.0103 45.75C31.8209 44.9086 31.9205 44.144 32.3826 43.4203C31.496 42.7063 32.7745 41.8012 32.1785 41.0235C32.074 40.8863 32.3124 40.4746 32.4071 40.1952C32.621 39.5646 32.6243 39.5646 31.9712 39.1856C32.0479 38.9274 32.1753 38.6562 32.1981 38.3769C32.2291 38.0076 32.1638 37.6302 32.1671 37.2561C32.1687 36.9931 32.2242 36.7317 32.2406 36.4686C32.2944 35.5913 32.6357 34.5767 32.3091 33.8726C31.994 33.193 32.105 32.6211 32.0626 32.0069C31.9614 30.5152 31.6054 29.0824 31.1989 27.6529C31.1352 27.4323 31.2609 27.1562 31.3164 26.7968C36.1853 30.1705 38.7357 34.7385 38.4794 40.5694C38.2198 46.4999 35.1828 50.8359 30.0559 53.6966C29.9873 53.6541 29.9171 53.6116 29.8486 53.5708L29.8469 53.5757Z" fill="#1EB05E"/>
<path d="M30.6438 55.3842C29.6494 56.8464 28.7318 58.1828 27.8272 59.5274C26.1781 61.9764 24.6907 64.5561 22.8228 66.8221C21.9901 67.8334 21.1508 68.8415 20.372 69.9018C20.2969 70.003 20.0242 70.0357 19.8724 69.9933C18.5237 69.6159 17.1816 69.2123 15.7056 68.7794C16.295 67.572 16.8322 66.4023 17.4298 65.2652C17.8967 64.378 18.3996 63.5579 18.0045 62.4616C17.8706 62.0908 18.0633 61.55 18.2233 61.1334C18.7311 59.8215 19.3205 58.5423 19.825 57.2304C20.0242 56.7108 20.3263 56.7942 20.7688 56.786C22.5991 56.7484 24.4425 56.7337 26.25 56.4837C27.5578 56.3024 28.8134 55.7616 30.0968 55.3908C30.2192 55.3548 30.3597 55.3859 30.6421 55.3859L30.6438 55.3842Z" fill="url(#paint4_linear_13_1365)"/>
<path d="M6.16206 43.0821C6.82496 44.7191 7.44215 46.5669 8.31078 48.2872C8.95083 49.5534 9.93212 50.6431 10.7305 51.8308C10.8922 52.0694 11.0506 52.4304 10.9902 52.6804C10.4187 55.0379 9.79987 57.384 9.18921 59.7317C9.15002 59.882 9.07002 60.0208 9.03573 60.0993C8.28466 59.4098 7.63645 58.5652 6.78251 58.0996C5.91551 57.6258 4.84605 57.5261 3.76025 57.2337C3.93986 56.9429 4.09334 56.67 4.26968 56.4135C5.65916 54.3828 6.16532 52.1478 5.93184 49.7004C5.73917 47.6762 5.56936 45.6422 6.0249 43.6245C6.08368 43.3647 6.15553 43.1066 6.16206 43.0837V43.0821Z" fill="url(#paint5_linear_13_1365)"/>
<path d="M28.2632 25.0945C28.6175 25.6924 29.0436 26.2626 29.3081 26.8981C29.5939 27.5827 29.9319 28.3473 29.878 29.0481C29.8094 29.932 30.1229 30.6427 30.3988 31.3893C30.0549 31.6692 30.0423 32.3216 30.3613 33.3465C30.3205 33.7011 30.2078 34.0638 30.2502 34.4068C30.3645 35.3234 30.9246 36.4066 30.6062 37.1009C30.1637 38.0648 30.8446 38.9552 30.3727 39.7982C30.3172 39.8963 30.3678 40.0613 30.3841 40.192C30.4527 40.7262 30.5311 41.182 30.3058 41.7832C29.958 42.7112 30.0494 43.7977 29.9123 44.8122C29.8094 45.5784 29.6624 46.3398 29.4975 47.0962C29.2869 48.065 29.1073 49.0485 28.7873 49.983C28.4264 51.0336 27.8664 52.0154 27.4974 53.0627C27.1904 53.9318 26.5977 54.4514 25.8271 54.8418C25.6524 54.93 25.4728 55.0101 25.1299 55.1718C27.8942 50.3784 28.4199 45.2566 28.575 40.107C28.7301 34.946 28.464 29.7997 26.3398 24.8167C26.6908 25.0667 27.1904 25.2399 27.3602 25.5813C27.7586 26.3802 28.0264 27.2526 28.2975 28.1087C28.5179 28.8014 28.6665 29.517 28.8493 30.2375C29.2608 29.7588 29.1661 29.3177 28.9816 28.7688C28.5946 27.6121 28.3432 26.4096 28.0346 25.2268C28.1097 25.1827 28.1864 25.1386 28.2615 25.0945H28.2632ZM29.2967 30.9613C29.0632 31.4105 28.7791 31.6981 28.8199 31.9284C28.9408 32.6162 29.1873 33.2812 29.4159 34.0572C29.6608 34.0883 29.8665 33.9543 29.7212 33.4527C29.5547 32.8793 28.8444 32.3385 29.5873 31.6801C29.6265 31.6458 29.4796 31.4007 29.2983 30.9613H29.2967Z" fill="#1EB05E"/>
<path d="M24.823 52.0906C24.6483 52.1739 24.3822 52.2098 24.312 52.3454C23.9071 53.1264 23.5446 53.9302 23.1772 54.7307C22.8556 55.4332 22.3853 55.8188 21.5396 55.497C21.889 54.9415 22.2645 54.3876 22.5943 53.8077C23.0025 53.0888 23.4972 52.3879 23.734 51.6103C24.1601 50.2167 24.4769 48.7822 24.7349 47.3462C24.9357 46.227 24.9569 45.0769 25.1006 43.9463C25.2116 43.0641 25.3896 42.19 25.5349 41.3111C25.548 41.231 25.5513 41.1477 25.5447 41.0677C25.4696 40.138 25.3374 39.2084 25.3341 38.2772C25.3308 37.5077 25.4762 36.7382 25.5562 35.9671C25.5611 35.9132 25.5741 35.856 25.5643 35.8053C25.3815 34.8512 25.1888 33.9004 25.0173 32.9446C24.9765 32.7143 25.0059 32.4725 25.0027 32.2356C24.9994 32.0281 25.0386 31.8108 24.988 31.6148C24.8345 31.0266 24.4867 30.5446 24.6843 29.8111C24.8312 29.2671 24.4508 28.5678 24.2712 27.947C24.0671 27.2363 23.863 26.5223 23.5903 25.8378C23.4205 25.4147 23.1217 25.0438 22.7249 24.3952C23.2687 24.5749 23.8042 24.588 23.9512 24.833C24.3283 25.4604 25.0761 25.9048 24.9422 26.8344C24.8916 27.1938 25.1904 27.5957 25.2998 27.9878C25.4974 28.6985 25.6721 29.4157 25.8582 30.1297C25.9742 30.5692 26.4558 31.0103 25.8452 31.4481C25.8043 31.4775 25.8109 31.605 25.8272 31.6801C26.0182 32.6146 26.3154 33.541 26.3807 34.4836C26.4379 35.3332 26.9979 36.2056 26.3693 37.078C26.2599 37.23 26.3742 37.5502 26.3954 37.7903C26.5048 39.0353 26.6175 40.2786 26.7285 41.5235C26.7987 41.5365 26.8689 41.5496 26.9391 41.5627C26.9505 41.2588 26.9652 40.9533 26.975 40.6494C27.0028 39.6806 27.042 38.7118 27.0501 37.743C27.0534 37.4505 26.9375 37.1564 26.9375 36.8624C26.9375 36.5373 27.0273 36.2138 27.0371 35.887C27.0452 35.6076 27.0273 35.3201 26.9652 35.0489C26.8999 34.763 26.7677 34.4934 26.6371 34.1438C26.8656 34.085 27.0501 34.0376 27.2738 33.9788C27.909 40.6968 27.5628 47.2465 25.0353 53.5414C24.7969 54.136 24.4165 54.6817 24.0491 55.2143C23.9169 55.4071 23.6311 55.4921 23.4172 55.6277C23.365 55.5705 23.3127 55.5133 23.2605 55.4561C23.783 54.3288 24.3055 53.2032 24.8263 52.0726C24.8737 51.7508 24.81 51.2574 24.9896 51.143C25.8452 50.5908 25.5251 49.6171 25.8452 48.8819C26.2076 48.0519 26.1244 47.026 26.2436 46.0882C26.2599 45.9624 26.3579 45.8464 26.3693 45.7206C26.4281 45.1226 26.4705 44.5214 26.5179 43.9218C26.4493 43.9202 26.3791 43.9186 26.3105 43.9169C26.1962 44.7077 26.0835 45.4984 25.966 46.2875C25.8468 47.0848 25.7521 47.8869 25.5921 48.6744C25.4664 49.2887 25.3766 49.9651 25.0516 50.4715C24.6941 51.027 24.7104 51.5204 24.8263 52.0824L24.823 52.0906Z" fill="#1EB05E"/>
<path d="M42.5271 19.7553C42.0193 20.3696 41.7287 20.8843 41.2976 21.2143C40.1922 22.0573 39.6191 23.1633 39.513 24.5128C39.4657 25.119 39.1424 25.3673 38.6329 25.5094C38.5072 25.5437 38.3031 25.565 38.2737 25.6434C37.8966 26.6939 37.2059 26.2462 36.7536 25.8509C36.1201 25.2987 35.6058 24.5962 35.1094 23.91C35.0115 23.7744 35.1323 23.294 35.2956 23.183C36.1756 22.5785 37.0932 22.0295 38.0125 21.4855C38.3586 21.2813 38.9105 21.2404 39.0787 20.9529C39.8706 19.6116 41.2062 20.1393 42.5271 19.7586V19.7553Z" fill="url(#paint6_linear_13_1365)"/>
<path d="M30.3386 27.4421C30.5867 28.1659 30.8398 28.8864 31.0782 29.6134C31.1419 29.8078 31.1794 30.0153 31.1941 30.2179C31.2039 30.347 31.0945 30.4973 31.1288 30.61C31.3035 31.1589 31.7395 31.7373 31.6546 32.2323C31.4913 33.193 32.1493 33.9886 31.9109 34.9852C31.7068 35.838 31.9942 36.8068 32.035 37.725C32.0448 37.9472 31.9387 38.1759 31.8864 38.4014C31.7917 38.3916 31.697 38.3818 31.604 38.372C31.648 37.7838 31.6921 37.1957 31.7362 36.6091C31.7395 36.5552 31.7476 36.498 31.7362 36.4474C31.4978 35.4557 31.2448 34.4673 31.026 33.4707C30.9737 33.2289 31.0798 32.9528 31.0325 32.7077C30.9394 32.2127 30.7925 31.7291 30.6651 31.2406C30.5916 30.9596 30.3043 30.6476 30.8137 30.4662C30.8725 30.445 30.928 30.2669 30.9035 30.1852C30.6994 29.4909 30.4643 28.8047 30.2684 28.1087C30.203 27.8767 30.221 27.6219 30.2014 27.3768C30.2471 27.3997 30.2929 27.4209 30.3402 27.4438L30.3386 27.4421Z" fill="#1EB05E"/>
<path d="M24.441 34.6143C24.7267 37.2528 24.6794 39.8881 24.4737 42.6328C24.2451 42.4972 24.1618 42.4694 24.1634 42.4465C24.2255 41.548 24.2989 40.6494 24.3594 39.7508C24.3692 39.594 24.3381 39.4339 24.3136 39.2754C24.25 38.8637 23.925 38.4324 24.4116 38.0632C24.4263 38.0517 24.4247 38.0109 24.4214 37.9848C24.3169 37.0813 24.2075 36.1778 24.1112 35.2727C24.0883 35.0571 24.1079 34.8365 24.1079 34.6192C24.2189 34.6176 24.33 34.616 24.4394 34.6143H24.441Z" fill="#1EB05E"/>
<path d="M30.7435 49.9683L29.2822 52.9238C29.1646 52.8715 29.0487 52.8192 28.9312 52.7653C29.1385 52.2523 29.3051 51.7181 29.5663 51.2345C29.8341 50.7395 30.1965 50.2935 30.5182 49.8262C30.5933 49.8736 30.6684 49.9193 30.7419 49.9667L30.7435 49.9683Z" fill="#1EB05E"/>
<path d="M24.4277 43.7225C24.2383 45.1439 24.0489 46.5652 23.8595 47.985C23.7567 47.9686 23.6522 47.9539 23.5493 47.9376C24.111 46.575 23.6685 45.054 24.1779 43.6833C24.2612 43.6964 24.3445 43.7094 24.4277 43.7225Z" fill="#1EB05E"/>
<path d="M22.4964 26.4848C22.6107 26.4946 22.8164 26.4782 22.8279 26.5207C23.1152 27.4863 23.3846 28.4567 23.6442 29.4304C23.6573 29.4794 23.5577 29.5595 23.4875 29.6559C23.4157 29.5791 23.2932 29.5056 23.2932 29.4353C23.3144 28.3685 22.7919 27.4814 22.3756 26.5583C22.3723 26.5517 22.4621 26.5044 22.5078 26.4766L22.4964 26.4848Z" fill="#1EB05E"/>
<path d="M22.1878 53.1852C21.8269 53.8681 21.5314 54.4857 21.1673 55.0591C21.0971 55.1686 20.7493 55.1 20.5093 55.0264C21.195 54.5265 21.0661 53.3388 22.1878 53.1868V53.1852Z" fill="#1EB05E"/>
<path d="M22.5077 26.4783C22.1469 25.9032 21.7861 25.3265 21.4236 24.7514C22.0767 25.1598 22.7086 25.5797 22.4996 26.4832C22.4963 26.4864 22.5077 26.4783 22.5077 26.4783Z" fill="#1EB05E"/>
<path d="M29.2968 30.9612C29.478 31.3991 29.625 31.6458 29.5858 31.6801C28.8429 32.3385 29.5531 32.8793 29.7197 33.4527C29.865 33.9543 29.6593 34.0866 29.4144 34.0572C29.1874 33.2828 28.9392 32.6162 28.8184 31.9284C28.7776 31.6981 29.0617 31.4105 29.2952 30.9612H29.2968Z" fill="white"/>
<path d="M24.823 52.0906C24.7071 51.5269 24.6907 51.0335 25.0483 50.4797C25.3749 49.9732 25.463 49.2985 25.5888 48.6826C25.7488 47.8935 25.8451 47.0913 25.9627 46.2957C26.0802 45.5049 26.1929 44.7142 26.3072 43.9251C26.3757 43.9267 26.446 43.9284 26.5145 43.93C26.4672 44.5296 26.4247 45.1292 26.3659 45.7287C26.3529 45.8545 26.2566 45.9705 26.2402 46.0963C26.121 47.0357 26.2027 48.0601 25.8418 48.8901C25.5218 49.6252 25.8418 50.599 24.9863 51.1512C24.8067 51.2672 24.8703 51.7589 24.823 52.0808C24.823 52.0857 24.823 52.0889 24.823 52.0889V52.0906Z" fill="white"/>
</g>
<defs>
<linearGradient id="paint0_linear_13_1365" x1="18.0076" y1="70.0815" x2="18.0076" y2="80" gradientUnits="userSpaceOnUse">
<stop stop-color="#614092"/>
<stop offset="1" stop-color="#864FD7"/>
</linearGradient>
<linearGradient id="paint1_linear_13_1365" x1="4.20275" y1="58.4916" x2="4.20275" y2="67.6028" gradientUnits="userSpaceOnUse">
<stop stop-color="#614092"/>
<stop offset="1" stop-color="#864FD7"/>
</linearGradient>
<linearGradient id="paint2_linear_13_1365" x1="26.7415" y1="5.95392" x2="26.7415" y2="31.2292" gradientUnits="userSpaceOnUse">
<stop stop-color="#614092"/>
<stop offset="1" stop-color="#864FD7"/>
</linearGradient>
<linearGradient id="paint3_linear_13_1365" x1="40.0911" y1="0.000183105" x2="40.0911" y2="15.0828" gradientUnits="userSpaceOnUse">
<stop stop-color="#614092"/>
<stop offset="1" stop-color="#864FD7"/>
</linearGradient>
<linearGradient id="paint4_linear_13_1365" x1="23.1747" y1="55.3734" x2="23.1747" y2="70.0114" gradientUnits="userSpaceOnUse">
<stop stop-color="#614092"/>
<stop offset="1" stop-color="#864FD7"/>
</linearGradient>
<linearGradient id="paint5_linear_13_1365" x1="7.38178" y1="43.0821" x2="7.38178" y2="60.0993" gradientUnits="userSpaceOnUse">
<stop stop-color="#614092"/>
<stop offset="1" stop-color="#864FD7"/>
</linearGradient>
<linearGradient id="paint6_linear_13_1365" x1="38.8007" y1="19.7553" x2="38.8007" y2="26.293" gradientUnits="userSpaceOnUse">
<stop stop-color="#614092"/>
<stop offset="1" stop-color="#864FD7"/>
</linearGradient>
<clipPath id="clip0_13_1365">
<rect width="46" height="80" fill="white"/>
</clipPath>
</defs>
</svg>
