<svg width="105" height="80" viewBox="0 0 105 80" fill="none" xmlns="http://www.w3.org/2000/svg">
<g clip-path="url(#clip0_13_1846)">
<g filter="url(#filter0_d_13_1846)">
<path d="M6.71533 59.0804C13.6984 60.0527 20.0391 60.5254 26.0993 60.5254C27.202 60.5254 28.3034 60.5094 29.4019 60.4762C30.073 60.4705 30.7093 60.4242 31.3836 60.3751C31.7677 60.3472 32.1497 60.3194 32.5321 60.2985C32.8937 60.2698 33.3084 60.2436 33.7236 60.2178C34.3452 60.1789 34.9655 60.1408 35.5829 60.0777L40.1446 59.5031L41.6177 59.2287L44.5895 58.6626L47.5068 57.911C47.6689 57.8656 47.8753 57.8128 48.0809 57.7607C48.3425 57.6944 48.6021 57.6301 48.8559 57.5478L52.3612 56.3768L52.9827 56.1204C60.2377 53.334 66.257 48.9835 70.4419 43.5193C72.4564 40.9361 74.1355 37.9331 75.445 34.577C76.0673 32.9039 76.5636 31.2741 76.9083 29.7669L76.9226 29.7014C77.0148 29.2697 77.1057 28.8441 77.1769 28.4182L77.1921 28.3375C77.2559 28.0246 77.3047 27.7116 77.3481 27.4057L77.4185 26.8528C77.4594 26.5797 77.4212 26.3016 77.3301 26.041C77.2914 25.9303 77.2521 25.8198 77.2103 25.7102C77.2093 25.7076 77.2088 25.705 77.2088 25.7022C77.2088 25.6995 77.2084 25.6969 77.2074 25.6943C76.7959 24.6127 76.3357 23.5475 75.8356 22.5141C69.3716 9.18847 55.7105 0 39.9087 0C17.8699 0 0 17.8678 0 39.9216C0 46.0481 1.38214 51.8464 3.84463 57.0298C4.38159 58.1601 5.47594 58.9079 6.71533 59.0804Z" fill="url(#paint0_linear_13_1846)"/>
</g>
<path d="M79.8338 25.6572H79.8174L79.8338 25.6162V25.6572Z" fill="white"/>
<path d="M92.3055 27.2054C92.1991 28.1228 92.0599 29.0239 91.8961 29.9086C91.765 30.6376 91.6177 31.3503 91.4375 32.0548C89.5213 39.976 85.2631 46.5375 78.974 51.9193C69.9825 59.6194 56.8475 64.9193 40.4533 68.327L39.2331 68.2697L35.8675 68.0977C34.7538 68.0157 33.6401 67.8683 32.5264 67.7536C31.4209 67.6143 30.3154 67.5406 29.2181 67.3522C26.8678 67.0082 24.5422 66.5904 22.2329 66.1153C49.5921 64.9357 72.3082 59.603 80.8574 41.5488C82.3969 38.3131 83.4779 34.6679 84.0429 30.5639C84.1494 29.8349 84.2312 29.0976 84.2968 28.3358C84.3623 27.6477 84.4114 26.9433 84.4442 26.2306L92.3055 27.2054Z" fill="url(#paint1_linear_13_1846)"/>
<path d="M97.9396 27.9017C97.915 28.0409 97.8823 28.2621 97.8577 28.344L97.7922 28.6471C97.7513 28.8519 97.7021 29.0403 97.6612 29.2123C97.5711 29.5646 97.481 29.925 97.3828 30.2445V30.2526C97.1944 30.9244 96.9815 31.5551 96.7686 32.1859C96.3428 33.4474 95.8678 34.6597 95.3683 35.8557C94.3447 38.2312 93.1573 40.5003 91.847 42.6792C89.1856 47.0208 85.9756 50.9937 82.2333 54.3522C80.1942 56.1953 78.016 57.8664 75.7394 59.3327C73.8642 60.5532 71.9234 61.6427 69.9417 62.5929C67.7552 63.6742 65.4869 64.5179 63.2268 65.2798L59.812 66.2955L56.3644 67.0573L55.5046 67.2457L54.6448 67.3686L52.9169 67.6225L51.1972 67.8765C50.624 67.9584 50.0426 67.9748 49.4694 68.0321L46.0382 68.2942L42.6234 68.3352L40.9283 68.3516L40.4534 68.327C56.8476 64.9193 69.9826 59.6194 78.9741 51.9193C85.2632 46.5375 89.5214 39.976 91.4376 32.0548C91.6178 31.3503 91.7652 30.6376 91.8962 29.9086C92.06 29.0239 92.1992 28.1228 92.3056 27.2054L97.3172 27.8279H97.3254L97.9396 27.9017Z" fill="url(#paint2_linear_13_1846)"/>
<path d="M6.81314 62.0113C11.8575 63.6332 16.992 65.034 22.2329 66.1153C49.5921 64.9357 72.3082 59.603 80.8574 41.5488C82.3969 38.3131 83.4778 34.6679 84.0429 30.5639C84.1493 29.8349 84.2312 29.0976 84.2967 28.3358C84.3622 27.6477 84.4114 26.9432 84.4441 26.2306L81.3242 25.8456H81.316L79.8338 25.6572V25.7145C79.842 25.7718 79.842 25.8538 79.8338 25.9439C79.8174 26.1241 79.8174 26.3043 79.7928 26.5091C79.7765 26.7139 79.7519 26.9351 79.7191 27.1562C79.6946 27.3446 79.67 27.5412 79.6454 27.7296C79.5963 28.0819 79.539 28.4423 79.4653 28.8027C79.3834 29.2942 79.2769 29.7857 79.1705 30.2854C78.7774 32.0056 78.2369 33.7259 77.6064 35.4215C76.2962 38.78 74.5519 42.0239 72.2836 44.9319C67.8042 50.7807 61.3759 55.3843 53.8667 58.2678L53.1706 58.5545L52.4582 58.792L51.0169 59.2753L49.5675 59.7586C49.0844 59.9143 48.5848 60.0208 48.0853 60.16L45.0964 60.93L42.0419 61.5116L40.5024 61.7983L38.9465 61.9949L35.8183 62.3881C34.7701 62.4946 33.7138 62.5356 32.6574 62.6175C31.601 62.6748 30.5365 62.7895 29.4719 62.7977C21.8398 63.0271 14.1013 62.4537 6.39551 61.3806L6.81314 62.0113Z" fill="url(#paint3_linear_13_1846)"/>
<g filter="url(#filter1_d_13_1846)">
<path d="M69.9416 64.6244C70.8386 64.1963 71.7255 65.2179 71.0766 65.9708C63.667 74.5666 52.6929 80 40.4532 80C32.6074 80 25.2831 77.7639 19.0833 73.8949C15.4858 71.6498 18.0811 67.2834 22.2329 68.1468C24.5422 68.6219 26.8678 69.0397 29.218 69.3837C30.3154 69.5721 31.4209 69.6459 32.5264 69.7851C33.6401 69.8998 34.7538 70.0472 35.8674 70.1292L39.2331 70.3012L40.4532 70.3585L40.9282 70.3831L42.6233 70.3667L46.0381 70.3258L49.4692 70.0636C50.0425 70.0063 50.6239 69.9899 51.1971 69.908L52.9168 69.6541L54.6446 69.4001L55.5045 69.2772L56.3643 69.0888L59.8119 68.327L63.2266 67.3113C65.4868 66.5495 67.7551 65.7057 69.9416 64.6244Z" fill="url(#paint4_linear_13_1846)"/>
</g>
<path d="M38.5483 48.528C35.6043 48.528 33.0603 47.816 30.9163 46.392C28.7723 44.968 27.1243 42.968 25.9723 40.392C24.8363 37.816 24.2683 34.792 24.2683 31.32C24.2683 27.512 24.8443 24.224 25.9963 21.456C27.1643 18.688 28.8363 16.56 31.0123 15.072C33.1883 13.568 35.7963 12.816 38.8363 12.816C41.0123 12.816 43.0203 13.216 44.8603 14.016C46.7003 14.8 48.1963 15.944 49.3483 17.448C50.5163 18.936 51.1563 20.728 51.2683 22.824H44.8603C44.4443 21.368 43.7403 20.264 42.7483 19.512C41.7563 18.744 40.5003 18.36 38.9803 18.36C37.3163 18.36 35.9323 18.832 34.8282 19.776C33.7243 20.72 32.9323 22.04 32.4523 23.736C31.9723 25.432 31.8443 27.408 32.0683 29.664C32.5963 28.896 33.2683 28.248 34.0843 27.72C34.9003 27.176 35.8123 26.76 36.8203 26.472C37.8283 26.184 38.8763 26.04 39.9643 26.04C42.3163 26.04 44.3723 26.48 46.1323 27.36C47.8923 28.224 49.2683 29.456 50.2603 31.056C51.2523 32.656 51.7483 34.528 51.7483 36.672C51.7483 38.944 51.1883 40.976 50.0683 42.768C48.9643 44.544 47.4203 45.952 45.4363 46.992C43.4523 48.016 41.1563 48.528 38.5483 48.528ZM38.3083 43.152C39.4283 43.152 40.4363 42.896 41.3323 42.384C42.2443 41.856 42.9723 41.128 43.5163 40.2C44.0603 39.272 44.3323 38.208 44.3323 37.008C44.3323 35.728 44.0683 34.664 43.5403 33.816C43.0123 32.968 42.2923 32.336 41.3803 31.92C40.4843 31.488 39.4683 31.272 38.3323 31.272C37.3403 31.272 36.3803 31.496 35.4523 31.944C34.5403 32.376 33.7883 32.936 33.1963 33.624C32.6203 34.296 32.3323 34.984 32.3323 35.688C32.3163 37.24 32.5563 38.576 33.0523 39.696C33.5643 40.8 34.2683 41.656 35.1643 42.264C36.0763 42.856 37.1243 43.152 38.3083 43.152Z" fill="white"/>
<path d="M90.8875 32.092C83.106 32.092 76.7751 25.7587 76.7751 17.9747C76.7751 10.1907 83.106 3.85779 90.8875 3.85779C98.6691 3.85779 105 10.1907 105 17.9747C105 25.7587 98.6691 32.092 90.8875 32.092Z" fill="white"/>
<path d="M103.613 17.9756C103.613 20.5452 102.85 22.9384 101.539 24.9392C101.378 25.1882 101.206 25.4319 101.025 25.6678C100.755 26.027 100.465 26.3699 100.156 26.6975C96.6698 23.8002 93.6178 20.7103 91.2303 17.3231C88.8367 13.9244 87.1105 10.23 86.2678 6.11172C86.6777 5.95198 87.0965 5.81354 87.5269 5.69681C87.811 5.61817 88.0993 5.54936 88.3924 5.49243C89.1982 5.33106 90.0335 5.24628 90.8876 5.24628C97.9162 5.24628 103.614 10.9456 103.614 17.9764L103.613 17.9756Z" fill="#EF0000"/>
<path d="M90.2971 17.9813C87.874 14.5441 86.0954 10.776 85.2008 6.58521C84.5231 6.92434 83.8795 7.32163 83.2776 7.77175C84.1251 11.9892 85.8968 15.7679 88.365 19.2416C90.8229 22.7001 93.9736 25.8522 97.575 28.8064C98.1986 28.4202 98.7862 27.982 99.332 27.4974C95.8304 24.5771 92.7387 21.4451 90.2971 17.9817V17.9813Z" fill="#9F0000"/>
<path d="M96.4819 29.4106C96.0974 29.5998 95.7015 29.7685 95.2965 29.9172C94.9702 30.0393 94.6377 30.147 94.2991 30.2396C93.2141 30.5431 92.0705 30.7044 90.8876 30.7044C83.8591 30.7044 78.1616 25.0052 78.1616 17.976C78.1616 15.0803 79.1287 12.4102 80.7559 10.2722C80.9843 9.97406 81.2243 9.68571 81.4753 9.41007C81.7279 9.13196 81.9932 8.86533 82.2684 8.61139C83.1949 12.7604 84.9895 16.499 87.4172 19.9157C89.8718 23.3677 92.9709 26.4944 96.4815 29.411L96.4819 29.4106Z" fill="#EF0000"/>
<path d="M88.3924 5.492C88.4607 5.79304 88.5344 6.09122 88.613 6.38693C88.6765 6.62449 88.5357 6.86696 88.2982 6.93044C88.0607 6.99393 87.8183 6.85303 87.7548 6.61548C87.6738 6.31075 87.5976 6.0048 87.5264 5.69638L88.3919 5.492H88.3924Z" fill="white"/>
<path d="M96.6527 21.5798C97.2263 22.177 97.8188 22.7643 98.4289 23.3427C98.607 23.5114 98.8879 23.504 99.057 23.3259C99.2257 23.1477 99.2183 22.8663 99.0402 22.6976C98.4395 22.1279 97.8565 21.5504 97.2931 20.9638C97.1231 20.7869 96.8419 20.7812 96.665 20.9516C96.4881 21.1215 96.4824 21.4029 96.6527 21.5798ZM93.3812 17.7831C93.8857 18.4433 94.4138 19.0917 94.9646 19.7286C95.1251 19.9141 95.4055 19.9346 95.591 19.7744C95.7765 19.6139 95.797 19.3333 95.6369 19.1478C95.0976 18.5236 94.5805 17.8887 94.0871 17.2436C93.9381 17.0487 93.6592 17.0114 93.4643 17.1605C93.2694 17.3096 93.2322 17.5885 93.3812 17.7835V17.7831ZM90.6105 13.5935C91.0199 14.3225 91.4581 15.0372 91.9228 15.7384C92.0583 15.9428 92.3339 15.9989 92.5386 15.863C92.7429 15.7274 92.799 15.4517 92.663 15.247C92.2098 14.5634 91.7831 13.8671 91.3848 13.1581C91.2648 12.9443 90.9937 12.8681 90.78 12.9881C90.5663 13.1081 90.4901 13.3793 90.6101 13.5931L90.6105 13.5935ZM88.5088 9.02096C88.7954 9.81349 89.1152 10.59 89.4661 11.3515C89.5689 11.5743 89.8325 11.6717 90.0553 11.5689C90.278 11.4661 90.3755 11.2024 90.2727 10.9796C89.932 10.2403 89.6221 9.48706 89.3441 8.71869C89.2606 8.48809 89.0059 8.3685 88.7754 8.45205C88.5448 8.53561 88.4253 8.79036 88.5088 9.02096Z" fill="white"/>
<path d="M101.54 24.9392C101.378 25.1882 101.206 25.4319 101.026 25.6679C100.776 25.4557 100.527 25.2427 100.282 25.0281V25.0293C100.098 24.8667 100.079 24.5862 100.241 24.4023C100.402 24.2167 100.682 24.1979 100.867 24.3593C101.089 24.5534 101.314 24.7475 101.54 24.9392H101.54Z" fill="white"/>
<path d="M81.416 11.093C81.1773 11.1541 80.9361 11.0091 80.8767 10.7707C80.835 10.6056 80.7944 10.4393 80.7563 10.2718C80.9848 9.97366 81.2248 9.68531 81.4757 9.40967C81.5556 9.79426 81.6432 10.1764 81.7386 10.5548C81.7984 10.7924 81.6534 11.0336 81.4164 11.093H81.416Z" fill="white"/>
<path d="M83.411 15.3321C83.0634 14.5642 82.7473 13.7806 82.4668 12.9807C82.3858 12.7485 82.1332 12.6265 81.901 12.708C81.6701 12.7891 81.5481 13.043 81.6295 13.2752C81.919 14.1005 82.2437 14.9078 82.6032 15.6987C82.7035 15.9219 82.9676 16.0223 83.1908 15.9207C83.4143 15.8191 83.513 15.5562 83.4114 15.3317L83.411 15.3321ZM85.8755 19.7654C85.4059 19.0556 84.9641 18.3335 84.5542 17.5971C84.4351 17.3825 84.1632 17.3063 83.9503 17.4259C83.7357 17.5455 83.6583 17.8158 83.7775 18.0304C84.2 18.7869 84.6533 19.5299 85.1356 20.2573C85.2716 20.4617 85.5467 20.5174 85.751 20.3818C85.9553 20.2458 86.0114 19.9706 85.8755 19.7662V19.7654ZM88.9684 23.8026C88.4063 23.1575 87.8683 22.5014 87.3552 21.8334C87.2054 21.6392 86.9261 21.6024 86.7321 21.7523C86.538 21.9009 86.5011 22.1803 86.6493 22.3744C87.1747 23.0576 87.7245 23.7277 88.2978 24.3867C88.4591 24.5722 88.7396 24.591 88.9246 24.4297C89.1085 24.2683 89.1289 23.9877 88.9676 23.8026H88.9684ZM92.5171 27.4667C91.8903 26.8802 91.2822 26.2834 90.6947 25.6793C90.5248 25.5028 90.2426 25.4991 90.0678 25.6703C89.8913 25.8403 89.8877 26.1221 90.0576 26.2986C90.6554 26.9142 91.2736 27.5187 91.9107 28.1155C92.0897 28.283 92.3701 28.274 92.5388 28.095C92.7063 27.916 92.696 27.6342 92.5171 27.4667Z" fill="white"/>
<path d="M95.2965 29.9168C94.9702 30.0388 94.6377 30.1465 94.2991 30.2391C94.1456 30.1109 93.9945 29.9803 93.8434 29.8504C93.6567 29.6907 93.6366 29.4097 93.7963 29.2234C93.9576 29.0378 94.2381 29.0177 94.4232 29.1775C94.7114 29.4249 95.0017 29.6714 95.2965 29.9164V29.9168Z" fill="white"/>
</g>
<defs>
<filter id="filter0_d_13_1846" x="-4" y="-4" width="85.4348" height="68.5254" filterUnits="userSpaceOnUse" color-interpolation-filters="sRGB">
<feFlood flood-opacity="0" result="BackgroundImageFix"/>
<feColorMatrix in="SourceAlpha" type="matrix" values="0 0 0 0 0 0 0 0 0 0 0 0 0 0 0 0 0 0 127 0" result="hardAlpha"/>
<feOffset/>
<feGaussianBlur stdDeviation="2"/>
<feComposite in2="hardAlpha" operator="out"/>
<feColorMatrix type="matrix" values="0 0 0 0 0 0 0 0 0 0 0 0 0 0 0 0 0 0 0.25 0"/>
<feBlend mode="normal" in2="BackgroundImageFix" result="effect1_dropShadow_13_1846"/>
<feBlend mode="normal" in="SourceGraphic" in2="effect1_dropShadow_13_1846" result="shape"/>
</filter>
<filter id="filter1_d_13_1846" x="13.3782" y="60.5232" width="61.9214" height="23.4768" filterUnits="userSpaceOnUse" color-interpolation-filters="sRGB">
<feFlood flood-opacity="0" result="BackgroundImageFix"/>
<feColorMatrix in="SourceAlpha" type="matrix" values="0 0 0 0 0 0 0 0 0 0 0 0 0 0 0 0 0 0 127 0" result="hardAlpha"/>
<feOffset/>
<feGaussianBlur stdDeviation="2"/>
<feComposite in2="hardAlpha" operator="out"/>
<feColorMatrix type="matrix" values="0 0 0 0 0 0 0 0 0 0 0 0 0 0 0 0 0 0 0.25 0"/>
<feBlend mode="normal" in2="BackgroundImageFix" result="effect1_dropShadow_13_1846"/>
<feBlend mode="normal" in="SourceGraphic" in2="effect1_dropShadow_13_1846" result="shape"/>
</filter>
<linearGradient id="paint0_linear_13_1846" x1="2.84052" y1="4.32324" x2="87.1869" y2="27.8574" gradientUnits="userSpaceOnUse">
<stop stop-color="#502384"/>
<stop offset="1" stop-color="#614092"/>
</linearGradient>
<linearGradient id="paint1_linear_13_1846" x1="35.0031" y1="70.5813" x2="78.4146" y2="38.6472" gradientUnits="userSpaceOnUse">
<stop stop-color="#F15024"/>
<stop offset="1" stop-color="#FBDB0C"/>
</linearGradient>
<linearGradient id="paint2_linear_13_1846" x1="71.9545" y1="68.7157" x2="68.3131" y2="41.534" gradientUnits="userSpaceOnUse">
<stop stop-color="#F15024"/>
<stop offset="1" stop-color="#FBDB0C"/>
</linearGradient>
<linearGradient id="paint3_linear_13_1846" x1="95.7944" y1="33.9601" x2="8.68883" y2="63.3095" gradientUnits="userSpaceOnUse">
<stop stop-color="#F15024"/>
<stop offset="1" stop-color="#FBDB0C"/>
</linearGradient>
<linearGradient id="paint4_linear_13_1846" x1="11.1177" y1="63.8895" x2="56.8644" y2="101.201" gradientUnits="userSpaceOnUse">
<stop stop-color="#502384"/>
<stop offset="1" stop-color="#614092"/>
</linearGradient>
<clipPath id="clip0_13_1846">
<rect width="105" height="80" fill="white"/>
</clipPath>
</defs>
</svg>
