<svg width="79" height="80" viewBox="0 0 79 80" fill="none" xmlns="http://www.w3.org/2000/svg">
<path d="M72.1311 41.3115C72.1311 43.4844 70.3696 45.2459 68.1967 45.2459H51.1475C49.1876 45.2456 47.5268 43.8029 47.2524 41.8623L47.1737 41.3377L42.2819 49.7967L47.8688 54.2689C49.0303 55.2028 49.7407 56.586 49.8232 58.0741C49.9058 59.5622 49.3527 61.0155 48.3016 62.0721L33.8754 76.4984C31.8256 78.5482 28.5022 78.5482 26.4524 76.4984C24.4026 74.4486 24.4026 71.1252 26.4524 69.0754L36.7344 58.7934L31.7639 54.8197L10.1639 75.2787C8.04449 77.1278 4.84394 76.9763 2.90859 74.9354C0.973239 72.8945 0.991847 69.6904 2.95077 67.6721L26.859 45.023L36.5377 28.3279L37.495 26.6623L40.6032 21.2721L40.9704 20.6295C41.9855 24.326 45.347 26.8874 49.1803 26.8853C50.4819 26.8885 51.7663 26.5876 52.9311 26.0066L53.5475 30.3344L54.5573 37.3771H68.1967C68.8018 37.3747 69.3992 37.5139 69.9409 37.7836C71.2826 38.4472 72.1316 39.8146 72.1311 41.3115Z" fill="#A988D8"/>
<path d="M68.1966 37.377H64.2622C66.4351 37.377 68.1966 39.1385 68.1966 41.3115C68.1966 43.4844 66.4351 45.2459 64.2622 45.2459H68.1966C70.3696 45.2459 72.1311 43.4844 72.1311 41.3115C72.1311 39.1385 70.3696 37.377 68.1966 37.377Z" fill="#603E91"/>
<path d="M46.5194 35.6642L40.0407 46.8695C39.0677 48.5527 39.4701 50.6942 40.9876 51.9095L43.9345 54.2701C45.096 55.2041 45.8064 56.5873 45.8889 58.0754C45.9714 59.5635 45.4184 61.0167 44.3673 62.0734L29.941 76.4997C29.4432 76.9975 28.8499 77.3896 28.1968 77.6524C30.1497 78.4401 32.3842 77.9864 33.8755 76.4997L48.3017 62.0734C49.3528 61.0167 49.9059 59.5635 49.8233 58.0754C49.7408 56.5873 49.0304 55.2041 47.8689 54.2701L42.282 49.798L47.1948 41.3023L46.5194 35.6642Z" fill="#603E91"/>
<path d="M47.1739 41.3377L45.8755 32.223L47.1739 41.3377Z" fill="#A988D8"/>
<path d="M40.6034 21.2721L37.4952 26.6623L36.5378 28.3279L33.9542 25.7443L23.6198 35.0557C22.0045 36.5116 19.515 36.3824 18.0591 34.7672C16.6032 33.152 16.7324 30.6624 18.3476 29.2066L31.4624 17.4033C33.0186 16.0025 35.3993 16.0659 36.8788 17.5475L40.6034 21.2721Z" fill="#603E91"/>
<path d="M57.7049 18.3607C57.7036 21.6116 55.8514 24.5781 52.9311 26.0066C51.7664 26.5876 50.482 26.8885 49.1803 26.8853C45.347 26.8874 41.9855 24.326 40.9705 20.6295C40.9311 20.4984 40.8918 20.3541 40.8656 20.223C40.7217 19.6128 40.6512 18.9876 40.6557 18.3607C40.659 17.1626 40.9136 15.9786 41.4033 14.8853C41.6069 15.0152 41.8437 15.0835 42.0852 15.082H57.0492C57.4825 16.1207 57.7054 17.2351 57.7049 18.3607Z" fill="#FFE0B2"/>
<path d="M57.0491 15.082H53.1147C54.8479 19.2395 53.043 24.0277 48.9966 26.0066C48.4433 26.2822 47.8609 26.4951 47.2603 26.6413C47.8889 26.7954 48.5331 26.8772 49.1803 26.8852C50.4819 26.8885 51.7663 26.5876 52.9311 26.0066C56.9774 24.0277 58.7823 19.2395 57.0491 15.082Z" fill="#DFC49C"/>
<path d="M57.7049 15.082L42.0852 15.082C41.8437 15.0835 41.6068 15.0152 41.4032 14.8853C40.944 14.6328 40.6962 14.1162 40.7868 13.6C41.5586 9.25117 45.5242 6.21204 49.9242 6.59747C54.3241 6.98289 57.7009 10.6652 57.7049 15.082Z" fill="#FFCA28"/>
<path d="M49.1804 6.55737C48.53 6.56551 47.8827 6.64824 47.2512 6.80393C51.0737 7.72905 53.7672 11.1491 53.7706 15.082H57.705C57.705 12.8211 56.8069 10.6528 55.2082 9.05417C53.6095 7.4555 51.4413 6.55737 49.1804 6.55737Z" fill="#37474F"/>
<path d="M77.4425 4.47214L72.6687 30.2689C72.6051 30.6118 72.4075 30.9153 72.1195 31.1122C71.8316 31.3091 71.477 31.3832 71.1343 31.318L65.9802 30.3607C65.6372 30.297 65.3337 30.0994 65.1368 29.8114C64.94 29.5235 64.8659 29.1689 64.931 28.8262L69.7048 3.04263C69.7684 2.69965 69.9661 2.39615 70.2541 2.19925C70.542 2.00236 70.8965 1.9283 71.2392 1.99345L76.3933 2.95083C77.1016 3.08356 77.5701 3.76291 77.4425 4.47214Z" fill="#FFE0B2"/>
<path d="M76.3935 2.95082L71.2394 1.99344C70.7558 1.90671 70.2643 2.09754 69.9659 2.48787L72.4577 2.95082C73.166 3.08355 73.6346 3.7629 73.5069 4.47213L68.7345 30.2689C68.6932 30.4719 68.6031 30.6618 68.4722 30.8223L71.1371 31.318C71.4798 31.3832 71.8343 31.3091 72.1223 31.1122C72.4102 30.9153 72.6079 30.6118 72.6715 30.2689L77.4427 4.47213C77.5703 3.7629 77.1018 3.08355 76.3935 2.95082Z" fill="#DFC49C"/>
<path d="M71.1343 31.318L69.9409 37.7836C69.3992 37.5139 68.8018 37.3747 68.1966 37.3771H64.6819L65.9802 30.3607L71.1343 31.318Z" fill="#F44335"/>
<path d="M76.6335 1.65508L71.4755 0.700328C70.0528 0.441489 68.6876 1.37819 68.4171 2.79869L63.6381 28.5902C63.5096 29.2755 63.6602 29.9837 64.0565 30.5574C64.1884 30.7426 64.3435 30.9101 64.5181 31.0557L63.5909 36.0656H55.6945L54.3568 26.7095C57.8632 24.5495 59.6449 20.4275 58.8158 16.3934H62.9509C63.6752 16.3934 64.2624 15.8063 64.2624 15.082C64.2624 14.3577 63.6752 13.7705 62.9509 13.7705H58.9181C58.2587 8.97915 54.2139 5.37815 49.3784 5.27759C44.5429 5.17704 40.3519 8.60677 39.4939 13.3666C39.389 14.0013 39.5297 14.6521 39.8873 15.1869C39.5582 16.1476 39.3812 17.1538 39.3627 18.1692L37.8139 16.6203C35.8411 14.6456 32.6675 14.5614 30.5929 16.4289L17.4781 28.2321C15.3248 30.1729 15.1524 33.4919 17.0932 35.6452C19.034 37.7986 22.353 37.9709 24.5063 36.0302L33.9162 27.5515L34.8945 28.5298L25.8191 44.1967L2.04731 66.7213C-0.424457 69.2409 -0.458434 73.2649 1.97043 75.8259C4.3993 78.3868 8.4195 78.5658 11.0663 76.2308L31.8375 56.5587L34.7712 58.9036L25.5253 68.1495C22.9635 70.7114 22.9635 74.865 25.5253 77.4269C28.0872 79.9888 32.2408 79.9888 34.8027 77.4269L49.2355 63.0007C50.5475 61.6793 51.2371 59.8633 51.1328 58.0041C51.0285 56.145 50.1402 54.4175 48.6886 53.2511L43.9817 49.4846L46.926 44.3934C47.9081 45.7462 49.476 46.5499 51.1476 46.5574H68.1968C70.4419 46.5656 72.4413 45.1391 73.164 43.0135C73.8867 40.8879 73.1711 38.5383 71.3863 37.1764L72.2532 32.4826C72.4683 32.4112 72.6729 32.3115 72.8617 32.1862C73.4373 31.7942 73.8313 31.1875 73.9555 30.5023L78.7345 4.71213C78.9985 3.28778 78.0579 1.91909 76.6335 1.65508ZM49.1804 25.5738C45.7993 25.5609 42.8768 23.2105 42.1391 19.9108C42.0203 19.4028 41.9626 18.8824 41.9673 18.3607C41.9705 17.6947 42.0672 17.0325 42.2545 16.3934H56.0853C56.7477 18.5659 56.332 20.924 54.9668 22.7391C53.6016 24.5541 51.4513 25.6075 49.1804 25.5738ZM49.1804 7.86885C52.6569 7.87315 55.6375 10.3528 56.2742 13.7705H42.0906C42.7159 10.3477 45.701 7.86293 49.1804 7.86885ZM34.8853 24.817C34.3921 24.324 33.5991 24.3032 33.0808 24.7698L22.7476 34.0813C21.6572 35.0171 20.0245 34.9328 19.0362 33.8898C18.5695 33.3729 18.3276 32.6916 18.3638 31.9961C18.3999 31.3006 18.7112 30.6481 19.2289 30.1823L32.3437 18.379C33.3812 17.4445 34.969 17.4865 35.9555 18.4748L38.9653 21.4911L36.248 26.1862L34.8853 24.817ZM68.1968 43.9344H51.1476C49.8398 43.9268 48.7347 42.9628 48.5496 41.6682L47.1739 32.038C47.1078 31.5739 46.7992 31.1803 46.3642 31.0055C45.9293 30.8307 45.4341 30.9012 45.0652 31.1904C44.6963 31.4797 44.5098 31.9438 44.5758 32.4079L45.8139 41.0702L41.1476 49.141C41.1028 49.2748 41.059 49.409 41.0165 49.5436C41.0021 49.6241 40.9955 49.7058 40.9968 49.7875C40.9939 49.871 40.9996 49.9545 41.0139 50.0367C41.0312 50.1175 41.0557 50.1965 41.0873 50.2728C41.1167 50.3503 41.1531 50.4249 41.1962 50.4957C41.2447 50.5677 41.3005 50.6345 41.3627 50.6951C41.3946 50.7412 41.4297 50.785 41.4676 50.8262L47.0558 55.2997C47.9255 56.0007 48.4572 57.0376 48.5189 58.1529C48.5807 59.2682 48.1667 60.3574 47.3798 61.1502L32.9535 75.5764C31.3936 77.0596 28.9449 77.0596 27.385 75.5764C25.8506 74.0373 25.8506 71.547 27.385 70.0079L37.667 59.7259C37.9307 59.462 38.0695 59.0983 38.0487 58.7258C38.028 58.3533 37.8495 58.0074 37.5581 57.7744L32.5889 53.8007C32.0777 53.392 31.3435 53.4228 30.8683 53.8728L9.26042 74.3279C8.51211 75.0561 7.49871 75.447 6.45518 75.4098C4.86862 75.3637 3.46517 74.3688 2.89641 72.8869C2.32765 71.4051 2.70497 69.7267 3.85321 68.6308L27.7601 45.9816C27.8494 45.8972 27.9262 45.8005 27.9883 45.6944L37.7011 28.9075C37.7155 28.8774 37.7391 28.8511 37.7509 28.8197L40.8093 23.5331C43.1064 27.2886 47.6291 29.0471 51.8598 27.8295L53.2539 37.5777C53.3533 38.2198 53.9078 38.6923 54.5575 38.6885H68.1968C69.6454 38.6885 70.8198 39.8629 70.8198 41.3115C70.8198 42.7601 69.6454 43.9344 68.1968 43.9344ZM68.1968 36.0656H66.2585L67.0309 31.8898L69.608 32.3685L68.9116 36.1377C68.6753 36.097 68.4365 36.0729 68.1968 36.0656ZM71.3785 30.0328L66.2204 29.078L70.9968 3.27869L76.1548 4.23475L71.3785 30.0328Z" fill="#48257B"/>
<path d="M6.55733 50.4918C5.83302 50.4918 5.24585 51.079 5.24585 51.8033C5.24585 52.5276 5.83302 53.1147 6.55733 53.1147H13.1147C13.839 53.1147 14.4262 52.5276 14.4262 51.8033C14.4262 51.079 13.839 50.4918 13.1147 50.4918H6.55733Z" fill="#2D0F57"/>
<path d="M19.6722 46.5574C19.6722 45.8331 19.0851 45.2459 18.3608 45.2459H3.93452C3.21021 45.2459 2.62305 45.8331 2.62305 46.5574C2.62305 47.2817 3.21021 47.8689 3.93452 47.8689H18.3608C19.0851 47.8689 19.6722 47.2817 19.6722 46.5574Z" fill="#2D0F57"/>
<path d="M1.31148 42.623H23.6066C24.3309 42.623 24.918 42.0358 24.918 41.3115C24.918 40.5872 24.3309 40 23.6066 40H1.31148C0.587168 40 0 40.5872 0 41.3115C0 42.0358 0.587168 42.623 1.31148 42.623Z" fill="#2D0F57"/>
</svg>
