<svg width="77" height="80" viewBox="0 0 77 80" fill="none" xmlns="http://www.w3.org/2000/svg">
<path d="M70.694 76.5416C70.315 77.4894 68.9536 77.989 67.713 78.4198C63.2328 80.0223 57.8912 80.2291 52.8596 79.8155C51.4467 79.6949 50.0164 79.6605 48.638 79.402C45.3029 78.8034 42.2175 77.2962 34.56 76.9552C23.802 76.456 22.4342 77.9466 14.8301 78.9023C14.3132 78.9712 13.7618 79.0401 13.2448 78.954C12.0261 78.7968 11.6171 77.9792 12.6589 77.2998C13.3052 76.9064 14.292 76.5975 14.3304 76.2142C14.3821 75.973 14.0547 75.7662 13.6928 75.7145C13.331 75.6456 12.9691 75.7145 12.6244 75.8006C10.057 76.4383 7.93756 77.989 5.21498 77.9718C1.41505 77.923 -0.31295 75.0631 1.35518 73.6639C2.32939 72.8342 4.07681 72.2509 5.30112 71.8892C11.918 69.942 19.517 70.39 26.7196 70.8897C69.7638 73.8119 68.2165 73.5418 69.6257 74.1637C70.7974 74.6806 71.0387 75.6972 70.694 76.5416Z" fill="#00C6C5"/>
<path d="M70.694 76.5416C70.315 77.4893 68.9536 77.989 67.713 78.4198C63.2328 80.0223 57.8912 80.2291 52.8596 79.8155C51.4467 79.6949 50.0164 79.6605 48.638 79.402C45.3029 78.8034 42.2175 77.2962 34.56 76.9552C23.802 76.4559 22.4342 77.9466 14.8301 78.9023C14.3132 78.9712 13.7618 79.0401 13.2448 78.954C12.0261 78.7968 11.6171 77.9792 12.6589 77.2998C13.3052 76.9064 14.292 76.5975 14.3304 76.2142C14.3821 75.973 14.0547 75.7662 13.6928 75.7145C13.331 75.6456 12.9691 75.7145 12.6244 75.8006C10.057 76.4383 7.93756 77.989 5.21498 77.9718C1.41505 77.923 -0.31295 75.0631 1.35518 73.6639C1.82046 73.2676 2.40626 72.9575 3.04382 72.6817C3.1472 73.595 3.73311 74.5255 4.57743 74.9219C6.6629 75.9073 8.98586 74.8778 14.6233 73.2504C15.5365 72.992 16.6737 72.7851 17.2941 73.5088C17.9778 74.3065 17.4763 75.3769 17.0256 76.1303C16.3229 77.3051 17.0049 78.3783 18.6557 77.326C20.2621 76.302 21.9601 75.422 23.722 74.6974C25.3088 74.0448 27.3914 73.0595 29.1309 73.1273C32.4609 73.257 34.361 72.7871 41.194 74.0258C50.7013 75.7772 62.1297 79.4665 66.5586 75.0769C66.9721 74.6634 67.3168 74.1981 67.6441 73.6984C68.3506 73.7673 69.0399 73.9052 69.6257 74.1637C70.7974 74.6806 71.0387 75.6972 70.694 76.5416Z" fill="#018E9A"/>
<path d="M21.886 4.03217H9.34153C8.94525 4.03217 8.65234 3.72202 8.65234 3.34287V3.25674C8.65234 2.8777 8.94525 2.56744 9.34153 2.56744H21.886C22.8065 2.56744 22.8064 4.03217 21.886 4.03217Z" fill="#095DA4"/>
<path d="M22.5753 3.23949C22.0822 3.3805 21.9375 3.25521 11.53 3.41187C10.9269 3.41187 10.2721 3.41187 9.73794 3.08447C9.54506 2.97723 9.34155 2.76905 9.34155 2.56744H21.886C22.265 2.56744 22.5581 2.86045 22.5753 3.23949Z" fill="#28B6F4"/>
<path d="M14.2354 1.82652C14.2082 4.24308 14.3098 4.61056 14.1148 5.11776C13.6375 6.88392 11.7886 6.38811 11.7886 4.37682V1.82652C11.7886 0.809927 12.3227 0 13.0119 0C13.0464 0 13.0809 -4.65661e-09 13.1153 0.017248C13.7357 0.0861358 14.2354 0.861566 14.2354 1.82652Z" fill="#E2212E"/>
<path d="M16.82 1.82652V4.37682C16.82 4.5146 16.8027 4.63523 16.8027 4.75586C16.6821 5.58293 16.1996 6.20334 15.6137 6.20334C14.9245 6.20334 14.3904 5.37617 14.3904 4.37682V1.82652C14.3904 0.809927 14.9245 0 15.6137 0C15.6482 0 15.6655 -4.65661e-09 15.6999 0.017248C16.3375 0.0689928 16.82 0.861566 16.82 1.82652Z" fill="#E2212E"/>
<path d="M19.4219 1.82652C19.3722 4.1361 19.5382 4.53817 19.2495 5.30728C18.6309 6.90544 16.9922 6.22526 16.9922 4.37682V1.82652C16.9922 0.827175 17.492 0.034496 18.164 0H18.2156C18.8877 0 19.4219 0.809927 19.4219 1.82652Z" fill="#E2212E"/>
<path d="M19.422 1.82652C19.3724 4.1361 19.5384 4.53817 19.2497 5.30728C19.0239 5.45808 18.6575 5.41389 18.4398 5.25553C17.8776 4.82317 17.9252 2.76809 17.9402 2.05053C17.9402 1.37535 17.9165 0.412975 18.1642 0H18.2158C18.8879 0 19.422 0.809927 19.422 1.82652Z" fill="#F72F43"/>
<path d="M16.8199 1.82651V4.37682C16.8199 4.51459 16.8026 4.63523 16.8026 4.75586C16.6813 4.99883 16.193 5.27009 15.8894 5.08326C15.6137 4.94538 15.562 4.60084 15.5275 4.30783C15.3724 2.96384 15.2863 1.58535 15.5964 0.275755C15.6137 0.189619 15.6482 0.103378 15.6998 0.0172424C16.3375 0.0689874 16.8199 0.86156 16.8199 1.82651Z" fill="#F72F43"/>
<path d="M14.2353 1.82651C14.2081 4.24308 14.3097 4.61055 14.1147 5.11775C13.8343 5.50316 13.2699 5.69031 13.0118 5.49679C12.4169 5.03385 12.7416 0.953058 13.1152 0.0172424C13.7356 0.0861301 14.2353 0.86156 14.2353 1.82651Z" fill="#F72F43"/>
<path d="M36.507 3.23949V3.34287C36.507 3.72202 36.1968 4.03217 35.8177 4.03217H23.2733C22.3538 4.03217 22.352 2.56744 23.2733 2.56744H35.8177C36.1968 2.56744 36.4898 2.86045 36.507 3.23949Z" fill="#095DA4"/>
<path d="M36.5069 3.23949C36.1376 3.3451 30.5434 3.33538 25.4616 3.41187C24.8585 3.41187 24.2038 3.41187 23.6696 3.08447C23.4767 2.97723 23.2732 2.76905 23.2732 2.56744H35.8177C36.1967 2.56744 36.4897 2.86045 36.5069 3.23949Z" fill="#28B6F4"/>
<path d="M28.167 1.82652C28.1399 4.24308 28.2414 4.61056 28.0464 5.11776C27.5692 6.88392 25.7202 6.38811 25.7202 4.37682V1.82652C25.7202 0.809927 26.2544 0 26.9436 0C26.9781 0 27.0126 -4.65661e-09 27.047 0.017248C27.6674 0.0861358 28.167 0.861566 28.167 1.82652Z" fill="#E2212E"/>
<path d="M30.7516 1.82652V4.37682C30.7516 5.24847 30.3077 6.20334 29.5454 6.20334C28.8562 6.20334 28.322 5.37617 28.322 4.37682V1.82652C28.322 0.809927 28.8562 0 29.5454 0C29.5799 0 29.5971 -4.65661e-09 29.6315 0.017248C30.2692 0.0689928 30.7516 0.861566 30.7516 1.82652Z" fill="#E2212E"/>
<path d="M33.3537 1.82652C33.3041 4.1361 33.4701 4.53817 33.1814 5.30728C32.5627 6.90544 30.9241 6.22526 30.9241 4.37682V1.82652C30.9241 0.827175 31.4238 0.034496 32.0959 0H32.1475C32.8196 0 33.3537 0.809927 33.3537 1.82652Z" fill="#E2212E"/>
<path d="M33.3537 1.82652C33.304 4.1361 33.47 4.53817 33.1813 5.30728C32.9556 5.45808 32.5891 5.41389 32.3715 5.25553C31.8092 4.82317 31.8568 2.76809 31.8718 2.05053C31.8718 1.37535 31.8481 0.412975 32.0958 0H32.1475C32.8195 0 33.3537 0.809927 33.3537 1.82652Z" fill="#F72F43"/>
<path d="M30.7518 1.82651V4.37682C30.7518 4.51459 30.7345 4.63523 30.7345 4.75586C30.6132 4.99883 30.1249 5.27009 29.8213 5.08326C29.5456 4.94538 29.4939 4.60084 29.4594 4.30783C29.3043 2.96384 29.2182 1.58535 29.5283 0.275755C29.5456 0.189619 29.5801 0.103378 29.6317 0.0172424C30.2694 0.0689874 30.7518 0.86156 30.7518 1.82651Z" fill="#F72F43"/>
<path d="M28.1669 1.82651C28.1397 4.24308 28.2413 4.61055 28.0463 5.11775C27.7659 5.50316 27.2016 5.69031 26.9435 5.49679C26.3485 5.03385 26.6732 0.953058 27.0468 0.0172424C27.6673 0.0861301 28.1669 0.86156 28.1669 1.82651Z" fill="#F72F43"/>
<path d="M37.403 67.0988V72.1304C37.403 73.1579 36.3477 73.9171 35.3353 73.4572C34.8183 73.2331 34.4565 72.7162 34.4565 72.1304V67.0988C34.4565 66.9265 34.6116 66.7714 34.7839 66.7714H37.0929C37.2653 66.7714 37.403 66.9265 37.403 67.0988Z" fill="#19345D"/>
<path d="M38.6437 6.5135V68.9253C38.6437 69.4767 38.2129 69.9248 37.6615 69.9248H34.198C33.6639 69.9248 33.2158 69.4767 33.2158 68.9253V6.5135C33.2158 5.54855 33.7156 4.72138 34.4737 4.23895C36.1606 3.1143 38.6437 4.28579 38.6437 6.5135Z" fill="#A5C0DD"/>
<path d="M38.6437 6.5135V13.7851C37.0589 12.2027 37.8911 8.42212 36.5242 5.96209C36.0762 5.16941 35.3352 4.49747 34.4736 4.23895C36.1606 3.1143 38.6437 4.28579 38.6437 6.5135Z" fill="black"/>
<path d="M38.6439 16.4904V66.3234C38.5749 66.3062 38.5233 66.2717 38.4715 66.2372C37.1103 65.4101 36.714 63.6181 36.49 62.0328C34.5601 48.5235 35.5078 34.7728 36.7829 21.1774C36.9551 19.437 37.2482 17.4726 38.6439 16.4904Z" fill="#D0DCEE"/>
<path d="M33.2151 18.4384H38.6434V32.1367H33.2151V18.4384Z" fill="#19345D"/>
<path d="M38.6439 18.4375V30.7752C38.058 30.9302 37.4032 30.8614 36.9207 30.5167C36.2142 29.9998 35.9902 29.0521 35.8697 28.1733C35.3699 24.951 35.1976 21.677 35.4733 18.4375H38.6439Z" fill="#095DA4"/>
<path d="M24.0488 67.0988V72.1304C24.0488 73.3196 22.7091 74.0121 21.7398 73.3193C21.3435 73.0609 21.1023 72.6301 21.1023 72.1304V67.0988C21.1023 66.9265 21.2401 66.7714 21.4297 66.7714H23.7386C23.911 66.7714 24.0488 66.9265 24.0488 67.0988Z" fill="#19345D"/>
<path d="M25.2895 6.51349V68.9253C25.2895 69.4767 24.8414 69.9248 24.3073 69.9248H20.8438C20.3096 69.9248 19.8616 69.4767 19.8616 68.9253V6.51349C19.8616 4.24757 22.5713 2.98355 24.2384 4.39397H24.2555C24.8931 4.87649 25.2895 5.65192 25.2895 6.51349Z" fill="#A5C0DD"/>
<path d="M10.6945 67.0988V72.1304C10.6945 73.4458 9.11546 74.0418 8.23047 73.2159C7.93757 72.9402 7.74805 72.5612 7.74805 72.1304V67.0988C7.74805 66.9265 7.88582 66.7714 8.0582 66.7714H10.3671C10.5568 66.7714 10.6945 66.9265 10.6945 67.0988Z" fill="#19345D"/>
<path d="M11.9352 68.9253C11.9352 69.4767 11.4872 69.9248 10.953 69.9248H7.48952C6.95536 69.9248 6.50732 69.4767 6.50732 68.9253V6.51349C6.50732 5.61743 6.93811 4.82475 7.61015 4.34233C7.6274 4.32508 7.6274 4.32508 7.64465 4.32508C9.11341 3.25153 11.1583 3.93401 11.7629 5.58293C12.0858 6.36746 11.8808 2.57419 11.9352 68.9253Z" fill="#A5C0DD"/>
<path d="M52.9468 79.1331C52.9468 79.1331 52.1025 79.3572 51.2754 78.0131C50.9319 78.0131 49.417 72.6832 46.6229 64.1591L44.5552 56.0776C44.1887 54.284 45.8827 62.5751 40.971 38.5361C38.3725 24.9925 38.5696 26.4513 38.731 26.1296C38.7653 26.0952 38.6371 26.2421 38.9895 25.8022C40.4166 31.2552 33.8196 6.04812 52.9468 79.1331Z" fill="#FF9F1C"/>
<path d="M52.9468 79.1331C52.9468 79.1331 52.1024 79.3571 51.2754 78.013C53.4073 79.5059 51.7372 77.075 51.0686 71.9476L52.9468 79.1331Z" fill="black"/>
<path d="M46.9329 25.6988C46.8858 25.887 45.899 26.5485 44.2449 26.612C43.3488 26.6637 42.4356 26.5776 41.5395 26.5947C41.0571 26.612 40.5573 26.6465 40.0921 26.4569C39.9543 26.4052 39.8164 26.3191 39.8164 26.1639C39.8644 25.8763 40.6823 25.5041 40.9192 24.2858C41.2836 23.9214 36.4094 3.63937 36.3701 3.4703C35.9643 1.76043 38.026 0.530653 39.3167 1.67828C39.6269 1.95393 39.8509 2.33308 39.9198 2.76386C40.0749 3.69431 40.2299 4.62477 40.4023 5.53808C41.0055 8.95675 43.8227 21.8776 45.4511 24.3203C45.8605 24.9347 45.9832 24.7397 46.7434 25.3369C46.8641 25.423 46.9846 25.5609 46.9329 25.6988Z" fill="#095DA4"/>
<path d="M46.9329 25.6988C46.8858 25.887 45.899 26.5485 44.2449 26.612C43.3488 26.6637 42.4356 26.5776 41.5395 26.5947C41.0571 26.612 40.5573 26.6465 40.0921 26.4569C39.9543 26.4052 39.8164 26.3191 39.8164 26.1639C39.8656 25.8689 40.6415 25.5634 40.9192 24.2858C41.2836 23.9214 36.4094 3.63937 36.3701 3.4703C35.9643 1.76043 38.026 0.530653 39.3167 1.67828C37.8865 6.07224 38.6792 10.9142 39.9887 15.36C41.0022 18.7835 42.3433 22.1568 45.3304 24.1479C45.3649 24.2169 45.4166 24.2685 45.4511 24.3203C45.8343 24.8954 45.9621 24.752 46.7434 25.3369C46.8641 25.423 46.9846 25.5609 46.9329 25.6988Z" fill="#19345D"/>
<path d="M46.933 25.6987C46.8858 25.8869 45.899 26.5485 44.2449 26.6119C43.3488 26.6637 42.4356 26.5776 41.5395 26.5947C41.0571 26.6119 40.5573 26.6464 40.0921 26.4569C39.9543 26.4052 39.8164 26.319 39.8164 26.1639C39.8337 26.0605 39.9198 25.9744 40.0059 25.8883C40.1783 25.7331 40.3161 25.5781 40.4367 25.3886L40.454 25.4058C41.3803 25.7917 44.8399 25.2626 46.5367 25.1818C46.7286 25.3257 47.01 25.4929 46.933 25.6987Z" fill="black"/>
<path d="M62.4756 77.9614C60.8559 78.5817 57.6336 79.4433 52.9467 79.1331C38.5015 23.9024 38.857 25.7676 39.0237 25.7676C39.6958 25.7504 45.1064 25.647 47.4844 25.5954C48.1564 25.5954 48.725 26.0262 48.9146 26.6465C66.6345 87.4401 62.2455 72.3823 63.3543 76.1865C63.5588 77.0031 63.1511 77.7125 62.4756 77.9614Z" fill="#FFCA28"/>
<path d="M40.9192 24.2858C41.1857 24.0193 38.4085 11.9934 37.0249 6.17563C37.1931 6.14389 40.6187 5.49722 40.4023 5.53808C41.6891 12.831 44.0121 21.1047 44.9341 23.407H44.9513C44.9513 23.4587 44.9685 23.4931 44.9858 23.5276L40.9192 24.2858Z" fill="#E2212E"/>
<path d="M63.389 76.3933C61.4524 77.3615 58.19 76.7884 55.8934 74.3427C54.0324 72.344 53.0847 69.6903 52.2403 67.0883C49.0352 57.1459 46.7608 46.9105 45.5028 36.5372C45.2444 34.5039 45.0548 32.35 45.7614 30.4201C46.3128 28.921 47.5706 27.5941 49.0697 27.1806C64.0876 78.7219 63.389 76.2249 63.389 76.3933Z" fill="#FFD880"/>
<path d="M44.9343 23.407C44.1933 23.2519 43.5214 22.6143 43.0733 21.9423C42.0222 20.3742 41.5915 18.4788 41.1778 16.6178C40.4196 13.1371 39.6443 9.63915 39.3858 6.0895C39.3686 5.96887 39.3858 5.84824 39.4031 5.7276L40.4025 5.53809C41.6893 12.831 44.0123 21.1047 44.9343 23.407Z" fill="#F72F43"/>
<path d="M55.8284 59.4826C56.0584 59.3658 56.1968 59.1136 56.2343 58.8584C56.3282 58.219 55.7787 56.4647 54.4534 55.1921C53.3942 54.1751 52.8377 55.4832 53.0543 56.4901C53.299 57.6276 54.8096 59.9997 55.8284 59.4826Z" fill="#FFCA28"/>
<path d="M53.8691 51.9651C54.1777 51.8085 54.164 51.4254 54.0761 51.0893C53.8948 50.3962 53.5186 49.7553 53.0019 49.2591C52.3339 48.6177 51.9829 49.4427 52.1195 50.0778C52.2738 50.7952 53.2266 52.2913 53.8691 51.9651Z" fill="#FFCA28"/>
<path d="M25.2895 7.34058V66.1166C24.6537 66.2075 23.4368 65.5723 22.8944 64.1351C22.5497 63.239 22.5153 62.2568 22.4808 61.2919C21.8949 44.8876 21.3091 28.4317 22.567 12.0447C22.6531 10.8041 22.791 9.47724 23.5147 8.46065C23.9282 7.87474 24.6002 7.46121 25.2895 7.34058Z" fill="#D0DCEE"/>
<path d="M11.9351 7.30606V65.1344C10.8718 65.38 9.51104 64.6827 8.88513 63.1701C8.4716 62.1707 8.41985 61.0678 8.38546 59.9822C8.00632 48.2995 8.28208 36.6166 8.55773 24.9338C8.66112 20.1779 8.78175 15.3532 9.91897 10.7179C10.2428 9.3726 10.6849 7.99392 11.9351 7.30606Z" fill="#D0DCEE"/>
<path d="M24.2384 4.39395C23.1184 3.98041 21.8777 4.01491 20.8093 4.48019C21.7324 3.62551 23.2689 3.57366 24.2384 4.39395Z" fill="black"/>
<path d="M11.7627 5.58293C11.3889 5.11548 11.1182 4.7383 10.4187 4.29058C9.86165 3.9564 8.73696 3.85018 7.64453 4.32508C9.11329 3.25153 11.1582 3.93401 11.7627 5.58293Z" fill="black"/>
<path d="M6.50684 18.4384H11.9352V32.1367H6.50684V18.4384Z" fill="#19345D"/>
<path d="M11.9351 18.4375V30.7752C11.3492 30.9302 10.6944 30.8614 10.212 30.5167C9.50545 29.9998 9.28144 29.0521 9.16091 28.1733C8.66114 24.951 8.48886 21.677 8.76452 18.4375H11.9351Z" fill="#095DA4"/>
<path d="M19.8618 18.4384H25.2902V32.1367H19.8618V18.4384Z" fill="#19345D"/>
<path d="M25.2896 18.4375V30.7752C24.7037 30.9302 24.0489 30.8614 23.5665 30.5167C22.8599 29.9998 22.6359 29.0521 22.5154 28.1733C22.0156 24.951 21.8434 21.677 22.119 18.4375H25.2896Z" fill="#095DA4"/>
<path d="M37.4031 70.3038V72.1304C37.4031 73.1579 36.3478 73.9171 35.3353 73.4572C35.1976 73.2677 35.0942 73.0436 35.0769 72.8024C34.9795 71.7805 36.0566 70.1758 37.4031 70.3038Z" fill="#095DA4"/>
<path d="M24.0487 70.3383V72.1304C24.0487 73.3196 22.7091 74.0121 21.7398 73.3193C21.5897 73.0694 21.6325 72.5717 21.7226 72.2338C22.0524 70.987 23.0556 70.2673 24.0487 70.3383Z" fill="#095DA4"/>
<path d="M10.6946 70.4073V72.1304C10.6946 73.4458 9.11549 74.0418 8.2305 73.2159C8.19455 72.1743 8.93525 71.4438 9.78137 70.8552C10.057 70.6657 10.3672 70.4762 10.6946 70.4073Z" fill="#095DA4"/>
<path d="M22.9847 47.8097C23.0333 47.537 23.1262 47.2349 23.3737 47.1108C23.589 47.0028 23.8616 47.0736 24.0454 47.2293C24.5382 47.6468 24.9712 49.2539 24.3272 50.7016C23.9636 51.519 23.0637 51.2385 22.948 50.4293C22.8313 49.6141 22.841 48.6172 22.9847 47.8097Z" fill="#A5C0DD"/>
<path d="M23.5819 43.131C23.9932 42.9248 24.4038 43.9281 24.0217 44.7871C23.854 45.1642 23.439 45.0348 23.3856 44.6616C23.3387 44.334 23.2853 43.2797 23.5819 43.131Z" fill="#A5C0DD"/>
<path d="M75.7218 48.8218C75.2042 50.7423 74.0464 52.3769 72.4799 53.5075C72.4205 53.5668 72.271 53.6676 72.1939 53.7254H72.1803C71.8125 53.9705 71.4311 54.1749 71.0225 54.3656H71.0089C70.7637 54.4881 70.4913 54.5971 70.2325 54.6789C69.3471 54.9921 68.4072 55.1557 67.4401 55.1557C62.6863 55.1557 58.8315 51.3145 58.8315 46.5607C58.8315 41.6678 62.8713 37.849 67.6308 37.9656C73.2749 38.0812 77.2178 43.5365 75.7218 48.8218Z" fill="#F72F43"/>
<path d="M75.7218 48.8218C75.2042 50.7423 74.0464 52.3769 72.4799 53.5075C72.4205 53.5669 72.271 53.6676 72.1939 53.7254H72.1803C71.8125 53.9706 71.4311 54.1749 71.0225 54.3656H71.0089C70.7637 54.4882 70.4913 54.5972 70.2325 54.6789C69.3471 54.9922 68.4072 55.1557 67.4401 55.1557C62.6863 55.1557 58.8315 51.3145 58.8315 46.5607C58.8315 44.0407 59.9076 41.766 61.6375 40.2132C59.9869 45.2473 63.5495 50.0061 68.2983 50.47C70.859 50.7152 73.2972 49.7072 75.7218 48.8218Z" fill="#E2212E"/>
<path d="M67.0587 37.9656C67.0315 38.0202 67.0315 38.0883 67.0724 38.1292C67.1149 38.2142 67.2597 38.2143 67.3039 38.17C67.4129 38.1019 67.5082 38.0202 67.6172 37.9656C67.5159 37.9405 67.1625 37.9542 67.0587 37.9656ZM66.0644 38.7966C65.7511 39.1235 65.4514 39.4777 65.179 39.8454C65.11 39.9489 65.1682 40.1178 65.3153 40.1178C65.5278 40.1178 65.4546 39.8965 66.3096 39.0418C66.472 38.8794 66.2268 38.6342 66.0644 38.7966ZM64.4707 41.0169C64.2664 41.4255 64.0893 41.8614 63.9531 42.2973C63.8856 42.5331 64.2062 42.5907 64.28 42.4062C64.4162 41.9839 64.5797 41.5753 64.7704 41.1803C64.8789 40.9634 64.5629 40.8324 64.4707 41.0169ZM63.6398 43.6321C63.5418 44.2591 63.5527 44.724 63.5444 45.0079C63.5444 45.2303 63.885 45.2175 63.885 45.0079C63.8906 44.8219 63.8729 44.3525 63.9803 43.6866C64.0093 43.4836 63.679 43.3971 63.6398 43.6321ZM63.994 46.3154C63.9575 46.0969 63.6189 46.163 63.6534 46.37C63.7351 46.8331 63.8441 47.2826 63.9803 47.7048C64.0557 47.9309 64.3733 47.8076 64.3072 47.6095C64.171 47.1872 64.062 46.7513 63.994 46.3154ZM65.5195 49.9387C65.2607 49.5846 65.0155 49.2168 64.8248 48.8218C64.6985 48.6321 64.425 48.783 64.5116 48.9852C64.7295 49.3802 64.9747 49.7753 65.2471 50.143C65.3385 50.3258 65.6611 50.1509 65.5195 49.9387ZM67.3856 51.8048C67.0315 51.546 66.6909 51.2599 66.3777 50.9467C66.2183 50.7873 65.9901 51.0138 66.1325 51.1918C66.4594 51.5051 66.8136 51.8048 67.1813 52.0773C67.4555 52.1688 67.5357 51.9048 67.3856 51.8048ZM69.7421 52.9899C69.3199 52.8537 68.9112 52.6902 68.5162 52.4859C68.3132 52.3843 68.1556 52.6953 68.3664 52.7855C68.775 53.0035 69.1973 53.1669 69.6331 53.3167H69.6876C69.8962 53.3167 69.9105 53.046 69.7421 52.9899ZM72.3165 53.3848C71.8806 53.3848 71.4448 53.3577 71.0225 53.2895C70.9408 53.2759 70.8455 53.344 70.8318 53.4394C70.8182 53.5211 70.8863 53.6165 70.968 53.63C71.3766 53.6982 71.7717 53.7254 72.1803 53.7254H72.1939C72.271 53.6676 72.4205 53.5669 72.4799 53.5075C72.4664 53.4394 72.3982 53.3848 72.3165 53.3848Z" fill="#F2F8FD"/>
<path d="M65.0699 38.4015C64.7158 38.6876 64.3888 39.0145 64.0756 39.3414C63.9331 39.5198 64.1743 39.7331 64.3344 39.573C64.6204 39.246 64.9473 38.9464 65.2879 38.674C65.4505 38.5113 65.262 38.2737 65.0699 38.4015ZM63.2311 40.4175C62.9859 40.7989 62.7543 41.1939 62.55 41.6026C62.4766 41.8591 62.7912 41.9329 62.8633 41.7524C63.054 41.3574 63.272 40.976 63.5171 40.6081C63.6434 40.4186 63.3523 40.2356 63.2311 40.4175ZM62.0597 42.8829C61.937 43.3188 61.8281 43.7683 61.7736 44.2178C61.74 44.4526 62.1005 44.4875 62.1005 44.2723C62.1687 43.8364 62.2639 43.4006 62.3866 42.9783C62.4571 42.7669 62.1279 42.6785 62.0597 42.8829ZM62.0188 45.5799C62.0188 45.3711 61.6782 45.356 61.6782 45.5799C61.6782 46.0431 61.7191 46.5061 61.7872 46.942C61.8221 47.1863 62.1812 47.1022 62.1141 46.9012C62.0597 46.4653 62.0188 46.0294 62.0188 45.5799ZM62.9042 49.4075C62.7134 49.0125 62.55 48.6039 62.4138 48.1815C62.3535 47.9707 62.0319 48.0707 62.1005 48.2769C62.2367 48.7128 62.4002 49.1487 62.6045 49.5573C62.7062 49.7608 63.0026 49.6046 62.9042 49.4075ZM64.4025 51.5596C64.1028 51.2463 63.8168 50.9058 63.5716 50.5381C63.4422 50.3439 63.1609 50.5727 63.2855 50.7288C63.5443 51.1101 63.844 51.4643 64.1437 51.7912C64.3037 51.9513 64.5452 51.7378 64.4025 51.5596ZM66.4593 53.1942C66.0779 52.9762 65.7101 52.731 65.3696 52.4586C65.1937 52.3179 64.9775 52.5783 65.1517 52.7174C65.5194 53.0035 65.9008 53.2623 66.2958 53.4938C66.4503 53.6483 66.6658 53.3318 66.4593 53.1942ZM68.9111 54.1476C68.4752 54.0523 68.0529 53.9161 67.6443 53.7663C67.4437 53.6659 67.3181 54.0118 67.5218 54.0795C67.944 54.243 68.3935 54.3792 68.8293 54.4746C68.843 54.4881 68.8566 54.4881 68.8702 54.4881C69.0535 54.4881 69.1214 54.2077 68.9111 54.1476ZM70.2051 54.3383C70.1234 54.3247 70.0417 54.4064 70.028 54.5018C70.028 54.5835 70.0961 54.6652 70.1915 54.6789H70.2324C70.4912 54.5971 70.7636 54.4881 71.0088 54.3656C70.8124 54.361 70.8658 54.3797 70.2051 54.3383Z" fill="#F2F8FD"/>
<path d="M69.603 46.8156C70.2524 47.343 70.8722 47.001 70.7596 46.1282C70.6109 44.975 69.6693 44.1927 69.2237 44.2417C67.9774 44.3786 69.1488 46.4467 69.603 46.8156Z" fill="#E2212E"/>
<path d="M70.4642 43.3091C70.7668 43.5548 71.0556 43.3955 71.0032 42.9888C70.9339 42.4514 70.4951 42.0869 70.2875 42.1097C69.7067 42.1736 70.2526 43.1372 70.4642 43.3091Z" fill="#E2212E"/>
<path d="M51.3541 74.1745L39.746 29.6432C39.6754 29.3743 40.0811 29.2764 40.1497 29.5374L51.7577 74.0687C51.8279 74.3358 51.4235 74.4406 51.3541 74.1745Z" fill="black"/>
<path d="M60.3336 66.4954L49.2757 28.5535C49.1971 28.2864 49.6026 28.1734 49.6761 28.4363L60.734 66.3782C60.8124 66.6446 60.4099 66.7601 60.3336 66.4954Z" fill="black"/>
<path d="M74.9708 42.7348C73.4507 40.2478 70.8318 38.5039 68.1365 38.1824C65.2394 37.8447 62.3016 39.1476 60.7912 41.4327C60.6328 41.6607 60.2915 41.4322 60.4428 41.2032C62.0395 38.7895 65.158 37.4085 68.1854 37.769C71.0467 38.11 73.716 39.8849 75.3257 42.5167C75.4698 42.7524 75.1151 42.9693 74.9708 42.7348Z" fill="black"/>
<path d="M25.3564 65.0615L25.0813 7.34178C25.0813 7.06254 25.498 7.06489 25.498 7.34015L25.773 65.0599C25.773 65.3391 25.3564 65.3368 25.3564 65.0615Z" fill="black"/>
<path d="M6.27783 66.6036L6.17041 12.7715C6.17041 12.4915 6.58708 12.4951 6.58708 12.7698L6.6945 66.602C6.6945 66.8819 6.27783 66.8784 6.27783 66.6036Z" fill="black"/>
</svg>
