<svg width="77" height="80" viewBox="0 0 77 80" fill="none" xmlns="http://www.w3.org/2000/svg">
<path d="M42.8819 77.1269V15.886C42.8819 13.2797 40.9238 10.9354 38.3175 10.7975C35.5319 10.6458 33.229 12.866 33.229 15.6102V77.1269C33.229 77.9405 33.8909 78.6024 34.7045 78.6024H41.4064C42.22 78.6024 42.8819 77.9405 42.8819 77.1269Z" fill="#FBDB0C"/>
<path d="M42.8819 27.566V34.4748L33.229 34.4334V27.566H42.8819Z" fill="#C2623E"/>
<path d="M61.2362 77.4716L72.1302 32.8337C72.7508 30.2964 71.3994 27.5522 68.9034 26.8076C66.2282 26.0077 63.4702 27.6074 62.8221 30.2826L51.473 76.7683C51.2386 77.7061 51.9556 78.6024 52.9071 78.6024H59.8021C60.4778 78.6024 61.0707 78.1336 61.2362 77.4716Z" fill="#FBDB0C"/>
<path d="M69.3583 44.2104L67.7311 50.8848L58.354 48.5818L59.9812 41.8937L69.3583 44.2104Z" fill="#C2623E"/>
<path d="M25.4515 76.8924L17.6465 27.566C17.2328 24.9873 14.9436 22.9739 12.3373 23.2497C9.56558 23.5393 7.63499 26.0905 8.06248 28.8071L15.7435 77.3613C15.8538 78.0784 16.4743 78.6162 17.2052 78.6162H23.9898C24.8999 78.6162 25.5894 77.8026 25.4515 76.9062V76.8924Z" fill="#FBDB0C"/>
<path d="M16.3916 12.3695L15.1367 5.57113C14.7781 3.64054 12.9303 2.37187 10.9997 2.73041C9.06913 3.08895 7.80046 4.93679 8.159 6.86738L9.41388 13.6658C9.77241 15.5964 11.6203 16.8651 13.5508 16.5065C15.4814 16.148 16.7501 14.3001 16.3916 12.3695Z" fill="#FBDB0C"/>
<path d="M23.3693 11.0733L22.1145 4.27486C21.7559 2.34428 19.9081 1.07561 17.9775 1.43414C16.0469 1.79268 14.7782 3.64053 15.1368 5.57111L16.3917 12.3695C16.7502 14.3001 18.598 15.5688 20.5286 15.2102C22.4592 14.8517 23.7279 13.0039 23.3693 11.0733Z" fill="#FBDB0C"/>
<path d="M8.25547 7.35004L3.59448 8.20501C2.42234 8.42565 1.63632 9.55642 1.85695 10.7286L2.14654 12.273C2.36718 13.4452 3.49795 14.2312 4.67009 14.0106L9.33108 13.1556L8.25547 7.35004Z" fill="#C2623E"/>
<path d="M29.6851 7.19834L29.3955 5.65387C29.1748 4.48173 28.0441 3.6957 26.8719 3.91634L22.2109 4.77132L23.2866 10.5769L27.9475 9.72189C29.1197 9.50125 29.9057 8.37048 29.6851 7.19834Z" fill="#C2623E"/>
<path d="M60.5744 4.31626C58.7266 3.68192 56.6995 4.67479 56.0789 6.53643L53.8587 13.0728C53.2244 14.9207 54.2173 16.9478 56.0789 17.5683C57.9268 18.2027 59.9539 17.2098 60.5744 15.3482L62.7946 8.81176C63.4289 6.96392 62.4361 4.9368 60.5744 4.31626Z" fill="#FBDB0C"/>
<path d="M67.29 6.60538C65.4422 5.97104 63.415 6.96392 62.7945 8.82555L60.5743 15.362C59.94 17.2098 60.9329 19.2369 62.7945 19.8575C64.6423 20.4918 66.6695 19.4989 67.29 17.6373L69.5102 11.1009C70.1445 9.25304 69.1516 7.22593 67.29 6.60538Z" fill="#FBDB0C"/>
<path d="M51.4315 5.4746C50.3008 5.08849 49.0735 5.69524 48.6873 6.82601L48.1771 8.31532C47.791 9.44609 48.3978 10.6734 49.5285 11.0595L54.0102 12.5902L55.9133 7.00528L51.4315 5.4746Z" fill="#C2623E"/>
<path d="M73.8403 13.1004L69.3586 11.5698L67.4556 17.1547L71.9373 18.6853C73.0681 19.0715 74.2954 18.4647 74.6815 17.3339L75.1917 15.8446C75.5778 14.7139 74.9711 13.4866 73.8403 13.1004Z" fill="#C2623E"/>
<path d="M20.5285 45.8652L10.9997 47.3959L9.92407 40.5699L19.4529 39.053L20.5285 45.8652Z" fill="#C2623E"/>
<path d="M53.793 58.2911C61.3812 56.4974 66.0785 48.8919 64.2848 41.3038C62.4911 33.7156 54.8856 29.0182 47.2974 30.812C39.7093 32.6057 35.0119 40.2112 36.8057 47.7993C38.5994 55.3875 46.2049 60.0848 53.793 58.2911Z" fill="#1EB05E"/>
<path d="M30.7467 5.40565C30.3882 3.48886 28.5403 2.2064 26.6235 2.56493L23.2312 3.18548C22.4038 1.00667 20.1147 -0.358525 17.7428 0.0827513C16.4466 0.31718 15.3296 1.04804 14.5849 2.13745C14.5711 2.16503 14.5574 2.19261 14.5298 2.22019C14.5022 2.2064 14.4746 2.17882 14.447 2.15124C13.3576 1.40658 12.0614 1.11699 10.7651 1.36521C9.46888 1.59964 8.3519 2.3305 7.60724 3.41991C7.02807 4.26109 6.73848 5.22638 6.73848 6.23305L3.34617 6.85359C1.42937 7.21213 0.14691 9.05997 0.505448 10.9768L0.795035 12.5212C0.960514 13.459 1.48453 14.2588 2.27055 14.7966C2.86352 15.2103 3.5668 15.4171 4.27009 15.4171C4.49073 15.4171 4.69758 15.4033 4.91821 15.362L8.31053 14.7414C8.65528 15.6791 9.27582 16.4789 10.117 17.0581C10.9444 17.6373 11.9097 17.9269 12.9026 17.9269C13.2059 17.9269 13.5093 17.8993 13.8127 17.8441C15.1089 17.6097 16.2259 16.8788 16.9706 15.7894C16.9844 15.7619 16.9982 15.7343 17.0257 15.7067C17.0533 15.7205 17.0809 15.7481 17.1085 15.7757C17.9359 16.3548 18.9012 16.6444 19.894 16.6444C20.1974 16.6444 20.5008 16.6168 20.7904 16.5617C23.1622 16.1204 24.817 14.0381 24.817 11.7076L28.2093 11.0871C29.1471 10.9216 29.9469 10.3976 30.4847 9.61157C31.0225 8.82555 31.2293 7.88783 31.0501 6.96391L30.7605 5.41944L30.7467 5.40565ZM4.42178 12.6591C4.21493 12.7005 4.00808 12.6591 3.82881 12.535C3.66333 12.4109 3.53922 12.2317 3.49786 12.0248L3.20827 10.4803C3.12553 10.0528 3.41512 9.63915 3.8426 9.5702L7.15218 8.96344L7.71756 12.0524L4.40799 12.6591H4.42178ZM14.6952 14.2312C14.3643 14.7138 13.8679 15.031 13.3025 15.1275C12.7371 15.2378 12.1579 15.1137 11.6753 14.7828C11.1926 14.4518 10.8755 13.9554 10.7789 13.39L9.52404 6.59158C9.41372 6.0262 9.53783 5.44702 9.86879 4.96438C10.1997 4.48173 10.6962 4.16456 11.2616 4.06803C11.827 3.9715 12.4061 4.08182 12.8888 4.41278C13.3714 4.74374 13.6886 5.24017 13.7851 5.80556L15.04 12.604C15.1503 13.1694 15.0262 13.7485 14.6952 14.2312ZM20.2802 13.8451C19.108 14.0657 17.9772 13.2797 17.7566 12.1075L16.5017 5.30912C16.3914 4.74374 16.5155 4.16456 16.8465 3.68191C17.1774 3.19927 17.6739 2.8821 18.2393 2.78557C18.3772 2.75799 18.5013 2.7442 18.6392 2.7442C19.6596 2.7442 20.5835 3.47507 20.7766 4.5231L22.0315 11.3215C22.2521 12.4937 21.4661 13.6244 20.2939 13.8451H20.2802ZM28.1956 8.03952C28.0714 8.205 27.8922 8.32911 27.6853 8.37048L24.3758 8.97723L23.8104 5.8883L27.1199 5.28154C27.5474 5.1988 27.9611 5.48839 28.0301 5.91588L28.3197 7.46035C28.361 7.66719 28.3197 7.87404 28.1956 8.05331V8.03952ZM74.2814 11.7904L71.0132 10.6872C71.1649 9.7081 71.0132 8.70144 70.5719 7.77751C69.9927 6.59158 68.9861 5.70903 67.745 5.29533C66.4212 4.84027 65.0422 4.99195 63.8976 5.59871C63.346 4.42657 62.3531 3.46128 61.0293 3.02C59.7882 2.59251 58.4506 2.68904 57.2647 3.26822C56.3545 3.72328 55.6237 4.42657 55.141 5.29533L51.8728 4.19214C50.9765 3.88876 50.0112 3.94392 49.17 4.37141C48.315 4.78511 47.6807 5.51597 47.3773 6.41231L46.8671 7.90162C46.5637 8.79797 46.6189 9.76326 47.0463 10.6044C47.4738 11.4456 48.1909 12.0938 49.0873 12.3971L52.3555 13.5003C52.2038 14.4794 52.3555 15.4861 52.7967 16.41C53.3759 17.5959 54.3826 18.4785 55.6237 18.8922C56.1477 19.0714 56.6855 19.1542 57.2095 19.1542C57.9542 19.1542 58.6988 18.9887 59.3745 18.644C59.4021 18.6302 59.4297 18.6026 59.4573 18.5888C60.0089 19.7609 61.0017 20.7262 62.3256 21.1675C62.8496 21.3468 63.3874 21.4295 63.9114 21.4295C65.6765 21.4295 67.3451 20.4642 68.2138 18.8922L71.4683 19.9954C71.8406 20.1195 72.2267 20.1884 72.6128 20.1884C73.1506 20.1884 73.6746 20.0643 74.1711 19.8161C75.026 19.4024 75.6604 18.6715 75.9638 17.7752L76.474 16.2859C77.1083 14.438 76.1154 12.4247 74.2676 11.7904H74.2814ZM53.1553 10.8389L49.9698 9.76326C49.7767 9.69431 49.6113 9.55641 49.5147 9.36335C49.4182 9.17029 49.4044 8.96345 49.4734 8.7566L49.9836 7.26729C50.0525 7.07423 50.1904 6.90875 50.3835 6.81222C50.5766 6.71569 50.7834 6.7019 50.9903 6.77085L54.1757 7.84646L53.1691 10.8251L53.1553 10.8389ZM61.4844 8.37048L59.2642 14.9069C59.0711 15.4585 58.685 15.8998 58.1748 16.148C57.6508 16.41 57.0716 16.4376 56.52 16.2583C55.9684 16.079 55.5271 15.6791 55.2789 15.1689C55.0169 14.6449 54.9893 14.0657 55.1686 13.5141L57.3888 6.9777C57.5818 6.4261 57.9679 5.98483 58.4782 5.73661C58.7815 5.58492 59.1125 5.51597 59.4297 5.51597C59.6641 5.51597 59.8985 5.55734 60.133 5.62629C61.2637 6.01241 61.8705 7.23971 61.4844 8.37048ZM68.2001 10.6596L65.9799 17.196C65.7868 17.7476 65.4007 18.1889 64.8905 18.4371C64.3665 18.6991 63.7873 18.7267 63.2357 18.5474C62.1049 18.1613 61.4982 16.934 61.8843 15.8032L64.1044 9.26682C64.2975 8.71523 64.6836 8.27395 65.1938 8.02573C65.7041 7.77751 66.297 7.73614 66.8486 7.91541C67.4002 8.10847 67.8415 8.49459 68.0897 9.00481C68.3517 9.52883 68.3793 10.108 68.2001 10.6596ZM73.8815 15.4033L73.3713 16.8926C73.3023 17.0857 73.1644 17.2512 72.9714 17.3477C72.7783 17.4442 72.5714 17.458 72.3646 17.3891L69.1791 16.3135L70.1858 13.3348L73.3713 14.4105C73.785 14.5484 74.0056 15.0034 73.8677 15.4033H73.8815ZM16.4741 23.0291C15.1365 22.0501 13.4955 21.6639 11.8545 21.9259C10.2135 22.188 8.77938 23.0705 7.8003 24.4081C6.82122 25.7458 6.4351 27.3867 6.69711 29.0277L14.5711 78.8231C14.6815 79.4988 15.2606 79.9814 15.9363 79.9814C16.0053 79.9814 16.0742 79.9814 16.157 79.9676C16.9154 79.8435 17.4256 79.1402 17.3015 78.3956L12.5854 48.5542L19.3976 47.4786L24.362 78.8368C24.4861 79.5953 25.2032 80.1055 25.934 79.9814C26.6925 79.8573 27.2027 79.154 27.0786 78.4094L18.9563 27.0972C18.6943 25.4562 17.8118 24.022 16.4741 23.0429V23.0291ZM9.42751 28.5865C9.28961 27.6763 9.49646 26.7662 10.0481 26.0215C10.5859 25.2769 11.3857 24.7942 12.2958 24.6426C13.2059 24.4909 14.1161 24.7115 14.8607 25.2631C15.6054 25.8009 16.088 26.6007 16.2397 27.5109L17.8945 37.936L11.0823 39.0116L9.4413 28.5865H9.42751ZM12.1579 45.8101L11.5098 41.7282L18.322 40.6526L18.9701 44.7344L12.1579 45.8101ZM56.5614 38.4049V42.5281C56.5614 43.2865 55.9408 43.907 55.1824 43.907C54.4239 43.907 53.8034 43.2865 53.8034 42.5281V38.4049C53.8034 37.6464 54.4239 37.0259 55.1824 37.0259C55.9408 37.0259 56.5614 37.6464 56.5614 38.4049ZM56.5614 46.6374V50.7606C56.5614 51.5191 55.9408 52.1396 55.1824 52.1396C54.4239 52.1396 53.8034 51.5191 53.8034 50.7606V46.6374C53.8034 45.879 54.4239 45.2585 55.1824 45.2585C55.9408 45.2585 56.5614 45.879 56.5614 46.6374ZM47.2946 38.4049V42.5281C47.2946 43.2865 46.674 43.907 45.9156 43.907C45.1571 43.907 44.5366 43.2865 44.5366 42.5281V38.4049C44.5366 37.6464 45.1571 37.0259 45.9156 37.0259C46.674 37.0259 47.2946 37.6464 47.2946 38.4049ZM47.2946 46.6374V50.7606C47.2946 51.5191 46.674 52.1396 45.9156 52.1396C45.1571 52.1396 44.5366 51.5191 44.5366 50.7606V46.6374C44.5366 45.879 45.1571 45.2585 45.9156 45.2585C46.674 45.2585 47.2946 45.879 47.2946 46.6374ZM68.9861 25.401C67.3727 25.0149 65.7041 25.2631 64.2975 26.1319C62.8771 26.9868 61.8843 28.352 61.4982 29.9655L60.7673 32.9579C58.0369 30.5584 54.4653 29.0967 50.5628 29.0967C48.3288 29.0967 46.1914 29.5793 44.2746 30.4481V15.624C44.2746 12.2041 41.489 9.41851 38.0691 9.41851C34.6492 9.41851 31.8637 12.2041 31.8637 15.624V78.6162C31.8637 79.3747 32.4704 79.9952 33.2427 79.9952C34.0149 79.9952 34.6217 79.3747 34.6217 78.6162V35.8675H37.7657C36.0558 38.3497 35.0629 41.3559 35.0629 44.5965C35.0629 49.7677 37.6141 54.3322 41.5166 57.1591V78.6162C41.5166 79.3747 42.1371 79.9952 42.8956 79.9952C43.654 79.9952 44.2746 79.3747 44.2746 78.6162V58.745C46.2052 59.5999 48.3288 60.0964 50.5628 60.0964C51.8314 60.0964 53.0725 59.9309 54.2585 59.6275L49.7078 78.2853C49.5285 79.0299 49.9836 79.7746 50.7145 79.9538C50.8248 79.9814 50.9351 79.9952 51.0454 79.9952C51.666 79.9952 52.2313 79.5677 52.383 78.9472L57.375 58.4967C60.4225 57.0074 62.8909 54.5391 64.4078 51.5191L66.0626 51.919L59.6227 78.2853C59.4435 79.0299 59.8985 79.7746 60.6294 79.9538C60.7397 79.9814 60.85 79.9952 60.9604 79.9952C61.5809 79.9952 62.1463 79.5677 62.298 78.9472L73.5367 32.9165C73.9366 31.3031 73.6746 29.6345 72.8059 28.2279C71.9509 26.8076 70.5857 25.8147 68.9723 25.4286L68.9861 25.401ZM34.6079 15.6102C34.6079 13.7072 36.1523 12.1627 38.0553 12.1627C39.9583 12.1627 41.5028 13.7072 41.5028 15.6102V26.2008H34.6079V15.6102ZM34.6079 33.0958V28.9588H41.5028V32.0202C41.0477 32.3511 40.6065 32.7096 40.179 33.0958H34.6079ZM49.17 57.2557C48.5219 57.1867 47.9013 57.0626 47.2946 56.8971V54.8838C47.2946 54.1254 46.674 53.5048 45.9156 53.5048C45.1571 53.5048 44.5366 54.1254 44.5366 54.8838V55.8215C40.5375 53.6703 37.8071 49.4506 37.8071 44.5827C37.8071 39.7149 40.5375 35.4952 44.5366 33.344V34.2817C44.5366 35.0401 45.1571 35.6607 45.9156 35.6607C46.674 35.6607 47.2946 35.0401 47.2946 34.2817V32.2684C47.9013 32.1029 48.5219 31.9788 49.17 31.9098V57.2419V57.2557ZM56.5614 55.8215V54.8838C56.5614 54.1254 55.9408 53.5048 55.1824 53.5048C54.4239 53.5048 53.8034 54.1254 53.8034 54.8838V56.8971C53.1966 57.0626 52.5761 57.1867 51.928 57.2557V31.9236C52.5623 31.9926 53.1828 32.1167 53.8034 32.2822V34.2955C53.8034 35.0539 54.4239 35.6745 55.1824 35.6745C55.9408 35.6745 56.5614 35.0539 56.5614 34.2955V33.3578C60.5604 35.509 63.2908 39.7287 63.2908 44.5827C63.2908 49.4368 60.5604 53.6703 56.5614 55.8077V55.8215ZM66.7107 49.2437L65.4145 48.9266C65.8006 47.6165 66.0074 46.2375 66.035 44.8172L67.6898 45.2171L66.7107 49.2299V49.2437ZM70.8615 32.2546L68.3517 42.5418L65.8144 41.9213C65.3869 39.5081 64.4078 37.2879 63.015 35.3987L64.1872 30.6274C64.4078 29.731 64.9594 28.9726 65.7454 28.5037C66.5315 28.0211 67.4554 27.8832 68.3517 28.1038C69.2481 28.3245 70.0065 28.8761 70.4754 29.6621C70.958 30.4481 71.0959 31.372 70.8753 32.2684L70.8615 32.2546Z" fill="#614092"/>
</svg>
